<?xml version="1.0" encoding="UTF-8"?>
<svg id="Lager_1" xmlns="http://www.w3.org/2000/svg" viewBox="0 0 587.48 254.71">
  <defs>
    <style>
      .cls-1 {
        fill: #1d1d1b;
      }
    </style>
  </defs>
  <path class="cls-1" d="M10.38,229.72c-.38-.11-.59-.42-.61-.92,0-.13.12-.07.39.17.26.11.51.1.76-.03.25-.14.42-.52.52-1.16-.06-1.39-.35-2.13-.86-2.23-.27-.24-.5-.58-.71-1.01-.21-.43-.4-1.15-.57-2.15-.18-1.13-.23-2.39-.17-3.78-.05-1.13.01-2.59.19-4.36l.03-3.6.38-4.37c.14-2.66.26-4.11.38-4.37l.02-3.79.39-3.99.61-3.43c-.06-1.26.03-2.15.26-2.66l-.07-1.51.81-7.42c.2-1.27.43-3.17.7-5.71l.09-2.28c.1-.51.13-1.39.07-2.65s.15-2.4.61-3.43c.11-.38.37-1.72.77-4.01.5-2.92.81-4.52.93-4.77.65-2.55.93-4.65.86-6.29l-.09-2.08,1.96-11.45c.22-.64.38-1.37.47-2.2.09-.82.12-1.49.1-1.99s-.16-.75-.41-.74c-.13-.12-1.37.38-3.72,1.49l-.56.21h-.19c0,.14-.18.21-.56.22l-1.68.64-1.5.44c-.5.15-.87.42-1.1.81l-.91.8c-.38.02-.56.09-.56.21l-2.57,1.82-1.31.25c-.88.04-1.69-.24-2.4-.84-.72-.6-1.1-1.34-1.14-2.22l.15-.95c.21-1.02.86-1.99,1.96-2.93.37-.27.93-.42,1.68-.45,1.26-.06,1.94-.27,2.05-.66.49-.4,1.04-.68,1.67-.83l.54-.59.56-.21.17-.39c.24-.26,1.12-.43,2.63-.49.5-.02.87-.16,1.12-.43.36-.39,1.11-.68,2.23-.86l.75-.22,1.12-.43c1.64-.07,2.7-.24,3.2-.52l.31-1.53.62-3.06c1.27-5.48,2.02-10.06,2.24-13.73.2-1.27.36-1.97.48-2.1l.91-5.15,1.07-5.92.75-4.39,1.02-6.86c.54-2.04.84-3.76.91-5.15.41-2.04.83-4.01,1.25-5.92.31-1.53.46-2.42.45-2.67l1.12-4.59c.65-2.55.96-3.95.95-4.21l.47-2.29.44-2.86c-.04-.88.22-2.03.8-3.44l1.31-4.6,1.6-6.7c.87-3.07,1.72-5.44,2.53-7.12.46-1.03.91-2.31,1.35-3.85.31-1.53,1.07-2.95,2.27-4.26,1.07-1.43,2.24-2.18,3.5-2.24,1.01-.04,2.17.54,3.48,1.74,1.19,1.34,2.57,3.93,4.13,7.77l2.64,8.4c.47,2,.87,4.13,1.23,6.38.35,2.26.62,4.08.81,5.46l.31,2.83c.43,1.12.75,2.74.97,4.88.05,1.13.22,2.07.5,2.82.32,1.5.52,3.2.6,5.09.17,1,.28,2.04.33,3.11s.15,1.98.31,2.73l.37,4.15.35,3.77c.31,1.25.49,2.63.56,4.14l.38,4.34c.05,1.13.24,2.58.57,4.33.08,1.77.25,2.89.53,3.39l.35,3.77c.22,4.91.46,7.62.73,8.11.13.12.88.03,2.26-.29l.93-.42c.36-.39.73-.6,1.11-.62s.56-.09.56-.21c.24-.26.55-.4.93-.42s.57.04.57.16c.01.25.28.62.81,1.1.66.6.93,1.09.82,1.48-.33,1.03-.94,1.75-1.8,2.16-.49.4-1.07.74-1.75,1.02-.68.28-1.21.43-1.59.45-.25.01-.44.08-.56.21l-.38.02c-.25.01-.44.08-.56.21l-.56.21c-.37.14-.58.47-.62.97-.04.51.03,1.39.21,2.64.21,1.88.31,3.43.3,4.63-.01,1.2,0,2.18.03,2.93l.18,4.16c.1,2.4.23,3.78.37,4.15,0,.13.05.47.14,1.04.09.56.16,1.54.22,2.93.38,2.89.64,4.45.77,4.7l.27,1.88c.03.63.11,1.13.25,1.5.14.37.24,1.13.29,2.26.11,2.52.27,4.79.49,6.79.19,4.28.48,6.61.87,6.97.26.24.42.87.46,1.87l-.06,2.84.14,3.21.96,8.86.43,5.47.54,3.76c.05,1.13.15,1.95.3,2.45.3,1,.46,1.87.49,2.63l.47,2.06c.46,1.87.72,3.57.79,5.08.03.63.18,1.32.47,2.06l.7,3,.32,3.02.45,1.68c.01.25-.11.38-.36.39l-.2-.18c-.38.02-.55.4-.52,1.16.02.38-.04.63-.16.76.02.38-.09.82-.32,1.34.03.63-.09.95-.34.96l-.37.21c-.12.13-.61-.99-1.47-3.34-.86-2.36-1.52-4.41-1.97-6.16-1.45-7.26-2.37-12.27-2.74-15.03l-.28-2.07-.32-3.02c-.09-2.02-.27-3.27-.54-3.76l-.33-3.2c-.33-4.53-.73-8.11-1.23-10.74l-1.38-14.14-.45-5.85-.68-6.79-.45-5.85c-.32-7.31-.67-12.47-1.06-15.48-.04-.88-.1-1.57-.19-2.07-.09-.5-.25-.75-.5-.74-.38.02-.69.1-.94.23-.49.28-1.06.42-1.68.45l-.75.22-.75.22h-.28c-.06.02-.09.08-.09.21-.12.13-.56.21-1.31.25-1.63.33-2.56.62-2.8.88-.12.13-.62.34-1.49.63-.76.03-1.26.18-1.49.44l-1.31.44-1.31.44c-.24.27-.86.48-1.86.65-.5.02-.75.1-.75.22-.12.13-.37.21-.75.22l-1.12.43c-.25.14-.56.21-.94.23l-.57.02c-.24.26-.68.41-1.31.44l-1.86.84-1.68.64-1.31.25-2.05.85c-.38.02-.87.23-1.49.63l-1.31.44-.74.41-.94.23-1.12.43c-.25.01-.63.15-1.12.43-.13,0-.31.14-.55.4-.72,3.69-1.35,8.14-1.88,13.34-.17,2.03-.41,3.62-.74,4.77l-.25,3.04c-.22.77-.31,1.59-.27,2.47l-.47,2.29c.02.51-.26,2.6-.86,6.29l-.74,4.77c-.06,1.52-.35,3.68-.85,6.48-.07,1.27-.42,3.3-1.06,6.11-.16,2.28-.26,4.3-.3,6.07-.02,2.52-.24,4.74-.66,6.66l-.25,2.85-.08,2.46-.67,6.28-.35,4.94-.09,2.28-.25,3.04-.08,2.46c-.04,1.9-.33,3.99-.86,6.29-.2,1.27-.28,2.22-.25,2.85l-.57,4.19c.01.25-.11.38-.36.39l-.02-.38.16-.58c-.01-.25-.08-.37-.21-.37s-.25.14-.36.39c-.11.51-.4.9-.9,1.18-.37.27-.81.29-1.32.06ZM25.97,123.01c0,.13.07.19.2.18.12-.13.43-.21.94-.23l.75-.22c.12-.13.43-.21.94-.23.38.11.76.09,1.13-.05.37-.14.55-.34.54-.59l.76-.03,1.49-.44c.74-.28,1.37-.44,1.87-.46s.82-.1.94-.23c.24-.26.74-.47,1.49-.63l1.86-.65.55-.4c.25-.01.38-.08.37-.21.37-.14.81-.29,1.31-.44.5-.15.94-.23,1.31-.25.5-.02.75-.1.75-.22.12-.13.31-.2.56-.21l.74-.41c.36-.39.61-.47.75-.22l1.13-.24c.24-.13.56-.21.94-.23l.75-.22c.24-.26.55-.4.93-.42s.56-.09.56-.21c.12-.13.37-.21.75-.22l.55-.4c.49-.27,1.3-.5,2.43-.67.25-.13.53-.21.84-.23s.53-.09.65-.22c.75-.28,1.37-.37,1.88-.27.26.12.69-.03,1.31-.44l1.47-1.01.74-.41c.25-.01.43-.21.54-.59.11-.26.06-1.45-.16-3.59l-.43-5.47c-.1-2.27-.31-4.28-.64-6.03l-.59-4.9c-.18-4.16-.54-7.93-1.06-11.31l-.58-4.52-.35-3.58-.54-3.57-.33-3.2c-.45-1.62-.9-4.76-1.36-9.41-.06-1.26-.24-2.51-.54-3.76l-.7-3c-.07-1.64-.56-4.2-1.47-7.7-.46-1.87-.7-3-.72-3.38-.34-1.88-.99-3.9-1.97-6.07-.98-2.16-1.8-3.61-2.46-4.34l-.4-.55-.36.39c-.6.78-1.63,3.13-3.1,7.05-1.47,3.92-2.47,7.08-2.99,9.5l-.62,3.06c-.47.9-.84,2.44-1.12,4.59-.41,2.29-.78,3.82-1.12,4.59l-.76,4.2c-.43,1.79-.63,3-.6,3.62l-.46,2.48-.61,3.25c-.34.9-.59,2.36-.75,4.39l-1.24,6.3c-.23.64-.36,1.22-.4,1.72-.04.51-.12.89-.23,1.15-.08,1.14-.27,2.51-.58,4.1-.31,1.59-.57,2.96-.77,4.1-.43,1.79-.78,3.82-1.06,6.1-.15,2.28-.29,3.61-.39,3.99-.82,4.33-1.33,7.06-1.53,8.21l-1,7.43c-.51,2.93-.74,4.77-.71,5.52l.02.38Z"/>
  <path class="cls-1" d="M124.13,220.2l-.41-.74c-.01-.25-.22-.69-.62-1.3-.43-1.12-.64-1.74-.65-1.86-.28-.49-.43-1.24-.48-2.25-.43-1.24-.72-3.5-.86-6.78-.03-.76-.13-1.38-.27-1.88-.6-5.02-1.07-11.5-1.42-19.44-.2-4.66-.23-8-.06-10.03l.09-2.28c-.04-1.01-.01-1.7.1-2.09-.03-.76-.13-1.44-.28-2.07l-.11-2.46c.07-1.14.1-4.99.06-11.55-.05-1.13.03-2.21.24-3.23l.08-2.46c-.04-1.01,0-1.58.11-1.71l.09-2.28.09-2.28c.08-1.01.18-2.4.29-4.18.11-1.77.13-3.41.07-4.93l.06-3.03.41-3.62c-.03-.76,0-1.33.11-1.71l.08-2.46c.2-1.27.28-2.16.26-2.66l.07-2.65.1-2.09.12-1.52-.04-.95-.57.02c-.51.02-.88.1-1.13.24-.74.41-1.17.62-1.3.62-.51.02-.87.23-1.11.62-.12.13-.55.34-1.3.62-.51.02-1,.17-1.5.44-.24.27-1.17.75-2.78,1.45-.38.02-.56.15-.55.4l-.57.02-1.48.82-1.48.82-1.11.62c-.74.41-1.17.62-1.3.62-.74.41-1.17.68-1.29.81-.74.41-1.17.62-1.3.62-.5.15-.98.61-1.45,1.39.01.25-.23.52-.72.79l-.55.4c-.11.26-.45.56-1,.9-.55.34-1.07.65-1.57.92-.49.28-1.05.43-1.68.45-1.26.06-2.16-.28-2.7-1.02-.66-.6-1.01-1.47-1.06-2.6-.02-.5.08-1.14.3-1.91.45-1.16.81-1.74,1.06-1.75s.37-.08.37-.21c.13,0,.31-.14.55-.4.25-.14.44-.14.57-.02l.76.16c.51-.02.76.16.78.53.13.12.75-.28,1.84-1.22.12-.26.3-.45.54-.59.25-.14.58-.4,1.01-.8.43-.4.7-.72.81-.98-.02-.38.23-.58.73-.6.13.12.26.15.38.08.12-.07.25-.11.37-.11l1.12-.43c.76-.03,1.25-.24,1.49-.63-.01-.25.3-.45.92-.61l1.49-.44.92-.61.75-.22c.38-.02.63-.09.75-.22l1.5-.25c1.12-.3,1.87-.58,2.23-.86.24-.26.43-.33.56-.21l.75-.22c.49-.27.93-.42,1.31-.44l1.11-.62.92-.61c.5-.02.87-.16,1.12-.43l1.12-.43c.38-.02.63-.09.75-.22,0-.12.12-.19.37-.21.38-.02.73-.53,1.07-1.56.1-.63.12-1.52.07-2.65-.03-.63.06-1.45.27-2.47.22-.77.3-1.72.25-2.85.21-1.02.28-2.16.23-3.42l.41-3.62c.11-.38.16-.76.14-1.14s.03-.69.15-.95l.42-3.43c.2-4.05.42-6.33.65-6.84,0-.12.02-.31.07-.57.05-.25.01-.38-.11-.37l.16-.58c.34-.9.72-2.37,1.13-4.4.54-2.04.87-3.13.99-3.26.67-1.92.99-3.39.94-4.4-.03-.76,0-1.33.11-1.71.35-.65.51-1.22.49-1.73l.31-1.53c.21-.89.67-3.31,1.39-7.26.08-1.01.41-2.16.98-3.45.47-.78.7-1.36.68-1.73,0-.12.12-.13.38-.02.26.12.51.04.75-.22l.36-.39.39.36c.13.12.2.31.21.56.02.38.22.69.61.92.63.1,1.03.52,1.19,1.27.16.75.2,1.7.12,2.83-.11,3.41-.39,5.57-.85,6.47-.12.26-.17.55-.15.86s-.04.6-.15.86c.03.76-.07,1.27-.31,1.53-.12.26-.38,1.41-.8,3.44l-.48,1.91c-.53,2.3-.77,4.01-.72,5.14l.02.38c.02.5-.15.95-.51,1.35l-.5,1.54c-.11.51-.33,1.15-.67,1.92-.36.52-.51,1.29-.47,2.29l.02.57c.13.12-.02,1.14-.43,3.05l-.4,3.8c-.12.26-.17.55-.15.86s-.04.6-.15.86c-.24.27-.34.77-.31,1.53l-.31,1.53c-.63,2.81-.93,4.77-.88,5.91l-.12,1.52c-.24.27-.34.96-.29,2.09l-.27,2.47-.16.58.94-.23c.63-.03.94-.17.93-.42.12-.13.31-.2.56-.21.37-.14.87-.32,1.49-.54.62-.22,1.12-.46,1.48-.73,0-.12.12-.19.37-.21l.55-.4c1.23-.68,2.16-1.04,2.79-1.07h.19s.75-.23.75-.23c.24-.26.42-.4.55-.4l.74-.41c.11-.26.36-.39.74-.41.5-.02.94-.1,1.31-.25l.93-.42c.38-.02.63-.09.75-.22l.74-.41c.38-.02.63-.09.75-.22l.93-.42.74-.41c.24-.26.42-.4.55-.4.38-.02.63-.09.75-.22s.3-.2.56-.21.44-.08.56-.21l1.5-.44c1-.3,1.62-.45,1.87-.46.63-.03,1.06-.17,1.31-.44l1.11-.62c.12-.13.27-.23.46-.3.19-.07.34-.23.45-.49l.74-.41c.25-.01.37-.08.37-.21l.75-.22c.5-.02.88-.1,1.12-.24.25-.13.36-.33.35-.58.11-.26.36-.39.74-.41.5-.02.82-.1.94-.23.25-.13,1.43-.44,3.56-.91l.75-.22c-.01-.25.11-.38.36-.39l.37-.21c-.01-.25.23-.39.74-.41l.74-.41c-.01-.25.23-.39.74-.41s.82.09.96.34c0,.13.07.28.21.46.13.18.33.33.59.45,1.03.59,1.19,1.34.48,2.25-.24.26-.36.46-.35.58-.12.26-.82.73-2.12,1.42-1.3.69-2.2,1.04-2.7,1.07l-.37.21c-.12.13-.31.2-.56.21l-.56.21-.74.41c-.51.02-.75.16-.74.41-.38.02-.87.23-1.49.63-.63.15-1.49.44-2.61.87-.49.28-.87.42-1.12.43-.12.13-.27.2-.46.21s-.35.08-.46.21c-.74.41-1.3.62-1.68.64l-.94.23c-.12.13-.37.21-.75.22-.13,0-.31.14-.55.4l-.56.21c-.63.03-1.07.11-1.31.25l-1.31.44c-.25.01-.5.15-.74.41-.36.39-.8.6-1.3.62l-1.31.44-1.86.84-1.49.63c-.99.55-1.73.83-2.23.86-.38.02-.69.16-.93.42l-.56.21-.93.42-1.49.44c-.5.15-1.12.4-1.86.74-.74.35-1.36.66-1.85.93l-1.68.64c-1.61.7-2.48,1.18-2.59,1.44-.12.26-.16.76-.12,1.52.02.51-.07,1.27-.28,2.28l-.11,1.71c.04.88-.11,1.71-.46,2.48-.24.39-.31,1.53-.23,3.42.14.25.09.75-.12,1.52-.21,1.02-.29,2.03-.25,3.04-.06,1.52-.3,3.3-.71,5.33-.09.76-.07,1.27.07,1.51.14.25.16.82.07,1.7-.34,3.8-.46,6.84-.36,9.1.12,2.77.07,4.54-.15,5.31-.22.77-.29,2.09-.2,3.98l.25,1.31.05,1.13c-.24.27-.4,1.75-.47,4.47-.07,2.72.04,6.03.34,9.93.07,1.51.06,2.9,0,4.17-.09.76-.09,2.15,0,4.17.06,1.26-.03,2.27-.25,3.04l-.11,1.9c.04.88.15,1.89.32,3.02.17,1.13.4,2.06.69,2.81.17,1,.25,2.76.23,5.29.04,1.01.2,1.76.48,2.25.28.62.37,1.37.29,2.26-.11.38-.15.89-.12,1.52l.39,4.53c.16,3.65.37,5.73.65,6.22.13.12.22.62.25,1.5l.26,1.5c.13.24.23.87.27,1.88s0,1.51-.12,1.52c-.26-.12-.63.15-1.1.81l-.35.77c0,.12-.05.25-.17.39-.12.13-.31.2-.56.21s-.51-.17-.78-.53Z"/>
  <path class="cls-1" d="M252.79,218.99l-.24-.74-.75-2.6c-.34-1.24-.57-2.74-.7-4.5l-.2-5.49.02-7.78-.24-3.4c.07-.76.08-1.56.02-2.37s-.06-1.67,0-2.56l-.14-4.73-.53-12.86c.06-.89.05-2.03-.05-3.41-.07-1.01-.06-1.7.04-2.09.18-1.02.15-3.3-.1-6.82-.14-2.01-.35-3.13-.62-3.37-.52-.21-3.11.66-7.78,2.63-2.34.92-4.19,1.5-5.57,1.72-.24.14-.55.26-.92.35-.37.09-.68.21-.92.35l-2.6.75c-1.26.09-2.13.28-2.61.56l-1.51.11c-.38.03-.54,0-.48-.06.06-.07.08-.16.07-.29-.02-.25-.35-.42-.98-.5-1.65-.14-2.62-.45-2.91-.93-.14-.11-.14-.24-.03-.38s.36-.28.73-.43c1.11-.46,1.72-.69,1.85-.7l2.76-1.14c1.34-.72,2.57-1.19,3.69-1.4,1.62-.36,2.85-.77,3.71-1.21,1.61-.49,2.72-.88,3.33-1.18l6.12-1.95,2.59-.94c.38-.03.81-.18,1.29-.47.12-.13.06-1.84-.17-5.11-.12-1.76-.25-3.08-.37-3.96-.13-.87-.2-1.56-.24-2.07v-2.65c.06-1.01,0-1.83-.17-2.45l-.12-1.7c.11-.26.02-2.4-.26-6.43-.42-5.91-.81-10.62-1.18-14.14l-1.77-17.13-.76-8.1c-.16-2.26-.3-3.87-.43-4.81-.13-.94-.2-1.53-.22-1.79-.17-.62-.31-1.68-.41-3.19l-.27-3.77c-.34-1.24-.55-2.43-.63-3.56-.13-1.89-.3-3.33-.49-4.33l-.2-2.83-.75-5.26c-.15-.37-.24-.77-.27-1.21s-.13-.91-.29-1.4l-.43-3.38-.7-4.5-.44-3.57c-.14-.24-.28-1.31-.41-3.2-.12-1.76-.5-3.44-1.11-5.04-.31-.74-.48-1.48-.54-2.24-.15-.37-.24-.74-.27-1.12s-.11-.69-.26-.93l-.27-1.12c-.9-3.73-1.49-5.96-1.8-6.7-.05-.75-.23-1.5-.54-2.24l-.29-1.5c-.16-.49-.34-.76-.53-.82-.19-.05-.47,0-.84.15-3.44,1.38-6.31,2.91-8.59,4.59l-3.44,2.33c-.86.44-1.58.87-2.18,1.29-.6.42-1.03.71-1.27.85-.35.4-1.07,1.02-2.15,1.86-1.21.84-2.46,1.88-3.76,3.11-1.31,1.23-2.43,2.32-3.37,3.27-3.25,4.15-5.15,6.75-5.71,7.8-.11.26-.46.73-1.04,1.4-.47.54-.81,1.13-1.01,1.78l-1,1.97c-.34.53-.58.8-.7.81s-.51-.09-1.16-.3l-.59-.34.3-1.16c.31-1.03.26-1.66-.13-1.89-.4-.22-.35-1.3.15-3.23.2-.77.4-1.45.62-2.03.21-.58.54-1.27.99-2.06,1.71-2.65,3.56-5.11,5.55-7.41,1.29-1.35,2.96-2.86,4.99-4.52l1.77-1.83c1.44-1.11,2.52-1.88,3.25-2.31.49-.16,1.16-.59,2-1.28l2.18-1.29,1.81-1.26c.96-.7,3.03-1.85,6.2-3.47.37-.15.86-.37,1.47-.67.61-.29,1.22-.65,1.82-1.08l3.3-1.56c1.21-.72,1.88-1.14,2-1.28.97-.57,1.96-.9,2.97-.97l2.97-.97,4.08-1.24c3.35-.87,5.45-1.58,6.3-2.15l1.47-.67c4.73-1.09,7.65-1.74,8.78-1.94l4.29-1.06c1.24-.34,2.87-.58,4.88-.72.87-.19,2.12-.34,3.76-.45.49-.16,2.44-.36,5.84-.6l4.35-.12c2.01-.14,3.4-.17,4.16-.1,2.64-.19,3.97-.21,3.98-.09l2.48.2c3.94.36,6.81.72,8.61,1.1l4.23.84c1.53.15,4.56,1.07,9.11,2.77,2.2.73,4.17,1.79,5.91,3.19l2.37,1.35c1.32.79,2.8,2.08,4.44,3.86l1.83,1.77,1.84,1.96,1.83,1.77c.66.46,1.08,1,1.25,1.62,1.87,3.28,3.25,5.78,4.13,7.48.88,1.71,1.56,3.37,2.06,4.97.63,1.73,1.09,3.78,1.38,6.16.39,2,.58,2.93.58,2.8.3.61.51,1.8.63,3.56-.01,3.41-.16,6.78-.43,10.08-.45,4.33-1.03,7.91-1.71,10.74-.39,1.67-.98,3.64-1.77,5.91-.79,2.27-1.3,3.54-1.53,3.81-.7.81-1.25,1.98-1.65,3.53-.1.39-.26.81-.48,1.27-.22.46-.38.88-.48,1.27l-1.84,3.54c-.42,1.29-.86,2.21-1.32,2.75l-2.92,4.38c-1.95,2.92-2.98,4.45-3.09,4.58l-1.9,2.6c-.32.78-1.13,1.91-2.42,3.39l-2.62,3.22c-.45.79-.92,1.33-1.4,1.62-.35.4-.85,1.01-1.48,1.81-.64.8-1.3,1.74-1.98,2.79-.82.94-1.41,1.55-1.77,1.83l-1.96,1.84-2.66,2.65-7.15,6.19c-2.03,1.79-3.58,3.03-4.67,3.74-.74.31-2.67,1.64-5.79,4.01l-3.95,3.12c-1.93,1.4-2.94,2.23-3.05,2.49l-1.27.85-1.25,1.04c-1.08.83-1.81,1.26-2.18,1.29l-1.28.66c-.72.56-2.36,1.49-4.92,2.81-2.56,1.32-4.02,2.18-4.37,2.58-.47.54-1.81,1.26-4.02,2.18-1.24.34-2.17.66-2.78.95-2.32,1.18-4.53,2.09-6.63,2.74-.99.32-1.57.62-1.74.88-.17.27-.22.96-.14,2.1.41,4.02.6,6.72.57,8.11-.08.64-.04,2.15.13,4.54l-.11,3.8c-.18,1.02-.24,1.91-.19,2.67l.05.75.4,3.01c.17.62.27,1.21.31,1.78s.14,1.1.3,1.59c.22,3.14.24,5.23.06,6.25-.06,1.01.07,1.95.39,2.82.4.35.46,1.11.16,2.26-.2.77-.26,1.72-.18,2.86v2.66c-.33,2.55-.43,4.7-.31,6.47l.31,1.69c.17,2.39.2,3.71.09,3.98l.07.94c.15.37.2,1.12.16,2.26-.04,1.26-.12,1.9-.25,1.91h-.19c-.27-.22-.57-.01-.9.65-.47.54-.7.87-.69,1s-.08.26-.26.4c-.18.14-.4.22-.65.23s-.39-.1-.4-.35ZM238.56,16.52c-.12.14-.13.39-.04.76.09.37.3,1.12.63,2.23l1.84,7.27c.04.5.19,1,.48,1.48.29.49.46,1.11.51,1.86.16,2.26.37,3.51.64,3.75.13.12.42,1.55.87,4.3.15.37.24.74.27,1.12s.11.69.25.93l.3,1.5.67,1.47c.14.25.23.55.25.93l.1,6.82c.06.88.23,1.44.5,1.67.14.24.31,1.69.49,4.33.22,1.38.39,2.88.51,4.51.17.62.21,1.25.13,1.89l.15,2.08c.11,1.51.13,2.77.08,3.79l.28,3.96.61,6.02.37,5.28c.16.5.41,2.28.75,5.35.34,3.08.51,5.43.5,7.08-.09,2.28.03,4.05.37,5.28.14.24.24.68.28,1.31-.11.26-.05,1.96.17,5.11l.21,5.67c-.06.89-.03,1.4.11,1.51.13.12.33,2,.59,5.65l.64,6.4c.15.37.31,1.68.47,3.95l.21,5.67c.12,1.76.26,2.83.41,3.19.19,1,.24,1.69.15,2.08-.07.76-.09,1.84-.06,3.23.03,1.39.08,2.46.13,3.21.13.12.58.09,1.32-.09.25-.02.74-.24,1.47-.67l2.02-.9c2.21-.91,3.8-1.66,4.77-2.23l2.75-1.33,5.49-2.85,2.18-1.29c1.47-.61,3.41-1.76,5.83-3.44l3.44-2.33,3.63-2.34,1.81-1.26,1.44-1.05,2.87-2.29c2.06-1.28,3.62-2.47,4.68-3.55l1.62-1.25,1.78-1.64c.24-.14.54-.38.9-.73.36-.34.83-.72,1.44-1.14l5.34-4.93,2.31-2.25,2.28-2.63c.46-.66,1.01-1.37,1.65-2.11.64-.74,1.32-1.52,2.02-2.32,2.92-3.36,5.13-6.17,6.61-8.43,2.4-3.58,3.88-5.96,4.43-7.14l1.38-1.99,1.16-2.36,1.16-2.36c.45-.79,1.62-3.02,3.51-6.69l.61-2.13.97-2.34c.75-1.82,1.56-4.72,2.42-8.7l1.03-4.24c-.05-.75.03-1.39.24-1.91.17-1.15.32-2.64.44-4.49.12-1.84.14-3.39.05-4.65-.15-2.14-.59-4.76-1.31-7.87-.45-2.75-1.12-5.17-2.03-7.25l-2.85-5.49c-.57-.97-1.32-2.09-2.23-3.35-.91-1.26-1.77-2.31-2.59-3.14-1.11-1.44-2.87-3.02-5.26-4.75l-2.01-1.57c-1.73-1.27-3.38-2.23-4.94-2.88-.13,0-.97-.37-2.55-1.15-1.96-.87-5-1.86-9.12-2.96-1.29-.41-2.45-.71-3.48-.89-1.03-.18-2.23-.28-3.62-.31l-3.23-.15c-.52-.22-1.28-.29-2.29-.22-1.03-.18-4.18-.09-9.46.29s-9.17.77-10.92,1.15l-3.56.63c-2.75.45-6.11,1.19-10.08,2.23-.85.44-2.09.84-3.71,1.21l-3.15.98-2.41.74-2.04.71c-.61.3-1.41.61-2.4.93-1.11.33-2.23.66-3.34.99-1.11.33-1.92.64-2.4.93,0,.13-.11.2-.36.22l-.54.42Z"/>
  <path class="cls-1" d="M325.43,182.33c-1.26-.25-2.21-.54-2.84-.85-.63-.32-1.51-.91-2.65-1.8-1.26-1.13-2.4-2.39-3.4-3.78-1.64-2.27-2.59-3.84-2.84-4.73,0-.38-.19-.95-.57-1.7-.38-.63-.57-1.14-.57-1.51,0-.12-.19-.76-.57-1.89l-.38-2.27-.95-6.05-.19-2.46c0-4.54.12-7.19.38-7.94l.19-2.46.57-3.03c0-.63.12-1.2.38-1.7,0-.5.12-1.14.38-1.89l.38-1.32c0-.38.31-1.01.95-1.89l.95-2.46c.12-.63.44-1.32.95-2.08.5-.5,1.01-1.2,1.51-2.08,1.39-2.14,2.96-3.72,4.73-4.73l.76-.57c.12-.12.57-.31,1.32-.57.63,0,1.2-.12,1.7-.38.5-.12,1.39-.19,2.65-.19h1.7l1.51.76,2.08,1.14.95.95c.12.13.28.32.47.57.19.25.41.51.66.76l1.33,2.27c.38.63.79,1.39,1.23,2.27.44.88.66,1.51.66,1.89s.44,1.26,1.32,2.65c.25.51.38,1.01.38,1.51l.19,1.32c.5,1.39.76,3.09.76,5.11,0,1.89-.25,3.47-.76,4.73l-.38.76.57-.38.76-.76.57-.19c.38,0,.63.19.76.57.5,1.26.76,1.96.76,2.08.12.51.19,2.02.19,4.54-.13.25-.19.54-.19.85s-.07.6-.19.85c0,.76-.13,1.39-.38,1.89-.13.25-.19.69-.19,1.32l-.19,1.13c-.63,1.89-.94,3.09-.94,3.59l-1.33,4.54c-.5.88-.82,1.77-.94,2.65-.76,1.51-1.26,2.46-1.51,2.84-1.13,2.4-2.33,4.1-3.59,5.11-.13.25-.28.44-.47.57-.19.13-.35.32-.47.57-1.64,1.39-3.72,2.08-6.24,2.08l-1.89-.19ZM314.65,156.04c.12,0,.25.76.38,2.27l.19,2.84c.25.51.38.95.38,1.32l.57,1.32c.38,1.01.76,2.4,1.14,4.16,0,.51.12.88.38,1.14,0,.13.06.25.19.38.12.13.19.32.19.57l.76.95c.5.38.76.69.76.95,0,.63.53,1.58,1.61,2.84,1.07,1.26,2.18,2.15,3.31,2.65.63.25,1.2.38,1.7.38h.76c.25.13.6.16,1.04.1.44-.06.85-.16,1.23-.28.76-.38,1.39-.82,1.89-1.32l1.89-1.7c.5-.25.88-1.01,1.14-2.27.5-1.26.76-2.08.76-2.46l.19-1.32c.25-.25.38-.44.38-.57,0-.25.06-.5.19-.76.12-.25.25-.5.38-.76.38-1.01.57-1.58.57-1.7v-.19c-.38-.38-.32-1.01.19-1.89.38-.38.57-.76.57-1.14l.38-1.89c.12,0,.31-.31.57-.95.5-1.51.76-3.09.76-4.73v-3.78c-.5.38-1.2.57-2.08.57-.38,0-.82-.12-1.33-.38-.5-.25-.88-.63-1.13-1.14l-.76-1.51c-.25-.5-.32-.76-.19-.76.25,0,.38-.12.38-.38,0-.38.06-.57.19-.57l.19-.19c.25-.25.44-.25.57,0l.57.19-.19-2.84c0-1.76-.06-2.71-.19-2.84-.25-.5-.38-.82-.38-.95.12-.5,0-1.32-.38-2.46l-.94-2.27-.38-.95-.76-.95c-.13-.38-.32-.57-.57-.57s-.38-.25-.38-.76c.12-.38,0-.76-.38-1.14-.13-.12-.25-.28-.38-.47-.13-.19-.19-.35-.19-.47,0-.25-.09-.47-.28-.66-.19-.19-.41-.28-.66-.28s-.63-.12-1.13-.38c-.88-.5-1.51-.57-1.89-.19,0,.13-.19.19-.57.19-.25,0-.63.13-1.14.38l-.76.57-1.14.57c-1.14.88-1.77,1.64-1.89,2.27,0,.38-.13.57-.38.57l-.95,1.51-1.14,1.7c-.25.51-.38.95-.38,1.32,0,.63-.19,1.14-.57,1.51-.25.76-.38,1.39-.38,1.89l-.57,1.7c-.25.63-.32,1.01-.19,1.14l-.38,1.14c-.25.25-.41.57-.47.95-.06.38-.09.88-.09,1.51,0,1.14-.06,1.83-.19,2.08l-.38,2.65-.19,2.84c-.13.88-.13,1.45,0,1.7Z"/>
  <path class="cls-1" d="M389.74,206.85l-.38-.76c0-.25-.19-.69-.57-1.32-.38-1.14-.57-1.77-.57-1.89-.25-.51-.38-1.26-.38-2.27-.38-1.26-.57-3.53-.57-6.81,0-.76-.06-1.39-.19-1.89-.38-5.04-.57-11.54-.57-19.48,0-4.67.12-8.01.38-10.03l.19-2.27c0-1.01.06-1.7.19-2.08,0-.76-.06-1.45-.19-2.08v-2.46c.12-1.14.31-4.98.57-11.54,0-1.14.12-2.2.38-3.22l.19-2.46c0-1.01.06-1.58.19-1.7l.19-2.27.19-2.27c.12-1.01.28-2.39.47-4.16.19-1.76.28-3.41.28-4.92l.19-3.03.57-3.59c0-.76.06-1.32.19-1.7l.19-2.46c.25-1.26.38-2.14.38-2.65l.19-2.65.19-2.08.19-1.51v-.95h-.57c-.5,0-.88.07-1.14.19-.76.38-1.2.57-1.32.57-.5,0-.88.19-1.14.57-.13.13-.57.32-1.32.57-.5,0-1.01.13-1.51.38-.25.25-1.2.69-2.84,1.32-.38,0-.57.13-.57.38h-.57l-1.51.76-1.51.76-1.13.57c-.76.38-1.2.57-1.33.57-.76.38-1.2.63-1.32.76-.76.38-1.2.57-1.32.57-.5.13-1.01.57-1.51,1.32,0,.25-.25.51-.76.76l-.57.38c-.12.25-.47.54-1.04.85-.57.32-1.1.6-1.61.85-.5.25-1.07.38-1.7.38-1.26,0-2.14-.38-2.65-1.14-.63-.63-.94-1.51-.94-2.65,0-.5.13-1.14.38-1.89.51-1.13.88-1.7,1.14-1.7s.38-.06.38-.19c.13,0,.32-.12.57-.38.25-.12.44-.12.57,0l.76.19c.5,0,.76.19.76.57.13.13.76-.25,1.89-1.14.13-.25.32-.44.57-.57.25-.12.6-.38,1.04-.76.44-.38.73-.69.85-.95,0-.38.25-.57.76-.57.13.13.25.16.38.09.13-.06.25-.09.38-.09l1.14-.38c.76,0,1.26-.19,1.51-.57,0-.25.32-.44.95-.57l1.51-.38.95-.57.76-.19c.38,0,.63-.06.76-.19l1.51-.19c1.14-.25,1.89-.5,2.27-.76.25-.25.44-.31.57-.19l.76-.19c.5-.25.95-.38,1.32-.38l1.14-.57.95-.57c.5,0,.88-.12,1.14-.38l1.14-.38c.38,0,.63-.06.76-.19,0-.12.12-.19.38-.19.38,0,.76-.5,1.14-1.51.12-.63.19-1.51.19-2.65,0-.63.12-1.45.38-2.46.25-.76.38-1.7.38-2.84.25-1.01.38-2.14.38-3.4l.57-3.59c.12-.38.19-.76.19-1.14s.06-.69.19-.95l.57-3.4c.38-4.03.69-6.3.95-6.81,0-.12.03-.31.09-.57.06-.25.03-.38-.09-.38l.19-.57c.38-.88.82-2.33,1.32-4.35.63-2.02,1.01-3.09,1.14-3.22.76-1.89,1.14-3.34,1.14-4.35,0-.76.06-1.32.19-1.7.38-.63.57-1.2.57-1.7l.38-1.51c.25-.88.82-3.28,1.7-7.19.12-1.01.5-2.14,1.14-3.4.5-.76.76-1.32.76-1.7,0-.12.12-.12.38,0,.25.13.5.06.76-.19l.38-.38.38.38c.12.13.19.32.19.57,0,.38.19.69.57.95.63.13,1.01.57,1.14,1.32.12.76.12,1.7,0,2.84-.25,3.4-.63,5.55-1.14,6.43-.13.25-.19.54-.19.85s-.07.6-.19.85c0,.76-.13,1.26-.38,1.51-.13.25-.44,1.39-.94,3.41l-.57,1.89c-.63,2.27-.95,3.97-.95,5.11v.38c0,.51-.19.95-.57,1.32l-.57,1.51c-.13.51-.38,1.13-.76,1.89-.38.51-.57,1.26-.57,2.27v.57c.12.13-.06,1.14-.57,3.03l-.57,3.78c-.13.25-.19.54-.19.85s-.06.6-.19.85c-.25.25-.38.76-.38,1.51l-.38,1.51c-.76,2.78-1.13,4.73-1.13,5.86l-.19,1.51c-.25.25-.38.95-.38,2.08l-.38,2.46-.19.57.94-.19c.63,0,.95-.12.95-.38.12-.12.31-.19.57-.19.38-.12.88-.28,1.51-.47.63-.19,1.14-.41,1.51-.66,0-.12.12-.19.38-.19l.57-.38c1.26-.63,2.2-.95,2.84-.95h.19l.76-.19c.25-.25.44-.38.57-.38l.76-.38c.12-.25.38-.38.76-.38.5,0,.94-.06,1.32-.19l.94-.38c.38,0,.63-.06.76-.19l.76-.38c.38,0,.63-.06.76-.19l.95-.38.76-.38c.25-.25.44-.38.57-.38.38,0,.63-.06.76-.19.12-.12.31-.19.57-.19s.44-.06.57-.19l1.51-.38c1.01-.25,1.64-.38,1.89-.38.63,0,1.07-.12,1.33-.38l1.13-.57c.12-.12.28-.22.47-.28.19-.06.35-.22.47-.47l.76-.38c.25,0,.38-.06.38-.19l.76-.19c.5,0,.88-.06,1.14-.19.25-.12.38-.31.38-.57.12-.25.38-.38.76-.38.5,0,.82-.06.94-.19.25-.12,1.45-.38,3.59-.76l.76-.19c0-.25.12-.38.38-.38l.38-.19c0-.25.25-.38.76-.38l.76-.38c0-.25.25-.38.76-.38s.82.13.95.38c0,.13.06.28.19.47.12.19.31.35.57.47,1.01.63,1.14,1.39.38,2.27-.25.25-.38.44-.38.57-.13.25-.85.69-2.18,1.32-1.32.63-2.24.95-2.74.95l-.38.19c-.13.13-.32.19-.57.19l-.57.19-.76.38c-.51,0-.76.13-.76.38-.38,0-.88.19-1.51.57-.63.13-1.51.38-2.65.76-.51.25-.88.38-1.14.38-.13.13-.28.19-.47.19s-.35.06-.47.19c-.76.38-1.32.57-1.7.57l-.95.19c-.13.13-.38.19-.76.19-.13,0-.32.13-.57.38l-.57.19c-.63,0-1.07.06-1.33.19l-1.32.38c-.25,0-.5.13-.76.38-.38.38-.82.57-1.32.57l-1.32.38-1.89.76-1.51.57c-1.01.51-1.77.76-2.27.76-.38,0-.69.13-.95.38l-.57.19-.95.38-1.51.38c-.51.13-1.14.35-1.89.66-.76.32-1.39.6-1.89.85l-1.7.57c-1.64.63-2.52,1.07-2.65,1.32-.13.25-.19.76-.19,1.51,0,.51-.13,1.26-.38,2.27l-.19,1.7c0,.88-.19,1.7-.57,2.46-.25.38-.38,1.51-.38,3.4.12.25.06.76-.19,1.51-.25,1.01-.38,2.02-.38,3.03-.13,1.51-.44,3.28-.94,5.3-.13.76-.13,1.26,0,1.51.12.25.12.82,0,1.7-.51,3.78-.76,6.81-.76,9.08,0,2.78-.13,4.54-.38,5.3-.25.76-.38,2.08-.38,3.97l.19,1.32v1.14c-.25.25-.47,1.74-.66,4.44-.19,2.71-.22,6.02-.09,9.93,0,1.51-.07,2.9-.19,4.16-.13.76-.19,2.15-.19,4.16,0,1.26-.13,2.27-.38,3.03l-.19,1.89c0,.88.06,1.89.19,3.03.12,1.14.31,2.08.57,2.84.12,1.01.12,2.77,0,5.3,0,1.01.12,1.76.38,2.27.25.63.31,1.39.19,2.27-.13.38-.19.88-.19,1.51l.19,4.54c0,3.66.12,5.74.38,6.24.12.12.19.63.19,1.51l.19,1.51c.12.25.19.88.19,1.89s-.07,1.51-.19,1.51c-.25-.13-.63.12-1.14.76l-.38.76c0,.12-.07.25-.19.38-.13.12-.32.19-.57.19s-.51-.19-.76-.57Z"/>
  <path class="cls-1" d="M401.87,254.18c-.13,0-.28-1.05-.16-2.82l4.62-1.85,2.71-1.61,5.29-3.59c.14-.25,2.64-3.57,2.66-3.88s1.15-1.92,1.3-2.16l.27-1.31.44-.92.5-1.86.75-2.79c.06-1.01.25-1.88.55-2.62l.73-2.42.49-1.67c.29-.62.56-1.86.81-3.74l.55-2.62c.14-.25.57-2.05,1.3-5.41l.52-2.24.52-2.24.3-1.69c.14-.25.24-.81.3-1.69l.3-1.69c.3-.74.57-1.57.82-2.51.25-.93.39-1.71.43-2.34.03-.5.12-.94.28-1.31l.4-3.2.37-2.82c.29-.61.59-2.36.91-5.25.16-.5.26-1.03.29-1.59s.13-1.1.29-1.59l.41-3.39c.6-3.5,1-5.68,1.18-6.56l.35-2.44c.08-1.26.19-2.01.33-2.25l.37-2.82c.16-.49.25-.96.28-1.4s.12-.85.27-1.21l.92-5.44.36-2.63c.12,0,.25-.93.37-2.82.11-1.76.32-3.01.62-3.75.36-1.62.69-3.33,1-5.15.31-1.81.49-3.16.54-4.04,0-.12-.08-.26-.26-.4-.18-.14-.34-.15-.47-.03-.26.11-.71.27-1.36.48-.65.21-1.09.31-1.35.29l-1.17.49-1.17.49-.78.33-1.16.3c-.38-.02-.7.08-.97.32-.52.22-.97.32-1.35.29-.25-.02-.45.04-.58.15-.14.12-.27.17-.39.16-.4.35-.86.51-1.36.48l-1.16.3c-.53.35-1.21.65-2.05.91-.84.26-1.51.44-2.03.53l-2.14.81c0,.13-.07.19-.2.18s-.25.05-.39.16c-.5-.03-.76.08-.78.33l-.39.16c-.25-.02-.44.04-.58.15l-.97.32c-.25-.02-.77.14-1.55.47l-1.72.27c-.64.21-1.04.44-1.18.68-.27.24-.66.46-1.18.68l-.78.33-.2.18c-.25-.02-.58.15-.98.51-1.05.57-2.07.81-3.08.75l-.38-.02c-.5-.03-1.06-.23-1.67-.58-.61-.35-.97-.66-1.08-.92l-.51-.98-.14-.77c.13,0,.2-.18.22-.55.04-.63.38-.92,1-.88.26-.11.46-.28.6-.53.15-.37.48-.6.99-.69.52-.22.77-.2.76.05.13,0,.32-.1.59-.34l.77-.14.4-.35c.15-.37.42-.54.79-.52s.7-.02.96-.13l1.57-.85c.9-.19,1.62-.65,2.17-1.38.13-.12.33-.17.58-.15.12.13.37.15.76.05l1.14-.12c.24.14.5.16.75.05.26-.11.39-.23.4-.35.02-.38.55-.6,1.56-.66.9-.19,1.41-.35,1.55-.47l.96-.13c1.02-.06,1.97-.19,2.87-.38.89-.19,1.42-.41,1.56-.66l.38.02.77-.14c.38.02.83-.07,1.35-.29.5.03.89-.07,1.16-.3.27-.23.59-.34.97-.32l.98-.51,1.16-.3c.38.02.57-.03.58-.15.39-.1.7-.08.94.06.38.02.73-.02,1.05-.12.32-.1.55-.28.7-.52,0-.12.2-.18.58-.15.5.03,1.08-.06,1.72-.27l1.92-.44c.25.02.47,0,.67-.05.19-.05.36-.2.5-.44.14-.24.25-.93.32-2.06.32-.99.5-1.93.56-2.81.32-.99.5-1.93.56-2.81.06-1.01.25-1.88.55-2.62.32-.99.5-1.86.55-2.62l.74-2.61c.3-.74.47-1.42.51-2.05.14-.24.25-.93.32-2.06.05-.76.22-1.5.52-2.24.63-1.98,1.13-3.78,1.49-5.4.51-1.99.83-3.1.97-3.35.35-1.49.59-2.3.72-2.42.02-.38.19-1.06.51-2.05l.46-1.3.45-1.11,1.91-6.13.73-2.42,1.6-4.26.66-1.47,1.78-4.05c.16-.49.46-1.23.9-2.22.44-.98.8-1.72,1.09-2.2.54-.6,1.04-1.42,1.49-2.46.45-1.04.76-2,.94-2.88.59-1.35,1.15-2.26,1.69-2.73l.85-1.46c.57-1.1,1.48-2.37,2.71-3.81,1.23-1.44,2.17-2.32,2.83-2.66l1.19-.87c1.32-.92,3.05-1.32,5.19-1.18,1.37.34,2.54.8,3.51,1.36,1.19,1.09,2.05,2.53,2.56,4.34.11.13.17.29.16.48s.04.29.17.29c-.02.25-.15.37-.4.35-.12-.13-.19-.01-.21.36-.02.25-.06.41-.12.47-.07.06-.23.08-.48.06-.38-.02-.63-.1-.74-.24-.24-.27-.45-.44-.63-.51-.18-.07-.41-.06-.67.05-.39.1-.83.01-1.31-.27-.85-.56-1.72-.87-2.6-.93-.75-.05-1.87.64-3.35,2.06-.81.83-1.5,1.74-2.07,2.71-.02.25-.09.47-.23.65-.14.18-.28.33-.41.45-.96,1.2-1.66,2.29-2.11,3.28l-1.09,2.2c-1.6,3.31-2.44,5.53-2.51,6.66l-.26,1.12c-.4.35-.61.59-.62.72l-1.05,1.64c-.32.99-.67,1.66-1.08,2.02-.7.97-1.09,2.14-1.18,3.53-.02.38-.19.94-.49,1.67-1.17,2.45-2,4.61-2.5,6.47l-.69,1.85-.88,1.84c-.48,1.49-.93,2.72-1.38,3.7-1.07,2.84-1.64,4.82-1.71,5.96l-.26,1.12c-.27.24-.57,1.04-.91,2.41l-.99,3.54c-.33,1.24-.51,2.12-.55,2.62-.07,1.13-.19,1.95-.35,2.44l-.77,3.17c-.09,1.39-.28,2.45-.58,3.18-.3.74-.47,1.36-.5,1.86-.04.63-.13,1-.26,1.12-.15.37-.13.59.05.67.18.08.41.06.67-.05.26-.11.64-.15,1.14-.12l.57.04c.27-.23.46-.35.59-.34s.39-.16.79-.52c.13-.12.39-.16.77-.14l1.14-.12.96-.13.78-.33.97-.32c.25.02.44-.03.58-.15l.77-.14c.38.02.57-.09.59-.34.27-.23.53-.35.78-.33l.58-.15,1.14-.12,1.73-.46c.26-.11.77-.14,1.52-.09.63.04,1.08-.06,1.35-.29.12,0,.25-.05.39-.16.13-.12.33-.17.58-.15l.99-.69c.14-.24.4-.38.79-.42.38-.04.83-.1,1.34-.2.77-.2,1.17-.43,1.18-.68.14-.24.46-.35.97-.32l.75.05c.13-.12.29-.17.49-.16s.41-.04.67-.15c1.65-.14,2.54-.28,2.68-.4l.39-.16c.12,0,.32-.1.59-.34.02-.25.28-.36.78-.33.25.02.44-.03.58-.15.13-.12.36-.23.69-.34.32-.1.6-.09.85.05l.17.39c-.02.25.21.58.69.99.36.28.56.54.61.8.04.26-.07.63-.36,1.11-.57.98-1.04,1.45-1.42,1.43l-.59.34c-1.56.66-2.53.97-2.9.95s-.64.02-.77.14c-.27.24-.66.34-1.16.3-.77.21-1.23.37-1.36.48l-1.73.46-1.74.46-1.55.47-.96.13c-.4.35-.98.51-1.73.46-.38-.02-.7.08-.97.32l-.38-.02c-.25-.02-.45.04-.58.15-.13.12-.33.17-.58.15s-.45.04-.58.15l-1.33.1c-.13.12-.39.16-.77.14l-.97.32c-.14.25-.41.42-.79.52l-1.33.1-1.75.65-1.16.3-.39.16c-.25-.02-.38.04-.39.16-.13.12-.33.17-.58.15s-.51.03-.77.14c-.38-.02-.66.02-.86.13-.2.11-.36.17-.49.16-.39.23-.65.27-.77.14l-.97.32-1.16.3c-.63-.04-.97.32-1.02,1.07l-.47,1.49-.52,2.24-.87,4.68c-.02.25-.26,1.12-.74,2.61-.34,1.24-.5,1.93-.51,2.05l.15.58c.12.13.08.7-.11,1.7-.75,3.74-1.21,7-1.39,9.77-.55,4.64-.99,7.46-1.3,8.45-.29.49-.45,1.05-.49,1.67l-.15,2.27c-.18.75-.23,1.5-.15,2.26-.05.76-.15,1.38-.31,1.88-.14.12-.39,1.05-.75,2.8-.09,1.38-.28,2.32-.56,2.81l-.32,2.06c-.1,1.51-.23,2.51-.38,3.01-.17.62-.28,1.31-.32,2.06s-.15,1.32-.3,1.69l-.16,2.45c-.06.88-.17,1.57-.32,2.06-.14.24-.24.74-.29,1.5l-.27,1.31c-.46,1.23-.9,3.16-1.32,5.79-.24,1.75-.59,3.25-1.05,4.48-.42.6-.74,1.72-.97,3.35l-.4,3.2-.37,2.82c.09.51.09.95,0,1.33-.09.37-.13.62-.14.75-.29.49-.44.98-.48,1.49-.02.25-.34,1.3-.96,3.16l-.29,1.5-.05.75c.08.64.08,1.17,0,1.61-.09.44-.28.9-.56,1.39-.13.12-.43.79-.89,2.03-.04.63-.51,2.05-1.41,4.27l-2.09,5.93c-2.27,3.34-6,4.06-6.42,4.67-.22.49-1.7.42-1.74,1.05-.03.5-.24.04-.69,1.14l-.3.1-.31.22c-.25-.14-.4.35-.52.41-.13.05-.44.51-.71.74-.4.35-.54.76-.79.74l-1.29.36c0,.12-2.5.24-2.69.36-.2.11-1.9-.16-2.03-.17l-1.53-.33Z"/>
  <path class="cls-1" d="M483.35,187.51c-1.26-.25-2.21-.54-2.84-.85-.63-.32-1.51-.91-2.65-1.8-1.26-1.13-2.4-2.39-3.41-3.78-1.64-2.27-2.59-3.84-2.84-4.73,0-.38-.19-.95-.57-1.7-.38-.63-.57-1.14-.57-1.51,0-.12-.19-.76-.57-1.89l-.38-2.27-.95-6.05-.19-2.46c0-4.54.12-7.19.38-7.94l.19-2.46.57-3.03c0-.63.12-1.2.38-1.7,0-.5.12-1.14.38-1.89l.38-1.32c0-.38.31-1.01.95-1.89l.94-2.46c.12-.63.44-1.32.95-2.08.5-.5,1.01-1.2,1.51-2.08,1.39-2.14,2.96-3.72,4.73-4.73l.76-.57c.12-.12.57-.31,1.32-.57.63,0,1.2-.12,1.7-.38.5-.12,1.39-.19,2.65-.19h1.7l1.51.76,2.08,1.14.95.95c.12.13.28.32.47.57.19.25.41.51.66.76l1.33,2.27c.38.63.79,1.39,1.23,2.27.44.88.66,1.51.66,1.89s.44,1.26,1.32,2.65c.25.51.38,1.01.38,1.51l.19,1.32c.5,1.39.76,3.09.76,5.11,0,1.89-.25,3.47-.76,4.73l-.38.76.57-.38.76-.76.57-.19c.38,0,.63.19.76.57.5,1.26.76,1.96.76,2.08.12.51.19,2.02.19,4.54-.13.25-.19.54-.19.85s-.07.6-.19.85c0,.76-.13,1.39-.38,1.89-.13.25-.19.69-.19,1.32l-.19,1.13c-.63,1.89-.94,3.09-.94,3.59l-1.33,4.54c-.5.88-.82,1.77-.94,2.65-.76,1.51-1.26,2.46-1.51,2.84-1.13,2.4-2.33,4.1-3.59,5.11-.13.25-.28.44-.47.57-.19.13-.35.32-.47.57-1.64,1.39-3.72,2.08-6.24,2.08l-1.89-.19ZM472.57,161.21c.12,0,.25.76.38,2.27l.19,2.84c.25.51.38.95.38,1.32l.57,1.32c.38,1.01.76,2.4,1.14,4.16,0,.51.12.88.38,1.14,0,.13.06.25.19.38.12.13.19.32.19.57l.76.95c.5.38.76.69.76.95,0,.63.54,1.58,1.61,2.84,1.07,1.26,2.17,2.15,3.31,2.65.63.25,1.2.38,1.7.38h.76c.25.13.6.16,1.04.1.44-.06.85-.16,1.23-.28.76-.38,1.39-.82,1.89-1.32l1.89-1.7c.5-.25.88-1.01,1.14-2.27.5-1.26.76-2.08.76-2.46l.19-1.32c.25-.25.38-.44.38-.57,0-.25.06-.5.19-.76.12-.25.25-.5.38-.76.38-1.01.57-1.58.57-1.7v-.19c-.38-.38-.32-1.01.19-1.89.38-.38.57-.76.57-1.14l.38-1.89c.12,0,.31-.31.57-.95.5-1.51.76-3.09.76-4.73v-3.78c-.5.38-1.2.57-2.08.57-.38,0-.82-.12-1.33-.38-.5-.25-.88-.63-1.13-1.14l-.76-1.51c-.25-.5-.32-.76-.19-.76.25,0,.38-.12.38-.38,0-.38.06-.57.19-.57l.19-.19c.25-.25.44-.25.57,0l.57.19-.19-2.84c0-1.76-.06-2.71-.19-2.84-.25-.5-.38-.82-.38-.95.12-.5,0-1.32-.38-2.46l-.94-2.27-.38-.95-.76-.95c-.13-.38-.32-.57-.57-.57s-.38-.25-.38-.76c.12-.38,0-.76-.38-1.14-.13-.12-.25-.28-.38-.47-.13-.19-.19-.35-.19-.47,0-.25-.09-.47-.28-.66-.19-.19-.41-.28-.66-.28s-.63-.12-1.14-.38c-.88-.5-1.51-.57-1.89-.19,0,.13-.19.19-.57.19-.25,0-.63.13-1.13.38l-.76.57-1.14.57c-1.14.88-1.77,1.64-1.89,2.27,0,.38-.13.57-.38.57l-.95,1.51-1.14,1.7c-.25.51-.38.95-.38,1.32,0,.63-.19,1.14-.57,1.51-.25.76-.38,1.39-.38,1.89l-.57,1.7c-.25.63-.32,1.01-.19,1.14l-.38,1.14c-.25.25-.41.57-.47.95-.07.38-.09.88-.09,1.51,0,1.14-.07,1.83-.19,2.08l-.38,2.65-.19,2.84c-.13.88-.13,1.45,0,1.7Z"/>
  <path class="cls-1" d="M510.48,226.28c0-.38-.07-.63-.19-.76,0-.63-.07-1.07-.19-1.32l-.38-2.27c-.13-1.51-.22-3.75-.28-6.71-.06-2.96-.03-5.96.09-8.99.25-5.05.38-21.06.38-48.04-.13-10.21-.25-15.57-.38-16.08l-.76-1.32c-.38-.63-.57-1.45-.57-2.46l-.76-3.22c-.51-1.76-.76-3.09-.76-3.97-.25-2.27-.69-3.72-1.32-4.35-.51-.76-1.26-3.85-2.27-9.27l-.95-3.97c-.25-.88-.5-1.95-.76-3.22,0-1.39-.19-2.52-.57-3.4l-.57-3.59c-.5-4.66-1.14-8.07-1.89-10.21l-.38-1.51c0-1.01-.06-1.76-.19-2.27l-.95-6.05c-.38-2.52-.69-4.16-.95-4.92-.38-1.89-.57-3.22-.57-3.97l-.57-4.16c-.25-1.01-.44-2.9-.57-5.67,0-2.52.13-4.22.38-5.11,1.01-3.78,2.08-6.68,3.22-8.7.76-1.14,1.83-1.7,3.21-1.7l.95.19c1.01.51,1.89,1.51,2.65,3.03.76,1.64,1.51,3.72,2.27,6.24.76,2.52,1.2,4.86,1.32,7,.12,1.26.31,2.27.57,3.03.25.63.5,1.7.76,3.22,0,1.14.12,2.21.38,3.22l.57,3.97c0,1.01.06,1.8.19,2.36.12.57.19.92.19,1.04.25.76.38,1.58.38,2.46l.38,2.46.95,8.13v3.4c0,3.28.25,6.18.76,8.7l.38,1.51-.19.76c-.13,1.39-.16,3.44-.1,6.15.06,2.71.16,4.95.28,6.71l.19,3.03c-.13,1.51-.13,3.15,0,4.92.12,1.77.25,3.15.38,4.16l.19,1.89c.38,1.64.88,3.41,1.51,5.3l.57,1.89c.38,1.89.76,3.22,1.14,3.97.25.25.38.57.38.95l.76,1.7c.63.88,1.26,2.33,1.89,4.35l1.14,2.84,1.51,3.03c.38,1.01.76,1.7,1.13,2.08l.57,1.32,2.27,4.16,1.14,1.51,1.89,2.84c1.14,1.39,1.76,2.27,1.89,2.65.63.88,1.51,1.64,2.65,2.27.38.13.44.25.19.38-.51,0-.44.25.19.76.38.25.44.38.19.38l-.38.38c-.13.13-.51.13-1.14,0-1.26,0-1.89.13-1.89.38,0,.13-.19.19-.57.19s-1.01-.25-1.89-.76c-1.01-.5-1.89-1.14-2.65-1.89l-2.65-2.84c-.88-1.14-1.8-2.52-2.74-4.16-.95-1.64-1.74-3.03-2.36-4.16-.51-1.76-1.01-2.84-1.51-3.22-.88-1.14-1.39-2.21-1.51-3.22l-.76-2.27-.76-1.89-.19-.57v.95l-.38,4.73v1.14l.19,4.35c.25,2.9.44,4.54.57,4.92.12,1.64.12,4.92,0,9.84,0,2.4.06,3.78.19,4.16.25.76.38,1.45.38,2.08s-.07,1.14-.19,1.51c-.13,1.26-.19,3.09-.19,5.49l-.19,2.84-.57,10.02v2.27l.19,3.41v2.84c-.13.5-.19,1.2-.19,2.08.25.5.25,1.14,0,1.89,0,1.26-.06,2.2-.19,2.84v1.7h-.57c-.25-.13-.44-.13-.57,0-.13.12-.25.38-.38.76-.63,1.14-1.14,1.83-1.51,2.08-.25,0-.44-.19-.57-.57ZM499.13,65.31l.38,1.89.19,2.84.38,3.22c.5,2.4.82,4.73.94,7l.57,2.65.57,2.46c.25.51.38,1.32.38,2.46.5,3.03,1.01,5.49,1.51,7.38l.95,4.73.76,3.59.57,2.27c0,.13.19.95.57,2.46l.38,2.46c.12.51.44,1.8.95,3.88.5,2.08.82,3.12.95,3.12l-.19-2.65-.19-4.54-.57-8.7c0-2.02-.06-3.28-.19-3.78l-.19-2.46-.38-5.3c-.13-.5-.19-1.04-.19-1.61s-.06-1.16-.19-1.8l-.19-3.59-.38-1.89c0-.76-.32-3.15-.95-7.19,0-1.01-.13-2.02-.38-3.03-.51-1.39-.95-3.53-1.32-6.43-.13-.63-.25-1.32-.38-2.08-.13-.76-.32-1.51-.57-2.27-.13-.63-.69-2.52-1.7-5.67l-.38-.57-.19.38c-.5,1.01-.91,2.68-1.23,5.01-.31,2.33-.41,4.26-.28,5.77Z"/>
  <path class="cls-1" d="M540.64,190.72c-.51-.51-.76-.82-.76-.95l-.19-.76c-.13-.51-.19-1.14-.19-1.89s.06-1.32.19-1.7v-3.59c.12-.88.19-1.76.19-2.65s.06-1.64.19-2.27v-1.7c.25-.5.38-1.32.38-2.46v-.19c-.13-.12-.16-1.23-.09-3.31.06-2.08.09-3.18.09-3.31l.19-.57c-.25-.25-.25-.82,0-1.7v-14.75c0-.25-.03-.6-.1-1.04-.06-.44-.03-.79.1-1.04l-.19-5.86c-.13,0-.19-.88-.19-2.65l-.19-2.84c0-.12-.13-.31-.38-.57-.25-.12-.38-.38-.38-.76l-.19-.76c-.25-.5-.38-1.07-.38-1.7,0-.5.06-.88.19-1.14.12-.38.41-.79.85-1.23s.85-.79,1.23-1.04c1.26-.38,2.52-.06,3.78.95.12.38.5.69,1.14.95.5.51.76,1.13.76,1.89,0,.63-.06,1.01-.19,1.13-.25.13-.44.32-.57.57-.13.25-.19.51-.19.76l.38.95c.12.13.19.32.19.57l.38.57c.12.13.12.32,0,.57l-.19.76-.38.76c-.13.38-.07.69.19.95.12.25.12.88,0,1.89-.25.38-.25.69,0,.95,0,.25-.06.44-.19.57l-.19.76c0,.51-.07.88-.19,1.14-.25,1.13-.25,1.7,0,1.7v.38c-.13.25-.22.63-.28,1.14-.06.51-.09.95-.09,1.32v1.14c.25,1.51.19,2.52-.19,3.03-.25.63-.25,1.14,0,1.51.12.13.12.32,0,.57l-.19,1.51-.19,1.51c-.13.38-.13.57,0,.57v1.51l.19,3.03c.12.63.12,1.14,0,1.51-.13.25-.16.6-.09,1.04.06.44.16.73.28.85.12.25.12.44,0,.57-.25.25-.38.63-.38,1.14-.13.76-.16,1.48-.09,2.17.06.69.16,1.23.28,1.61v.57c-.13.25-.19,1.01-.19,2.27l-.38,1.89c-.13.13-.22.28-.28.47-.06.19-.03.47.09.85l.38,1.32c.25.51.31.95.19,1.32l-.19.95c0,.25.06.44.19.57.5.25.57.57.19.95-.25.25-.32.51-.19.76,0,.51-.07.88-.19,1.14-.25.5-.38,1.07-.38,1.7l.19.76c.12.12.19.38.19.76s.06.57.19.57v.76c-.13.38-.38.57-.76.57l-1.14.38-1.14.19c-.25,0-.63-.25-1.13-.76ZM538.93,114.11c-.13.13-.13.38,0,.76.12.38.25.63.38.76,0,.51.31.88.95,1.14.25.25.66.54,1.23.85.57.32,1.04.66,1.42,1.04v.47c0,.19.09.25.28.19.19-.06.53-.22,1.04-.47.12-.12.57-.25,1.33-.38.76-.12,1.32-.38,1.7-.76l-.38-.19c.25-.12.38-.28.38-.47s-.13-.35-.38-.47c-.13,0-.19-.12-.19-.38v-.57c-.25,0-.32-.06-.19-.19s.19-.25.19-.38.06-.19.19-.19l-.19-.57v-.19c.5,0,.57-.25.19-.76v-.38c-.13,0-.19-.25-.19-.76,0-.38-.13-.82-.38-1.32-.25-.5-.57-.82-.95-.95-.88-.38-1.83-.38-2.84,0-.25,0-.51.25-.76.76-.25.25-.54.44-.85.57-.32.13-.54.13-.66,0-.25,0-.25.13,0,.38-.13.13-.25.19-.38.19-.38.13-.44.25-.19.38.12.13,0,.19-.38.19-.25,0-.41.03-.47.09-.07.06-.03.22.09.47.25.13.38.35.38.66s-.13.47-.38.47Z"/>
  <path class="cls-1" d="M568.94,197.36c-1.26-.25-2.21-.54-2.84-.85-.63-.32-1.51-.91-2.65-1.8-1.26-1.13-2.4-2.39-3.41-3.78-1.64-2.27-2.59-3.84-2.84-4.73,0-.38-.19-.95-.57-1.7-.38-.63-.57-1.14-.57-1.51,0-.12-.19-.76-.57-1.89l-.38-2.27-.95-6.05-.19-2.46c0-4.54.12-7.19.38-7.94l.19-2.46.57-3.03c0-.63.12-1.2.38-1.7,0-.5.12-1.14.38-1.89l.38-1.32c0-.38.31-1.01.95-1.89l.94-2.46c.12-.63.44-1.32.95-2.08.5-.5,1.01-1.2,1.51-2.08,1.39-2.14,2.96-3.72,4.73-4.73l.76-.57c.12-.12.57-.31,1.32-.57.63,0,1.2-.12,1.7-.38.5-.12,1.39-.19,2.65-.19h1.7l1.51.76,2.08,1.14.95.95c.12.13.28.32.47.57.19.25.41.51.66.76l1.33,2.27c.38.63.79,1.39,1.23,2.27.44.88.66,1.51.66,1.89s.44,1.26,1.32,2.65c.25.51.38,1.01.38,1.51l.19,1.32c.5,1.39.76,3.09.76,5.11,0,1.89-.25,3.47-.76,4.73l-.38.76.57-.38.76-.76.57-.19c.38,0,.63.19.76.57.5,1.26.76,1.96.76,2.08.12.51.19,2.02.19,4.54-.13.25-.19.54-.19.85s-.07.6-.19.85c0,.76-.13,1.39-.38,1.89-.13.25-.19.69-.19,1.32l-.19,1.13c-.63,1.89-.94,3.09-.94,3.59l-1.33,4.54c-.5.88-.82,1.77-.94,2.65-.76,1.51-1.26,2.46-1.51,2.84-1.13,2.4-2.33,4.1-3.59,5.11-.13.25-.28.44-.47.57-.19.13-.35.32-.47.57-1.64,1.39-3.72,2.08-6.24,2.08l-1.89-.19ZM558.16,171.07c.12,0,.25.76.38,2.27l.19,2.84c.25.51.38.95.38,1.32l.57,1.32c.38,1.01.76,2.4,1.14,4.16,0,.51.12.88.38,1.14,0,.13.06.25.19.38.12.13.19.32.19.57l.76.95c.5.38.76.69.76.95,0,.63.54,1.58,1.61,2.84,1.07,1.26,2.17,2.15,3.31,2.65.63.25,1.2.38,1.7.38h.76c.25.13.6.16,1.04.1.44-.06.85-.16,1.23-.28.76-.38,1.39-.82,1.89-1.32l1.89-1.7c.5-.25.88-1.01,1.14-2.27.5-1.26.76-2.08.76-2.46l.19-1.32c.25-.25.38-.44.38-.57,0-.25.06-.5.19-.76.12-.25.25-.5.38-.76.38-1.01.57-1.58.57-1.7v-.19c-.38-.38-.32-1.01.19-1.89.38-.38.57-.76.57-1.14l.38-1.89c.12,0,.31-.31.57-.95.5-1.51.76-3.09.76-4.73v-3.78c-.5.38-1.2.57-2.08.57-.38,0-.82-.12-1.33-.38-.5-.25-.88-.63-1.13-1.14l-.76-1.51c-.25-.5-.32-.76-.19-.76.25,0,.38-.12.38-.38,0-.38.06-.57.19-.57l.19-.19c.25-.25.44-.25.57,0l.57.19-.19-2.84c0-1.76-.06-2.71-.19-2.84-.25-.5-.38-.82-.38-.95.12-.5,0-1.32-.38-2.46l-.94-2.27-.38-.95-.76-.95c-.13-.38-.32-.57-.57-.57s-.38-.25-.38-.76c.12-.38,0-.76-.38-1.14-.13-.12-.25-.28-.38-.47-.13-.19-.19-.35-.19-.47,0-.25-.09-.47-.28-.66-.19-.19-.41-.28-.66-.28s-.63-.12-1.14-.38c-.88-.5-1.51-.57-1.89-.19,0,.13-.19.19-.57.19-.25,0-.63.13-1.13.38l-.76.57-1.14.57c-1.14.88-1.77,1.64-1.89,2.27,0,.38-.13.57-.38.57l-.95,1.51-1.14,1.7c-.25.51-.38.95-.38,1.32,0,.63-.19,1.14-.57,1.51-.25.76-.38,1.39-.38,1.89l-.57,1.7c-.25.63-.32,1.01-.19,1.14l-.38,1.14c-.25.25-.41.57-.47.95-.07.38-.09.88-.09,1.51,0,1.14-.07,1.83-.19,2.08l-.38,2.65-.19,2.84c-.13.88-.13,1.45,0,1.7Z"/>
  <path class="cls-1" d="M91.94,178.97l.09.62s-.06.6.05,1.3.28,1.12.28,1.12l.36.87.11,1.24s.28.43.59,1.14.68,1.78.68,1.78c.26,1.06-.38,1.75-.46,1.83-.37.36-1.3,1.18-1.3,1.18-.61-.14-1.42-1-1.95-1.44-.54-.45-1.33-2.34-1.53-2.9l-.73-1.3c-.61-1.67-.93-2.62-.96-2.85l-.53-1.15c-.37-.88-.6-1.61-.69-2.19-.14-.92-.38-1.71-.71-2.36l-.38-1.35c-.1-.69-.23-1.14-.38-1.35l-.32-2.07c-.12-.8-.4-1.88-.84-3.22-.75-2.59-1.37-5.49-1.86-8.71-.19-1.26-.36-2.18-.51-2.75-.15-.56-.29-.95-.44-1.17-.3-.42-.48-.87-.55-1.33l-.18-1.21c-.5-.98-.8-1.76-.88-2.33s-.22-1.05-.4-1.44c-.18-.38-.35-.74-.52-1.07-.35-.77-.47-1.93-.35-3.47l.51-1.31.17-.03.32-.22c.19-.26.36-.35.49-.25l.34-.05c.13.1.21.21.22.32.26.2.45.28.57.27.23-.03.41,0,.54.09l.34-.05c.23-.03.53.18.89.66.36.47.66,1.05.88,1.72.97,1.74,1.52,3,1.64,3.81.09.58.2.91.33,1.01.32.54.43.88.33,1.01-.06.36,0,.82.21,1.38l.46,1.87c.69,2.25.7,3.29,1,3.71.13.1.28.52.32.75s.16.56.06.69c-.04.21-.13.46-.05,1.04.12.81.11,1.15.03,1.4-.11.84-.19,1.43.19,2.12.15.21.46,1.41,1.27,3.1l.18,1.21c.15.21.26.55.33,1.01-.1.13-.09.54.01,1.23.16,1.04.21,1.79.17,2.27.16,1.03.32,1.71.49,2.04l.43,1.7c.12.81.24,1.2.36,1.18l1.25.94ZM91.62,181.44l-.02,2.75-1.35.86-3.13-7.75c.36-.78.42-1.29.2-1.52-.08-.41,0-.78.29-1.12.69-1.69,1.06-3.25,1.11-4.68.32-2.61.75-2.18.94-2.93l.5-2.32c.16-.03.48-1.68.68-2,.19-.32.07-.97.01-1.24-.08-.41-.07-.76.04-1.07.25-.47.32-.98.2-1.52-.08-.41,0-.78.29-1.12.14-.17.3-.45.47-.84.18-.39.31-.81.39-1.25,0,0,1.09-2.27.95-2.95l.66-1.83.29-1.12.29-1.12c.36-.78.51-1.3.45-1.58-.11-.54-.1-.9.04-1.07l.74-1.42c1.73-3.32,2.88-5.33,3.43-6.01.25-.47.65-.84,1.2-1.1.55-.25.9-.47,1.04-.64,1.41-.72,2.67-.91,3.78-.58.56.17,1.09.44,1.6.83.51.39,1.1.93,1.77,1.64l1.67,1.77c.16-.03.29.15.38.56l.42,2.03.63,1.77c.08.41.22.66.42.76.39.2.65.43.79.68.14.26.17.6.09,1.04-.19.75-.19,1.17,0,1.27l.3,1.42-.03.99-1.06.95-.76,1.11s-.83.89-1.88,1.47c-1.05.58-2.11-2.16-2.11-2.16l-.2-3.69-1.48-3.52-.85-2.78-1.3-.1-.83,1.02-1.46,1.35c-.33.92-.66,1.81-.93,2.15l-.53,1.65s-1.53,4.39-2.02,6.18c0,0-.93,2.41-.84,2.81l-1.03,3.13s-.83,3.78-1.16,3.84l-.86,2.41s-.33,2.39-.46,2.55l-.25,2.38-.38,1.38c-.14.17-.13,1.71-.26,2.73.06.27.01-.34-.45,1.59"/>
  <path class="cls-1" d="M356.95,168.36l.06.62s-.09.6,0,1.3.23,1.13.23,1.13l.32.88.06,1.25s.26.44.54,1.17.6,1.81.6,1.81c.22,1.07-.45,1.73-.54,1.81-.39.35-1.35,1.13-1.35,1.13-.6-.17-1.37-1.06-1.89-1.53-.52-.47-1.23-2.4-1.4-2.96l-.67-1.33c-.53-1.7-.81-2.66-.84-2.89l-.48-1.18c-.33-.9-.53-1.64-.59-2.22-.1-.92-.3-1.72-.61-2.39l-.32-1.37c-.07-.69-.18-1.15-.32-1.37l-.22-2.08c-.09-.81-.32-1.89-.7-3.26-.63-2.62-1.12-5.55-1.47-8.79-.14-1.27-.27-2.19-.39-2.76-.12-.57-.25-.96-.39-1.19-.28-.44-.45-.89-.5-1.35l-.13-1.21c-.46-1-.72-1.79-.78-2.37s-.17-1.06-.33-1.46c-.16-.39-.32-.76-.47-1.09-.32-.78-.38-1.95-.2-3.49l.56-1.29.17-.02.33-.21c.21-.26.37-.33.5-.23l.35-.04c.13.11.2.22.21.33.26.21.44.3.56.29.23-.02.41.02.54.12l.35-.04c.23-.02.52.21.86.7.34.49.61,1.07.8,1.76.89,1.78,1.38,3.07,1.47,3.88.06.58.16.92.29,1.02.29.55.39.9.29,1.02-.08.36-.03.82.15,1.39l.38,1.89c.6,2.28.55,3.31.84,3.75.13.1.26.53.28.76s.14.57.03.69c-.05.2-.15.45-.09,1.03.09.81.05,1.15-.03,1.4-.15.83-.25,1.42.1,2.12.14.22.4,1.43,1.14,3.16l.13,1.21c.14.22.24.56.29,1.02-.1.13-.12.54-.04,1.23.11,1.04.13,1.8.07,2.27.11,1.04.24,1.73.4,2.06l.36,1.72c.09.81.19,1.21.3,1.19l1.21,1ZM356.52,170.81l-.14,2.74-1.38.8-2.79-7.88c.39-.76.48-1.27.27-1.51-.07-.41.04-.77.34-1.1.76-1.66,1.2-3.2,1.31-4.62.44-2.59.84-2.15,1.07-2.89l.6-2.29c.16-.03.56-1.65.76-1.97.21-.31.11-.96.07-1.24-.07-.41-.04-.76.09-1.06.27-.46.36-.97.27-1.51-.07-.41.04-.77.34-1.1.14-.16.32-.44.51-.82.2-.38.34-.79.45-1.23,0,0,1.19-2.22,1.07-2.9l.74-1.8.34-1.1.34-1.1c.39-.76.57-1.28.52-1.55-.09-.54-.06-.9.08-1.06l.81-1.39c1.88-3.25,3.11-5.19,3.69-5.85.27-.46.68-.81,1.25-1.04.56-.23.92-.43,1.06-.59,1.44-.65,2.71-.79,3.8-.41.55.19,1.07.49,1.57.9.49.41,1.06.98,1.7,1.72l1.59,1.84c.16-.03.28.16.35.57l.33,2.04.55,1.8c.07.41.19.67.38.78.38.22.63.46.76.72.13.26.14.61.04,1.04-.23.74-.24,1.16-.05,1.27l.23,1.43-.07.98-1.1.91-.81,1.08s-.87.85-1.94,1.39c-1.07.54-2.01-2.25-2.01-2.25l-.04-3.7-1.33-3.58-.72-2.81-1.3-.15-.87.98-1.51,1.28c-.37.9-.74,1.78-1.02,2.11l-.6,1.63s-1.72,4.32-2.29,6.09c0,0-1.03,2.36-.96,2.77l-1.17,3.08s-.99,3.74-1.33,3.79l-.96,2.37s-.43,2.37-.57,2.53l-.35,2.37-.44,1.37c-.15.16-.2,1.71-.38,2.71.04.27.03-.34-.52,1.57"/>
</svg>