<?xml version="1.0" encoding="UTF-8"?>
<svg id="Lager_1" xmlns="http://www.w3.org/2000/svg" viewBox="0 0 511.67 367.95">
  <defs>
    <style>
      .cls-1 {
        fill: #fff;
      }
    </style>
  </defs>
  <path class="cls-1" d="M4.93,348.07c11.98-41.93,22.99-84.13,33.01-126.57,10.02-42.44,19.04-85.11,27.07-127.97,1.97-10.5,3.87-21.01,5.72-31.54.91-5.2,1.77-10.41,2.7-15.61.7-3.94,1.5-7.96,3.09-11.66s3.95-6.81,7.5-8.67c4.39-2.29,9.78-3.08,14.57-4.14,10.51-2.32,21.16-3.99,31.88-4.98,5.36-.49,10.74-.82,16.12-.98s10.43-.24,15.51.85c8.32,1.78,15.11,6.83,20.54,13.22s9.57,14.08,13.29,21.68c4.34,8.86,8.28,17.91,11.8,27.13,14.08,36.75,21.84,75.81,23.49,115.1.83,19.79.14,39.64-2.06,59.32-1.42,12.68-3.36,37.37-21.44,36.19-8.69-.57-15.17-7.31-18.75-14.72-4.3-8.9-5.63-19.32-6.29-29.07-1.38-20.29.99-40.69-1.86-60.9-2.35-16.66-8.53-34.58-22.17-45.38-11.61-9.2-28.55-13.48-42.64-7.7-17.68,7.26-21.61,27.28-25.26,44.01-4.64,21.26-7.89,42.8-12.58,64.05-4.2,18.99-9.6,37.87-18.07,55.43-4.12,8.53-8.94,16.73-14.59,24.32s-11.59,14.11-19.08,19.2c-6.9,4.69-14.78,7.71-23.23,7.12-3.21-.23-3.2,4.77,0,5,18.85,1.34,34.33-12.85,45.05-26.73,11.84-15.33,20.12-33.07,26.21-51.38,6.64-19.99,10.6-40.72,14.43-61.4,2-10.8,3.97-21.62,6.27-32.36,2.05-9.56,3.83-19.81,8.27-28.61,3.59-7.09,9.22-12.59,16.93-14.9,7.01-2.1,14.56-1.59,21.48.58,7.33,2.3,13.9,6.54,18.95,12.33,5.73,6.58,9.58,14.61,12.06,22.93,5.64,18.94,4.38,38.79,4.37,58.29,0,10.93.43,21.92,2.61,32.66,1.84,9.06,5.07,18.49,11.93,25.02,6.15,5.86,15.69,9.21,23.94,6.05,7.57-2.9,11.97-9.83,14.44-17.24,2.78-8.33,3.49-17.36,4.38-26.04,1.04-10.05,1.68-20.13,1.93-30.23.5-20.1-.56-40.23-3.22-60.15-2.65-19.92-6.84-39.63-12.69-58.86-5.77-18.95-13.08-37.55-22.09-55.2-7.74-15.15-18.85-30.98-36.85-33.93-5.29-.87-10.64-.83-15.98-.65s-10.97.54-16.44,1.07c-10.83,1.05-21.61,2.75-32.24,5.11-5,1.11-10.29,2.07-14.94,4.32-3.84,1.86-6.86,5.06-8.87,8.8-4.31,8.01-5.02,17.71-6.55,26.52-3.79,21.8-7.85,43.56-12.15,65.27s-8.88,43.36-13.7,64.96c-4.82,21.6-9.9,43.14-15.23,64.62s-10.92,42.89-16.76,64.24c-2.82,10.3-5.7,20.59-8.63,30.87-.89,3.1,3.94,4.42,4.82,1.33h0Z"/>
  <path class="cls-1" d="M144.8,70.93c-4.34-10.18-19.12-13.37-27.3-6.01-2.53,2.28-3.96,5.5-3.45,8.91.46,3.07,2.41,5.78,4.75,7.73,4.93,4.12,12.72,6.73,19,4.42s9.98-10.42,5.35-16.03c-.86-1.04-2.64-.89-3.54,0-1.03,1.03-.86,2.49,0,3.54.92,1.12.82,2.77.27,4.18-.64,1.63-1.95,2.94-3.6,3.56-4.39,1.65-10.07-.22-13.65-2.95-1.63-1.25-3.27-3.01-3.65-5.09s.84-3.75,2.34-4.97c2.8-2.27,6.59-2.79,9.93-2.06,4.13.9,7.55,3.37,9.23,7.3.53,1.24,2.36,1.52,3.42.9,1.29-.75,1.43-2.17.9-3.42h0Z"/>
  <path class="cls-1" d="M236.2,158.61c-1.09-6.36-1.78-17,6.21-19.07,4.48-1.16,9.19.94,12.99,3.15,4.4,2.55,8.59,5.59,13.55,6.99,10.66,3.01,21.41-1.83,30.91-6.26s19.57-8.59,30.03-10.94c18.54-4.17,40.64-2.46,54.9,11.47,5.92,5.78,10.51,14.27,8.53,22.72-1.7,7.25-7.5,13.49-14.44,16.1-3.4,1.29-7.13,1.85-10.72,1.14-4.61-.91-8.67-3.4-12.49-6.03s-7.71-5.78-11.99-7.95-8.69-3.52-13.32-3.48-9.01,1.68-12.09,5.06-4.35,7.6-4.92,11.96c-.61,4.67-.35,9.38-.28,14.08.08,5.83.05,11.67-.08,17.5-.26,11.66-.93,23.32-2.01,34.93-.53,5.68-1.15,11.34-1.88,17-.66,5.11-1.54,10.25-3.27,15.13-2.71,7.63-9.15,16.15-18.01,16.5-2.15.08-3.62-.66-4.67-2.55-1.17-2.08-1.8-4.5-2.48-6.77-1.47-4.98-2.51-10.09-3.2-15.24-2.81-21.15-.41-42.59-2.82-63.77-.59-5.16-1.36-10.36-2.72-15.38-1.3-4.8-3.41-9.53-7.18-12.91-3.49-3.12-7.77-4.99-11.84-7.2s-7.54-5.09-10.36-8.82-5.08-7.95-7.3-12.09c-1.52-2.84-5.84-.32-4.32,2.52,2.42,4.53,4.9,9.02,8.06,13.08s6.71,7.05,11.05,9.44c4.09,2.25,8.68,4.02,12.01,7.4s4.73,8.15,5.73,12.68c4.76,21.56,2.27,43.85,3.77,65.7.73,10.69,2.18,21.91,6.33,31.87.96,2.31,2.31,4.54,4.54,5.82,2.4,1.38,5.2,1.36,7.85.92,4.59-.77,8.81-3.29,12.12-6.49,7.68-7.42,10.12-18.1,11.49-28.31,1.6-11.86,2.7-23.8,3.39-35.74s.96-23.97.78-35.97c-.11-7.62-1.54-19.27,6.29-23.84,3.55-2.08,7.94-1.78,11.77-.7,4.64,1.3,8.6,3.93,12.49,6.69,7.72,5.48,15.84,11.32,25.83,10.03,8.51-1.1,16.26-6.39,20.69-13.71,2.2-3.63,3.52-7.81,3.65-12.06.14-4.75-1.26-9.51-3.48-13.67-4.64-8.73-13-15.17-21.97-19-9.43-4.03-19.8-5.59-30.02-5.01-11.15.63-22.04,3.57-32.41,7.63-5.31,2.08-10.45,4.5-15.62,6.87-4.85,2.22-9.85,4.3-15.14,5.2s-10.12.03-14.72-2.43-8.74-5.67-13.71-7.38-10.4-1.87-14.66,1.11c-3.54,2.48-5.48,6.4-6.11,10.6s-.28,8.54.45,12.77c.23,1.33,1.87,2.08,3.08,1.75,1.41-.39,1.98-1.74,1.75-3.08h0Z"/>
  <path class="cls-1" d="M407.5,84.73c4.78-17.37-1.41-35.02.04-52.59.6-7.3,2.73-15.24,8.02-20.59,4.27-4.32,10.45-6.97,16.56-6.62,17.33.99,14.12,23.87,11.58,35.22-.97,4.32-2.2,8.58-3.68,12.76-1.29,3.65-2.81,7.21-3.96,10.91-1.96,6.32-3.4,14.1.44,20.03,4.33,6.69,12.16,7.53,19.41,6.45,3.73-.56,7.36-1.57,11.05-2.33s7.68-1.13,11.56-1.02c7.43.22,15.31,2.39,20.84,7.59,4.71,4.44,7.62,10.91,7.42,17.41-.2,6.46-4.04,11.79-9.7,14.7-6.06,3.12-13.3,3.51-19.99,3.38-13.47-.26-29.06-3.31-40.62,5.63-6.26,4.84-8.91,12.22-9.91,19.83-1.17,8.86-1.21,17.95-1.59,26.87-.83,19.54-1.35,39.1-1.54,58.65-.09,9.36-.42,18.8,0,28.16.36,7.8,2.52,15.32,9.62,19.53,3.28,1.95,6.99,3.06,10.53,4.41,3.3,1.26,6.42,2.95,9.3,4.99,5.85,4.14,10.57,9.87,13.57,16.37,5.85,12.66,3.45,28.26-6,38.55-9.34,10.18-24.81,12.86-37.08,6.4-14.13-7.44-16.83-24.24-17.97-38.68-1.53-19.34-1.77-38.76-1.63-58.16.13-19.3.64-38.6.63-57.9,0-9.7-.14-19.4-.52-29.09-.35-9-.63-18.12-1.95-27.04-.58-3.92-1.56-7.79-3.32-11.35-1.85-3.75-4.65-6.68-7.94-9.2-3.11-2.38-6.38-4.49-9.19-7.24s-5.16-5.8-6.96-9.26c-3.31-6.37-4.1-13.75-1.49-20.5,2.35-6.08,7.67-11.17,14.38-11.64,5.79-.41,11.74,2,14.54,7.27,1.51,2.84,5.83.32,4.32-2.52-3.24-6.08-9.84-9.46-16.58-9.77-7.27-.34-13.86,3.22-18.12,9.02s-5.94,13.92-4.66,21.24c1.38,7.91,6.02,15.09,11.84,20.48,3.21,2.97,6.99,5.17,10.3,8,3.06,2.62,5.18,5.83,6.44,9.65s1.81,8.05,2.16,12.15c.41,4.8.7,9.61.95,14.42,1.02,20.08.88,40.2.6,60.3-.28,20.11-.71,40.23-.27,60.34.22,10.04.65,20.09,1.42,30.1.63,8.12,1.48,16.42,4.31,24.12,2.68,7.29,7.1,13.79,13.66,18.09,5.98,3.92,13.3,5.83,20.43,5.66,15.33-.35,27.94-10.48,33.31-24.58,5.49-14.42,1.82-30.32-8.11-41.85-4.93-5.73-11.25-10.12-18.27-12.9-3.72-1.47-7.68-2.52-11.02-4.78-3.15-2.13-4.8-5.39-5.58-9.03-.89-4.1-.73-8.38-.74-12.55,0-4.95,0-9.9.03-14.85.07-10.13.22-20.26.45-30.39.24-10.13.56-20.26.97-30.38.39-9.59.53-19.28,1.5-28.84.77-7.55,3.13-15.16,9.93-19.34,6.09-3.74,13.64-4.24,20.6-4.14,13.89.19,29.95,3.44,41.81-5.95,11.91-9.43,9.62-27.36-.56-37.17-5.81-5.6-13.8-8.31-21.7-9.05-4.22-.39-8.46-.15-12.65.48-3.85.57-7.6,1.64-11.41,2.4-6.43,1.27-15.3,1.6-17.65-6.14-2.03-6.69,1.29-14.41,3.67-20.57,3.4-8.82,5.82-17.89,7.03-27.27.96-7.47.94-15.88-3.24-22.46-8.02-12.64-25.92-9.97-35.24-.37-12.08,12.44-9.83,31.99-8.3,47.67.9,9.18,1.59,18.55-.89,27.56-.85,3.11,3.97,4.43,4.82,1.33h0Z"/>
</svg>