<?xml version="1.0" encoding="UTF-8"?>
<svg id="Lager_1" xmlns="http://www.w3.org/2000/svg" viewBox="0 0 83.41 100.25">
  <defs>
    <style>
      .cls-1 {
        fill: #fff;
      }
    </style>
  </defs>
  <path class="cls-1" d="M3.05,100.15c-.19-.06-.28-.22-.28-.46,0-.06.06-.03.18.09.12.06.25.06.37,0,.12-.06.21-.25.28-.55,0-.68-.12-1.05-.37-1.11-.12-.12-.23-.29-.32-.51-.09-.22-.17-.57-.23-1.06-.06-.55-.06-1.17,0-1.85,0-.55.06-1.26.18-2.12l.09-1.75.28-2.12c.12-1.29.21-2,.28-2.12l.09-1.85.28-1.94.37-1.66c0-.62.06-1.05.18-1.29v-.74l.55-3.6c.12-.61.28-1.54.46-2.77l.09-1.11c.06-.25.09-.68.09-1.29s.12-1.17.37-1.66c.06-.18.21-.83.46-1.94.31-1.42.49-2.18.55-2.31.37-1.23.55-2.25.55-3.05v-1.02l1.2-5.54c.12-.31.22-.66.28-1.06.06-.4.09-.72.09-.97s-.06-.37-.19-.37c-.06-.06-.68.15-1.85.65l-.28.09h-.09c0,.06-.09.09-.28.09l-.83.28-.74.18c-.25.06-.43.18-.55.37l-.46.37c-.18,0-.28.03-.28.09l-1.29.83-.65.09c-.43,0-.82-.15-1.15-.46-.34-.31-.51-.68-.51-1.11l.09-.46c.12-.49.46-.95,1.02-1.38.18-.12.46-.18.83-.18.61,0,.95-.09,1.02-.28.25-.18.52-.31.83-.37l.28-.28.28-.09.09-.18c.12-.12.55-.18,1.29-.18.25,0,.43-.06.55-.19.18-.18.55-.31,1.11-.37l.37-.09.55-.18c.8,0,1.32-.06,1.57-.18l.18-.74.37-1.48c.74-2.65,1.2-4.86,1.38-6.65.12-.61.21-.95.28-1.02l.55-2.49.65-2.86.46-2.12.65-3.32c.31-.98.49-1.81.55-2.49.25-.98.49-1.94.74-2.86.18-.74.28-1.17.28-1.29l.65-2.22c.37-1.23.55-1.91.55-2.03l.28-1.11.28-1.38c0-.43.15-.98.46-1.66l.74-2.22.92-3.23c.49-1.48.95-2.61,1.38-3.42.25-.49.49-1.11.74-1.85.18-.74.58-1.42,1.2-2.03.55-.68,1.14-1.02,1.75-1.02.49,0,1.05.31,1.66.92.55.68,1.17,1.97,1.85,3.88l1.11,4.15c.18.98.34,2.03.46,3.14.12,1.11.21,2,.28,2.68l.09,1.38c.18.55.31,1.35.37,2.4,0,.55.06,1.02.18,1.38.12.74.19,1.57.19,2.49.06.49.09,1,.09,1.52s.03.97.09,1.34l.09,2.03.09,1.85c.12.62.18,1.29.18,2.03l.09,2.12c0,.55.06,1.26.18,2.12,0,.86.06,1.42.18,1.66l.09,1.85c0,2.4.06,3.72.18,3.97.06.06.43.03,1.11-.09l.46-.18c.18-.18.37-.28.55-.28s.28-.03.28-.09c.12-.12.28-.18.46-.18s.28.03.28.09c0,.12.12.31.37.55.31.31.43.55.37.74-.18.49-.49.83-.92,1.02-.25.18-.54.34-.88.46-.34.12-.6.18-.78.18-.12,0-.22.03-.28.09h-.18c-.12,0-.22.03-.28.09l-.28.09c-.18.06-.29.22-.32.46-.03.25-.02.68.05,1.29.06.92.08,1.68.05,2.26-.03.59-.05,1.06-.05,1.43v2.03c0,1.17.03,1.85.09,2.03,0,.06.01.23.05.51.03.28.05.75.05,1.43.12,1.42.21,2.19.28,2.31l.09.92c0,.31.03.55.09.74.06.18.09.55.09,1.11,0,1.23.03,2.34.09,3.32,0,2.09.09,3.23.28,3.42.12.12.18.43.18.92l-.09,1.38v1.57l.28,4.34.09,2.68.18,1.85c0,.55.03.95.09,1.2.12.49.18.92.18,1.29l.18,1.02c.18.92.28,1.75.28,2.49,0,.31.06.65.19,1.02l.28,1.48.09,1.48.18.83c0,.12-.06.19-.18.19l-.09-.09c-.18,0-.28.19-.28.55,0,.18-.03.31-.09.37,0,.18-.06.4-.18.65,0,.31-.06.46-.18.46l-.18.09c-.06.06-.28-.49-.65-1.66-.37-1.17-.65-2.19-.83-3.05-.55-3.57-.89-6.03-1.02-7.38l-.09-1.02-.09-1.48c0-.98-.06-1.6-.18-1.85l-.09-1.57c-.06-2.22-.18-3.97-.37-5.26l-.37-6.92-.09-2.86-.18-3.32-.09-2.86c0-3.57-.06-6.09-.18-7.57,0-.43-.02-.77-.05-1.02-.03-.25-.11-.37-.23-.37-.18,0-.34.03-.46.09-.25.12-.52.19-.83.19l-.37.09-.37.09h-.14s-.05.03-.05.09c-.06.06-.28.09-.65.09-.8.12-1.26.25-1.38.37-.06.06-.31.15-.74.28-.37,0-.62.06-.74.18l-.65.18-.65.18c-.12.12-.43.22-.92.28-.25,0-.37.03-.37.09-.06.06-.18.09-.37.09l-.55.18c-.12.06-.28.09-.46.09h-.28c-.12.12-.34.18-.65.18l-.92.37-.83.28-.65.09-1.02.37c-.18,0-.43.09-.74.28l-.65.18-.37.18-.46.09-.55.18c-.12,0-.31.06-.55.18-.06,0-.15.06-.28.18-.43,1.79-.83,3.94-1.2,6.46-.12.99-.28,1.75-.46,2.31l-.18,1.48c-.12.37-.18.77-.18,1.2l-.28,1.11c0,.25-.18,1.26-.55,3.05l-.46,2.31c-.06.74-.25,1.79-.55,3.14-.06.62-.28,1.6-.65,2.95-.12,1.11-.22,2.09-.28,2.95-.06,1.23-.22,2.31-.46,3.23l-.19,1.38-.09,1.2-.46,3.05-.28,2.4-.09,1.11-.18,1.48-.09,1.2c-.06.92-.25,1.94-.55,3.05-.12.61-.19,1.08-.19,1.38l-.37,2.03c0,.12-.06.18-.18.18v-.18l.09-.28c0-.12-.03-.18-.09-.18s-.12.06-.18.18c-.06.25-.22.43-.46.55-.18.12-.4.12-.65,0ZM12.92,48.46c0,.06.03.09.09.09.06-.06.21-.09.46-.09l.37-.09c.06-.06.21-.09.46-.09.18.06.37.06.55,0,.19-.06.28-.15.28-.28h.37l.74-.18c.37-.12.68-.18.92-.18s.4-.03.46-.09c.12-.12.37-.21.74-.28l.92-.28.28-.18c.12,0,.18-.03.18-.09.18-.06.4-.12.65-.18.25-.06.46-.09.65-.09.25,0,.37-.03.37-.09.06-.06.15-.09.28-.09l.37-.18c.18-.18.31-.21.37-.09l.55-.09c.12-.06.28-.09.46-.09l.37-.09c.12-.12.28-.18.46-.18s.28-.03.28-.09c.06-.06.18-.09.37-.09l.28-.18c.25-.12.65-.21,1.2-.28.12-.06.26-.09.42-.09s.26-.03.32-.09c.37-.12.68-.15.92-.09.12.06.34,0,.65-.18l.74-.46.37-.18c.12,0,.21-.09.28-.28.06-.12.06-.71,0-1.75l-.09-2.68c0-1.11-.06-2.09-.18-2.95l-.18-2.4c0-2.03-.09-3.88-.28-5.54l-.18-2.22-.09-1.75-.19-1.75-.09-1.57c-.18-.8-.34-2.34-.46-4.62,0-.61-.06-1.23-.18-1.85l-.28-1.48c0-.8-.18-2.06-.55-3.78-.18-.92-.28-1.48-.28-1.66-.12-.92-.4-1.92-.83-3-.43-1.08-.8-1.8-1.11-2.17l-.19-.28-.18.18c-.31.37-.86,1.49-1.66,3.37-.8,1.88-1.35,3.4-1.66,4.57l-.37,1.48c-.25.43-.46,1.17-.65,2.22-.25,1.11-.46,1.85-.65,2.22l-.46,2.03c-.25.86-.37,1.45-.37,1.75l-.28,1.2-.37,1.57c-.18.43-.34,1.14-.46,2.12l-.74,3.05c-.12.31-.2.59-.23.83-.03.25-.08.43-.14.55-.06.55-.18,1.22-.37,1.98-.18.77-.34,1.43-.46,1.98-.25.86-.46,1.85-.65,2.95-.12,1.11-.22,1.75-.28,1.94-.49,2.09-.8,3.42-.92,3.97l-.65,3.6c-.31,1.42-.46,2.31-.46,2.68v.19Z"/>
  <path class="cls-1" d="M43.95,76.78l.03.33s-.05.32,0,.69.12.6.12.6l.17.47.03.66s.14.23.29.62.32.96.32.96c.12.57-.24.92-.29.96-.21.18-.71.6-.71.6-.32-.09-.73-.56-1-.81-.27-.25-.65-1.27-.74-1.57l-.35-.7c-.28-.9-.43-1.41-.44-1.53l-.25-.62c-.18-.48-.28-.87-.31-1.17-.05-.49-.16-.91-.32-1.27l-.17-.72c-.04-.37-.1-.61-.17-.72l-.12-1.1c-.05-.43-.17-1-.37-1.72-.34-1.39-.59-2.94-.78-4.65-.07-.67-.14-1.16-.2-1.46-.06-.3-.13-.51-.21-.63-.15-.23-.24-.47-.26-.71l-.07-.64c-.24-.53-.38-.95-.41-1.25s-.09-.56-.18-.77c-.08-.21-.17-.4-.25-.58-.17-.41-.2-1.03-.11-1.85l.3-.68h.09s.17-.12.17-.12c.11-.14.2-.18.27-.12l.18-.02c.07.06.11.11.11.17.14.11.23.16.3.15.12-.01.22,0,.29.06l.18-.02c.12-.01.27.11.46.37.18.26.32.57.42.93.47.94.73,1.62.78,2.05.03.31.08.49.15.54.15.29.2.47.15.54-.04.19-.02.44.08.73l.2,1c.32,1.2.55,1.92.7,2.15.07.06.11.14.12.27s0,.22-.06.29c-.06,0-.08.16-.04.47.05.43.04.71,0,.84-.08.44-.01.74.19.91.07.12.17.76.3,1.92l.07.64c.07.12.12.3.15.54-.06.07-.06.29-.02.65.06.55.07.95.04,1.2.06.55.13.91.21,1.09l.19.91c.05.43.1.64.16.63l.64.53ZM43.72,78.08l-.08,1.45-.73.42-1.48-4.17c.21-.4.25-.67.14-.8-.04-.22.02-.41.18-.58.4-.88.63-1.7.69-2.45.23-1.37.45-1.14.57-1.53l.32-1.21c.09-.01.29-.88.4-1.04.11-.17.06-.51.04-.65-.04-.22-.02-.4.05-.56.14-.25.19-.51.14-.8-.04-.22.02-.41.18-.58.08-.09.17-.23.27-.43.1-.2.18-.42.24-.65,0,0,.63-1.18.57-1.54l.39-.95.18-.58.18-.58c.21-.4.3-.68.28-.82-.05-.29-.03-.48.04-.56l.43-.74c.99-1.72,1.65-2.75,1.95-3.1.14-.25.36-.43.66-.55.3-.12.49-.23.56-.31.76-.35,1.43-.42,2.01-.22.29.1.57.26.83.48.26.22.56.52.9.91l.84.97c.09-.01.15.09.19.3l.18,1.08.29.95c.04.22.1.35.2.41.2.12.33.24.4.38.07.14.07.32.02.55-.12.39-.13.62-.03.67l.12.76-.04.52-.58.48-.43.57s-.46.45-1.03.74c-.57.28-1.06-1.19-1.06-1.19l-.02-1.96-.7-1.89-.38-1.49-.69-.08-.46.52-.8.68c-.2.48-.39.94-.54,1.12l-.32.86s-.91,2.29-1.21,3.22c0,0-.55,1.25-.51,1.47l-.62,1.63s-.53,1.98-.7,2.01l-.51,1.26s-.23,1.26-.3,1.34l-.19,1.26-.23.72c-.08.09-.11.9-.2,1.44.02.15.01-.18-.28.83"/>
  <path class="cls-1" d="M58.71,97.94l-.18-.37c0-.12-.09-.34-.28-.65-.18-.55-.28-.86-.28-.92-.12-.25-.18-.62-.18-1.11-.18-.62-.28-1.72-.28-3.32,0-.37-.03-.68-.09-.92-.18-2.46-.28-5.63-.28-9.51,0-2.28.06-3.91.18-4.89l.09-1.11c0-.49.03-.83.09-1.02,0-.37-.03-.71-.09-1.02v-1.2c.06-.55.15-2.43.28-5.63,0-.55.06-1.08.18-1.57l.09-1.2c0-.49.03-.77.09-.83l.09-1.11.09-1.11c.06-.49.14-1.17.23-2.03.09-.86.14-1.66.14-2.4l.09-1.48.28-1.75c0-.37.03-.65.09-.83l.09-1.2c.12-.61.18-1.05.18-1.29l.09-1.29.09-1.02.09-.74v-.46h-.28c-.25,0-.43.03-.55.09-.37.18-.59.28-.65.28-.25,0-.43.09-.55.28-.06.06-.28.15-.65.28-.25,0-.49.06-.74.18-.12.12-.58.34-1.38.65-.18,0-.28.06-.28.18h-.28l-.74.37-.74.37-.55.28c-.37.18-.58.28-.65.28-.37.18-.58.31-.65.37-.37.18-.58.28-.65.28-.25.06-.49.28-.74.65,0,.12-.12.25-.37.37l-.28.18c-.06.12-.23.26-.51.42-.28.15-.54.29-.78.42-.25.12-.52.18-.83.18-.61,0-1.05-.18-1.29-.55-.31-.31-.46-.74-.46-1.29,0-.25.06-.55.19-.92.25-.55.43-.83.55-.83s.18-.03.18-.09c.06,0,.15-.06.28-.19.12-.06.22-.06.28,0l.37.09c.25,0,.37.09.37.28.06.06.37-.12.92-.55.06-.12.15-.21.28-.28.12-.06.29-.18.51-.37.22-.18.35-.34.42-.46,0-.18.12-.28.37-.28.06.06.12.08.18.05.06-.03.12-.05.18-.05l.55-.18c.37,0,.62-.09.74-.28,0-.12.15-.21.46-.28l.74-.18.46-.28.37-.09c.18,0,.31-.03.37-.09l.74-.09c.55-.12.92-.25,1.11-.37.12-.12.22-.15.28-.09l.37-.09c.25-.12.46-.18.65-.18l.55-.28.46-.28c.25,0,.43-.06.55-.18l.55-.18c.19,0,.31-.03.37-.09,0-.06.06-.09.18-.09.18,0,.37-.25.55-.74.06-.31.09-.74.09-1.29,0-.31.06-.71.18-1.2.12-.37.18-.83.18-1.38.12-.49.18-1.05.18-1.66l.28-1.75c.06-.18.09-.37.09-.55s.03-.34.09-.46l.28-1.66c.18-1.97.34-3.08.46-3.32,0-.06.01-.15.05-.28.03-.12.01-.18-.05-.18l.09-.28c.18-.43.4-1.14.65-2.12.31-.98.49-1.51.55-1.57.37-.92.55-1.63.55-2.12,0-.37.03-.65.09-.83.18-.31.28-.58.28-.83l.18-.74c.12-.43.4-1.6.83-3.51.06-.49.25-1.05.55-1.66.25-.37.37-.65.37-.83,0-.06.06-.06.18,0,.12.06.25.03.37-.09l.18-.18.18.18c.06.06.09.15.09.28,0,.18.09.34.28.46.31.06.49.28.55.65.06.37.06.83,0,1.38-.12,1.66-.31,2.71-.55,3.14-.06.12-.09.26-.09.42s-.03.29-.09.42c0,.37-.06.62-.19.74-.06.12-.22.68-.46,1.66l-.28.92c-.31,1.11-.46,1.94-.46,2.49v.18c0,.25-.09.46-.28.65l-.28.74c-.06.25-.18.55-.37.92-.18.25-.28.62-.28,1.11v.28c.06.06-.03.55-.28,1.48l-.28,1.85c-.06.12-.09.26-.09.42s-.03.29-.09.42c-.12.12-.18.37-.18.74l-.18.74c-.37,1.35-.55,2.31-.55,2.86l-.09.74c-.12.12-.18.46-.18,1.02l-.18,1.2-.09.28.46-.09c.31,0,.46-.06.46-.18.06-.06.15-.09.28-.09.18-.06.43-.14.74-.23.31-.09.55-.2.74-.32,0-.06.06-.09.18-.09l.28-.18c.61-.31,1.08-.46,1.38-.46h.09l.37-.09c.12-.12.21-.18.28-.18l.37-.19c.06-.12.18-.18.37-.18.25,0,.46-.03.65-.09l.46-.18c.18,0,.31-.03.37-.09l.37-.18c.18,0,.31-.03.37-.09l.46-.18.37-.18c.12-.12.21-.18.28-.18.18,0,.31-.03.37-.09s.15-.09.28-.09.21-.03.28-.09l.74-.18c.49-.12.8-.19.92-.19.31,0,.52-.06.65-.18l.55-.28c.06-.06.14-.11.23-.14.09-.03.17-.11.23-.23l.37-.18c.12,0,.18-.03.18-.09l.37-.09c.25,0,.43-.03.55-.09.12-.06.18-.15.18-.28.06-.12.18-.18.37-.18.25,0,.4-.03.46-.09.12-.06.71-.19,1.75-.37l.37-.09c0-.12.06-.18.18-.18l.18-.09c0-.12.12-.18.37-.18l.37-.18c0-.12.12-.18.37-.18s.4.06.46.18c0,.06.03.14.09.23.06.09.15.17.28.23.49.31.55.68.19,1.11-.12.12-.19.22-.19.28-.06.12-.42.34-1.06.65-.65.31-1.09.46-1.34.46l-.18.09c-.06.06-.15.09-.28.09l-.28.09-.37.18c-.25,0-.37.06-.37.18-.18,0-.43.09-.74.28-.31.06-.74.18-1.29.37-.25.12-.43.18-.55.18-.06.06-.14.09-.23.09s-.17.03-.23.09c-.37.18-.65.28-.83.28l-.46.09c-.06.06-.18.09-.37.09-.06,0-.15.06-.28.19l-.28.09c-.31,0-.52.03-.65.09l-.65.18c-.12,0-.25.06-.37.18-.18.18-.4.28-.65.28l-.65.18-.92.37-.74.28c-.49.25-.86.37-1.11.37-.18,0-.34.06-.46.18l-.28.09-.46.18-.74.18c-.25.06-.55.17-.92.32-.37.15-.68.29-.92.42l-.83.28c-.8.31-1.23.52-1.29.65-.06.12-.09.37-.09.74,0,.25-.06.62-.18,1.11l-.09.83c0,.43-.09.83-.28,1.2-.12.18-.18.74-.18,1.66.06.12.03.37-.09.74-.12.49-.19.98-.19,1.48-.06.74-.22,1.6-.46,2.58-.06.37-.06.62,0,.74.06.12.06.4,0,.83-.25,1.85-.37,3.32-.37,4.43,0,1.35-.06,2.22-.18,2.58-.12.37-.18,1.02-.18,1.94l.09.65v.55c-.12.12-.23.85-.32,2.17-.09,1.32-.11,2.94-.05,4.85,0,.74-.03,1.42-.09,2.03-.06.37-.09,1.05-.09,2.03,0,.61-.06,1.11-.18,1.48l-.09.92c0,.43.03.92.09,1.48.06.55.15,1.02.28,1.38.06.49.06,1.35,0,2.58,0,.49.06.86.18,1.11.12.31.15.68.09,1.11-.06.18-.09.43-.09.74l.09,2.22c0,1.78.06,2.8.18,3.05.06.06.09.31.09.74l.09.74c.06.12.09.43.09.92s-.03.74-.09.74c-.12-.06-.31.06-.55.37l-.18.37c0,.06-.03.12-.09.18-.06.06-.15.09-.28.09s-.25-.09-.37-.28Z"/>
</svg>