<?xml version="1.0" encoding="UTF-8"?>
<svg id="Lager_1" xmlns="http://www.w3.org/2000/svg" viewBox="0 0 511.64 367.95">
  <defs>
    <style>
      .cls-1 {
        fill: #1d1d1b;
      }
    </style>
  </defs>
  <g>
    <path class="cls-1" d="M233.77,159.28c-1.31-7.53-1.44-16.9,5.06-20.92,4.69-2.9,10.87-1.5,15.76,1.04s9.3,6.14,14.57,7.74c10.66,3.24,21.75-2.32,31.86-7.02,12.99-6.04,26.74-10.94,41.03-11.99,14.29-1.04,29.25,2.07,40.65,10.75,7.1,5.4,12.8,13.29,13.5,22.18,1.2,15.19-15.32,28.93-30.03,24.97-8.07-2.17-14.35-8.31-21.48-12.66s-17-6.66-23.4-1.3c-5.85,4.9-5.98,13.67-5.82,21.3.52,24.15-.73,48.33-3.74,72.3-.94,7.47-2.1,15.07-5.52,21.77s-9.55,12.45-17,13.54c-1.88.28-3.91.23-5.56-.72-2.14-1.23-3.22-3.7-4.05-6.03-10.74-30.25-2.6-64.09-9.36-95.47-1.05-4.9-2.57-9.9-5.93-13.62-4.44-4.92-11.31-6.77-16.71-10.62-6.64-4.73-10.71-12.18-14.56-19.37"/>
    <path class="cls-1" d="M236.18,158.61c-1.09-6.36-1.78-17,6.21-19.07,4.48-1.16,9.19.94,12.99,3.15,4.4,2.55,8.59,5.59,13.55,6.99,10.66,3.01,21.41-1.83,30.91-6.26s19.57-8.59,30.03-10.94c18.54-4.17,40.64-2.46,54.9,11.47,5.92,5.78,10.51,14.27,8.53,22.72-1.7,7.25-7.5,13.49-14.44,16.1-3.4,1.29-7.13,1.85-10.72,1.14-4.61-.91-8.67-3.4-12.49-6.03s-7.71-5.78-11.99-7.95-8.69-3.52-13.32-3.48-9.01,1.68-12.09,5.06-4.35,7.6-4.92,11.96c-.61,4.67-.35,9.38-.28,14.08.08,5.83.05,11.67-.08,17.5-.26,11.66-.93,23.32-2.01,34.93-.53,5.68-1.15,11.34-1.88,17-.66,5.11-1.54,10.25-3.27,15.13-2.71,7.63-9.15,16.15-18.01,16.5-2.15.08-3.62-.66-4.67-2.55-1.17-2.08-1.8-4.5-2.48-6.77-1.47-4.98-2.51-10.09-3.2-15.24-2.81-21.15-.41-42.59-2.82-63.77-.59-5.16-1.36-10.36-2.72-15.38-1.3-4.8-3.41-9.53-7.18-12.91-3.49-3.12-7.77-4.99-11.84-7.2s-7.54-5.09-10.36-8.82-5.08-7.95-7.3-12.09c-1.52-2.84-5.84-.32-4.32,2.52,2.42,4.53,4.9,9.02,8.06,13.08s6.71,7.05,11.05,9.44c4.09,2.25,8.68,4.02,12.01,7.4s4.73,8.15,5.73,12.68c4.76,21.56,2.27,43.85,3.77,65.7.73,10.69,2.18,21.91,6.33,31.87.96,2.31,2.31,4.54,4.54,5.82,2.4,1.38,5.2,1.36,7.85.92,4.59-.77,8.81-3.29,12.12-6.49,7.68-7.42,10.12-18.1,11.49-28.31,1.6-11.86,2.7-23.8,3.39-35.74s.96-23.97.78-35.97c-.11-7.62-1.54-19.27,6.29-23.84,3.55-2.08,7.94-1.78,11.77-.7,4.64,1.3,8.6,3.93,12.49,6.69,7.72,5.48,15.84,11.32,25.83,10.03,8.51-1.1,16.26-6.39,20.69-13.71,2.2-3.63,3.52-7.81,3.65-12.06.14-4.75-1.26-9.51-3.48-13.67-4.64-8.73-13-15.17-21.97-19-9.43-4.03-19.8-5.59-30.02-5.01-11.15.63-22.04,3.57-32.41,7.63-5.31,2.08-10.45,4.5-15.62,6.87-4.85,2.22-9.85,4.3-15.14,5.2s-10.12.03-14.72-2.43-8.74-5.67-13.71-7.38-10.4-1.87-14.66,1.11c-3.54,2.48-5.48,6.4-6.11,10.6s-.28,8.54.45,12.77c.23,1.33,1.87,2.08,3.08,1.75,1.41-.39,1.98-1.74,1.75-3.08h0Z"/>
  </g>
  <g>
    <path class="cls-1" d="M405.07,84.07c3.31-11.67,1.27-24.08.2-36.17s-.89-25.16,6.01-35.14c6.9-9.98,22.79-14.38,31.37-5.8,6.01,6.02,6.27,15.61,5.17,24.04-1.15,8.78-3.36,17.42-6.58,25.68-3.65,9.38-8.07,21.46-.63,28.24,6.39,5.82,16.38,2.67,24.82.81,11.44-2.53,24.27-1.7,33.64,5.33s13.59,21.38,6.97,31.04c-7.3,10.66-22.61,11.06-35.49,10.11-12.88-.95-28-1.24-36.08,8.83-5.04,6.29-5.74,14.91-6.16,22.96-1.78,33.65-2.62,67.35-2.5,101.05.02,6.5.32,13.64,4.68,18.46,3.81,4.21,9.75,5.55,15.01,7.7,13.6,5.54,24.26,18.3,26.31,32.85s-5.12,30.22-17.95,37.36-30.56,4.62-40.22-6.45c-8-9.17-9.81-22.08-10.76-34.22-4.32-54.77,1.65-109.97-2.66-164.74-.62-7.84-1.67-16.21-6.82-22.16-2.79-3.22-6.55-5.42-9.92-8.03-7.33-5.67-13.12-13.81-14.35-23s2.79-19.29,10.88-23.82,19.86-1.9,24.08,6.36"/>
    <path class="cls-1" d="M407.48,84.73c4.78-17.37-1.41-35.02.04-52.59.6-7.3,2.73-15.24,8.02-20.59,4.27-4.32,10.45-6.97,16.56-6.62,17.33.99,14.12,23.87,11.58,35.22-.97,4.32-2.2,8.58-3.68,12.76-1.29,3.65-2.81,7.21-3.96,10.91-1.96,6.32-3.4,14.1.44,20.03,4.33,6.69,12.16,7.53,19.41,6.45,3.73-.56,7.36-1.57,11.05-2.33s7.68-1.13,11.56-1.02c7.43.22,15.31,2.39,20.84,7.59,4.71,4.44,7.62,10.91,7.42,17.41-.2,6.46-4.04,11.79-9.7,14.7-6.06,3.12-13.3,3.51-19.99,3.38-13.47-.26-29.06-3.31-40.62,5.63-6.26,4.84-8.91,12.22-9.91,19.83-1.17,8.86-1.21,17.95-1.59,26.87-.83,19.54-1.35,39.1-1.54,58.65-.09,9.36-.42,18.8,0,28.16.36,7.8,2.52,15.32,9.62,19.53,3.28,1.95,6.99,3.06,10.53,4.41,3.3,1.26,6.42,2.95,9.3,4.99,5.85,4.14,10.57,9.87,13.57,16.37,5.85,12.66,3.45,28.26-6,38.55-9.34,10.18-24.81,12.86-37.08,6.4-14.13-7.44-16.83-24.24-17.97-38.68-1.53-19.34-1.77-38.76-1.63-58.16.13-19.3.64-38.6.63-57.9,0-9.7-.14-19.4-.52-29.09-.35-9-.63-18.12-1.95-27.04-.58-3.92-1.56-7.79-3.32-11.35-1.85-3.75-4.65-6.68-7.94-9.2-3.11-2.38-6.38-4.49-9.19-7.24s-5.16-5.8-6.96-9.26c-3.31-6.37-4.1-13.75-1.49-20.5,2.35-6.08,7.67-11.17,14.38-11.64,5.79-.41,11.74,2,14.54,7.27,1.51,2.84,5.83.32,4.32-2.52-3.24-6.08-9.84-9.46-16.58-9.77-7.27-.34-13.86,3.22-18.12,9.02s-5.94,13.92-4.66,21.24c1.38,7.91,6.02,15.09,11.84,20.48,3.21,2.97,6.99,5.17,10.3,8,3.06,2.62,5.18,5.83,6.44,9.65s1.81,8.05,2.16,12.15c.41,4.8.7,9.61.95,14.42,1.02,20.08.88,40.2.6,60.3-.28,20.11-.71,40.23-.27,60.34.22,10.04.65,20.09,1.42,30.1.63,8.12,1.48,16.42,4.31,24.12,2.68,7.29,7.1,13.79,13.66,18.09,5.98,3.92,13.3,5.83,20.43,5.66,15.33-.35,27.94-10.48,33.31-24.58,5.49-14.42,1.82-30.32-8.11-41.85-4.93-5.73-11.25-10.12-18.27-12.9-3.72-1.47-7.68-2.52-11.02-4.78-3.15-2.13-4.8-5.39-5.58-9.03-.89-4.1-.73-8.38-.74-12.55,0-4.95,0-9.9.03-14.85.07-10.13.22-20.26.45-30.39.24-10.13.56-20.26.97-30.38.39-9.59.53-19.28,1.5-28.84.77-7.55,3.13-15.16,9.93-19.34,6.09-3.74,13.64-4.24,20.6-4.14,13.89.19,29.95,3.44,41.81-5.95,11.91-9.43,9.62-27.36-.56-37.17-5.81-5.6-13.8-8.31-21.7-9.05-4.22-.39-8.46-.15-12.65.48-3.85.57-7.6,1.64-11.41,2.4-6.43,1.27-15.3,1.6-17.65-6.14-2.03-6.69,1.29-14.41,3.67-20.57,3.4-8.82,5.82-17.89,7.03-27.27.96-7.47.94-15.88-3.24-22.46-8.02-12.64-25.92-9.97-35.24-.37-12.08,12.44-9.83,31.99-8.3,47.67.9,9.18,1.59,18.55-.89,27.56-.85,3.11,3.97,4.43,4.82,1.33h0Z"/>
  </g>
  <g>
    <path class="cls-1" d="M197.28,48.84c-7.03-14.18-16.41-29-31.53-33.67-5.96-1.84-12.3-1.91-18.54-1.74-19.16.53-38.27,3.17-56.86,7.85-3.17.8-6.38,1.69-9.11,3.48-7.09,4.67-9.07,14.01-10.5,22.38C53.52,148.38,30.72,248.67,2.5,347.41l.67.89c15.12,1.2,28.85-8.97,38.77-20.45,18.77-21.74,29.33-49.41,36.24-77.29,6.9-27.87,10.49-56.49,17.3-84.39,2.25-9.19,5.06-18.69,11.59-25.54,14.09-14.77,40.55-10.22,54.41,4.76,13.86,14.98,17.71,36.62,18.26,57.02.54,20.41-1.57,41.11,2.88,61.03,1.76,7.86,4.69,15.76,10.34,21.5,5.66,5.73,14.53,8.84,22.05,5.93,10.51-4.06,13.94-17.02,15.47-28.19,9.9-72.54-.67-148.25-33.2-213.84ZM138.22,83.07c-4.01,2.08-8.94,1.25-13.11-.5-5.01-2.1-10.05-7.01-8.4-12.19.57-1.8,1.9-3.28,3.42-4.42,7.19-5.36,19.08-2.07,22.49,6.22l-1.26-.47c2.97,3.4.88,9.27-3.13,11.35Z"/>
    <g>
      <path class="cls-1" d="M199.44,47.58c-7.47-15.03-17.92-31.42-35.43-35.46-5.19-1.2-10.56-1.33-15.86-1.21s-10.96.44-16.42.91c-10.95.95-21.85,2.57-32.6,4.86-5.08,1.08-10.4,2.03-15.24,3.97-4.18,1.67-7.54,4.39-9.96,8.2-4.82,7.6-5.54,17.36-7.04,26.01-3.8,21.91-7.85,43.78-12.17,65.6-4.32,21.82-8.89,43.58-13.73,65.29s-9.93,43.36-15.28,64.94c-5.35,21.59-10.96,43.11-16.82,64.56-1.47,5.36-2.95,10.72-4.44,16.08-.76,2.73-1.53,5.46-2.3,8.19-.36,1.26-.71,2.52-1.07,3.78s-1.08,2.79-1.08,4.12c0,.86.49,1.46.98,2.11.88,1.15,1.87,1.29,3.25,1.35,2.22.1,4.43-.07,6.62-.39,4.41-.65,8.65-2.19,12.61-4.22,8.15-4.18,15.11-10.56,21-17.51,6.26-7.39,11.69-15.47,16.31-23.98,9.38-17.26,15.6-36.1,20.22-55.14,5.24-21.58,8.57-43.55,13.02-65.29,2.04-10,3.91-20.34,7.58-29.89,2.97-7.73,7.98-14.6,15.75-17.97,13.58-5.88,30.72-.78,40.98,9.22,12.81,12.48,17.22,31.24,18.52,48.47,1.6,21.29-1.18,42.74,2.24,63.92,1.53,9.5,4.23,19.24,10.48,26.77,5.6,6.74,14.71,10.95,23.5,9.17,8.07-1.64,13.29-8.35,16.2-15.62,3.22-8.04,4-16.94,4.94-25.47,2.23-20.08,2.89-40.33,1.96-60.51-.93-20.19-3.44-40.32-7.56-60.1-4.11-19.73-9.84-39.13-17.23-57.88-3.59-9.12-7.57-18.09-11.92-26.88-1.43-2.88-5.74-.35-4.32,2.52,11.13,22.49,19.68,46.2,25.69,70.56,5.99,24.29,9.44,49.17,10.44,74.16.5,12.57.38,25.16-.34,37.72-.36,6.23-.87,12.45-1.53,18.65-.59,5.59-1.17,11.23-2.3,16.74-1.78,8.69-5.52,19.3-15.36,21.3-11.38,2.31-20.38-7.93-24.03-17.45-4.64-12.09-5.33-25.53-5.47-38.35-.14-13.08.59-26.19-.39-39.25-1.59-21.13-7.89-44.95-26.63-57.33-16-10.57-39.93-11.42-52.4,4.98-7.35,9.68-9.62,22.56-12.14,34.16-2.94,13.5-5.32,27.12-7.87,40.7-4.7,25-10.02,50.2-20.43,73.55-4.88,10.95-10.84,21.51-18.2,30.99-6.87,8.84-15.16,17.29-25.58,21.83-4.87,2.12-10.09,3.11-15.39,2.73l2.16,1.24-.67-.89.25,1.93c8.74-30.61,16.97-61.36,24.68-92.25,7.65-30.68,14.78-61.48,21.39-92.4,6.65-31.13,12.78-62.37,18.36-93.71,1.36-7.62,2.64-15.24,3.98-22.86,1-5.69,2.15-11.92,5.72-16.64,4.12-5.44,11.4-6.46,17.63-7.88,7.66-1.75,15.4-3.16,23.19-4.21s15.63-1.72,23.48-2.06c7.4-.32,15.09-.66,22.23,1.67,11.59,3.77,19.46,14.15,25.29,24.31,1.51,2.64,2.92,5.33,4.27,8.06,1.43,2.88,5.75.35,4.32-2.52Z"/>
      <path class="cls-1" d="M136.96,80.91c-3.53,1.74-8.06.75-11.44-.88-2.83-1.37-6.57-4.04-6.63-7.55-.05-3.17,3.4-5.36,5.97-6.12,2.85-.84,5.86-.62,8.72.49,3.07,1.18,5.55,3.5,6.87,6.6l2.82-3.67-1.26-.47c-1.02-.38-2.3.26-2.82,1.15-.6,1.02-.32,2.16.39,3.03.88,1.06.82,2.52.36,3.89-.5,1.5-1.59,2.77-2.99,3.54-2.82,1.55-.3,5.86,2.52,4.32,5.37-2.94,7.7-10.35,3.64-15.28l-2.43,4.18,1.26.47c.92.34,2.08-.16,2.63-.9.66-.88.61-1.8.2-2.78-3.34-7.85-13.25-11.75-21.24-9.39-4.57,1.35-9,4.93-9.57,9.9-.6,5.24,3.48,9.7,7.69,12.18,5.27,3.11,12.19,4.4,17.83,1.61,2.88-1.43.35-5.74-2.52-4.32Z"/>
    </g>
  </g>
</svg>