<?xml version="1.0" encoding="UTF-8"?>
<svg id="Lager_1" xmlns="http://www.w3.org/2000/svg" viewBox="0 0 379.06 678.47">
  <defs>
    <style>
      .cls-1 {
        fill: #1d1d1b;
      }
    </style>
  </defs>
  <path class="cls-1" d="M10.38,207c-.38-.11-.59-.42-.61-.92,0-.13.12-.07.39.17.26.11.51.1.76-.03.25-.14.42-.52.52-1.16-.06-1.39-.35-2.13-.86-2.23-.27-.24-.5-.58-.71-1.01-.21-.43-.4-1.15-.57-2.15-.18-1.13-.23-2.39-.17-3.78-.05-1.13.01-2.59.19-4.36l.03-3.6.38-4.37c.14-2.66.26-4.11.38-4.37l.02-3.79.39-3.99.61-3.43c-.06-1.26.03-2.15.26-2.66l-.07-1.51.81-7.42c.2-1.27.43-3.17.7-5.71l.09-2.28c.1-.51.13-1.39.07-2.65s.15-2.4.61-3.43c.11-.38.37-1.72.77-4.01.5-2.92.81-4.52.93-4.77.65-2.55.93-4.65.86-6.29l-.09-2.08,1.96-11.45c.22-.64.38-1.37.47-2.2.09-.82.12-1.49.1-1.99s-.16-.75-.41-.74c-.13-.12-1.37.38-3.72,1.49l-.56.21h-.19c0,.14-.18.21-.56.22l-1.68.64-1.5.44c-.5.15-.87.42-1.1.81l-.91.8c-.38.02-.56.09-.56.21l-2.57,1.82-1.31.25c-.88.04-1.69-.24-2.4-.84-.72-.6-1.1-1.34-1.14-2.22l.15-.95c.21-1.02.86-1.99,1.96-2.93.37-.27.93-.42,1.68-.45,1.26-.06,1.94-.27,2.05-.66.49-.4,1.04-.68,1.67-.83l.54-.59.56-.21.17-.39c.24-.26,1.12-.43,2.63-.49.5-.02.87-.16,1.12-.43.36-.39,1.11-.68,2.23-.86l.75-.22,1.12-.43c1.64-.07,2.7-.24,3.2-.52l.31-1.53.62-3.06c1.27-5.48,2.02-10.06,2.24-13.73.2-1.27.36-1.97.48-2.1l.91-5.15,1.07-5.92.75-4.39,1.02-6.86c.54-2.04.84-3.76.91-5.15.41-2.04.83-4.01,1.25-5.92.31-1.53.46-2.42.45-2.67l1.12-4.59c.65-2.55.96-3.95.95-4.21l.47-2.29.44-2.86c-.04-.88.22-2.03.8-3.44l1.31-4.6,1.6-6.7c.87-3.07,1.72-5.44,2.53-7.12.46-1.03.91-2.31,1.35-3.85.31-1.53,1.07-2.95,2.27-4.26C43.76.8,44.93.06,46.19,0c1.01-.04,2.17.54,3.48,1.74,1.19,1.34,2.57,3.93,4.13,7.77l2.64,8.4c.47,2,.87,4.13,1.23,6.38.35,2.26.62,4.08.81,5.46l.31,2.83c.43,1.12.75,2.74.97,4.88.05,1.13.22,2.07.5,2.82.32,1.5.52,3.2.6,5.09.17,1,.28,2.04.33,3.11s.15,1.98.31,2.73l.37,4.15.35,3.77c.31,1.25.49,2.63.56,4.14l.38,4.34c.05,1.13.24,2.58.57,4.33.08,1.77.25,2.89.53,3.39l.35,3.77c.22,4.91.46,7.62.73,8.11.13.12.88.03,2.26-.29l.93-.42c.36-.39.73-.6,1.11-.62s.56-.09.56-.21c.24-.26.55-.4.93-.42s.57.04.57.16c.01.25.28.62.81,1.1.66.6.93,1.09.82,1.48-.33,1.03-.94,1.75-1.8,2.16-.49.4-1.07.74-1.75,1.02-.68.28-1.21.43-1.59.45-.25.01-.44.08-.56.21l-.38.02c-.25.01-.44.08-.56.21l-.56.21c-.37.14-.58.47-.62.97-.04.51.03,1.39.21,2.64.21,1.88.31,3.43.3,4.63-.01,1.2,0,2.18.03,2.93l.18,4.16c.1,2.4.23,3.78.37,4.15,0,.13.05.47.14,1.04.09.56.16,1.54.22,2.93.38,2.89.64,4.45.77,4.7l.27,1.88c.03.63.11,1.13.25,1.5.14.37.24,1.13.29,2.26.11,2.52.27,4.79.49,6.79.19,4.28.48,6.61.87,6.97.26.24.42.87.46,1.87l-.06,2.84.14,3.21.96,8.86.43,5.47.54,3.76c.05,1.13.15,1.95.3,2.45.3,1,.46,1.87.49,2.63l.47,2.06c.46,1.87.72,3.57.79,5.08.03.63.18,1.32.47,2.06l.7,3,.32,3.02.45,1.68c.01.25-.11.38-.36.39l-.2-.18c-.38.02-.55.4-.52,1.16.02.38-.04.63-.16.76.02.38-.09.82-.32,1.34.03.63-.09.95-.34.96l-.37.21c-.12.13-.61-.99-1.47-3.34-.86-2.36-1.52-4.41-1.97-6.16-1.45-7.26-2.37-12.27-2.74-15.03l-.28-2.07-.32-3.02c-.09-2.02-.27-3.27-.54-3.76l-.33-3.2c-.33-4.53-.73-8.11-1.23-10.74l-1.38-14.14-.45-5.85-.68-6.79-.45-5.85c-.32-7.31-.67-12.47-1.06-15.48-.04-.88-.1-1.57-.19-2.07-.09-.5-.25-.75-.5-.74-.38.02-.69.1-.94.23-.49.28-1.06.42-1.68.45l-.75.22-.75.22h-.28c-.06.02-.09.08-.09.21-.12.13-.56.21-1.31.25-1.63.33-2.56.62-2.8.88-.12.13-.62.34-1.49.63-.76.03-1.26.18-1.49.44l-1.31.44-1.31.44c-.24.27-.86.48-1.86.65-.5.02-.75.1-.75.22-.12.13-.37.21-.75.22l-1.12.43c-.25.14-.56.21-.94.23l-.57.02c-.24.26-.68.41-1.31.44l-1.86.84-1.68.64-1.31.25-2.05.85c-.38.02-.87.23-1.49.63l-1.31.44-.74.41-.94.23-1.12.43c-.25.01-.63.15-1.12.43-.13,0-.31.14-.55.4-.72,3.69-1.35,8.14-1.88,13.34-.17,2.03-.41,3.62-.74,4.77l-.25,3.04c-.22.77-.31,1.59-.27,2.47l-.47,2.29c.02.51-.26,2.6-.86,6.29l-.74,4.77c-.06,1.52-.35,3.68-.85,6.48-.07,1.27-.42,3.3-1.06,6.11-.16,2.28-.26,4.3-.3,6.07-.02,2.52-.24,4.74-.66,6.66l-.25,2.85-.08,2.46-.67,6.28-.35,4.94-.09,2.28-.25,3.04-.08,2.46c-.04,1.9-.33,3.99-.86,6.29-.2,1.27-.28,2.22-.25,2.85l-.57,4.19c.01.25-.11.38-.36.39l-.02-.38.16-.58c-.01-.25-.08-.37-.21-.37s-.25.14-.36.39c-.11.51-.4.9-.9,1.18-.37.27-.81.29-1.32.06ZM25.97,100.29c0,.13.07.19.2.18.12-.13.43-.21.94-.23l.75-.22c.12-.13.43-.21.94-.23.38.11.76.09,1.13-.05.37-.14.55-.34.54-.59l.76-.03,1.49-.44c.74-.28,1.37-.44,1.87-.46s.82-.1.94-.23c.24-.26.74-.47,1.49-.63l1.86-.65.55-.4c.25-.01.38-.08.37-.21.37-.14.81-.29,1.31-.44.5-.15.94-.23,1.31-.25.5-.02.75-.1.75-.22.12-.13.31-.2.56-.21l.74-.41c.36-.39.61-.47.75-.22l1.13-.24c.24-.13.56-.21.94-.23l.75-.22c.24-.26.55-.4.93-.42s.56-.09.56-.21c.12-.13.37-.21.75-.22l.55-.4c.49-.27,1.3-.5,2.43-.67.25-.13.53-.21.84-.23s.53-.09.65-.22c.75-.28,1.37-.37,1.88-.27.26.12.69-.03,1.31-.44l1.47-1.01.74-.41c.25-.01.43-.21.54-.59.11-.26.06-1.45-.16-3.59l-.43-5.47c-.1-2.27-.31-4.28-.64-6.03l-.59-4.9c-.18-4.16-.54-7.93-1.06-11.31l-.58-4.52-.35-3.58-.54-3.57-.33-3.2c-.45-1.62-.9-4.76-1.36-9.41-.06-1.26-.24-2.51-.54-3.76l-.7-3c-.07-1.64-.56-4.2-1.47-7.7-.46-1.87-.7-3-.72-3.38-.34-1.88-.99-3.9-1.97-6.07-.98-2.16-1.8-3.61-2.46-4.34l-.4-.55-.36.39c-.6.78-1.63,3.13-3.1,7.05-1.47,3.92-2.47,7.08-2.99,9.5l-.62,3.06c-.47.9-.84,2.44-1.12,4.59-.41,2.29-.78,3.82-1.12,4.59l-.76,4.2c-.43,1.79-.63,3-.6,3.62l-.46,2.48-.61,3.25c-.34.9-.59,2.36-.75,4.39l-1.24,6.3c-.23.64-.36,1.22-.4,1.72-.04.51-.12.89-.23,1.15-.08,1.14-.27,2.51-.58,4.1-.31,1.59-.57,2.96-.77,4.1-.43,1.79-.78,3.82-1.06,6.1-.15,2.28-.29,3.61-.39,3.99-.82,4.33-1.33,7.06-1.53,8.21l-1,7.43c-.51,2.93-.74,4.77-.71,5.52l.02.38Z"/>
  <path class="cls-1" d="M124.13,197.47l-.41-.74c-.01-.25-.22-.69-.62-1.3-.43-1.12-.64-1.74-.65-1.86-.28-.49-.43-1.24-.48-2.25-.43-1.24-.72-3.5-.86-6.78-.03-.76-.13-1.38-.27-1.88-.6-5.02-1.07-11.5-1.42-19.44-.2-4.66-.23-8-.06-10.03l.09-2.28c-.04-1.01-.01-1.7.1-2.09-.03-.76-.13-1.44-.28-2.07l-.11-2.46c.07-1.14.1-4.99.06-11.55-.05-1.13.03-2.21.24-3.23l.08-2.46c-.04-1.01,0-1.58.11-1.71l.09-2.28.09-2.28c.08-1.01.18-2.4.29-4.18.11-1.77.13-3.41.07-4.93l.06-3.03.41-3.62c-.03-.76,0-1.33.11-1.71l.08-2.46c.2-1.27.28-2.16.26-2.66l.07-2.65.1-2.09.12-1.52-.04-.95-.57.02c-.51.02-.88.1-1.13.24-.74.41-1.17.62-1.3.62-.51.02-.87.23-1.11.62-.12.13-.55.34-1.3.62-.51.02-1,.17-1.5.44-.24.27-1.17.75-2.78,1.45-.38.02-.56.15-.55.4l-.57.02-1.48.82-1.48.82-1.11.62c-.74.41-1.17.62-1.3.62-.74.41-1.17.68-1.29.81-.74.41-1.17.62-1.3.62-.5.15-.98.61-1.45,1.39.01.25-.23.52-.72.79l-.55.4c-.11.26-.45.56-1,.9-.55.34-1.07.65-1.57.92-.49.28-1.05.43-1.68.45-1.26.06-2.16-.28-2.7-1.02-.66-.6-1.01-1.47-1.06-2.6-.02-.5.08-1.14.3-1.91.45-1.16.81-1.74,1.06-1.75s.37-.08.37-.21c.13,0,.31-.14.55-.4.25-.14.44-.14.57-.02l.76.16c.51-.02.76.16.78.53.13.12.75-.28,1.84-1.22.12-.26.3-.45.54-.59.25-.14.58-.4,1.01-.8.43-.4.7-.72.81-.98-.02-.38.23-.58.73-.6.13.12.26.15.38.08.12-.07.25-.11.37-.11l1.12-.43c.76-.03,1.25-.24,1.49-.63-.01-.25.3-.45.92-.61l1.49-.44.92-.61.75-.22c.38-.02.63-.09.75-.22l1.5-.25c1.12-.3,1.87-.58,2.23-.86.24-.26.43-.33.56-.21l.75-.22c.49-.27.93-.42,1.31-.44l1.11-.62.92-.61c.5-.02.87-.16,1.12-.43l1.12-.43c.38-.02.63-.09.75-.22,0-.12.12-.19.37-.21.38-.02.73-.53,1.07-1.56.1-.63.12-1.52.07-2.65-.03-.63.06-1.45.27-2.47.22-.77.3-1.72.25-2.85.21-1.02.28-2.16.23-3.42l.41-3.62c.11-.38.16-.76.14-1.14s.03-.69.15-.95l.42-3.43c.2-4.05.42-6.33.65-6.84,0-.12.02-.31.07-.57.05-.25.01-.38-.11-.37l.16-.58c.34-.9.72-2.37,1.13-4.4.54-2.04.87-3.13.99-3.26.67-1.92.99-3.39.94-4.4-.03-.76,0-1.33.11-1.71.35-.65.51-1.22.49-1.73l.31-1.53c.21-.89.67-3.31,1.39-7.26.08-1.01.41-2.16.98-3.45.47-.78.7-1.36.68-1.73,0-.12.12-.13.38-.02.26.12.51.04.75-.22l.36-.39.39.36c.13.12.2.31.21.56.02.38.22.69.61.92.63.1,1.03.52,1.19,1.27.16.75.2,1.7.12,2.83-.11,3.41-.39,5.57-.85,6.47-.12.26-.17.55-.15.86s-.04.6-.15.86c.03.76-.07,1.27-.31,1.53-.12.26-.38,1.41-.8,3.44l-.48,1.91c-.53,2.3-.77,4.01-.72,5.14l.02.38c.02.5-.15.95-.51,1.35l-.5,1.54c-.11.51-.33,1.15-.67,1.92-.36.52-.51,1.29-.47,2.29l.02.57c.13.12-.02,1.14-.43,3.05l-.4,3.8c-.12.26-.17.55-.15.86s-.04.6-.15.86c-.24.27-.34.77-.31,1.53l-.31,1.53c-.63,2.81-.93,4.77-.88,5.91l-.12,1.52c-.24.27-.34.96-.29,2.09l-.27,2.47-.16.58.94-.23c.63-.03.94-.17.93-.42.12-.13.31-.2.56-.21.37-.14.87-.32,1.49-.54.62-.22,1.12-.46,1.48-.73,0-.12.12-.19.37-.21l.55-.4c1.23-.68,2.16-1.04,2.79-1.07h.19s.75-.23.75-.23c.24-.26.42-.4.55-.4l.74-.41c.11-.26.36-.39.74-.41.5-.02.94-.1,1.31-.25l.93-.42c.38-.02.63-.09.75-.22l.74-.41c.38-.02.63-.09.75-.22l.93-.42.74-.41c.24-.26.42-.4.55-.4.38-.02.63-.09.75-.22s.3-.2.56-.21.44-.08.56-.21l1.5-.44c1-.3,1.62-.45,1.87-.46.63-.03,1.06-.17,1.31-.44l1.11-.62c.12-.13.27-.23.46-.3.19-.07.34-.23.45-.49l.74-.41c.25-.01.37-.08.37-.21l.75-.22c.5-.02.88-.1,1.12-.24.25-.13.36-.33.35-.58.11-.26.36-.39.74-.41.5-.02.82-.1.94-.23.25-.13,1.43-.44,3.56-.91l.75-.22c-.01-.25.11-.38.36-.39l.37-.21c-.01-.25.23-.39.74-.41l.74-.41c-.01-.25.23-.39.74-.41s.82.09.96.34c0,.13.07.28.21.46.13.18.33.33.59.45,1.03.59,1.19,1.34.48,2.25-.24.26-.36.46-.35.58-.12.26-.82.73-2.12,1.42-1.3.69-2.2,1.04-2.7,1.07l-.37.21c-.12.13-.31.2-.56.21l-.56.21-.74.41c-.51.02-.75.16-.74.41-.38.02-.87.23-1.49.63-.63.15-1.49.44-2.61.87-.49.28-.87.42-1.12.43-.12.13-.27.2-.46.21s-.35.08-.46.21c-.74.41-1.3.62-1.68.64l-.94.23c-.12.13-.37.21-.75.22-.13,0-.31.14-.55.4l-.56.21c-.63.03-1.07.11-1.31.25l-1.31.44c-.25.01-.5.15-.74.41-.36.39-.8.6-1.3.62l-1.31.44-1.86.84-1.49.63c-.99.55-1.73.83-2.23.86-.38.02-.69.16-.93.42l-.56.21-.93.42-1.49.44c-.5.15-1.12.4-1.86.74-.74.35-1.36.66-1.85.93l-1.68.64c-1.61.7-2.48,1.18-2.59,1.44-.12.26-.16.76-.12,1.52.02.51-.07,1.27-.28,2.28l-.11,1.71c.04.88-.11,1.71-.46,2.48-.24.39-.31,1.53-.23,3.42.14.25.09.75-.12,1.52-.21,1.02-.29,2.03-.25,3.04-.06,1.52-.3,3.3-.71,5.33-.09.76-.07,1.27.07,1.51.14.25.16.82.07,1.7-.34,3.8-.46,6.84-.36,9.1.12,2.77.07,4.54-.15,5.31-.22.77-.29,2.09-.2,3.98l.25,1.31.05,1.13c-.24.27-.4,1.75-.47,4.47-.07,2.72.04,6.03.34,9.93.07,1.51.06,2.9,0,4.17-.09.76-.09,2.15,0,4.17.06,1.26-.03,2.27-.25,3.04l-.11,1.9c.04.88.15,1.89.32,3.02.17,1.13.4,2.06.69,2.81.17,1,.25,2.76.23,5.29.04,1.01.2,1.76.48,2.25.28.62.37,1.37.29,2.26-.11.38-.15.89-.12,1.52l.39,4.53c.16,3.65.37,5.73.65,6.22.13.12.22.62.25,1.5l.26,1.5c.13.24.23.87.27,1.88s0,1.51-.12,1.52c-.26-.12-.63.15-1.1.81l-.35.77c0,.12-.05.25-.17.39-.12.13-.31.2-.56.21s-.51-.17-.78-.53Z"/>
  <path class="cls-1" d="M334.42,607.06l-.93.3-3.25.94c-1.55.43-3.43.72-5.63.87l-6.86.24-9.72-.03-4.24.3c-.95-.09-1.94-.1-2.96-.03s-2.09.07-3.2-.01l-5.91.18-16.07.66c-1.11-.08-2.53-.06-4.26.06-1.26.09-2.13.07-2.61-.05-1.28-.23-4.12-.18-8.52.13-2.51.18-3.92.43-4.21.77-.27.65.83,3.89,3.29,9.72,1.15,2.92,1.87,5.24,2.15,6.96.18.31.33.69.44,1.15.12.47.26.85.44,1.15l.94,3.25c.11,1.57.35,2.66.7,3.27l.13,1.89c.03.47.01.67-.08.6-.08-.07-.2-.1-.36-.09-.31.02-.52.43-.62,1.23-.17,2.07-.56,3.28-1.17,3.64-.14.17-.3.18-.47.03s-.35-.45-.54-.91c-.57-1.38-.86-2.15-.87-2.31l-1.43-3.45c-.91-1.67-1.49-3.21-1.75-4.62-.46-2.02-.96-3.56-1.51-4.63-.62-2.01-1.11-3.4-1.48-4.16l-2.43-7.65-1.18-3.23c-.03-.47-.23-1.01-.59-1.62-.17-.14-2.29-.08-6.38.21-2.2.15-3.85.31-4.94.47-1.09.16-1.96.26-2.59.3h-3.32c-1.27-.07-2.29,0-3.07.21l-2.12.15c-.32-.13-3-.03-8.04.33-7.39.52-13.28,1.02-17.67,1.48l-21.41,2.22-10.12.95c-2.83.2-4.83.38-6.01.54-1.17.16-1.91.25-2.23.28-.77.21-2.11.38-3.99.52l-4.72.33c-1.55.43-3.03.69-4.45.79-2.36.17-4.16.37-5.41.62l-3.54.25-6.57.94c-.46.19-.96.3-1.52.34s-1.13.16-1.75.36l-4.23.53-5.63.87-4.46.55c-.3.18-1.63.35-3.99.52-2.2.15-4.3.62-6.3,1.39-.92.38-1.85.6-2.8.67-.46.19-.93.3-1.4.33s-.86.14-1.16.32l-1.4.34c-4.66,1.12-7.45,1.87-8.37,2.25-.94.07-1.87.29-2.8.67l-1.87.37c-.62.2-.96.42-1.02.66-.06.24,0,.59.19,1.05,1.72,4.3,3.64,7.88,5.73,10.74l2.91,4.3c.55,1.07,1.09,1.98,1.61,2.73.53.76.88,1.28,1.06,1.58.5.44,1.28,1.33,2.32,2.68,1.05,1.51,2.35,3.08,3.89,4.7,1.54,1.63,2.9,3.04,4.09,4.22,5.18,4.06,8.43,6.44,9.74,7.14.33.14.91.57,1.75,1.3.68.59,1.41,1.01,2.22,1.27l2.46,1.25c.66.43,1,.72,1.01.88s-.11.64-.37,1.45l-.42.74-1.45-.37c-1.29-.38-2.07-.33-2.36.17-.28.49-1.63.43-4.04-.19-.97-.25-1.81-.5-2.54-.77-.73-.26-1.59-.68-2.58-1.24-3.31-2.14-6.39-4.45-9.26-6.93-1.69-1.62-3.58-3.7-5.65-6.24l-2.29-2.21c-1.39-1.8-2.35-3.15-2.89-4.06-.2-.62-.73-1.45-1.6-2.5l-1.61-2.73-1.58-2.26c-.87-1.2-2.32-3.78-4.34-7.75-.19-.46-.47-1.07-.84-1.84-.37-.76-.82-1.52-1.35-2.28l-1.95-4.13c-.89-1.51-1.43-2.35-1.6-2.49-.72-1.21-1.12-2.45-1.21-3.71l-1.21-3.71-1.54-5.11c-1.08-4.19-1.98-6.81-2.69-7.87l-.84-1.84c-1.36-5.91-2.17-9.56-2.43-10.97l-1.32-5.36c-.42-1.55-.73-3.58-.9-6.1-.23-1.09-.42-2.65-.57-4.7-.2-.61-.45-3.05-.75-7.29l-.15-5.44c-.18-2.51-.22-4.25-.13-5.2-.23-3.3-.27-4.96-.11-4.97l.26-3.1c.45-4.93.9-8.51,1.38-10.76l1.05-5.29c.18-1.91,1.34-5.7,3.47-11.38.91-2.75,2.24-5.21,3.98-7.39l1.69-2.96c.99-1.65,2.6-3.5,4.82-5.55l2.21-2.29,2.44-2.3,2.21-2.29c.58-.83,1.25-1.35,2.02-1.56,4.1-2.34,7.22-4.06,9.35-5.16,2.14-1.1,4.21-1.95,6.22-2.57,2.16-.78,4.73-1.36,7.7-1.73,2.49-.49,3.66-.73,3.5-.72.77-.37,2.25-.63,4.45-.79,4.27.02,8.47.19,12.6.53,5.41.57,9.89,1.28,13.42,2.14,2.09.49,4.55,1.22,7.38,2.21,2.84.98,4.42,1.63,4.76,1.92,1.01.88,2.48,1.57,4.41,2.06.48.12,1.01.33,1.58.6.58.28,1.1.48,1.58.6l4.43,2.3c1.62.52,2.76,1.07,3.43,1.65l5.47,3.64c3.65,2.43,5.56,3.72,5.72,3.86l3.25,2.38c.98.41,2.39,1.41,4.24,3.02l4.02,3.27c.99.56,1.66,1.15,2.02,1.75.51.44,1.26,1.06,2.26,1.85,1,.8,2.17,1.63,3.49,2.48,1.18,1.02,1.94,1.76,2.29,2.21l2.3,2.44,3.31,3.32,7.74,8.94c2.23,2.53,3.79,4.47,4.68,5.83.38.92,2.05,3.33,5.01,7.23l3.9,4.94c1.75,2.41,2.79,3.68,3.11,3.81l1.06,1.58,1.3,1.57c1.04,1.35,1.58,2.26,1.61,2.73l.82,1.6c.7.9,1.87,2.95,3.51,6.15,1.65,3.2,2.72,5.02,3.23,5.46.67.59,1.58,2.26,2.72,5.02.43,1.55.82,2.71,1.19,3.47,1.47,2.9,2.61,5.66,3.43,8.29.41,1.24.77,1.96,1.1,2.17.33.21,1.2.27,2.62.17,5.02-.51,8.4-.75,10.14-.71.8.1,2.69.05,5.68-.16l4.75.14c1.28.23,2.39.31,3.34.24l.94-.07,3.76-.5c.77-.21,1.52-.34,2.22-.39s1.37-.17,1.99-.38c3.93-.28,6.53-.3,7.82-.08,1.27.07,2.44-.09,3.52-.48.44-.51,1.38-.57,2.83-.2.97.25,2.16.32,3.57.22h3.32c3.19.41,5.88.54,8.08.38l2.11-.38c2.98-.21,4.64-.25,4.97-.11l1.18-.08c.46-.19,1.4-.25,2.83-.2,1.58.05,2.38.15,2.39.31l.02.24c-.3.34-.03.71.79,1.13.67.59,1.09.87,1.24.86s.32.1.5.32c.17.22.27.5.29.81s-.13.48-.44.51ZM81.38,624.85c.17.15.49.17.95.05.47-.11,1.39-.37,2.79-.79l9.08-2.3c.63-.04,1.25-.24,1.85-.6.61-.36,1.38-.57,2.33-.64,2.83-.2,4.39-.46,4.68-.8.15-.17,1.94-.53,5.37-1.09.46-.19.93-.3,1.4-.34s.86-.14,1.16-.32l1.87-.37,1.84-.84c.31-.18.69-.29,1.16-.32l8.52-.12c1.1-.08,1.8-.28,2.09-.62.31-.18,2.11-.38,5.41-.62,1.72-.28,3.6-.49,5.64-.63.78-.21,1.56-.27,2.36-.17l2.59-.18c1.89-.13,3.47-.16,4.73-.1l4.95-.35,7.53-.77,6.6-.46c.62-.2,2.85-.51,6.69-.94,3.84-.43,6.79-.63,8.84-.62,2.85.12,5.06-.04,6.6-.46.31-.18.85-.3,1.63-.35.33.14,2.46.06,6.38-.21l7.09-.26c1.11.08,1.74.04,1.89-.13.15-.17,2.5-.41,7.06-.73l8-.8c.46-.19,2.1-.39,4.94-.58l7.09-.26c2.2-.15,3.53-.33,3.99-.52,1.25-.24,2.11-.3,2.59-.18.95.09,2.3.12,4.03.07,1.74-.04,3.07-.1,4.02-.16.15-.17.11-.72-.12-1.65-.02-.31-.3-.93-.84-1.84l-1.13-2.53c-1.14-2.76-2.07-4.75-2.79-5.97l-1.66-3.44-3.56-6.86-1.61-2.73c-.76-1.84-2.2-4.27-4.3-7.28l-2.91-4.3-2.93-4.53-1.58-2.26-1.31-1.8-2.86-3.59c-1.6-2.57-3.08-4.52-4.44-5.85l-1.56-2.02-2.05-2.23c-.18-.3-.48-.68-.91-1.12-.42-.44-.9-1.04-1.43-1.8l-6.16-6.68-2.81-2.88-3.28-2.85c-.83-.57-1.71-1.26-2.63-2.07-.92-.8-1.89-1.64-2.9-2.52-4.2-3.65-7.72-6.41-10.53-8.26-4.48-3-7.45-4.85-8.92-5.53l-2.49-1.72-2.95-1.45-2.95-1.45c-.99-.56-3.78-2.02-8.37-4.39l-2.66-.76-2.93-1.22c-2.28-.94-5.9-1.95-10.88-3.03l-5.3-1.29c-.94.07-1.74-.03-2.39-.31-1.44-.21-3.3-.4-5.61-.55-2.3-.15-4.24-.18-5.81-.07-2.67.19-5.95.74-9.84,1.64-3.43.56-6.46,1.4-9.06,2.53l-6.86,3.56c-1.21.72-2.61,1.65-4.19,2.78-1.58,1.14-2.88,2.22-3.92,3.24-1.8,1.39-3.78,3.58-5.94,6.58l-1.96,2.51c-1.58,2.17-2.78,4.22-3.59,6.18.01.16-.47,1.22-1.44,3.18-1.09,2.45-2.32,6.25-3.7,11.4-.52,1.62-.89,3.07-1.12,4.34-.22,1.28-.36,2.79-.39,4.53l-.19,4.04c-.27.65-.36,1.61-.27,2.86-.22,1.28-.11,5.22.36,11.82.49,6.92.97,11.47,1.43,13.64l.79,4.45c.56,3.44,1.48,7.64,2.78,12.6.55,1.07,1.05,2.61,1.51,4.63l1.22,3.94.92,3.02.89,2.54c.37.77.76,1.76,1.16,3,.42,1.39.83,2.78,1.24,4.18.42,1.39.8,2.4,1.16,3,.16-.01.25.14.27.46l.52.67Z"/>
  <path class="cls-1" d="M288.61,516.28c-.32,1.58-.67,2.76-1.06,3.55-.4.79-1.14,1.89-2.25,3.31-1.42,1.58-2.99,3-4.73,4.25-2.84,2.05-4.8,3.23-5.91,3.55-.47,0-1.18.24-2.13.71-.79.47-1.42.71-1.89.71-.16,0-.95.24-2.36.71l-2.84.47-7.57,1.18-3.07.24c-5.67,0-8.98-.16-9.93-.47l-3.07-.24-3.78-.71c-.79,0-1.5-.16-2.13-.47-.63,0-1.42-.16-2.36-.47l-1.65-.47c-.47,0-1.26-.39-2.36-1.18l-3.07-1.18c-.79-.16-1.65-.55-2.6-1.18-.63-.63-1.5-1.26-2.6-1.89-2.68-1.73-4.65-3.7-5.91-5.91l-.71-.95c-.16-.16-.39-.71-.71-1.65,0-.79-.16-1.5-.47-2.13-.16-.63-.24-1.73-.24-3.31v-2.13l.95-1.89,1.42-2.6,1.18-1.18c.16-.15.4-.35.71-.59.32-.24.63-.51.95-.83l2.84-1.66c.79-.47,1.74-.98,2.84-1.54,1.1-.55,1.89-.83,2.36-.83s1.58-.55,3.31-1.65c.63-.31,1.26-.47,1.89-.47l1.65-.24c1.74-.63,3.86-.94,6.38-.94,2.36,0,4.34.32,5.91.94l.95.47-.47-.71-.95-.94-.24-.71c0-.47.24-.79.71-.94,1.58-.63,2.44-.95,2.6-.95.63-.16,2.52-.24,5.67-.24.32.16.67.24,1.06.24s.75.08,1.06.24c.95,0,1.74.16,2.36.47.32.16.87.24,1.66.24l1.42.24c2.36.79,3.86,1.18,4.49,1.18l5.67,1.66c1.1.63,2.21,1.03,3.31,1.18,1.89.95,3.07,1.58,3.55,1.89,3,1.42,5.12,2.92,6.38,4.49.32.16.55.36.71.59.16.24.4.44.71.59,1.73,2.05,2.6,4.65,2.6,7.8l-.24,2.36ZM255.75,529.75c0-.16.95-.31,2.84-.47l3.55-.24c.63-.31,1.18-.47,1.65-.47l1.66-.71c1.26-.47,3-.95,5.2-1.42.63,0,1.1-.16,1.42-.47.16,0,.32-.08.47-.24.16-.16.4-.24.71-.24l1.18-.95c.47-.63.87-.95,1.18-.95.79,0,1.97-.67,3.55-2.01,1.58-1.34,2.68-2.72,3.31-4.14.32-.79.47-1.5.47-2.13v-.95c.16-.32.2-.75.12-1.3-.08-.55-.2-1.06-.36-1.54-.47-.95-1.02-1.73-1.65-2.36l-2.13-2.36c-.31-.63-1.26-1.1-2.84-1.42-1.57-.63-2.6-.95-3.07-.95l-1.65-.24c-.31-.31-.55-.47-.71-.47-.31,0-.63-.08-.95-.24-.31-.16-.63-.31-.95-.47-1.26-.47-1.97-.71-2.13-.71h-.24c-.47.47-1.26.39-2.36-.24-.47-.47-.95-.71-1.42-.71l-2.36-.47c0-.16-.39-.39-1.18-.71-1.89-.63-3.86-.94-5.91-.94h-4.73c.47.63.71,1.5.71,2.6,0,.47-.16,1.03-.47,1.66-.31.63-.79,1.1-1.42,1.42l-1.89.95c-.63.32-.95.4-.95.24,0-.31-.16-.47-.47-.47-.47,0-.71-.08-.71-.24l-.24-.24c-.31-.31-.31-.55,0-.71l.24-.71-3.55.24c-2.2,0-3.39.08-3.55.24-.63.32-1.02.47-1.18.47-.63-.15-1.65,0-3.07.47l-2.84,1.18-1.18.47-1.18.94c-.47.16-.71.4-.71.71s-.31.47-.95.47c-.47-.15-.95,0-1.42.47-.16.16-.35.32-.59.47-.24.16-.43.24-.59.24-.31,0-.59.12-.83.35-.24.24-.36.51-.36.83s-.16.79-.47,1.42c-.63,1.1-.71,1.89-.24,2.36.16,0,.24.24.24.71,0,.32.16.79.47,1.42l.71.95.71,1.42c1.1,1.42,2.05,2.21,2.84,2.36.47,0,.71.16.71.47l1.89,1.18,2.13,1.42c.63.32,1.18.47,1.65.47.79,0,1.42.24,1.89.71.95.32,1.74.47,2.36.47l2.13.71c.79.32,1.26.4,1.42.24l1.42.47c.32.32.71.51,1.18.59.47.08,1.1.12,1.89.12,1.42,0,2.29.08,2.6.24l3.31.47,3.55.24c1.1.16,1.81.16,2.13,0Z"/>
  <path class="cls-1" d="M319.25,435.9l-.95.47c-.32,0-.87.24-1.65.71-1.42.47-2.21.71-2.36.71-.63.32-1.58.47-2.84.47-1.58.47-4.41.71-8.51.71-.95,0-1.74.08-2.36.24-6.3.47-14.42.71-24.35.71-5.83,0-10.01-.15-12.53-.47l-2.84-.24c-1.26,0-2.13-.08-2.6-.24-.95,0-1.81.08-2.6.24h-3.07c-1.42-.16-6.22-.39-14.42-.71-1.42,0-2.76-.15-4.02-.47l-3.07-.24c-1.26,0-1.97-.08-2.13-.24l-2.84-.24-2.84-.24c-1.26-.15-2.99-.35-5.2-.59-2.2-.24-4.26-.35-6.15-.35l-3.78-.24-4.49-.71c-.95,0-1.65-.08-2.13-.24l-3.07-.24c-1.57-.31-2.68-.47-3.31-.47l-3.31-.24-2.6-.24-1.89-.24h-1.18v.71c0,.63.08,1.1.24,1.42.47.94.71,1.5.71,1.65,0,.63.24,1.1.71,1.42.16.16.4.71.71,1.65,0,.63.16,1.26.47,1.89.32.31.87,1.5,1.65,3.55,0,.47.16.71.47.71v.71l.95,1.89.95,1.89.71,1.42c.47.95.71,1.5.71,1.66.47.94.79,1.49.95,1.65.47.94.71,1.49.71,1.65.16.63.71,1.26,1.65,1.89.32,0,.63.31.95.95l.47.71c.32.16.67.59,1.06,1.3.4.71.75,1.38,1.06,2.01.32.63.47,1.34.47,2.13,0,1.57-.47,2.68-1.42,3.31-.79.79-1.89,1.18-3.31,1.18-.63,0-1.42-.16-2.36-.47-1.42-.63-2.13-1.1-2.13-1.42s-.08-.47-.24-.47c0-.16-.16-.4-.47-.71-.16-.32-.16-.55,0-.71l.24-.95c0-.63.24-.94.71-.94.16-.16-.31-.95-1.42-2.36-.31-.16-.55-.39-.71-.71-.16-.32-.47-.75-.95-1.3-.47-.55-.86-.91-1.18-1.06-.47,0-.71-.32-.71-.94.16-.16.2-.32.12-.47-.08-.16-.12-.32-.12-.47l-.47-1.42c0-.95-.24-1.58-.71-1.89-.31,0-.55-.4-.71-1.18l-.47-1.89-.71-1.18-.24-.95c0-.47-.08-.79-.24-.94l-.24-1.89c-.31-1.42-.63-2.36-.95-2.84-.31-.32-.39-.55-.24-.71l-.24-.94c-.31-.63-.47-1.18-.47-1.65l-.71-1.42-.71-1.18c0-.63-.16-1.1-.47-1.42l-.47-1.42c0-.47-.08-.79-.24-.95-.16,0-.24-.15-.24-.47,0-.47-.63-.94-1.89-1.42-.79-.15-1.89-.24-3.31-.24-.79,0-1.81-.15-3.07-.47-.95-.31-2.13-.47-3.55-.47-1.26-.31-2.68-.47-4.25-.47l-4.49-.71c-.47-.16-.95-.24-1.42-.24s-.86-.08-1.18-.24l-4.25-.71c-5.04-.47-7.88-.86-8.51-1.18-.16,0-.39-.04-.71-.12-.31-.08-.47-.04-.47.12l-.71-.24c-1.1-.47-2.91-1.02-5.44-1.65-2.52-.79-3.86-1.26-4.02-1.42-2.36-.95-4.17-1.42-5.44-1.42-.95,0-1.65-.08-2.13-.24-.79-.47-1.5-.71-2.13-.71l-1.89-.47c-1.1-.31-4.1-1.02-8.98-2.13-1.26-.16-2.68-.63-4.25-1.42-.95-.63-1.66-.95-2.13-.95-.16,0-.16-.15,0-.47.16-.31.08-.63-.24-.95l-.47-.47.47-.47c.16-.16.4-.24.71-.24.47,0,.87-.24,1.18-.71.16-.79.71-1.26,1.65-1.42.95-.15,2.13-.15,3.55,0,4.25.32,6.94.79,8.04,1.42.32.16.67.24,1.06.24s.75.08,1.06.24c.95,0,1.58.16,1.89.47.32.16,1.74.55,4.26,1.18l2.36.71c2.84.79,4.97,1.18,6.38,1.18h.47c.63,0,1.18.24,1.65.71l1.89.71c.63.16,1.42.47,2.36.94.63.47,1.58.71,2.84.71h.71c.16-.16,1.42.08,3.78.71l4.73.71c.32.16.67.24,1.06.24s.75.08,1.06.24c.32.32.95.47,1.89.47l1.89.47c3.47.94,5.91,1.42,7.33,1.42l1.89.24c.32.32,1.18.47,2.6.47l3.07.47.71.24-.24-1.18c0-.79-.16-1.18-.47-1.18-.16-.16-.24-.39-.24-.71-.16-.47-.35-1.1-.59-1.89-.24-.79-.51-1.42-.83-1.89-.16,0-.24-.16-.24-.47l-.47-.71c-.79-1.57-1.18-2.76-1.18-3.55v-.24l-.24-.95c-.31-.31-.47-.55-.47-.71l-.47-.95c-.31-.16-.47-.47-.47-.95,0-.63-.08-1.18-.24-1.65l-.47-1.18c0-.47-.08-.79-.24-.95l-.47-.95c0-.47-.08-.79-.24-.94l-.47-1.18-.47-.95c-.31-.31-.47-.55-.47-.71,0-.47-.08-.79-.24-.95-.16-.15-.24-.39-.24-.71s-.08-.55-.24-.71l-.47-1.89c-.31-1.26-.47-2.05-.47-2.36,0-.79-.16-1.34-.47-1.66l-.71-1.42c-.16-.16-.27-.36-.35-.59-.08-.24-.27-.43-.59-.59l-.47-.95c0-.31-.08-.47-.24-.47l-.24-.95c0-.63-.08-1.1-.24-1.42-.16-.31-.39-.47-.71-.47-.31-.16-.47-.47-.47-.95,0-.63-.08-1.02-.24-1.18-.16-.31-.47-1.81-.95-4.49l-.24-.95c-.31,0-.47-.15-.47-.47l-.24-.47c-.31,0-.47-.31-.47-.94l-.47-.95c-.31,0-.47-.31-.47-.94s.16-1.02.47-1.18c.16,0,.35-.08.59-.24.24-.16.44-.39.59-.71.79-1.26,1.74-1.42,2.84-.47.32.32.55.47.71.47.32.16.87,1.06,1.65,2.72.79,1.65,1.18,2.8,1.18,3.43l.24.47c.16.16.24.39.24.71l.24.71.47.95c0,.63.16.95.47.95,0,.47.24,1.1.71,1.89.16.79.47,1.89.95,3.31.32.63.47,1.1.47,1.42.16.16.24.35.24.59s.08.44.24.59c.47.94.71,1.65.71,2.13l.24,1.18c.16.16.24.47.24.95,0,.16.16.39.47.71l.24.71c0,.79.08,1.34.24,1.66l.47,1.65c0,.32.16.63.47.94.47.47.71,1.03.71,1.65l.47,1.65.95,2.36.71,1.89c.63,1.26.95,2.21.95,2.84,0,.47.16.87.47,1.18l.24.71.47,1.18.47,1.89c.16.63.44,1.42.83,2.36.4.94.75,1.73,1.06,2.36l.71,2.13c.79,2.05,1.34,3.15,1.65,3.31.32.16.95.24,1.89.24.63,0,1.58.16,2.84.47l2.13.24c1.1,0,2.13.24,3.07.71.47.32,1.89.47,4.25.47.32-.15.95-.08,1.89.24,1.26.32,2.52.47,3.78.47,1.89.16,4.1.55,6.62,1.18.95.16,1.58.16,1.89,0,.32-.15,1.03-.15,2.13,0,4.73.63,8.51.95,11.35.95,3.47,0,5.67.16,6.62.47.95.32,2.6.47,4.96.47l1.65-.24h1.42c.32.32,2.17.59,5.56.83,3.39.24,7.53.28,12.41.12,1.89,0,3.63.08,5.2.24.95.16,2.68.24,5.2.24,1.57,0,2.84.16,3.78.47l2.36.24c1.1,0,2.36-.08,3.78-.24,1.42-.16,2.6-.39,3.55-.71,1.26-.15,3.46-.15,6.62,0,1.26,0,2.21-.15,2.84-.47.79-.31,1.73-.39,2.84-.24.47.16,1.1.24,1.89.24l5.67-.24c4.57,0,7.17-.16,7.8-.47.16-.16.79-.24,1.89-.24l1.89-.24c.31-.15,1.1-.24,2.36-.24s1.89.08,1.89.24c-.16.32.16.79.95,1.42l.95.47c.16,0,.31.08.47.24.16.16.24.39.24.71s-.24.63-.71.95Z"/>
  <path class="cls-1" d="M378.4,420.73c-.01.16-1.32.34-3.52.2l-2.31-5.77-2.02-3.39-4.49-6.61c-.31-.18-4.46-3.3-4.85-3.33s-2.4-1.44-2.7-1.62l-1.64-.34-1.15-.55-2.33-.63-3.49-.93c-1.26-.08-2.35-.31-3.27-.68l-3.02-.91-2.09-.61c-.77-.36-2.32-.7-4.67-1.01l-3.27-.68c-.31-.17-2.56-.72-6.77-1.62l-2.8-.65-2.8-.65-2.11-.37c-.31-.18-1.01-.3-2.11-.37l-2.11-.37c-.92-.37-1.97-.72-3.13-1.03-1.16-.31-2.14-.49-2.93-.54-.63-.04-1.17-.15-1.64-.34l-4-.49-3.52-.46c-.77-.36-2.95-.74-6.56-1.13-.62-.2-1.28-.32-1.99-.37s-1.37-.16-1.99-.36l-4.23-.51c-4.37-.75-7.1-1.25-8.2-1.47l-3.05-.44c-1.57-.1-2.51-.24-2.82-.42l-3.52-.46c-.62-.19-1.2-.31-1.75-.35s-1.06-.15-1.52-.33l-6.8-1.15-3.29-.45c0-.15-1.16-.31-3.52-.46-2.2-.14-3.76-.4-4.69-.78-2.02-.45-4.17-.86-6.43-1.24-2.26-.38-3.95-.61-5.05-.68-.15,0-.32.1-.49.32-.17.23-.18.43-.04.59.14.33.34.89.6,1.7.27.81.39,1.37.37,1.68l.62,1.46.62,1.46.41.97.38,1.45c-.03.47.1.88.4,1.21.28.65.4,1.21.37,1.68-.02.32.05.56.19.72.15.17.22.33.21.49.44.5.64,1.07.6,1.7l.38,1.45c.43.66.81,1.51,1.14,2.56.33,1.05.55,1.89.67,2.53l1.01,2.67c.16.01.23.09.22.25s.06.32.21.49c-.04.63.1.95.41.97l.21.49c-.02.31.05.55.19.72l.4,1.21c-.02.31.17.96.59,1.93l.33,2.15c.27.81.55,1.3.85,1.48.3.33.58.83.85,1.48l.41.97.22.25c-.02.31.19.72.63,1.23.71,1.31,1.02,2.59.94,3.85l-.03.47c-.04.63-.28,1.32-.73,2.08-.44.76-.82,1.21-1.15,1.35l-1.23.63-.96.17c.01-.16-.22-.25-.69-.28-.78-.05-1.15-.47-1.1-1.26-.13-.33-.36-.58-.66-.75-.46-.19-.75-.6-.87-1.24-.27-.65-.25-.96.06-.94.01-.16-.13-.4-.43-.74l-.17-.96-.44-.5c-.46-.19-.68-.52-.65-.99s-.02-.87-.16-1.2l-1.06-1.96c-.24-1.12-.82-2.03-1.72-2.72-.14-.17-.21-.41-.19-.72.17-.15.19-.46.06-.94l-.15-1.43c.18-.31.2-.62.06-.94-.13-.33-.28-.49-.44-.5-.47-.03-.75-.68-.82-1.95-.24-1.12-.44-1.77-.59-1.93l-.16-1.2c-.07-1.27-.23-2.47-.48-3.58-.24-1.12-.51-1.77-.82-1.95l.03-.47-.17-.96c.03-.47-.09-1.03-.37-1.68.04-.63-.08-1.11-.38-1.45-.29-.33-.43-.74-.4-1.21l-.63-1.23-.38-1.45c.03-.47-.03-.71-.19-.72-.12-.48-.1-.87.08-1.18.03-.47-.02-.91-.15-1.31-.13-.4-.35-.69-.65-.87-.15,0-.22-.25-.19-.72.04-.63-.07-1.34-.33-2.15l-.56-2.41c.02-.31,0-.59-.06-.83-.06-.24-.24-.45-.55-.63-.3-.17-1.16-.31-2.58-.4-1.24-.39-2.41-.63-3.51-.7-1.24-.39-2.41-.63-3.51-.7-1.26-.08-2.35-.31-3.27-.69-1.24-.39-2.33-.62-3.27-.68l-3.26-.92c-.92-.37-1.78-.59-2.56-.64-.3-.17-1.16-.31-2.58-.4-.94-.06-1.88-.28-2.8-.65-2.47-.79-4.73-1.41-6.75-1.86-2.48-.63-3.88-1.04-4.19-1.22-1.87-.44-2.87-.74-3.02-.9-.47-.03-1.32-.24-2.57-.64l-1.62-.58-1.39-.56-7.66-2.39-3.02-.91-5.32-2-1.84-.83-5.07-2.22c-.62-.19-1.54-.57-2.77-1.12-1.23-.55-2.14-1-2.76-1.36-.74-.68-1.77-1.3-3.08-1.86-1.3-.56-2.5-.95-3.6-1.18-1.69-.74-2.83-1.44-3.42-2.11l-1.83-1.06c-1.38-.72-2.96-1.85-4.76-3.39-1.8-1.54-2.9-2.71-3.33-3.53l-1.09-1.49c-1.16-1.65-1.65-3.81-1.48-6.49.43-1.71,1-3.17,1.7-4.39,1.36-1.49,3.17-2.56,5.42-3.2.17-.14.37-.21.61-.2s.36-.06.37-.21c.32.02.46.19.44.5-.16.15-.02.24.46.27.32.02.51.07.58.16.08.09.1.29.08.6-.03.47-.13.78-.3.93-.33.3-.55.56-.64.79-.09.23-.07.51.06.83.13.48.02,1.03-.34,1.64-.7,1.06-1.09,2.14-1.16,3.24-.06.94.8,2.34,2.57,4.19,1.04,1.02,2.17,1.88,3.39,2.59.32.02.58.12.81.29.23.17.41.35.56.51,1.5,1.2,2.87,2.08,4.09,2.63l2.76,1.36c4.14,2,6.91,3.05,8.33,3.14l1.4.33c.44.5.74.76.9.77l2.05,1.32c1.24.4,2.08.84,2.52,1.35,1.21.87,2.68,1.36,4.41,1.47.47.03,1.17.24,2.09.61,3.07,1.46,5.76,2.5,8.09,3.13l2.31.86,2.3,1.09c1.86.59,3.4,1.17,4.63,1.72,3.55,1.34,6.03,2.05,7.44,2.14l1.4.33c.3.34,1.3.72,3.01,1.14l4.42,1.23c1.55.42,2.65.64,3.27.68,1.42.09,2.43.24,3.05.43l3.96.97c1.73.11,3.06.36,3.98.73.92.38,1.7.58,2.33.62.79.05,1.25.16,1.4.33.46.19.74.17.83-.06.1-.23.07-.51-.06-.83-.13-.32-.18-.8-.14-1.43l.05-.71c-.29-.33-.44-.58-.43-.74s-.21-.49-.65-.99c-.14-.16-.21-.49-.17-.96l-.14-1.43-.16-1.2-.41-.97-.4-1.21c.02-.31-.04-.56-.19-.72l-.17-.96c.03-.47-.11-.72-.43-.74-.29-.33-.43-.66-.41-.97l-.19-.72-.14-1.43-.57-2.17c-.13-.32-.17-.96-.11-1.9.05-.78-.07-1.34-.37-1.68,0-.15-.06-.32-.21-.49-.14-.17-.21-.41-.19-.72l-.87-1.24c-.3-.18-.48-.51-.53-.98-.05-.48-.13-1.03-.25-1.67-.25-.96-.54-1.46-.85-1.48-.3-.17-.44-.58-.4-1.21l.06-.94c-.14-.17-.21-.37-.2-.61s-.05-.51-.18-.84c-.18-2.06-.35-3.18-.49-3.35l-.21-.49c0-.15-.13-.4-.43-.74-.31-.02-.45-.34-.41-.97.02-.31-.04-.55-.19-.72-.14-.17-.29-.45-.42-.86-.13-.4-.11-.75.07-1.06l.49-.21c.32.02.73-.27,1.24-.87.35-.45.68-.7,1-.77.32-.06.79.09,1.39.45,1.22.71,1.81,1.3,1.78,1.77l.43.74c.82,1.95,1.22,3.16,1.19,3.63s.03.79.18.96c.3.34.42.82.38,1.45.26.96.46,1.53.6,1.7l.57,2.17.57,2.17.59,1.93.16,1.2c.44.5.63,1.23.57,2.17-.03.47.1.88.4,1.21l-.03.47c-.02.32.05.56.19.72.15.17.21.41.19.72s.05.56.19.72l.13,1.67c.15.17.21.49.17.96l.4,1.21c.31.18.52.51.65.99l.13,1.67.81,2.18.38,1.45.21.49c-.02.32.05.48.21.49.15.17.21.41.19.72s.04.64.17.96c-.03.47.03.83.17,1.08.14.25.21.45.2.61.29.49.34.81.17.96l.4,1.21.38,1.45c-.05.79.4,1.21,1.34,1.27l1.86.59,2.8.66,5.85,1.09c.32.02,1.4.33,3.26.92,1.55.42,2.41.63,2.57.64l.72-.19c.17-.15.88-.1,2.12.14,4.68.93,8.75,1.51,12.21,1.73,5.8.69,9.32,1.23,10.56,1.63.61.36,1.31.56,2.09.61l2.83.18c.93.22,1.88.28,2.83.18.94.06,1.73.19,2.34.39.15.17,1.31.48,3.49.94,1.73.11,2.9.35,3.51.7l2.58.4c1.89.12,3.14.28,3.76.48.77.21,1.64.34,2.58.4s1.65.19,2.11.37l3.07.2c1.1.07,1.96.21,2.58.4.3.18.93.3,1.87.36l1.64.34c1.54.57,3.95,1.12,7.24,1.65,2.19.3,4.06.73,5.6,1.31.76.52,2.15.93,4.19,1.22l4,.49,3.52.46c.64-.11,1.19-.12,1.66-.01.47.11.78.17.94.18.61.36,1.23.55,1.86.59.31.02,1.63.42,3.95,1.2l1.87.36.94.06c.8-.11,1.47-.1,2.01,0,.54.12,1.12.35,1.73.7.14.17.99.54,2.53,1.11.78.05,2.56.64,5.33,1.77l7.41,2.61c4.17,2.84,5.08,7.5,5.84,8.03.61.28.53,2.13,1.32,2.18.63.04.04.3,1.43.86l.12.38.28.38c-.18.31.44.49.51.66.07.16.63.55.93.88.44.5.95.67.93.99l.45,1.61c.15,0,.3,3.12.45,3.37.14.25-.2,2.38-.21,2.53l-.41,1.92Z"/>
  <path class="cls-1" d="M295.07,318.9c-.32,1.58-.67,2.76-1.06,3.55-.4.79-1.14,1.89-2.25,3.31-1.42,1.58-2.99,3-4.73,4.26-2.84,2.05-4.8,3.23-5.91,3.55-.47,0-1.18.24-2.13.71-.79.47-1.42.71-1.89.71-.16,0-.95.24-2.36.71l-2.84.47-7.57,1.18-3.07.24c-5.67,0-8.98-.16-9.93-.47l-3.07-.24-3.78-.71c-.79,0-1.5-.15-2.13-.47-.63,0-1.42-.16-2.36-.47l-1.65-.47c-.47,0-1.26-.39-2.36-1.18l-3.07-1.18c-.79-.16-1.65-.55-2.6-1.18-.63-.63-1.5-1.26-2.6-1.89-2.68-1.73-4.65-3.7-5.91-5.91l-.71-.95c-.16-.15-.39-.71-.71-1.65,0-.79-.16-1.5-.47-2.13-.16-.63-.24-1.73-.24-3.31v-2.13l.95-1.89,1.42-2.6,1.18-1.18c.16-.15.4-.35.71-.59.32-.24.63-.51.95-.83l2.84-1.66c.79-.47,1.74-.98,2.84-1.54,1.1-.55,1.89-.83,2.36-.83s1.58-.55,3.31-1.65c.63-.31,1.26-.47,1.89-.47l1.65-.24c1.74-.63,3.86-.94,6.38-.94,2.36,0,4.34.32,5.91.94l.95.47-.47-.71-.95-.94-.24-.71c0-.47.24-.79.71-.94,1.58-.63,2.44-.95,2.6-.95.63-.16,2.52-.24,5.67-.24.32.16.67.24,1.06.24s.75.08,1.06.24c.95,0,1.74.16,2.36.47.32.16.87.24,1.66.24l1.42.24c2.36.79,3.86,1.18,4.49,1.18l5.67,1.66c1.1.63,2.21,1.03,3.31,1.18,1.89.95,3.07,1.58,3.55,1.89,3,1.42,5.12,2.92,6.38,4.49.32.16.55.36.71.59.16.24.4.44.71.59,1.73,2.05,2.6,4.65,2.6,7.8l-.24,2.36ZM262.21,332.38c0-.16.95-.31,2.84-.47l3.55-.24c.63-.31,1.18-.47,1.65-.47l1.66-.71c1.26-.47,3-.94,5.2-1.42.63,0,1.1-.15,1.42-.47.16,0,.32-.08.47-.24.16-.16.4-.24.71-.24l1.18-.95c.47-.63.87-.94,1.18-.94.79,0,1.97-.67,3.55-2.01,1.58-1.34,2.68-2.72,3.31-4.14.32-.79.47-1.5.47-2.13v-.94c.16-.31.2-.75.12-1.3-.08-.55-.2-1.06-.36-1.54-.47-.95-1.02-1.73-1.65-2.36l-2.13-2.36c-.31-.63-1.26-1.1-2.84-1.42-1.57-.63-2.6-.95-3.07-.95l-1.65-.24c-.31-.31-.55-.47-.71-.47-.31,0-.63-.08-.95-.24-.31-.16-.63-.31-.95-.47-1.26-.47-1.97-.71-2.13-.71h-.24c-.47.47-1.26.39-2.36-.24-.47-.47-.95-.71-1.42-.71l-2.36-.47c0-.16-.39-.39-1.18-.71-1.89-.63-3.86-.94-5.91-.94h-4.73c.47.63.71,1.5.71,2.6,0,.47-.16,1.03-.47,1.66-.31.63-.79,1.1-1.42,1.42l-1.89.95c-.63.32-.95.4-.95.24,0-.31-.16-.47-.47-.47-.47,0-.71-.08-.71-.24l-.24-.24c-.31-.31-.31-.55,0-.71l.24-.71-3.55.24c-2.2,0-3.39.08-3.55.24-.63.32-1.02.47-1.18.47-.63-.15-1.65,0-3.07.47l-2.84,1.18-1.18.47-1.18.94c-.47.16-.71.4-.71.71s-.31.47-.95.47c-.47-.15-.95,0-1.42.47-.16.16-.35.32-.59.47-.24.16-.43.24-.59.24-.31,0-.59.12-.83.35-.24.24-.36.51-.36.83s-.16.79-.47,1.42c-.63,1.1-.71,1.89-.24,2.36.16,0,.24.24.24.71,0,.32.16.79.47,1.42l.71.95.71,1.42c1.1,1.42,2.05,2.21,2.84,2.36.47,0,.71.16.71.47l1.89,1.18,2.13,1.42c.63.32,1.18.47,1.65.47.79,0,1.42.24,1.89.71.95.32,1.74.47,2.36.47l2.13.71c.79.32,1.26.4,1.42.24l1.42.47c.32.32.71.51,1.18.59.47.08,1.1.12,1.89.12,1.42,0,2.29.08,2.6.24l3.31.47,3.55.24c1.1.16,1.81.16,2.13,0Z"/>
  <path class="cls-1" d="M343.53,284.99c-.47,0-.79.08-.95.24-.79,0-1.34.08-1.66.24l-2.84.47c-1.89.16-4.69.28-8.39.35-3.71.08-7.45.04-11.23-.12-6.31-.31-26.32-.47-60.05-.47-12.77.16-19.46.32-20.09.47l-1.65.94c-.79.47-1.81.71-3.07.71l-4.02.94c-2.21.63-3.86.95-4.97.95-2.84.32-4.65.87-5.44,1.65-.95.63-4.81,1.58-11.58,2.84l-4.97,1.18c-1.1.32-2.44.63-4.02.94-1.73,0-3.15.24-4.25.71l-4.49.71c-5.83.63-10.08,1.42-12.77,2.36l-1.89.47c-1.26,0-2.21.08-2.84.24l-7.57,1.18c-3.15.47-5.2.86-6.15,1.18-2.36.47-4.02.71-4.96.71l-5.2.71c-1.26.31-3.62.55-7.09.71-3.15,0-5.28-.16-6.38-.47-4.73-1.26-8.35-2.6-10.87-4.02-1.42-.94-2.13-2.29-2.13-4.02l.24-1.18c.63-1.26,1.89-2.36,3.78-3.31,2.05-.95,4.65-1.89,7.8-2.84,3.15-.95,6.07-1.5,8.75-1.65,1.58-.16,2.84-.39,3.78-.71.79-.31,2.13-.63,4.02-.94,1.42,0,2.76-.16,4.02-.47l4.96-.71c1.26,0,2.25-.08,2.96-.24.71-.16,1.15-.24,1.3-.24.95-.31,1.97-.47,3.07-.47l3.07-.47,10.17-1.18h4.25c4.1,0,7.72-.31,10.88-.94l1.89-.47.95.24c1.74.16,4.3.2,7.68.12,3.39-.08,6.19-.2,8.39-.36l3.78-.24c1.89.16,3.94.16,6.15,0,2.21-.15,3.94-.31,5.2-.47l2.36-.24c2.05-.47,4.26-1.1,6.62-1.89l2.36-.71c2.36-.47,4.02-.95,4.96-1.42.32-.31.71-.47,1.18-.47l2.13-.95c1.1-.79,2.92-1.57,5.44-2.36l3.55-1.42,3.78-1.89c1.26-.47,2.13-.94,2.6-1.42l1.66-.71,5.2-2.84,1.89-1.42,3.55-2.36c1.74-1.42,2.84-2.2,3.31-2.36,1.1-.79,2.05-1.89,2.84-3.31.16-.47.32-.55.47-.24,0,.63.32.55.95-.24.32-.47.47-.55.47-.24l.47.47c.16.16.16.63,0,1.42,0,1.58.16,2.36.47,2.36.16,0,.24.24.24.71s-.31,1.26-.95,2.36c-.63,1.26-1.42,2.36-2.36,3.31l-3.55,3.31c-1.42,1.1-3.15,2.24-5.2,3.43-2.05,1.18-3.78,2.17-5.2,2.96-2.2.63-3.55,1.26-4.02,1.89-1.42,1.1-2.76,1.74-4.02,1.89l-2.84.95-2.36.95-.71.24h1.18l5.91.47h1.42l5.44-.24c3.63-.31,5.67-.55,6.15-.71,2.05-.15,6.15-.15,12.29,0,3,0,4.73-.08,5.2-.24.95-.31,1.81-.47,2.6-.47s1.42.08,1.89.24c1.57.16,3.86.24,6.86.24l3.55.24,12.53.71h2.84l4.26-.24h3.55c.63.16,1.5.24,2.6.24.63-.31,1.42-.31,2.36,0,1.57,0,2.76.08,3.55.24h2.13v.71c-.16.32-.16.55,0,.71.16.16.47.32.95.47,1.42.79,2.28,1.42,2.6,1.89,0,.32-.24.55-.71.71ZM142.35,299.18l2.36-.47,3.55-.24,4.02-.47c3-.63,5.91-1.03,8.75-1.18l3.31-.71,3.07-.71c.63-.31,1.65-.47,3.07-.47,3.78-.63,6.86-1.26,9.22-1.89l5.91-1.18,4.49-.94,2.84-.71c.16,0,1.18-.24,3.07-.71l3.07-.47c.63-.16,2.25-.55,4.85-1.18,2.6-.63,3.9-1.02,3.9-1.18l-3.31.24-5.67.24-10.88.71c-2.52,0-4.1.08-4.73.24l-3.07.24-6.62.47c-.63.16-1.3.24-2.01.24s-1.46.08-2.25.24l-4.49.24-2.36.47c-.95,0-3.94.4-8.98,1.18-1.26,0-2.52.16-3.78.47-1.73.63-4.41,1.18-8.04,1.65-.79.16-1.65.32-2.6.47-.95.16-1.89.39-2.84.71-.79.16-3.15.87-7.09,2.13l-.71.47.47.24c1.26.63,3.35,1.14,6.27,1.54,2.92.39,5.32.51,7.21.35Z"/>
  <path class="cls-1" d="M299.09,247.31c-.63.63-1.03.95-1.18.95l-.95.24c-.63.16-1.42.24-2.36.24s-1.65-.08-2.13-.24h-4.49c-1.1-.15-2.21-.24-3.31-.24s-2.05-.08-2.84-.24h-2.13c-.63-.31-1.65-.47-3.07-.47h-.24c-.16.16-1.54.2-4.14.12-2.6-.08-3.98-.12-4.14-.12l-.71-.24c-.31.32-1.02.32-2.13,0h-18.44c-.31,0-.75.04-1.3.12-.55.08-.98.04-1.3-.12l-7.33.24c0,.16-1.1.24-3.31.24l-3.55.24c-.16,0-.39.16-.71.47-.16.32-.47.47-.95.47l-.95.24c-.63.32-1.34.47-2.13.47-.63,0-1.1-.08-1.42-.24-.47-.16-.98-.51-1.54-1.06s-.98-1.06-1.3-1.54c-.47-1.57-.08-3.15,1.18-4.73.47-.15.87-.63,1.18-1.42.63-.63,1.42-.94,2.36-.94.79,0,1.26.08,1.42.24.16.32.4.55.71.71.32.16.63.24.95.24l1.18-.47c.16-.16.4-.24.71-.24l.71-.47c.16-.16.4-.16.71,0l.95.24.95.47c.47.16.87.08,1.18-.24.32-.16,1.1-.16,2.36,0,.47.32.87.32,1.18,0,.32,0,.55.08.71.24l.95.24c.63,0,1.1.08,1.42.24,1.42.32,2.13.32,2.13,0h.47c.32.16.79.28,1.42.36.63.08,1.18.12,1.65.12h1.42c1.89-.31,3.15-.24,3.78.24.79.32,1.42.32,1.89,0,.16-.16.4-.16.71,0l1.89.24,1.89.24c.47.16.71.16.71,0h1.89l3.78-.24c.79-.16,1.42-.16,1.89,0,.32.16.75.2,1.3.12.55-.08.91-.2,1.06-.35.32-.16.55-.16.71,0,.32.32.79.47,1.42.47.95.16,1.85.2,2.72.12.87-.08,1.54-.2,2.01-.35h.71c.32.16,1.26.24,2.84.24l2.36.47c.16.16.36.28.59.36.24.08.59.04,1.06-.12l1.65-.47c.63-.31,1.18-.39,1.65-.24l1.18.24c.32,0,.55-.08.71-.24.32-.63.71-.71,1.18-.24.32.32.63.39.95.24.63,0,1.1.08,1.42.24.63.32,1.34.47,2.13.47l.95-.24c.16-.15.47-.24.95-.24s.71-.08.71-.24h.95c.47.16.71.47.71.95l.47,1.42.24,1.42c0,.32-.32.79-.95,1.42ZM203.35,249.43c.16.16.47.16.95,0,.47-.16.79-.31.95-.47.63,0,1.1-.39,1.42-1.18.32-.31.67-.83,1.06-1.54.4-.71.83-1.3,1.3-1.77h.59c.24,0,.32-.12.24-.36-.08-.24-.27-.67-.59-1.3-.16-.16-.31-.71-.47-1.66-.16-.94-.47-1.65-.95-2.13l-.24.47c-.16-.31-.36-.47-.59-.47s-.43.16-.59.47c0,.16-.16.24-.47.24h-.71c0,.32-.08.39-.24.24s-.31-.24-.47-.24-.24-.08-.24-.24l-.71.24h-.24c0-.63-.31-.71-.95-.24h-.47c0,.16-.31.24-.95.24-.47,0-1.02.16-1.65.47-.63.32-1.02.71-1.18,1.18-.47,1.1-.47,2.28,0,3.55,0,.32.32.63.95.95.32.32.55.67.71,1.06.16.4.16.67,0,.83,0,.32.16.32.47,0,.16.16.24.32.24.47.16.47.32.55.47.24.16-.15.24,0,.24.47,0,.32.04.51.12.59.08.08.28.04.59-.12.16-.31.44-.47.83-.47s.59.16.59.47Z"/>
  <path class="cls-1" d="M307.39,211.93c-.32,1.58-.67,2.76-1.06,3.55-.4.79-1.14,1.89-2.25,3.31-1.42,1.58-2.99,3-4.73,4.26-2.84,2.05-4.8,3.23-5.91,3.55-.47,0-1.18.24-2.13.71-.79.47-1.42.71-1.89.71-.16,0-.95.24-2.36.71l-2.84.47-7.57,1.18-3.07.24c-5.67,0-8.98-.16-9.93-.47l-3.07-.24-3.78-.71c-.79,0-1.5-.15-2.13-.47-.63,0-1.42-.16-2.36-.47l-1.65-.47c-.47,0-1.26-.39-2.36-1.18l-3.07-1.18c-.79-.16-1.65-.55-2.6-1.18-.63-.63-1.5-1.26-2.6-1.89-2.68-1.73-4.65-3.7-5.91-5.91l-.71-.95c-.16-.15-.39-.71-.71-1.65,0-.79-.16-1.5-.47-2.13-.16-.63-.24-1.73-.24-3.31v-2.13l.95-1.89,1.42-2.6,1.18-1.18c.16-.15.4-.35.71-.59.32-.24.63-.51.95-.83l2.84-1.66c.79-.47,1.74-.98,2.84-1.54,1.1-.55,1.89-.83,2.36-.83s1.58-.55,3.31-1.65c.63-.31,1.26-.47,1.89-.47l1.65-.24c1.74-.63,3.86-.94,6.38-.94,2.36,0,4.34.32,5.91.94l.95.47-.47-.71-.95-.94-.24-.71c0-.47.24-.79.71-.94,1.58-.63,2.44-.95,2.6-.95.63-.16,2.52-.24,5.67-.24.32.16.67.24,1.06.24s.75.08,1.06.24c.95,0,1.74.16,2.36.47.32.16.87.24,1.66.24l1.42.24c2.36.79,3.86,1.18,4.49,1.18l5.67,1.66c1.1.63,2.21,1.03,3.31,1.18,1.89.95,3.07,1.58,3.55,1.89,3,1.42,5.12,2.92,6.38,4.49.32.16.55.36.71.59.16.24.4.44.71.59,1.73,2.05,2.6,4.65,2.6,7.8l-.24,2.36ZM274.53,225.4c0-.16.95-.31,2.84-.47l3.55-.24c.63-.31,1.18-.47,1.65-.47l1.66-.71c1.26-.47,3-.94,5.2-1.42.63,0,1.1-.15,1.42-.47.16,0,.32-.08.47-.24.16-.16.4-.24.71-.24l1.18-.95c.47-.63.87-.94,1.18-.94.79,0,1.97-.67,3.55-2.01,1.58-1.34,2.68-2.72,3.31-4.14.32-.79.47-1.5.47-2.13v-.94c.16-.31.2-.75.12-1.3-.08-.55-.2-1.06-.36-1.54-.47-.95-1.02-1.73-1.65-2.36l-2.13-2.36c-.31-.63-1.26-1.1-2.84-1.42-1.57-.63-2.6-.95-3.07-.95l-1.65-.24c-.31-.31-.55-.47-.71-.47-.31,0-.63-.08-.95-.24-.31-.16-.63-.31-.95-.47-1.26-.47-1.97-.71-2.13-.71h-.24c-.47.47-1.26.39-2.36-.24-.47-.47-.95-.71-1.42-.71l-2.36-.47c0-.16-.39-.39-1.18-.71-1.89-.63-3.86-.94-5.91-.94h-4.73c.47.63.71,1.5.71,2.6,0,.47-.16,1.03-.47,1.66-.31.63-.79,1.1-1.42,1.42l-1.89.95c-.63.32-.95.4-.95.24,0-.31-.16-.47-.47-.47-.47,0-.71-.08-.71-.24l-.24-.24c-.31-.31-.31-.55,0-.71l.24-.71-3.55.24c-2.2,0-3.39.08-3.55.24-.63.32-1.02.47-1.18.47-.63-.15-1.65,0-3.07.47l-2.84,1.18-1.18.47-1.18.94c-.47.16-.71.4-.71.71s-.31.47-.95.47c-.47-.15-.95,0-1.42.47-.16.16-.35.32-.59.47-.24.16-.43.24-.59.24-.31,0-.59.12-.83.35-.24.24-.36.51-.36.83s-.16.79-.47,1.42c-.63,1.1-.71,1.89-.24,2.36.16,0,.24.24.24.71,0,.32.16.79.47,1.42l.71.95.71,1.42c1.1,1.42,2.05,2.21,2.84,2.36.47,0,.71.16.71.47l1.89,1.18,2.13,1.42c.63.32,1.18.47,1.65.47.79,0,1.42.24,1.89.71.95.32,1.74.47,2.36.47l2.13.71c.79.32,1.26.4,1.42.24l1.42.47c.32.32.71.51,1.18.59.47.08,1.1.12,1.89.12,1.42,0,2.29.08,2.6.24l3.31.47,3.55.24c1.1.16,1.81.16,2.13,0Z"/>
  <path class="cls-1" d="M91.94,156.25l.09.62s-.06.6.05,1.3.28,1.12.28,1.12l.36.87.11,1.24s.28.43.59,1.14.68,1.78.68,1.78c.26,1.06-.38,1.75-.46,1.83-.37.36-1.3,1.18-1.3,1.18-.61-.14-1.42-1-1.95-1.44-.54-.45-1.33-2.34-1.53-2.9l-.73-1.3c-.61-1.67-.93-2.62-.96-2.85l-.53-1.15c-.37-.88-.6-1.61-.69-2.19-.14-.92-.38-1.71-.71-2.36l-.38-1.35c-.1-.69-.23-1.14-.38-1.35l-.32-2.07c-.12-.8-.4-1.88-.84-3.22-.75-2.59-1.37-5.49-1.86-8.71-.19-1.26-.36-2.18-.51-2.75-.15-.56-.29-.95-.44-1.17-.3-.42-.48-.87-.55-1.33l-.18-1.21c-.5-.98-.8-1.76-.88-2.33s-.22-1.05-.4-1.44c-.18-.38-.35-.74-.52-1.07-.35-.77-.47-1.93-.35-3.47l.51-1.31.17-.03.32-.22c.19-.26.36-.35.49-.25l.34-.05c.13.1.21.21.22.32.26.2.45.28.57.27.23-.03.41,0,.54.09l.34-.05c.23-.03.53.18.89.66.36.47.66,1.05.88,1.72.97,1.74,1.52,3,1.64,3.81.09.58.2.91.33,1.01.32.54.43.88.33,1.01-.06.36,0,.82.21,1.38l.46,1.87c.69,2.25.7,3.29,1,3.71.13.1.28.52.32.75s.16.56.06.69c-.04.21-.13.46-.05,1.04.12.81.11,1.15.03,1.4-.11.84-.19,1.43.19,2.12.15.21.46,1.41,1.27,3.1l.18,1.21c.15.21.26.55.33,1.01-.1.13-.09.54.01,1.23.16,1.04.21,1.79.17,2.27.16,1.03.32,1.71.49,2.04l.43,1.7c.12.81.24,1.2.36,1.18l1.25.94ZM91.62,158.71l-.02,2.75-1.35.86-3.13-7.75c.36-.78.42-1.29.2-1.52-.08-.41,0-.78.29-1.12.69-1.69,1.06-3.25,1.11-4.68.32-2.61.75-2.18.94-2.93l.5-2.32c.16-.03.48-1.68.68-2,.19-.32.07-.97.01-1.24-.08-.41-.07-.76.04-1.07.25-.47.32-.98.2-1.52-.08-.41,0-.78.29-1.12.14-.17.3-.45.47-.84.18-.39.31-.81.39-1.25,0,0,1.09-2.27.95-2.95l.66-1.83.29-1.12.29-1.12c.36-.78.51-1.3.45-1.58-.11-.54-.1-.9.04-1.07l.74-1.42c1.73-3.32,2.88-5.33,3.43-6.01.25-.47.65-.84,1.2-1.1.55-.25.9-.47,1.04-.64,1.41-.72,2.67-.91,3.78-.58.56.17,1.09.44,1.6.83.51.39,1.1.93,1.77,1.64l1.67,1.77c.16-.03.29.15.38.56l.42,2.03.63,1.77c.08.41.22.66.42.76.39.2.65.43.79.68.14.26.17.6.09,1.04-.19.75-.19,1.17,0,1.27l.3,1.42-.03.99-1.06.95-.76,1.11s-.83.89-1.88,1.47c-1.05.58-2.11-2.16-2.11-2.16l-.2-3.69-1.48-3.52-.85-2.78-1.3-.1-.83,1.02-1.46,1.35c-.33.92-.66,1.81-.93,2.15l-.53,1.65s-1.53,4.39-2.02,6.18c0,0-.93,2.41-.84,2.81l-1.03,3.13s-.83,3.78-1.16,3.84l-.86,2.41s-.33,2.39-.46,2.55l-.25,2.38-.38,1.38c-.14.17-.13,1.71-.26,2.73.06.27.01-.34-.45,1.59"/>
  <path class="cls-1" d="M271.14,476.88l.78-.08s.75.11,1.63,0,1.41-.28,1.41-.28l1.11-.4,1.56-.08s.55-.33,1.46-.68,2.26-.75,2.26-.75c1.34-.27,2.16.57,2.26.68.43.49,1.41,1.68,1.41,1.68-.21.76-1.32,1.72-1.91,2.36-.59.65-2.99,1.53-3.7,1.75l-1.66.84c-2.12.67-3.32,1.02-3.61,1.05l-1.47.6c-1.12.42-2.05.66-2.77.74-1.15.12-2.15.38-2.99.76l-1.71.4c-.87.09-1.43.23-1.71.4l-2.6.28c-1.01.11-2.37.4-4.07.88-3.27.79-6.93,1.4-10.98,1.84-1.59.17-2.74.33-3.46.48-.71.15-1.21.32-1.48.49-.54.35-1.11.56-1.69.62l-1.52.16c-1.25.57-2.24.9-2.96.98s-1.33.22-1.82.42c-.49.2-.94.4-1.36.59-.98.4-2.43.48-4.36.25l-1.61-.7-.02-.22-.26-.41c-.32-.26-.41-.47-.29-.63l-.05-.43c.13-.16.27-.25.41-.26.26-.32.38-.55.36-.7-.03-.29.02-.51.15-.67l-.05-.43c-.03-.29.26-.65.87-1.08.61-.43,1.34-.76,2.19-1,2.22-1.12,3.83-1.73,4.84-1.84.73-.08,1.15-.2,1.28-.36.69-.37,1.12-.48,1.28-.36.45.1,1.03.04,1.73-.19l2.36-.47c2.84-.74,4.14-.69,4.69-1.05.13-.16.66-.32.95-.35s.71-.17.87-.04c.26.06.57.19,1.29.11,1.01-.11,1.44-.07,1.74.04,1.04.18,1.77.31,2.65-.13.28-.17,1.79-.5,3.95-1.42l1.52-.16c.28-.17.7-.29,1.28-.36.16.13.67.15,1.54.05,1.3-.14,2.25-.17,2.84-.09,1.3-.14,2.16-.3,2.58-.5l2.14-.45c1.01-.11,1.51-.23,1.49-.38l1.24-1.51ZM274.2,477.42l3.43.18.99,1.73-9.84,3.49c-.95-.49-1.58-.6-1.89-.34-.51.08-.97-.05-1.38-.42-2.08-.95-4-1.5-5.78-1.64-3.24-.55-2.69-1.05-3.61-1.34l-2.86-.75c-.03-.21-2.07-.7-2.46-.95-.39-.26-1.2-.14-1.55-.08-.51.08-.95.05-1.33-.11-.58-.33-1.21-.45-1.89-.34-.51.08-.97-.05-1.38-.42-.2-.18-.54-.39-1.02-.64-.47-.25-.99-.43-1.53-.56,0,0-2.77-1.48-3.63-1.34l-2.25-.92-1.38-.42-1.38-.42c-.95-.49-1.6-.71-1.94-.65-.68.11-1.12.08-1.33-.11l-1.74-1.01c-4.06-2.35-6.49-3.89-7.31-4.61-.58-.33-1.01-.85-1.3-1.56-.29-.7-.54-1.15-.74-1.33-.82-1.8-.99-3.39-.51-4.75.24-.68.61-1.33,1.12-1.96.52-.62,1.23-1.33,2.15-2.12l2.3-1.99c-.03-.21.2-.36.72-.44l2.56-.42,2.25-.69c.51-.08.84-.24.97-.48.28-.47.57-.79.89-.95.33-.16.76-.17,1.3-.05.92.28,1.45.3,1.59.06l1.79-.29,1.23.09,1.13,1.38,1.34,1.01s1.07,1.09,1.74,2.43c.67,1.34-2.81,2.51-2.81,2.51l-4.62.05-4.47,1.66-3.52.9-.19,1.62,1.23,1.09,1.6,1.89c1.13.46,2.23.92,2.64,1.28l2.03.75s5.4,2.15,7.61,2.86c0,0,2.95,1.29,3.47,1.21l3.85,1.46s4.67,1.24,4.74,1.66l2.96,1.21s2.96.54,3.16.72l2.96.44,1.71.55c.21.18,2.13.25,3.39.48.34-.06-.42-.03,1.96.65"/>
</svg>