<?xml version="1.0" encoding="UTF-8"?>
<svg id="Lager_1" xmlns="http://www.w3.org/2000/svg" viewBox="0 0 50.04 60.15">
  <defs>
    <style>
      .cls-1 {
        fill: #fff;
      }
    </style>
  </defs>
  <path class="cls-1" d="M1.83,60.09c-.11-.04-.17-.13-.17-.28,0-.04.04-.02.11.06.07.04.15.04.22,0,.07-.04.13-.15.17-.33,0-.41-.07-.63-.22-.66-.07-.07-.14-.18-.19-.3-.05-.13-.1-.34-.14-.64-.04-.33-.04-.7,0-1.11,0-.33.04-.76.11-1.27l.06-1.05.17-1.27c.07-.78.13-1.2.17-1.27l.06-1.11.17-1.16.22-1c0-.37.04-.63.11-.78v-.44l.33-2.16c.07-.37.17-.92.28-1.66l.06-.67c.04-.15.06-.41.06-.78s.07-.7.22-1c.04-.11.13-.5.28-1.16.18-.85.29-1.31.33-1.38.22-.74.33-1.35.33-1.83v-.61l.72-3.32c.07-.18.13-.4.17-.64.04-.24.06-.43.06-.58s-.04-.22-.11-.22c-.04-.04-.41.09-1.11.39l-.17.06h-.06s-.06.06-.17.06l-.5.17-.44.11c-.15.04-.26.11-.33.22l-.28.22c-.11,0-.17.02-.17.06l-.78.5-.39.06c-.26,0-.49-.09-.69-.28-.2-.18-.3-.41-.3-.66l.06-.28c.07-.29.28-.57.61-.83.11-.07.28-.11.5-.11.37,0,.57-.06.61-.17.15-.11.31-.18.5-.22l.17-.17.17-.06.05-.11c.07-.07.33-.11.78-.11.15,0,.26-.04.33-.11.11-.11.33-.18.66-.22l.22-.06.33-.11c.48,0,.79-.04.94-.11l.11-.44.22-.89c.44-1.59.72-2.92.83-3.99.07-.37.13-.57.17-.61l.33-1.5.39-1.72.28-1.27.39-1.99c.18-.59.3-1.09.33-1.5.15-.59.29-1.16.44-1.72.11-.44.17-.7.17-.78l.39-1.33c.22-.74.33-1.14.33-1.22l.17-.67.17-.83c0-.26.09-.59.28-1l.44-1.33.55-1.94c.3-.89.57-1.57.83-2.05.15-.29.29-.66.44-1.11.11-.44.35-.85.72-1.22.33-.41.68-.61,1.05-.61.29,0,.63.19,1,.55.33.41.7,1.18,1.11,2.33l.66,2.49c.11.59.2,1.22.28,1.88.07.66.13,1.2.17,1.61l.06.83c.11.33.18.81.22,1.44,0,.33.04.61.11.83.07.44.11.94.11,1.5.04.3.05.6.05.91s.02.58.06.8l.06,1.22.05,1.11c.07.37.11.78.11,1.22l.06,1.27c0,.33.04.76.11,1.27,0,.52.04.85.11,1l.06,1.11c0,1.44.04,2.23.11,2.38.04.04.26.02.66-.06l.28-.11c.11-.11.22-.17.33-.17s.17-.02.17-.06c.07-.07.17-.11.28-.11s.17.02.17.06c0,.07.07.19.22.33.18.19.26.33.22.44-.11.3-.3.5-.55.61-.15.11-.32.2-.53.28-.2.07-.36.11-.47.11-.08,0-.13.02-.17.06h-.11c-.07,0-.13.02-.17.06l-.17.06c-.11.04-.18.13-.19.28-.02.15,0,.41.03.78.04.55.05,1.01.03,1.36-.02.35-.03.64-.03.86v1.22c0,.7.02,1.11.05,1.22,0,.04,0,.14.03.3.02.17.03.45.03.86.07.85.13,1.31.17,1.38l.06.55c0,.19.02.33.06.44.04.11.05.33.05.67,0,.74.02,1.4.06,1.99,0,1.26.06,1.94.17,2.05.07.07.11.26.11.55l-.06.83v.94l.17,2.6.06,1.61.11,1.11c0,.33.02.57.06.72.07.3.11.55.11.78l.11.61c.11.55.17,1.05.17,1.5,0,.18.04.39.11.61l.17.89.06.89.11.5c0,.07-.04.11-.11.11l-.06-.06c-.11,0-.17.11-.17.33,0,.11-.02.18-.05.22,0,.11-.04.24-.11.39,0,.18-.04.28-.11.28l-.11.06s-.17-.3-.39-1c-.22-.7-.39-1.31-.5-1.83-.33-2.14-.54-3.62-.61-4.43l-.06-.61-.05-.89c0-.59-.04-.96-.11-1.11l-.06-.94c-.04-1.33-.11-2.38-.22-3.16l-.22-4.15-.06-1.72-.11-1.99-.06-1.72c0-2.14-.04-3.66-.11-4.54,0-.26,0-.46-.03-.61-.02-.15-.06-.22-.14-.22-.11,0-.2.02-.28.06-.15.07-.31.11-.5.11l-.22.06-.22.06h-.08s-.03.02-.03.06c-.04.04-.17.06-.39.06-.48.07-.76.15-.83.22-.04.04-.18.09-.44.17-.22,0-.37.04-.44.11l-.39.11-.39.11c-.07.07-.26.13-.55.17-.15,0-.22.02-.22.06-.04.04-.11.06-.22.06l-.33.11c-.07.04-.17.06-.28.06h-.17c-.07.07-.2.11-.39.11l-.55.22-.5.17-.39.06-.61.22c-.11,0-.26.06-.44.17l-.39.11-.22.11-.28.06-.33.11c-.07,0-.18.04-.33.11-.04,0-.09.04-.17.11-.26,1.07-.5,2.36-.72,3.88-.08.59-.17,1.05-.28,1.38l-.11.89c-.08.22-.11.46-.11.72l-.17.66c0,.15-.11.76-.33,1.83l-.28,1.38c-.04.44-.15,1.07-.33,1.88-.04.37-.17.96-.39,1.77-.07.66-.13,1.25-.17,1.77-.04.74-.13,1.38-.28,1.94l-.11.83-.06.72-.28,1.83-.17,1.44-.05.66-.11.89-.05.72c-.04.55-.15,1.16-.33,1.83-.07.37-.11.65-.11.83l-.22,1.22c0,.07-.04.11-.11.11v-.11l.05-.17c0-.07-.02-.11-.05-.11-.04,0-.08.04-.11.11-.04.15-.13.26-.28.33-.11.07-.24.07-.39,0ZM7.75,29.08s.02.06.06.06c.04-.04.13-.06.28-.06l.22-.06s.13-.06.28-.06c.11.04.22.04.33,0,.11-.04.17-.09.17-.17h.22l.44-.11c.22-.07.41-.11.55-.11s.24-.02.28-.06c.07-.07.22-.13.44-.17l.55-.17.17-.11c.07,0,.11-.02.11-.06.11-.04.24-.07.39-.11.15-.04.28-.06.39-.06.15,0,.22-.02.22-.06.04-.04.09-.06.17-.06l.22-.11c.11-.11.18-.13.22-.06l.33-.06c.07-.04.17-.06.28-.06l.22-.06c.07-.07.17-.11.28-.11s.17-.02.17-.06c.04-.04.11-.06.22-.06l.17-.11c.15-.07.39-.13.72-.17.07-.04.16-.06.25-.06s.16-.02.19-.06c.22-.07.41-.09.55-.06.07.04.2,0,.39-.11l.44-.28.22-.11c.07,0,.13-.06.17-.17.04-.07.04-.42,0-1.05l-.06-1.61c0-.67-.04-1.25-.11-1.77l-.11-1.44c0-1.22-.06-2.33-.17-3.32l-.11-1.33-.06-1.05-.11-1.05-.05-.94c-.11-.48-.2-1.4-.28-2.77,0-.37-.04-.74-.11-1.11l-.17-.89c0-.48-.11-1.24-.33-2.27-.11-.55-.17-.89-.17-1-.07-.55-.24-1.15-.5-1.8-.26-.65-.48-1.08-.67-1.3l-.11-.17-.11.11c-.18.22-.52.9-1,2.02-.48,1.13-.81,2.04-1,2.74l-.22.89c-.15.26-.28.7-.39,1.33-.15.66-.28,1.11-.39,1.33l-.28,1.22c-.15.52-.22.87-.22,1.05l-.17.72-.22.94c-.11.26-.2.68-.28,1.27l-.44,1.83c-.07.19-.12.35-.14.5-.02.15-.05.26-.08.33-.04.33-.11.73-.22,1.19-.11.46-.2.86-.28,1.19-.15.52-.28,1.11-.39,1.77-.07.66-.13,1.05-.17,1.16-.3,1.26-.48,2.05-.55,2.38l-.39,2.16c-.19.85-.28,1.38-.28,1.61v.11Z"/>
  <path class="cls-1" d="M24.81,46.3c-.18-.07-.35-.19-.5-.36-.15-.17-.24-.34-.28-.53l-.17-.44c-.11-.55-.17-.87-.17-.94l-.11-.39c-.08-.3-.11-.54-.11-.72,0-.29-.04-.55-.11-.78l-.06-.44c0-.22-.02-.37-.06-.44v-.66c0-.26-.04-.61-.11-1.05-.11-.85-.17-1.79-.17-2.82,0-.41,0-.7-.03-.89-.02-.18-.05-.31-.08-.39-.07-.15-.11-.29-.11-.44v-.39c-.11-.33-.17-.59-.17-.78s-.02-.34-.06-.47c-.04-.13-.07-.25-.11-.36-.07-.26-.06-.63.05-1.11l.22-.39h.06l.11-.06c.07-.07.13-.09.17-.06h.11s.06.07.06.11c.07.07.13.11.17.11.07,0,.13.02.17.06h.11c.07,0,.16.08.25.25.09.17.16.36.19.58.22.59.33,1.02.33,1.27,0,.19.02.3.06.33.07.19.09.3.06.33-.04.11-.04.26,0,.44l.06.61c.11.74.2,1.18.28,1.33.04.04.06.09.06.17s-.02.13-.06.17c-.04,0-.06.09-.06.28,0,.26-.02.42-.05.5-.08.26-.06.44.05.55.04.07.06.46.06,1.16v.39c.04.07.06.19.06.33-.04.04-.06.17-.06.39,0,.33-.02.57-.06.72,0,.33.02.55.06.66l.06.55c0,.26.02.39.06.39l.05.39c0,.3.02.48.06.55.04,0,.09.15.17.44.04.19.07.24.11.17v-.22c0-.11.05-.24.17-.39.11-.11.17-.2.17-.28.18-.52.37-.9.55-1.16.11-.18.15-.31.11-.39,0-.11.04-.2.11-.28.22-.41.37-.79.44-1.16.18-.66.31-1.09.39-1.27l.22-.5s.08-.04.14-.11c.06-.07.08-.15.08-.22,0-.11.02-.2.06-.28.07-.11.11-.24.11-.39,0-.11.04-.2.11-.28.04-.04.08-.1.14-.19.05-.09.1-.19.14-.3l.22-.44c.07,0,.11-.09.11-.28l.22-.44.11-.28.11-.28c.11-.18.17-.31.17-.39,0-.15.02-.24.05-.28l.22-.33c.52-.78.85-1.24,1-1.38.07-.11.17-.18.3-.22.13-.04.21-.07.25-.11.33-.11.61-.09.83.06.11.07.21.18.3.3.09.13.19.3.3.53l.28.55s.06.06.06.17v.55l.06.5c0,.11.02.19.05.22.07.07.12.15.14.22.02.07,0,.17-.03.28-.07.19-.09.3-.06.33v.39l-.11,1.33.05.33c0,.22.02.39.06.5v.44c.07.07.07.2,0,.39v.33h-.11c-.11,0-.2.04-.28.11-.15.07-.22.15-.22.22-.07.07-.16.1-.25.08-.09-.02-.16-.06-.19-.14-.18-.29-.3-.63-.36-1-.06-.37-.08-.98-.08-1.83v-1.38l-.11-.94-.05-.78-.06-.22-.22.22-.28.44c-.11.22-.2.37-.28.44l-.17.33-.11.33c-.18.33-.37.72-.55,1.16l-.22.5s-.05.11-.05.22l-.06.17-.11.22c0,.15-.13.42-.39.83l-.11.33c0,.19-.04.28-.11.28l-.22.61-.17.33-.17.28c0,.11-.02.19-.06.22l-.17.44-.11.28s-.09.19-.17.44c0,.07-.09.35-.28.83-.19.3-.28.52-.28.66-.26.66-.55,1.35-.89,2.05-.19.26-.44.41-.78.44-.22,0-.41-.04-.55-.11Z"/>
  <path class="cls-1" d="M35.22,58.76l-.11-.22c0-.07-.06-.2-.17-.39-.11-.33-.17-.52-.17-.55-.07-.15-.11-.37-.11-.66-.11-.37-.17-1.03-.17-1.99,0-.22-.02-.41-.06-.55-.11-1.48-.17-3.38-.17-5.7,0-1.37.04-2.34.11-2.94l.06-.66c0-.3.02-.5.06-.61,0-.22-.02-.42-.06-.61v-.72c.04-.33.09-1.46.17-3.38,0-.33.04-.65.11-.94l.05-.72c0-.3.02-.46.06-.5l.06-.66.05-.66c.04-.3.08-.7.14-1.22.06-.52.08-1,.08-1.44l.06-.89.17-1.05c0-.22.02-.39.06-.5l.06-.72c.07-.37.11-.63.11-.78l.06-.78.05-.61.06-.44v-.28h-.17c-.15,0-.26.02-.33.06-.22.11-.35.17-.39.17-.15,0-.26.06-.33.17-.04.04-.17.09-.39.17-.15,0-.3.04-.44.11-.07.07-.35.2-.83.39-.11,0-.17.04-.17.11h-.17l-.44.22-.44.22-.33.17c-.22.11-.35.17-.39.17-.22.11-.35.19-.39.22-.22.11-.35.17-.39.17-.15.04-.29.17-.44.39,0,.07-.07.15-.22.22l-.17.11c-.04.07-.14.16-.3.25-.17.09-.32.18-.47.25-.15.07-.31.11-.5.11-.37,0-.63-.11-.78-.33-.18-.18-.28-.44-.28-.78,0-.15.04-.33.11-.55.15-.33.26-.5.33-.5s.11-.02.11-.06c.04,0,.09-.04.17-.11.07-.04.13-.04.17,0l.22.06c.15,0,.22.06.22.17.04.04.22-.07.55-.33.04-.07.09-.13.17-.17.07-.04.18-.11.3-.22.13-.11.21-.2.25-.28,0-.11.07-.17.22-.17.04.04.07.05.11.03.04-.02.07-.03.11-.03l.33-.11c.22,0,.37-.06.44-.17,0-.07.09-.13.28-.17l.44-.11.28-.17.22-.06c.11,0,.19-.02.22-.06l.44-.06c.33-.07.55-.15.66-.22.08-.07.13-.09.17-.06l.22-.06c.15-.07.28-.11.39-.11l.33-.17.28-.17c.15,0,.26-.04.33-.11l.33-.11c.11,0,.18-.02.22-.06,0-.04.04-.06.11-.06.11,0,.22-.15.33-.44.04-.18.06-.44.06-.78,0-.18.04-.42.11-.72.07-.22.11-.5.11-.83.07-.3.11-.63.11-1l.17-1.05c.04-.11.05-.22.05-.33s.02-.2.06-.28l.17-1c.11-1.18.2-1.85.28-1.99,0-.04,0-.09.03-.17.02-.07,0-.11-.03-.11l.05-.17c.11-.26.24-.68.39-1.27.18-.59.3-.9.33-.94.22-.55.33-.98.33-1.27,0-.22.02-.39.06-.5.11-.18.17-.35.17-.5l.11-.44c.07-.26.24-.96.5-2.1.04-.29.15-.63.33-1,.15-.22.22-.39.22-.5,0-.04.04-.04.11,0,.07.04.15.02.22-.06l.11-.11.11.11s.06.09.06.17c0,.11.05.2.17.28.18.04.29.17.33.39.04.22.04.5,0,.83-.07,1-.19,1.63-.33,1.88-.04.07-.06.16-.06.25s-.02.18-.06.25c0,.22-.04.37-.11.44-.04.07-.13.41-.28,1l-.17.55c-.18.66-.28,1.16-.28,1.5v.11c0,.15-.06.28-.17.39l-.17.44c-.04.15-.11.33-.22.55-.11.15-.17.37-.17.66v.17s-.02.33-.17.89l-.17,1.11c-.04.07-.06.16-.06.25s-.02.18-.05.25c-.08.07-.11.22-.11.44l-.11.44c-.22.81-.33,1.38-.33,1.72l-.06.44c-.07.07-.11.28-.11.61l-.11.72-.06.17.28-.06c.18,0,.28-.04.28-.11.04-.04.09-.06.17-.06.11-.04.26-.08.44-.14.18-.06.33-.12.44-.19,0-.04.04-.06.11-.06l.17-.11c.37-.18.65-.28.83-.28h.06l.22-.06c.07-.07.13-.11.17-.11l.22-.11c.04-.07.11-.11.22-.11.15,0,.28-.02.39-.06l.28-.11c.11,0,.18-.02.22-.06l.22-.11c.11,0,.18-.02.22-.06l.28-.11.22-.11c.07-.07.13-.11.17-.11.11,0,.18-.02.22-.06s.09-.06.17-.06.13-.02.17-.06l.44-.11c.29-.07.48-.11.55-.11.18,0,.31-.04.39-.11l.33-.17s.08-.06.14-.08c.06-.02.1-.06.14-.14l.22-.11c.07,0,.11-.02.11-.06l.22-.06c.15,0,.26-.02.33-.06.07-.04.11-.09.11-.17.04-.07.11-.11.22-.11.15,0,.24-.02.28-.06.07-.04.42-.11,1.05-.22l.22-.06c0-.07.04-.11.11-.11l.11-.06c0-.07.07-.11.22-.11l.22-.11c0-.07.07-.11.22-.11s.24.04.28.11c0,.04.02.08.06.14.04.06.09.1.17.14.29.19.33.41.11.66-.07.07-.11.13-.11.17-.04.07-.25.2-.64.39-.39.19-.66.28-.8.28l-.11.06s-.09.06-.17.06l-.17.06-.22.11c-.15,0-.22.04-.22.11-.11,0-.26.06-.44.17-.19.04-.44.11-.78.22-.15.07-.26.11-.33.11-.04.04-.08.06-.14.06s-.1.02-.14.06c-.22.11-.39.17-.5.17l-.28.06s-.11.06-.22.06c-.04,0-.09.04-.17.11l-.17.06c-.19,0-.31.02-.39.06l-.39.11c-.07,0-.15.04-.22.11-.11.11-.24.17-.39.17l-.39.11-.55.22-.44.17c-.3.15-.52.22-.66.22-.11,0-.2.04-.28.11l-.17.06-.28.11-.44.11c-.15.04-.33.1-.55.19-.22.09-.41.18-.55.25l-.5.17c-.48.19-.74.31-.78.39-.04.07-.06.22-.06.44,0,.15-.04.37-.11.66l-.06.5c0,.26-.05.5-.17.72-.07.11-.11.44-.11,1,.04.07.02.22-.06.44-.07.3-.11.59-.11.89-.04.44-.13.96-.28,1.55-.04.22-.04.37,0,.44.04.07.04.24,0,.5-.15,1.11-.22,1.99-.22,2.66,0,.81-.04,1.33-.11,1.55-.08.22-.11.61-.11,1.16l.06.39v.33c-.07.07-.14.51-.19,1.3-.05.79-.06,1.76-.03,2.91,0,.44-.02.85-.06,1.22-.04.22-.05.63-.05,1.22,0,.37-.04.66-.11.89l-.05.55c0,.26.02.55.05.89.04.33.09.61.17.83.04.3.04.81,0,1.55,0,.3.04.52.11.66.07.18.09.41.06.67-.04.11-.06.26-.06.44l.06,1.33c0,1.07.04,1.68.11,1.83.04.04.06.18.06.44l.05.44c.04.07.06.26.06.55s-.02.44-.06.44c-.07-.04-.18.04-.33.22l-.11.22s-.02.07-.06.11c-.04.04-.09.06-.17.06s-.15-.06-.22-.17Z"/>
</svg>