<?xml version="1.0" encoding="UTF-8"?>
<svg id="Lager_1" xmlns="http://www.w3.org/2000/svg" viewBox="0 0 166.27 110.1">
  <defs>
    <style>
      .cls-1 {
        fill: #fff;
      }
    </style>
  </defs>
  <path class="cls-1" d="M14.87,58.17c-.04-.07-.07-.18-.08-.33l-.13-.32c-.09-.18-.21-.63-.37-1.36-.04-.11-.09-.51-.14-1.21l-.08-1.16-.02-.33-.13-1.93-.06-.88c.02-.3,0-.83-.06-1.61-.07-1.59-.09-2.44-.06-2.55v-.94c-.04-.4-.03-.79.02-1.17.02-1.33.02-2.07.01-2.22-.04-.63-.06-1.07-.04-1.33-.03-.44-.05-.98-.06-1.61,0-.63,0-1.13,0-1.5-.02-.29-.02-.52,0-.67l.05-.89-.06-.83.11-1.67v-.94c.01-.22,0-.63-.04-1.22l-.05-.66h-.11s-.13,0-.27.08l-.26.18-.27.07-.32.13-.32.19c-.1.12-.19.18-.26.18-.11,0-.24.05-.38.14-.07.08-.13.13-.18.15-.05.02-.1.05-.13.09-.07,0-.13.03-.16.07-.03.04-.09.06-.16.07l-.21.13-.11.06s-.03.06-.11.06c-.11,0-.31.11-.59.32l-.21.18-.32.19-.43.25c-.15.01-.22.05-.21.13-.07.04-.17.09-.29.16-.13.06-.22.1-.3.1-.21.13-.32.23-.31.3,0,.04-.03.09-.1.15-.07.06-.12.09-.16.09l-.32.24c-.21.24-.52.44-.96.62l-.44.03c-.19-.02-.34-.06-.45-.11-.11-.05-.21-.14-.3-.28l-.24-.26.05-.11.04-.17c-.04-.07-.04-.14.01-.22.05-.08.09-.12.13-.12.07,0,.12-.06.15-.18.06-.19.22-.29.48-.31.18-.01.34-.13.47-.37.07-.08.12-.12.16-.12.22-.09.36-.17.43-.25,0-.04.07-.1.21-.18.35-.25.56-.45.63-.6,0-.04.05-.06.16-.07s.18-.03.22-.07l.27-.07c.08.03.15.03.22-.02.07-.04.11-.08.1-.12,0-.07.15-.18.48-.31l.43-.2.21-.13c.15-.01.24-.03.27-.07l.33-.08c.33-.1.52-.2.59-.32l.16-.07s.09.01.27-.07c.14-.08.27-.13.38-.14l.26-.19c.07-.08.16-.12.27-.13l.32-.19c.07-.08.16-.12.27-.13s.18-.03.22-.07c0-.04.07-.06.22-.07.26-.02.42-.1.48-.26.1-.19.13-.53.1-1.01-.02-.29-.02-.5.01-.61l-.06-2.55c-.03-.4-.03-.65,0-.72l.03-.39c-.02-.33-.02-.61,0-.83.02-.19.02-.57-.02-1.16v-.89c.02-.11.03-.27.02-.47s0-.4.02-.58c-.04-1.18-.04-2.16.02-2.94.03-.11.03-.43,0-.94l.02-1.33v-.89s0-.72,0-.72l.02-1.28v-.17s-.23.07-.23.07c-.28.2-.59.35-.91.45-.03.04-.09.07-.16.09-.07.02-.14.07-.21.15-.28.24-.44.36-.47.37-.11,0-.26.07-.46.17-.2.11-.38.22-.56.34l-.96.57-.64.38c0,.07-.07.12-.21.13l-.64.38-.69.49s-.1.09-.18.15c-.09.06-.19.12-.29.16-.39.29-.71.49-.96.62l-.42.31-.37.25-.32.24-.32.19c-.25.13-.46.29-.63.49-.21.24-.38.4-.52.48l-.37.3c-.52.52-.82.8-.89.84l-.52.54c-.42.4-.7.6-.85.61l-.16.07-.54.2-.06-.05c0-.07-.04-.11-.12-.1-.12-.07-.17-.12-.18-.15,0-.11,0-.17.04-.17.03-.08.02-.19-.02-.33-.04-.11-.04-.26.03-.45.06-.15.17-.33.32-.52.15-.2.3-.37.44-.53l.36-.36.47-.42.26-.3s.09-.1.15-.18c.07-.08.12-.12.16-.12.07-.04.19-.11.35-.22.16-.1.29-.21.39-.33.07-.04.16-.11.26-.21.1-.1.24-.21.42-.33l.42-.36.31-.3s.06-.01.08-.03c.02-.02.02-.05.02-.08s.03-.08.1-.12c.07-.04.14-.07.22-.07l.43-.2c.21-.16.37-.25.48-.25.29-.09.48-.22.59-.37.03-.15.4-.4,1.11-.74.25-.09.41-.19.48-.31.07-.08.14-.12.21-.13s.13-.03.16-.07c.18-.01.35-.08.49-.2l.75-.33c.5-.22.84-.43,1.01-.62l.22-.07c.07,0,.15-.03.22-.07.07-.04.16-.08.27-.13l.64-.38c.29-.13.46-.24.53-.31l.53-.31c.22-.09.42-.2.62-.32.19-.12.32-.24.39-.36l-.02-.28.08-.45c.03-.11.03-.3.02-.56l.04-.28.02-.45c-.01-.18,0-.43.06-.73l.07-.62c.04-1,.25-1.7.63-2.1.24-.27.49-.42.75-.44.11,0,.2,0,.28.04.34.12.55.43.62.9,0,.11,0,.19-.01.22-.02.04-.04.04-.08,0,0-.04-.01-.05-.03-.03-.02.02-.02.05-.02.08l-.04.17s0,.07-.02.08c-.02.02-.05.01-.08-.02l-.11-.05s-.07.54-.12,1.51l-.06.78c-.03.11-.03.34,0,.67.01.18-.01.35-.08.5-.03.08-.03.13.01.17.26-.02.51-.09.76-.22.86-.39,1.36-.61,1.51-.66.18-.05.31-.11.38-.19.1-.12.17-.18.21-.18.18-.05.43-.14.76-.27.32-.13.57-.26.75-.38l.38-.19.32-.19c.14-.12.61-.34,1.4-.65.18-.01.29-.04.33-.08l.38-.19s.09-.02.16-.07c.07-.04.16-.1.26-.19.18-.12.3-.19.38-.19.22-.02.44-.09.65-.21.33-.1.51-.16.54-.2.15-.01.24-.03.27-.07l.48-.26c.18-.01.31-.06.38-.14l.38-.19.43-.2c.21-.13.34-.19.38-.19.07,0,.18-.05.32-.13l.38-.08,1.19-.41c.18-.09.47-.18.87-.28.22-.02.44-.07.66-.16l.59-.32c.25-.09.38-.16.38-.19l.11-.06.16-.12c.14-.08.25-.13.32-.13.15-.01.33-.05.55-.12.22-.07.4-.13.54-.18.18-.09.3-.17.37-.25l.16-.12.28-.02c.22-.02.39-.04.49-.09l.93-.23c.52-.04.94-.12,1.26-.25.03-.04.11-.06.22-.07l.16-.12.71-.22s.07.04.08.02c.02-.02.04-.03.08-.03.11-.04.26-.09.46-.14.2-.05.36-.08.47-.09.04.03.06.09.07.16s.04.14.1.19c.06.05.17.13.32.23.08.03.13.07.18.13.04.05.04.1,0,.14l-.32.24-.32.19c-.17.16-.37.27-.59.32l-.49.14c-.32.13-.8.26-1.42.38-.07.04-.14.07-.22.07s-.13.03-.16.07l-.33.08c-.44.1-.84.22-1.2.36-.14.08-.27.13-.38.14l-.54.2-.71.22c-.11,0-.2.03-.27.07-.07.04-.14.07-.22.07l-.49.2c-.11,0-.2.03-.27.07-.07.04-.14.07-.22.07-.29.13-.63.25-1.03.35l-.49.2-.32.13c-.15.01-.24.04-.27.07l-.49.14-.65.21-.49.2c-.07,0-.16.03-.24.07-.09.04-.19.09-.3.13-.21.16-.39.25-.54.26l-.92.4-.92.4-.38.14s-.03.06-.11.06l-.27.13c-.25.17-.59.3-1.03.4-.22.09-.34.15-.38.19l-.38.19-.76.27-.32.19c-.11,0-.27.07-.49.2l-.65.27-1.02.51c-.25.17-.66.36-1.24.58l-.32.13-.32.19-.43.25s-.1.07-.19.1c-.09.03-.19.08-.29.16-.43.18-.64.34-.63.49-.03.15-.03.37,0,.67s.06.61.12.94c.01.15,0,.22-.04.22-.03.04-.08.21-.13.51.01.18-.01.39-.07.62-.06.23-.07.58-.04,1.06.04.11.04.55-.02,1.33l-.05.95-.02.45c-.06.15-.09.32-.08.5.02.26.01.44-.02.56-.11.56-.15,1.1-.11,1.62.03.37.02.57-.01.61v.61c-.04.15-.05.29-.04.42s0,.25-.03.36v.83c.08,1.11.09,1.84.04,2.22-.03.11-.04.26-.03.45l.02.28c-.12.38-.17.79-.14,1.23.01.19.04.29.08.33.05.18.04.35-.02.5l-.07.56c0,.07.03.11.06.11.04.03.06.03.06,0l.1-.12.81-.28c.53-.37.92-.56,1.18-.58.04.03.09.01.16-.07l.16-.07.21-.13c.03-.08.1-.12.21-.13.15-.01.26-.04.33-.08l.27-.07c.11,0,.18-.03.22-.07l.27-.13c.07,0,.13-.03.16-.07l.22-.07.21-.18s.11-.06.22-.07l.16-.07.27-.07.49-.14c.11-.08.29-.13.55-.15l.28-.02.26-.19c.18-.09.28-.19.31-.3.07-.08.3-.17.7-.27.15-.01.24-.07.26-.18.03-.08.1-.12.21-.13.19.06.28.06.28-.02l.27-.07c.44-.1.73-.2.87-.28l.16-.12s.08-.07.13-.09c.05-.02.12-.04.19-.04l.16-.12.22-.07c.11,0,.19.02.23.1,0,.04.02.08.06.13.04.05.1.1.18.13.16.14.24.26.25.37v.11c-.09.19-.23.39-.4.58-.07,0-.13.03-.16.07s-.07.06-.11.06c-.1.08-.23.15-.37.22-.14.07-.27.1-.38.11l-.22.07-.16.07-.32.13-.75.33-.65.21c-.07.08-.16.12-.27.13-.14.08-.27.13-.38.14l-.32.13c-.15.01-.24.04-.27.07l-.65.21c-.44.1-.76.24-.97.4l-.27.07-1.08.46-.11.06c-.07,0-.11.03-.11.06l-.38.14c-.22.02-.37.06-.43.14l-.11.06c-.11,0-.26.05-.43.14l-.21.13c-.11,0-.26.06-.46.14-.2.09-.4.19-.62.32l-.49.2-.27.13-.08.45-.02.56c.04.07.07.18.08.33-.02,1.26-.02,2.13.01,2.61.02,1.33.01,2.09-.01,2.28-.06.15-.07.28-.03.39.02.26.01.43-.02.5.02.22.05.4.09.55.05.22.06.38.03.5-.1.19-.15.83-.15,1.9.04.52.04.92.03,1.22l.08,1.11c.05.15.06.31.03.5v.61s-.03.56-.03.56l.02,1.11c-.02.19-.03.36-.02.53s0,.31-.03.42l-.1.9c.04.07.07.18.08.33s.04.29.09.44l.12.88c.1.4.13.86.09,1.38,0,.52.04.87.13,1.05.12.14.13.32.04.55-.03.11-.03.39,0,.83v1c-.01.19,0,.5.02.94.04.63.11,1.01.19,1.15,0,.04.02.15.05.33.03.18.07.57.11,1.16.03.37.02.55-.02.56h-.11c-.11.02-.16.06-.16.13l-.15.23c-.07.08-.1.14-.1.17,0,.07-.08.12-.27.13l-.18-.15Z"/>
  <path class="cls-1" d="M25.74,44.99c-.19-.06-.36-.17-.52-.32-.16-.16-.26-.32-.31-.51l-.2-.43c-.15-.54-.23-.85-.23-.93l-.14-.38c-.09-.29-.15-.53-.16-.71-.02-.29-.08-.55-.16-.77l-.09-.44c-.02-.22-.04-.37-.09-.44l-.05-.66c-.02-.26-.08-.61-.18-1.04-.17-.84-.29-1.77-.36-2.81-.03-.4-.06-.7-.09-.88-.03-.18-.07-.31-.11-.38-.08-.14-.13-.29-.14-.43l-.03-.39c-.13-.32-.21-.58-.22-.76s-.04-.34-.09-.47c-.05-.13-.09-.24-.14-.35-.09-.25-.1-.62-.02-1.11l.19-.4h.06s.11-.07.11-.07c.07-.08.12-.1.16-.07h.11s.06.06.06.1c.08.07.14.1.17.1.07,0,.13.01.17.04h.11c.07-.01.16.06.27.22.1.16.18.35.23.57.26.57.4.99.42,1.25.01.19.04.29.08.33.09.18.11.29.08.33-.03.11-.02.26.03.44l.1.6c.16.73.28,1.17.37,1.31.04.03.06.09.07.16s-.01.13-.04.17c-.04,0-.05.1-.04.28.02.26.01.43-.02.5-.06.26-.02.45.09.55.04.07.09.46.13,1.16l.03.39c.04.07.07.18.08.33-.03.04-.04.17-.03.39.02.33.02.57,0,.72.02.33.06.55.1.66l.09.55c.02.26.04.39.08.38l.08.38c.02.3.05.48.09.55.04,0,.1.14.2.43.05.18.09.24.12.16l-.02-.22c0-.11.04-.24.14-.4.1-.12.15-.21.15-.29.15-.53.31-.93.47-1.2.1-.19.13-.32.08-.39,0-.11.02-.2.09-.28.19-.42.31-.82.36-1.19.14-.68.24-1.11.3-1.3l.19-.51s.08-.04.13-.12c.05-.08.07-.15.07-.23,0-.11,0-.2.04-.28.07-.12.09-.25.08-.39,0-.11.02-.2.09-.28.03-.04.08-.11.12-.2.05-.1.09-.2.12-.31l.19-.46c.07,0,.1-.1.09-.28l.19-.46.09-.28.09-.28c.1-.19.14-.32.14-.4-.01-.15,0-.24.04-.28l.2-.35c.46-.81.76-1.29.9-1.45.07-.12.16-.2.29-.24.13-.05.21-.09.24-.13.32-.13.6-.13.83,0,.12.07.22.16.32.28.1.12.21.29.34.5l.31.53s.06.05.07.16l.04.55.09.49c0,.11.03.18.07.22.08.07.13.14.15.21.02.07.02.17,0,.28-.06.19-.07.3-.03.34l.03.39-.02,1.33.08.33c.02.22.04.39.09.49l.03.44c.08.07.09.2.03.39l.02.33h-.11c-.11.02-.2.06-.27.14-.14.08-.21.16-.21.24-.07.08-.15.11-.24.1-.09-.01-.16-.05-.2-.13-.2-.28-.35-.61-.43-.97-.08-.36-.15-.97-.21-1.82l-.09-1.38-.18-.93-.11-.77-.07-.22-.21.24-.25.46c-.1.23-.18.38-.25.46l-.14.34-.09.34c-.16.34-.32.74-.47,1.2l-.19.51s-.05.11-.04.22l-.04.17-.1.23c.01.15-.1.43-.33.86l-.09.34c.01.18-.02.28-.09.28l-.18.62-.14.34-.15.29c0,.11,0,.19-.04.22l-.14.45-.09.28s-.08.19-.14.45c0,.07-.07.36-.22.85-.16.31-.24.53-.23.68-.21.68-.46,1.38-.74,2.11-.17.27-.41.44-.74.49-.22.02-.41,0-.56-.07Z"/>
  <path class="cls-1" d="M38.98,44.69c-.37-.05-.66-.11-.85-.19-.19-.08-.46-.24-.81-.47-.39-.31-.75-.65-1.07-1.04-.52-.63-.83-1.07-.92-1.32,0-.11-.07-.27-.2-.49-.12-.18-.19-.32-.2-.43,0-.04-.07-.22-.2-.54l-.16-.66-.4-1.75-.1-.71c-.09-1.33-.11-2.1-.05-2.33v-.72s.11-.9.11-.9c-.01-.18.01-.35.08-.5-.01-.15.01-.33.07-.56l.08-.39c0-.11.07-.3.24-.57l.23-.74c.02-.19.1-.4.23-.63.14-.16.27-.37.4-.64.36-.65.79-1.15,1.29-1.48l.21-.18s.16-.1.38-.19c.18-.01.35-.06.49-.14.14-.05.4-.08.77-.11l.5-.03.46.19.63.29.3.26s.09.09.15.16c.06.07.13.14.21.21l.43.64c.12.18.26.39.4.64.15.25.22.43.23.54s.15.36.44.75c.08.14.13.29.14.43l.08.38c.18.4.28.89.32,1.48.04.55,0,1.02-.13,1.4l-.09.23.16-.12.21-.24.16-.07c.11,0,.19.04.23.15.17.36.26.56.26.59.05.15.1.59.15,1.32-.03.08-.04.16-.04.25s0,.18-.04.25c.02.22,0,.41-.07.56-.03.08-.04.21-.03.39l-.03.34c-.15.57-.21.92-.2,1.07l-.3,1.35c-.13.27-.2.53-.22.79-.19.46-.32.74-.39.86-.28.72-.6,1.24-.95,1.56-.03.08-.07.14-.13.18-.05.04-.1.1-.13.18-.45.44-1.05.68-1.78.73l-.56-.02ZM35.31,37.23s.09.22.16.66l.11.82c.08.14.13.27.14.38l.19.38c.13.29.27.68.41,1.19.01.15.05.26.13.32,0,.04.02.07.06.11.04.03.06.09.07.16l.24.26c.15.1.24.19.24.26.01.19.19.45.53.8.34.35.68.58,1.02.71.19.06.36.09.5.08l.22-.02c.08.03.18.03.31,0,.13-.03.25-.06.35-.11.21-.13.39-.27.53-.42l.52-.54c.14-.08.24-.31.29-.69.12-.38.18-.62.17-.73l.03-.39c.07-.08.1-.14.1-.17,0-.07,0-.15.04-.22.03-.08.06-.15.1-.23.09-.3.13-.47.13-.51v-.06c-.12-.1-.12-.29.01-.56.1-.12.15-.23.14-.34l.07-.56s.08-.1.15-.29c.12-.45.16-.92.13-1.4l-.06-.83-.02-.28c-.14.12-.34.19-.6.21-.11,0-.24-.02-.39-.08-.15-.06-.27-.17-.35-.31l-.25-.43c-.08-.14-.11-.21-.07-.22.07,0,.11-.04.1-.12,0-.11,0-.17.04-.17l.05-.06c.07-.08.12-.08.17-.01l.17.04-.11-.83c-.04-.52-.07-.79-.11-.82-.08-.14-.13-.23-.13-.27.03-.15-.03-.39-.16-.71l-.32-.64-.13-.27-.24-.26c-.04-.11-.1-.16-.18-.15s-.12-.07-.13-.21c.03-.11-.02-.22-.13-.32-.04-.03-.08-.08-.12-.13-.04-.05-.06-.1-.06-.13,0-.07-.04-.14-.1-.19-.06-.05-.13-.07-.2-.07s-.19-.02-.34-.09c-.27-.13-.45-.14-.56-.02,0,.04-.05.06-.16.07-.07,0-.18.05-.32.13l-.21.18-.32.19c-.31.28-.48.51-.51.7,0,.11-.03.17-.1.17l-.25.46-.3.52c-.06.15-.09.28-.08.39.01.18-.03.34-.14.45-.06.23-.08.41-.07.56l-.13.51c-.06.19-.07.3-.03.34l-.09.34c-.07.08-.11.17-.12.29-.01.11-.01.26,0,.44.02.33.02.54-.01.61l-.06.78v.83c-.02.26,0,.43.04.5Z"/>
  <path class="cls-1" d="M54.88,45.77l-.23-.15s-.02-.08-.06-.13c-.04-.05-.08-.1-.12-.13l-.3-.37c-.13-.21-.24-.48-.33-.81-.1-.33-.17-.64-.23-.93-.15-2.21-.21-3.65-.19-4.32l.03-1.95v-.89s0-.83,0-.83c.09-.34.11-.8.07-1.39.03-.11.04-.23.03-.36s0-.25.03-.36l.06-.67-.03-.39c.05-.37.02-1.3-.08-2.77-.03-.48-.08-.89-.14-1.24-.06-.35-.13-.5-.2-.46l-.09.28s-.02.1-.07.2c-.05.1-.09.16-.12.2l-.14.4-.09.34-.14.45-.14.45c-.07.08-.1.17-.09.28-.21.79-.4,1.42-.59,1.87-.1.23-.14.36-.14.4l-.14.4-.13.51-.18.57-.42,1.19c-.09.3-.15.49-.18.57l-.18.57-.24.57-.14.34-.43.97c-.17.27-.26.48-.29.63l-.19.51-.4.58-.4.64c-.34.47-.63.75-.89.84-.18.09-.4.14-.66.16-.3.02-.53-.02-.7-.12-.17-.1-.36-.33-.57-.68l-.24-.32c-.01-.18-.04-.35-.09-.49-.18-.51-.33-1.03-.44-1.58-.11-.55-.18-1.04-.21-1.48l-.02-1.05c.02-.22.03-.45,0-.67s0-.39.02-.5c.03-.11.03-.41,0-.89l-.02-.33c-.05-.22-.07-.44-.05-.66.02-.19,0-.87-.09-2.05-.07-1.03-.1-1.68-.08-1.94.01-.33.04-.48.08-.45.04.03.08.03.11,0s.07-.1.1-.17c.03-.04.07-.04.11,0h.11s.12.15.12.15c.08.11.18.15.29.15s.26.09.46.3c.13.21.22.45.27.7.11.51.18,1.02.22,1.54l.03.39.03.39c.05.26.07.46.04.61-.06.23-.05.93.03,2.11.04.59.08.9.12.94.04.03.05.09.04.16-.01.08-.04.15-.07.23l-.07.56c.02.3.01.46-.02.5-.03.11-.03.25,0,.42.03.16.06.26.1.3.04.03.08.31.11.82.02.33.06.58.11.74.05.16.11.28.19.35,0,.04.01.07.04.11.02.04.01.05-.02.06l.07.22v.11s.21-.24.21-.24l.25-.41.15-.29s.12-.12.25-.35l.4-.69c.17-.27.25-.44.24-.52.03-.15.12-.41.28-.8l.24-.57.18-.57c.07-.08.15-.23.25-.46,0-.11.02-.2.09-.28.13-.19.25-.41.34-.66.09-.25.14-.43.13-.54-.01-.15.05-.32.19-.51l.29-.69c.15-.53.32-1,.51-1.42.13-.27.17-.42.14-.45,0-.07.04-.22.14-.45.31-.84.48-1.37.5-1.59,0-.11,0-.19.04-.25.03-.06.05-.12.04-.2l.14-.4c.05-.34.24-.77.58-1.32.07-.08.19-.2.36-.36l.43-.14c.52-.04.87.22,1.05.76l.31.48.13.21.08,1.16.08,1.22.06.83.07,1.05c.05.18.06.31.03.39l-.03.39v.61s-.04.39-.11,1.06c.04.52.02.81-.05.89-.09.34-.11.77-.08,1.28l.13,1.05c.05.26.07.44.04.55l-.08,1.23c.01.19.04.29.08.33.16.14.19.32.09.55-.06.23-.08.45-.07.67v.83c-.02.78.02,1.35.12,1.71l.23.87.07.16c.08.14.13.27.14.38.01.18.06.31.14.38.04.07.05.12.04.14-.02.02-.06.03-.14.04-.11.04-.18.14-.2.29l-.03.39-.11.06-.11.06-.17-.1Z"/>
  <path class="cls-1" d="M58.75,55.21l-.13-.21c0-.07-.07-.2-.19-.38-.13-.32-.2-.5-.2-.54-.08-.14-.14-.36-.16-.66-.14-.36-.24-1.02-.3-1.98-.02-.22-.05-.4-.09-.55-.21-1.47-.4-3.36-.56-5.68-.09-1.36-.12-2.34-.09-2.94v-.67c-.01-.29,0-.5.02-.61-.02-.22-.05-.42-.1-.6l-.05-.72c.01-.33,0-1.46-.07-3.38-.02-.33,0-.65.05-.95v-.72c-.01-.29,0-.46.03-.5v-.67s.02-.67.02-.67c.02-.3.03-.71.05-1.23.02-.52.01-1-.02-1.44v-.89s.09-1.06.09-1.06c-.02-.22,0-.39.02-.5v-.72c.05-.37.07-.63.06-.78v-.78s.02-.61.02-.61l.02-.45-.02-.28h-.17c-.15.02-.26.05-.33.09-.21.13-.34.19-.38.19-.15.01-.25.07-.32.19-.03.04-.16.1-.38.19-.15.01-.29.06-.43.14-.07.08-.34.23-.8.44-.11,0-.16.05-.16.12h-.17s-.43.26-.43.26l-.43.25-.32.19c-.21.13-.34.19-.38.19-.21.13-.34.21-.37.25-.21.13-.34.19-.38.19-.14.05-.28.19-.42.42,0,.07-.06.15-.21.24l-.16.12c-.03.08-.13.17-.29.27-.16.1-.31.2-.45.28-.14.08-.31.13-.49.14-.37.03-.63-.07-.8-.28-.2-.17-.31-.42-.33-.75-.01-.15.01-.33.07-.56.12-.34.22-.52.3-.52s.11-.03.11-.06c.04,0,.09-.04.16-.12.07-.04.13-.05.17-.01l.22.04c.15-.01.22.04.23.15.04.03.22-.09.53-.37.03-.08.08-.13.15-.18.07-.04.17-.12.29-.24.12-.12.2-.22.23-.29,0-.11.06-.17.21-.18.04.03.08.04.11.02.04-.02.07-.03.11-.03l.32-.13c.22-.02.36-.08.43-.2,0-.07.08-.13.26-.18l.43-.14.26-.18.22-.07c.11,0,.18-.03.22-.07l.44-.09c.33-.1.54-.19.65-.27.07-.08.12-.1.16-.07l.22-.07c.14-.08.27-.13.38-.14l.32-.19.27-.18c.15-.01.25-.05.32-.13l.32-.13c.11,0,.18-.03.22-.07,0-.04.03-.06.11-.06.11,0,.21-.16.3-.46.02-.19.02-.45,0-.78-.01-.18,0-.43.06-.73.06-.23.08-.5.05-.84.05-.3.07-.63.04-1l.09-1.06c.03-.11.04-.22.03-.34s0-.2.04-.28l.1-1.01c.03-1.19.08-1.86.14-2.01,0-.04,0-.09.02-.17.01-.07,0-.11-.04-.11l.04-.17c.09-.26.19-.7.3-1.3.14-.6.23-.92.27-.96.18-.57.26-1,.24-1.29-.02-.22,0-.39.02-.5.1-.19.14-.36.13-.51l.08-.45c.06-.26.17-.97.35-2.13.02-.3.1-.64.26-1.02.13-.23.19-.4.19-.51,0-.04.03-.04.11,0,.08.03.15,0,.22-.07l.1-.12.12.1s.06.09.07.16c0,.11.07.2.19.26.19.02.31.15.36.36.05.22.07.49.06.83,0,1-.07,1.63-.2,1.9-.03.08-.04.16-.04.25s0,.18-.04.25c.02.22-.01.37-.08.45-.03.08-.1.41-.21,1.01l-.13.56c-.14.68-.2,1.18-.17,1.51v.11c.02.15-.03.28-.13.4l-.14.45c-.03.15-.09.34-.18.57-.1.16-.14.38-.12.67v.17c.05.03.02.33-.09.9l-.09,1.12c-.03.08-.04.16-.04.25s0,.18-.04.25c-.07.08-.1.23-.08.45l-.08.45c-.17.83-.24,1.4-.21,1.74l-.02.45c-.07.08-.09.28-.07.62l-.06.73-.04.17.27-.07c.18-.01.27-.06.27-.13.03-.04.09-.06.16-.07.11-.04.25-.1.43-.17.18-.07.32-.14.43-.22,0-.04.03-.06.11-.06l.16-.12c.36-.21.63-.32.81-.33h.06s.22-.07.22-.07c.07-.08.12-.12.16-.12l.21-.13c.03-.08.1-.12.21-.13.15-.01.27-.04.38-.08l.27-.13c.11,0,.18-.03.22-.07l.21-.13c.11,0,.18-.03.22-.07l.27-.13.21-.13c.07-.08.12-.12.16-.12.11,0,.18-.03.22-.07.03-.04.09-.06.16-.07s.13-.03.16-.07l.43-.14c.29-.09.47-.14.55-.15.18-.01.31-.06.38-.14l.32-.19s.08-.07.13-.09c.05-.02.1-.07.13-.15l.21-.13c.07,0,.11-.03.11-.06l.22-.07c.15-.01.26-.04.33-.08.07-.04.1-.1.1-.17.03-.08.1-.12.21-.13.15-.01.24-.03.27-.07.07-.04.42-.14,1.03-.29l.22-.07c0-.07.03-.11.1-.12l.11-.06c0-.07.07-.12.21-.13l.21-.13c0-.07.07-.12.21-.13s.24.02.28.09c0,.04.02.08.06.13.04.05.1.1.18.13.31.16.36.38.16.66-.07.08-.1.14-.1.17-.03.08-.23.22-.61.43-.37.21-.64.32-.78.33l-.11.06s-.09.06-.16.07l-.16.07-.21.13c-.15.01-.22.05-.21.13-.11,0-.25.07-.43.2-.18.05-.43.14-.76.27-.14.08-.25.13-.32.13-.03.04-.08.06-.13.06s-.1.03-.13.06c-.21.13-.38.19-.49.2l-.27.07s-.11.06-.22.07c-.04,0-.09.04-.16.12l-.16.07c-.18.01-.31.04-.38.08l-.38.14c-.07,0-.15.05-.21.13-.1.12-.23.18-.38.19l-.38.14-.54.26-.43.2c-.29.17-.5.26-.65.27-.11,0-.2.05-.27.13l-.16.07-.27.13-.43.14c-.15.05-.32.12-.54.23-.21.11-.39.2-.54.29l-.49.2c-.47.22-.72.36-.75.44-.03.08-.04.22-.02.45.01.15-.01.37-.07.67l-.02.5c.02.26-.02.5-.12.73-.07.12-.08.45-.04,1,.04.07.03.22-.02.45-.05.3-.07.6-.05.89,0,.44-.06.97-.17,1.57-.02.22-.01.37.03.44.04.07.05.24.03.5-.07,1.11-.08,2-.04,2.67.06.81.05,1.33,0,1.55-.06.23-.07.62-.03,1.17l.08.38.02.33c-.07.08-.1.52-.1,1.31,0,.8.06,1.76.17,2.9.03.44.04.85.03,1.22-.02.22-.01.63.03,1.22.03.37,0,.67-.05.89l-.02.56c.02.26.06.55.12.88.06.33.13.6.22.82.06.29.09.81.11,1.55.02.29.07.51.16.66.09.18.12.4.1.66-.03.11-.04.26-.02.45l.15,1.32c.07,1.07.15,1.67.24,1.82.04.03.07.18.09.44l.09.44c.04.07.07.25.09.55s.01.44-.02.45c-.08-.03-.18.05-.32.24l-.1.23s-.01.07-.05.11c-.03.04-.09.06-.16.07s-.15-.05-.23-.15Z"/>
  <path class="cls-1" d="M65.8,42.29l-.28.02c-.18.01-.49-.06-.9-.22-.57-.22-.9-.42-.99-.6l-.36-.42c-.28-.24-.48-.54-.62-.9-.04-.11-.09-.19-.13-.24-.04-.05-.1-.08-.17-.07-.19-.02-.36-.1-.52-.24-.04-.11-.16-.19-.35-.25-.08-.11-.11-.18-.07-.22.03-.04.03-.11-.02-.22-.04-.07-.05-.13-.01-.17.03-.04.13-.06.27-.07.11,0,.18-.07.21-.18l.15-.18c.11,0,.16-.05.16-.12l-.06-.83c-.03-.48-.02-.83.04-1.06l.07-.56.03-.39c.09-.34.14-.6.17-.79l.14-.45s.04-.22.13-.56c.03-.15.06-.29.11-.42.05-.13.09-.24.12-.31l.22-.85.28-.74c.07-.12.14-.26.22-.43.08-.17.19-.35.32-.55.19-.42.46-.91.81-1.47.35-.56.63-.92.84-1.09l.47-.42c.21-.2.49-.37.85-.5.29-.13.58-.21.87-.23s.48,0,.56.07c.23.1.45.28.68.56.22.28.35.59.37.92l-.07.56c-.1.23-.14.42-.13.56-.2.87-.36,1.47-.49,1.81l-.15.23c0,.07-.02.19-.09.34l-.34.74-.51,1.42-.15.29-.35.63-.29.58s-.22.33-.55.87c-.1.12-.2.25-.28.41-.08.15-.12.27-.12.34,0,.11-.13.32-.4.64l-.25.41c-.13.19-.3.4-.49.62s-.35.38-.49.51l-.37.3-.21.18.07.16.19.26.24.26.3.26.18.15s.11.05.23.15.4.18.85.22c.33-.02.59-.02.78,0,.29-.02.49-.07.6-.15.07,0,.22-.07.43-.2.36-.17.62-.36.79-.55.03-.04.09-.06.16-.07l.21-.13.38-.19c.4-.14.59-.28.58-.43.06-.15.19-.25.37-.3.15-.01.25-.05.32-.13.07-.08.33-.25.8-.5.24-.2.44-.33.59-.37l.32-.24.36-.41c.24-.27.4-.43.47-.48.04,0,.07-.02.11-.06.03-.04.05-.08.05-.11.07-.08.17-.18.31-.3.14-.12.26-.2.37-.25l.06.05c0,.11.14.16.4.14.18-.01.31.02.39.08.04.03.06.11.07.22l-.1.23s-.07.09-.1.15c-.03.06-.07.12-.1.2-.16.34-.54.78-1.13,1.3-.03.04-.1.09-.18.15-.09.06-.15.13-.18.21l-.37.25-.32.24s-.08.08-.13.12c-.05.04-.1.06-.13.07l-.21.13-.26.24c-.21.13-.35.23-.42.31-.18.12-.41.27-.69.44-.29.17-.5.29-.64.38l-.48.31c-.43.21-.68.32-.75.33l-.49.2c-.32.17-.59.28-.81.33-.22.05-.59.1-1.1.13l-.28-.04ZM63.44,37.07c.05.18.09.25.13.21.04,0,.09-.08.15-.23.06-.15.13-.25.2-.29.07-.08.15-.19.26-.32.1-.14.17-.24.2-.32l.05-.11c.21-.24.4-.58.59-1.04.03-.08.06-.15.1-.23.03-.08.05-.15.04-.22s.04-.17.15-.29l.31-.35c.06-.19.16-.33.31-.41.17-.2.25-.41.23-.63,0-.07.11-.32.34-.75.22-.5.35-.78.39-.86,0-.11.04-.22.14-.34.14-.16.2-.29.19-.4l.15-.29c.07-.12.15-.28.24-.49.1-.21.16-.39.19-.54l.08-.39v-.17c.06,0,.09-.15.07-.45v-.11c-.05-.07-.14-.08-.29-.04-.15.05-.29.13-.43.25l-.43.25c-.14.08-.21.14-.21.18l-.31.3c-.32.21-.51.46-.56.76-.06.15-.13.27-.2.35-.14.08-.25.2-.31.35-.39.77-.62,1.19-.69,1.27-.1.16-.15.29-.14.4,0,.04-.03.17-.08.39-.29.65-.47,1.29-.53,1.92.01.15-.01.33-.07.56-.06.23-.08.41-.07.56l-.09.34c-.07.08-.09.23-.08.45l-.03.45.02.28Z"/>
  <path class="cls-1" d="M85.54,43.66l-.23-.15s-.02-.08-.06-.13c-.04-.05-.08-.1-.12-.13l-.3-.37c-.13-.21-.24-.48-.33-.81-.1-.33-.17-.64-.23-.93-.15-2.21-.21-3.65-.19-4.32l.03-1.95v-.89s0-.83,0-.83c.09-.34.11-.8.07-1.39.03-.11.04-.23.03-.36s0-.25.03-.36l.06-.67-.03-.39c.05-.37.02-1.3-.08-2.77-.03-.48-.08-.89-.14-1.24-.06-.35-.13-.5-.2-.46l-.09.28s-.02.1-.07.2c-.05.1-.09.16-.12.2l-.14.4-.09.34-.14.45-.14.45c-.07.08-.1.17-.09.28-.21.79-.4,1.42-.59,1.87-.1.23-.14.36-.14.4l-.14.4-.13.51-.18.57-.42,1.19c-.09.3-.15.49-.18.57l-.18.57-.24.57-.14.34-.43.97c-.17.27-.26.48-.29.63l-.19.51-.4.58-.4.64c-.34.47-.63.75-.89.84-.18.09-.4.14-.66.16-.3.02-.53-.02-.7-.12-.17-.1-.36-.33-.57-.68l-.24-.32c-.01-.18-.04-.35-.09-.49-.18-.51-.33-1.03-.44-1.58-.11-.55-.18-1.04-.21-1.48l-.02-1.05c.02-.22.03-.45,0-.67s0-.39.02-.5c.03-.11.03-.41,0-.89l-.02-.33c-.05-.22-.07-.44-.05-.66.02-.19,0-.87-.09-2.05-.07-1.03-.1-1.68-.08-1.94.01-.33.04-.48.08-.45.04.03.08.03.11,0s.07-.1.1-.17c.03-.04.07-.04.11,0h.11s.12.15.12.15c.08.11.18.15.29.15s.26.09.46.3c.13.21.22.45.27.7.11.51.18,1.02.22,1.54l.03.39.03.39c.05.26.07.46.04.61-.06.23-.05.93.03,2.11.04.59.08.9.12.94.04.03.05.09.04.16-.01.08-.04.15-.07.23l-.07.56c.02.3.01.46-.02.5-.03.11-.03.25,0,.42.03.16.06.26.1.3.04.03.08.31.11.82.02.33.06.58.11.74.05.16.11.28.19.35,0,.04.01.07.04.11.02.04.01.05-.02.06l.07.22v.11s.21-.24.21-.24l.25-.41.15-.29s.12-.12.25-.35l.4-.69c.17-.27.25-.44.24-.52.03-.15.12-.41.28-.8l.24-.57.18-.57c.07-.08.15-.23.25-.46,0-.11.02-.2.09-.28.13-.19.25-.41.34-.66.09-.25.14-.43.13-.54-.01-.15.05-.32.19-.51l.29-.69c.15-.53.32-1,.51-1.42.13-.27.17-.42.14-.45,0-.07.04-.22.14-.45.31-.84.48-1.37.5-1.59,0-.11,0-.19.04-.25.03-.06.05-.12.04-.2l.14-.4c.05-.34.24-.77.58-1.32.07-.08.19-.2.36-.36l.43-.14c.52-.04.87.22,1.05.76l.31.48.13.21.08,1.16.08,1.22.06.83.07,1.05c.05.18.06.31.03.39l-.03.39v.61s-.04.39-.11,1.06c.04.52.02.81-.05.89-.09.34-.11.77-.08,1.28l.13,1.05c.05.26.07.44.04.55l-.08,1.23c.01.19.04.29.08.33.16.14.19.32.09.55-.06.23-.08.45-.07.67v.83c-.02.78.02,1.35.12,1.71l.23.87.07.16c.08.14.13.27.14.38.01.18.06.31.14.38.04.07.05.12.04.14-.02.02-.06.03-.14.04-.11.04-.18.14-.2.29l-.03.39-.11.06-.11.06-.17-.1Z"/>
  <path class="cls-1" d="M99.91,50.78c-.26-1.06-.38-2.07-.37-3.03v-1.44s.05-2.61.05-2.61l.04-1c-.01-.15,0-.3.03-.45.03-.15.05-.3.08-.45-.01-.15,0-.33.02-.56.02-.22.03-.43.01-.61l.05-.95.07-.56c-.02-.22-.01-.42.01-.61l.13-2.17.03-1.11.17-1.62.04-1.06s.07-.56.11-1.56c.03-.08.04-.19.03-.34s0-.28.03-.39c-.02-.22.03-.7.12-1.45.02-.22.04-.47.06-.75.02-.28.02-.53,0-.75l.02-.56-.19-.38c-.45-.64-.69-.93-.73-.89l-.54,1.81c-.18.6-.35,1.08-.51,1.42l-.37,1.14c-.25.72-.47,1.27-.66,1.66l-.58,1.21c-.38.95-.79,1.74-1.23,2.36-.1.19-.19.35-.27.46-.08.12-.14.21-.17.29-.26.5-.5.9-.72,1.22-.22.31-.5.63-.85.95-.45.44-.87.8-1.26,1.09-.67.53-1.42.82-2.27.88-1.33.09-2.3-.38-2.93-1.41-.17-.25-.35-.75-.55-1.52-.06-.37-.09-1.01-.08-1.94.07-.67.15-1.32.25-1.96.13-.79.32-1.56.56-2.31.1-.19.16-.36.19-.51.03-.15.06-.24.09-.28.09-.3.2-.59.33-.86l.33-.8s.06-.1.07-.17c.01-.07.05-.15.12-.23.1-.12.22-.33.35-.63.79-1.42,1.53-2.53,2.21-3.32.31-.35.73-.71,1.26-1.06.53-.35,1.01-.62,1.44-.79.76-.31,1.35-.48,1.8-.51.59,0,1.23.1,1.91.31.53.15.97.32,1.31.52l.29.15c0-.07.05-.27.15-.59.11-.32.23-.8.37-1.44.26-1.05.51-1.94.76-2.66.24-.76.36-1.25.34-1.47-.01-.18.04-.48.16-.9l.21-.96.13-.56c.31-1.46.47-2.31.49-2.53l.2-1.18c.06-.23.17-1.03.33-2.41.12-.93.2-1.68.23-2.24.2-1.42.35-2.23.44-2.42.1-.19.29-.3.59-.32.48-.03.74.19.77.67.01.15-.05.56-.19,1.23.01.15,0,.3-.03.45-.03.15-.05.3-.08.45l-.15,1.06c-.2.9-.35,1.71-.44,2.42l-.07.62-.11.84c.03.37-.02.85-.12,1.45-.02.22-.04.45-.07.67-.02.22-.03.43-.01.61l-.11.84c-.07.56-.09,1.12-.05,1.67.02.26-.01.61-.09,1.06l-.11.84-.05.89c-.19,1.49-.3,2.59-.33,3.3-.08.97-.18,1.73-.29,2.3-.01.33-.07.65-.16.95l-.04.28.19.32c.21.43.43.95.64,1.57.21.62.33,1.14.36,1.59.04.59-.13,1.27-.53,2.03l-.14.4h-.17s-.28.03-.28.03c-.1.12-.16.05-.18-.21v-.06s-.08.56-.08.56c.02.26-.04.82-.16,1.68l-.02,1.39.02.33c.05.22.03.68-.07,1.39-.12.42-.17.81-.14,1.18v.67c-.07.15-.1.34-.08.56.01.18,0,.46-.05.84l-.23,2.24-.09,1.17c.01.18.01.43,0,.75-.02.31-.01.64.01.97.02.29.02.61,0,.94-.01.33-.03.61-.05.84-.03.11-.03.32-.01.61.05.18.05.53.02,1.05l-.04,1.06-.03.39-.11-.05s-.08-.03-.11,0l-.1.23c-.1.23-.16.36-.19.4l-.14.34c0,.07-.05.11-.16.12-.07,0-.11-.03-.12-.1ZM88.49,37.24c.22.47.41.79.57.96.27.24.69.34,1.24.3.18-.01.38-.06.6-.15.43-.14.79-.35,1.07-.63.1-.12.26-.24.47-.37.14-.12.34-.33.6-.62.26-.3.47-.58.64-.85l.46-.59c.38-.43.71-1.03.99-1.79l.54-1.09c.26-.54.5-1.09.72-1.66l.81-1.94.23-.68s.08-.15.14-.34c.06-.19.17-.47.33-.86.31-.83.51-1.42.6-1.76.12-.41.18-.66.17-.73,0-.11-.11-.2-.3-.26l-.69-.34c-.23-.13-.44-.23-.63-.29-.19-.06-.43-.1-.73-.12-.19-.02-.41-.03-.67,0-.15.05-.35.08-.6.1-.58.15-1.01.33-1.3.53-.28.2-.61.52-.99.96-.38.43-.61.76-.71.99-.16.38-.33.61-.51.7-.24.28-.49.64-.76,1.11-.1.23-.29.58-.59,1.04-.17.23-.32.52-.47.86-.14.34-.24.65-.3.91.01.18-.04.43-.17.73-.37,1.14-.62,2.06-.75,2.77-.09.27-.14.69-.13,1.29.03,1.03.08,1.64.13,1.82ZM100.31,23.43l.3.31c.2.21.3.28.29.2.04,0,.05-.09.04-.25s0-.3.03-.42l.1-.95c.06-.23.08-.52.05-.89l.14-1.18.07-.62-.18.62-.61,2.48-.23.68Z"/>
  <path class="cls-1" d="M28.83,98.42c-.19-1.07-.24-2.09-.17-3.05l.11-1.44.22-2.6.11-1c0-.15.02-.3.06-.44.04-.15.07-.3.11-.44,0-.15.02-.33.06-.55.04-.22.06-.42.06-.61l.11-.94.11-.55c0-.22.02-.42.06-.61l.28-2.16.11-1.11.28-1.61.11-1.05s.11-.55.22-1.55c.04-.07.06-.18.06-.33s.02-.28.06-.39c0-.22.07-.7.22-1.44.04-.22.07-.47.11-.75.04-.28.06-.53.06-.75l.06-.55-.17-.39c-.41-.66-.63-.98-.66-.94l-.66,1.77c-.22.59-.42,1.05-.61,1.38l-.44,1.11c-.3.7-.55,1.24-.78,1.61l-.66,1.16c-.44.92-.91,1.68-1.38,2.27-.11.19-.21.33-.3.44-.09.11-.16.2-.19.28-.3.48-.56.87-.8,1.16-.24.3-.54.59-.91.89-.48.41-.92.74-1.33,1-.7.48-1.48.72-2.33.72-1.33,0-2.27-.53-2.82-1.61-.15-.26-.3-.78-.44-1.55-.04-.37-.02-1.02.06-1.94.11-.66.24-1.31.39-1.94.18-.78.42-1.53.72-2.27.11-.18.18-.35.22-.5.04-.15.07-.24.11-.28.11-.3.24-.57.39-.83l.39-.78s.06-.09.08-.17c.02-.07.06-.15.14-.22.11-.11.24-.31.39-.61.89-1.37,1.7-2.42,2.44-3.16.33-.33.78-.66,1.33-.97.55-.31,1.05-.54,1.5-.69.78-.26,1.38-.39,1.83-.39.59.04,1.22.19,1.88.44.52.19.94.39,1.27.61l.28.17c0-.07.06-.27.19-.58.13-.31.29-.78.47-1.41.33-1.03.65-1.9.94-2.6.3-.74.44-1.22.44-1.44,0-.18.07-.48.22-.89l.28-.94.17-.55c.41-1.44.63-2.27.66-2.49l.28-1.16c.07-.22.24-1.01.5-2.38.18-.92.31-1.66.39-2.22.29-1.4.5-2.2.61-2.38.11-.18.31-.28.61-.28.48,0,.72.24.72.72,0,.15-.09.55-.28,1.22,0,.15-.02.3-.06.44-.04.15-.07.3-.11.44l-.22,1.05c-.26.89-.46,1.68-.61,2.38l-.11.61-.17.83c0,.37-.07.85-.22,1.44-.04.22-.07.44-.11.66-.04.22-.06.42-.06.61l-.17.83c-.11.55-.17,1.11-.17,1.66,0,.26-.06.61-.17,1.05l-.17.83-.11.89c-.3,1.48-.48,2.57-.55,3.27-.15.96-.3,1.72-.44,2.27-.04.33-.11.65-.22.94l-.06.28.17.33c.18.44.36.98.53,1.61.17.63.25,1.16.25,1.61,0,.59-.22,1.26-.66,1.99l-.17.39h-.44c-.11.11-.17.04-.17-.22v-.06l-.11.55c0,.26-.09.81-.28,1.66l-.11,1.38v.33c.04.22-.02.68-.17,1.38-.15.41-.22.79-.22,1.16l-.06.66c-.07.15-.11.33-.11.55,0,.19-.04.46-.11.83l-.39,2.22-.17,1.16c0,.18-.02.43-.06.75-.04.31-.06.64-.06.97,0,.3-.02.61-.06.94-.04.33-.07.61-.11.83-.04.11-.06.31-.06.61.04.18.02.53-.06,1.05l-.11,1.05-.06.39-.11-.06s-.07-.04-.11,0l-.11.22c-.11.22-.19.35-.22.39l-.17.33c0,.07-.06.11-.17.11-.07,0-.11-.04-.11-.11ZM18.36,84.13c.18.48.35.81.5,1,.26.26.66.39,1.22.39.18,0,.39-.04.61-.11.44-.11.81-.29,1.11-.55.11-.11.28-.22.5-.33.15-.11.36-.3.64-.58.28-.28.51-.54.69-.8l.5-.55c.41-.41.78-.98,1.11-1.72l.61-1.05c.29-.52.57-1.05.83-1.61l.94-1.88.28-.66s.09-.15.17-.33c.07-.18.2-.46.39-.83.37-.81.61-1.38.72-1.72.15-.41.22-.65.22-.72,0-.11-.09-.2-.28-.28l-.66-.39c-.22-.15-.42-.26-.61-.33-.19-.07-.42-.13-.72-.17-.19-.04-.41-.06-.66-.06-.15.04-.35.06-.61.06-.59.11-1.03.26-1.33.44-.3.19-.65.48-1.05.89-.41.41-.67.72-.78.94-.19.37-.37.59-.55.66-.26.26-.54.61-.83,1.05-.11.22-.33.55-.66,1-.19.22-.36.5-.53.83-.17.33-.29.63-.36.89,0,.19-.07.42-.22.72-.44,1.11-.76,2.01-.94,2.71-.11.26-.19.68-.22,1.27-.04,1.03-.04,1.64,0,1.83ZM31.1,71.17l.28.33c.18.22.28.3.28.22.04,0,.06-.08.06-.25s.02-.3.06-.42l.17-.94c.07-.22.11-.52.11-.89l.22-1.16.11-.61-.22.61-.78,2.44-.28.67Z"/>
  <path class="cls-1" d="M38.58,87.62h-.28c-.19,0-.48-.09-.89-.28-.55-.26-.87-.48-.94-.66l-.33-.44c-.26-.26-.44-.57-.55-.94-.04-.11-.07-.19-.11-.25-.04-.06-.09-.08-.17-.08-.19-.04-.35-.13-.5-.28-.04-.11-.15-.2-.33-.28-.07-.11-.09-.18-.06-.22.04-.04.04-.11,0-.22-.04-.07-.04-.13,0-.17.04-.04.13-.06.28-.06.11,0,.18-.06.22-.17l.17-.17c.11,0,.17-.04.17-.11v-.83c0-.48.04-.83.11-1.05l.11-.55.06-.39c.11-.33.18-.59.22-.78l.17-.44s.06-.22.17-.55c.04-.15.08-.29.14-.42.06-.13.1-.23.14-.3l.28-.83.33-.72c.07-.11.16-.25.25-.42.09-.17.21-.34.36-.53.22-.41.53-.88.91-1.41.39-.54.69-.88.91-1.02l.5-.39c.22-.18.52-.33.89-.44.29-.11.59-.17.89-.17s.48.04.55.11c.22.11.43.31.64.61.2.3.3.61.3.94l-.11.55c-.11.22-.17.41-.17.55-.26.85-.46,1.44-.61,1.77l-.17.22c0,.07-.04.19-.11.33l-.39.72-.61,1.38-.17.28-.39.61-.33.55s-.24.31-.61.83c-.11.11-.21.24-.3.39-.09.15-.14.26-.14.33,0,.11-.15.31-.44.61l-.28.39c-.15.19-.32.38-.53.58s-.38.36-.53.47l-.39.28-.22.17.06.17.17.28.22.28.28.28.17.17s.11.06.22.17.39.2.83.28c.33,0,.59.02.78.06.29,0,.5-.04.61-.11.07,0,.22-.06.44-.17.37-.15.65-.31.83-.5.04-.04.09-.06.17-.06l.22-.11.39-.17c.41-.11.61-.24.61-.39.07-.15.2-.24.39-.28.15,0,.26-.04.33-.11.07-.07.35-.22.83-.44.26-.18.46-.29.61-.33l.33-.22.39-.39c.26-.26.42-.41.5-.44.04,0,.07-.02.11-.06.04-.04.06-.07.06-.11.07-.07.18-.17.33-.28.15-.11.28-.18.39-.22l.06.06c0,.11.13.17.39.17.18,0,.31.04.39.11.04.04.06.11.06.22l-.11.22s-.07.08-.11.14c-.04.06-.07.12-.11.19-.19.33-.59.74-1.22,1.22-.04.04-.1.08-.19.14-.09.06-.16.12-.19.19l-.39.22-.33.22s-.08.07-.14.11c-.06.04-.1.06-.14.06l-.22.11-.28.22c-.22.11-.37.2-.44.28-.19.11-.42.24-.72.39-.3.15-.52.26-.66.33l-.5.28c-.44.19-.7.28-.78.28l-.5.17c-.33.15-.61.24-.83.28-.22.04-.59.06-1.11.06l-.28-.06ZM36.58,82.25c.04.19.07.26.11.22.04,0,.09-.07.17-.22.07-.15.15-.24.22-.28.07-.07.17-.17.28-.3.11-.13.18-.23.22-.3l.06-.11c.22-.22.44-.55.66-1,.04-.07.07-.15.11-.22.04-.07.06-.15.06-.22s.06-.17.17-.28l.33-.33c.07-.18.18-.31.33-.39.18-.18.28-.39.28-.61,0-.07.13-.31.39-.72.26-.48.41-.76.44-.83,0-.11.06-.22.17-.33.15-.15.22-.28.22-.39l.17-.28c.07-.11.17-.27.28-.47.11-.2.18-.38.22-.53l.11-.39v-.17c.07,0,.11-.15.11-.44v-.11c-.04-.07-.13-.09-.28-.06-.15.04-.3.11-.44.22l-.44.22c-.15.07-.22.13-.22.17l-.33.28c-.33.19-.54.43-.61.72-.07.15-.15.26-.22.33-.15.07-.26.19-.33.33-.44.74-.7,1.15-.78,1.22-.11.15-.17.28-.17.39,0,.04-.04.17-.11.39-.33.63-.55,1.26-.66,1.88,0,.15-.04.33-.11.55-.07.22-.11.41-.11.55l-.11.33c-.07.07-.11.22-.11.44l-.06.44v.28Z"/>
  <path class="cls-1" d="M50.93,87.62c-.07,0-.3-.07-.66-.22-.52-.26-.91-.68-1.16-1.27-.33-.66-.5-1.05-.5-1.16,0-.15-.02-.28-.06-.39-.07-.33-.13-.8-.17-1.41-.04-.61-.04-1.25,0-1.91.07-1.25.13-1.92.17-1.99.04-.07.06-.17.06-.3s.02-.27.06-.42c0-.81.06-1.46.17-1.94.07-.22.11-.46.11-.72.04-.18.13-.48.28-.89.07-.15.11-.31.11-.5s.04-.39.11-.61l.17-.39c.07-.26.11-.46.11-.61l-.06-.11c-.11-.15-.11-.28,0-.39.07,0,.11-.09.11-.28,0-.15.06-.28.17-.39s.24-.18.39-.22c.37-.07.66-.02.89.17.22.19.33.48.33.89,0,.37-.06.66-.17.89l-.06.39c0,.15-.02.24-.06.28-.07.07-.14.19-.19.33-.06.15-.08.26-.08.33l-.17.61c-.04.11-.06.33-.06.66v.17c.11.04.11.11,0,.22-.04.04-.09.17-.17.39,0,.19-.04.31-.11.39-.07.07-.11.19-.11.33s.02.22.06.22c.07.07.04.33-.11.78l-.11.67c.04.07.05.14.03.19-.02.06-.03.1-.03.14-.07.07-.11.19-.11.33l-.17.66c-.07.37-.11.63-.11.78,0,.41-.02.72-.06.94v.78c.04.07.06.22.06.44l.06.5c.04.11.06.24.06.39s.02.26.06.33c.04.04.06.15.06.33,0,.33.09.55.28.67.07.07.11.13.11.17,0,.22.24.42.72.61.26.04.39.02.39-.06s.06-.13.17-.17c.37-.11.68-.39.94-.83l.89-1.22.22-.22.11-.28.17-.33c0-.15.06-.24.17-.28l.28-.39c.07-.18.15-.31.22-.39l.17-.28.17-.33.17-.28s.04-.17.11-.39c.07-.07.11-.18.11-.33s.06-.24.17-.28l.11-.22c0-.11.06-.24.17-.39l.39-.72c.11-.26.24-.46.39-.61l.22-.39c0-.07.02-.16.06-.25.04-.09.07-.19.11-.3.04-.11.06-.26.06-.44,0-.26.04-.42.11-.5l.11-.17.17-.39c.11-.18.15-.39.11-.61,0-.11.06-.2.17-.28l.17-.33c0-.11.07-.28.22-.5l.44-.94c.07-.07.11-.24.11-.5,0-.18.04-.35.11-.5.11-.11.13-.18.06-.22,0-.11.04-.22.11-.33l.11-.28h.11c.11.04.24.02.39-.06.15-.07.27-.11.36-.11s.16.06.19.17l.06.22v.28c.04.22,0,.56-.11,1.02-.11.46-.24.82-.39,1.08l-.11.33c0,.11-.04.2-.11.28l-.06.22-.11.28-.11.33-.17.5-.17.33c0,.07-.06.2-.17.39l-.22.5-.17.5-.17.33c0,.07-.02.13-.06.17l-.06.22-.17.33s-.11.17-.22.39c0,.07-.06.17-.17.28l-.06.22-.17.33c-.19.3-.3.48-.33.55l-.22.44-.11.28c0,.07-.04.18-.11.3-.07.13-.17.3-.28.53l-.39.66c-.3.59-.46.91-.5.94-.04.04-.06.09-.06.17,0,.11-.17.33-.5.66l-.22.39s-.04.09-.11.17l-.28.39c-.22.33-.57.71-1.05,1.14-.48.42-.87.71-1.16.86-.22.07-.42.11-.61.11s-.31-.02-.39-.06Z"/>
  <path class="cls-1" d="M64.94,87.62h-.28c-.19,0-.48-.09-.89-.28-.55-.26-.87-.48-.94-.66l-.33-.44c-.26-.26-.44-.57-.55-.94-.04-.11-.07-.19-.11-.25-.04-.06-.09-.08-.17-.08-.19-.04-.35-.13-.5-.28-.04-.11-.15-.2-.33-.28-.07-.11-.09-.18-.06-.22.04-.04.04-.11,0-.22-.04-.07-.04-.13,0-.17.04-.04.13-.06.28-.06.11,0,.18-.06.22-.17l.17-.17c.11,0,.17-.04.17-.11v-.83c0-.48.04-.83.11-1.05l.11-.55.06-.39c.11-.33.18-.59.22-.78l.17-.44s.06-.22.17-.55c.04-.15.08-.29.14-.42.06-.13.1-.23.14-.3l.28-.83.33-.72c.07-.11.16-.25.25-.42.09-.17.21-.34.36-.53.22-.41.53-.88.91-1.41.39-.54.69-.88.91-1.02l.5-.39c.22-.18.52-.33.89-.44.29-.11.59-.17.89-.17s.48.04.55.11c.22.11.43.31.64.61.2.3.3.61.3.94l-.11.55c-.11.22-.17.41-.17.55-.26.85-.46,1.44-.61,1.77l-.17.22c0,.07-.04.19-.11.33l-.39.72-.61,1.38-.17.28-.39.61-.33.55s-.24.31-.61.83c-.11.11-.21.24-.3.39-.09.15-.14.26-.14.33,0,.11-.15.31-.44.61l-.28.39c-.15.19-.32.38-.53.58s-.38.36-.53.47l-.39.28-.22.17.06.17.17.28.22.28.28.28.17.17s.11.06.22.17.39.2.83.28c.33,0,.59.02.78.06.29,0,.5-.04.61-.11.07,0,.22-.06.44-.17.37-.15.65-.31.83-.5.04-.04.09-.06.17-.06l.22-.11.39-.17c.41-.11.61-.24.61-.39.07-.15.2-.24.39-.28.15,0,.26-.04.33-.11.07-.07.35-.22.83-.44.26-.18.46-.29.61-.33l.33-.22.39-.39c.26-.26.42-.41.5-.44.04,0,.07-.02.11-.06.04-.04.06-.07.06-.11.07-.07.18-.17.33-.28.15-.11.28-.18.39-.22l.06.06c0,.11.13.17.39.17.18,0,.31.04.39.11.04.04.06.11.06.22l-.11.22s-.07.08-.11.14c-.04.06-.07.12-.11.19-.19.33-.59.74-1.22,1.22-.04.04-.1.08-.19.14-.09.06-.16.12-.19.19l-.39.22-.33.22s-.08.07-.14.11c-.06.04-.1.06-.14.06l-.22.11-.28.22c-.22.11-.37.2-.44.28-.19.11-.42.24-.72.39-.3.15-.52.26-.66.33l-.5.28c-.44.19-.7.28-.78.28l-.5.17c-.33.15-.61.24-.83.28-.22.04-.59.06-1.11.06l-.28-.06ZM62.95,82.25c.04.19.07.26.11.22.04,0,.09-.07.17-.22.07-.15.15-.24.22-.28.07-.07.17-.17.28-.3.11-.13.18-.23.22-.3l.06-.11c.22-.22.44-.55.66-1,.04-.07.07-.15.11-.22.04-.07.06-.15.06-.22s.06-.17.17-.28l.33-.33c.07-.18.18-.31.33-.39.18-.18.28-.39.28-.61,0-.07.13-.31.39-.72.26-.48.41-.76.44-.83,0-.11.06-.22.17-.33.15-.15.22-.28.22-.39l.17-.28c.07-.11.17-.27.28-.47.11-.2.18-.38.22-.53l.11-.39v-.17c.07,0,.11-.15.11-.44v-.11c-.04-.07-.13-.09-.28-.06-.15.04-.3.11-.44.22l-.44.22c-.15.07-.22.13-.22.17l-.33.28c-.33.19-.54.43-.61.72-.07.15-.15.26-.22.33-.15.07-.26.19-.33.33-.44.74-.7,1.15-.78,1.22-.11.15-.17.28-.17.39,0,.04-.04.17-.11.39-.33.63-.55,1.26-.66,1.88,0,.15-.04.33-.11.55-.07.22-.11.41-.11.55l-.11.33c-.07.07-.11.22-.11.44l-.06.44v.28Z"/>
  <path class="cls-1" d="M77.29,99.53c0-.11-.02-.19-.06-.22,0-.19-.02-.31-.06-.39l-.11-.66c-.04-.44-.06-1.1-.08-1.97-.02-.87,0-1.74.03-2.63.07-1.48.11-6.17.11-14.07-.04-2.99-.07-4.56-.11-4.71l-.22-.39c-.11-.18-.17-.42-.17-.72l-.22-.94c-.15-.52-.22-.9-.22-1.16-.07-.66-.2-1.09-.39-1.27-.15-.22-.37-1.13-.66-2.71l-.28-1.16c-.07-.26-.15-.57-.22-.94,0-.41-.06-.74-.17-1l-.17-1.05c-.15-1.37-.33-2.36-.55-2.99l-.11-.44c0-.29-.02-.52-.06-.66l-.28-1.77c-.11-.74-.2-1.22-.28-1.44-.11-.55-.17-.94-.17-1.16l-.17-1.22c-.07-.3-.13-.85-.17-1.66,0-.74.04-1.24.11-1.5.3-1.11.61-1.96.94-2.55.22-.33.54-.5.94-.5l.28.06c.3.15.55.44.78.89.22.48.44,1.09.67,1.83.22.74.35,1.42.39,2.05.04.37.09.66.17.89.07.19.15.5.22.94,0,.33.04.65.11.94l.17,1.16c0,.3.02.53.06.69.04.17.06.27.06.3.07.22.11.46.11.72l.11.72.28,2.38v1c0,.96.07,1.81.22,2.55l.11.44-.06.22c-.04.41-.05,1.01-.03,1.8.02.79.05,1.45.08,1.97l.06.89c-.04.44-.04.92,0,1.44.04.52.07.92.11,1.22l.06.55c.11.48.26,1,.44,1.55l.17.55c.11.55.22.94.33,1.16.07.07.11.17.11.28l.22.5c.18.26.37.68.55,1.27l.33.83.44.89c.11.3.22.5.33.61l.17.39.66,1.22.33.44.55.83c.33.41.52.66.55.78.18.26.44.48.78.66.11.04.13.07.06.11-.15,0-.13.07.06.22.11.07.13.11.06.11l-.11.11s-.15.04-.33,0c-.37,0-.55.04-.55.11,0,.04-.06.06-.17.06s-.3-.07-.55-.22c-.3-.15-.55-.33-.78-.55l-.78-.83c-.26-.33-.53-.74-.8-1.22-.28-.48-.51-.89-.69-1.22-.15-.52-.3-.83-.44-.94-.26-.33-.41-.65-.44-.94l-.22-.66-.22-.55-.06-.17v.28l-.11,1.38v.33l.06,1.27c.07.85.13,1.33.17,1.44.04.48.04,1.44,0,2.88,0,.7.02,1.11.06,1.22.07.22.11.42.11.61s-.02.33-.06.44c-.04.37-.06.9-.06,1.61l-.06.83-.17,2.94v.66l.06,1v.83c-.04.15-.06.35-.06.61.07.15.07.33,0,.55,0,.37-.02.65-.06.83v.5h-.17c-.07-.04-.13-.04-.17,0-.04.04-.07.11-.11.22-.19.33-.33.53-.44.61-.07,0-.13-.06-.17-.17ZM73.97,52.39l.11.55.06.83.11.94c.15.7.24,1.38.28,2.05l.17.78.17.72c.07.15.11.39.11.72.15.89.29,1.61.44,2.16l.28,1.38.22,1.05.17.66s.06.28.17.72l.11.72c.04.15.13.53.28,1.14.15.61.24.91.28.91l-.06-.78-.06-1.33-.17-2.55c0-.59-.02-.96-.06-1.11l-.06-.72-.11-1.55c-.04-.15-.06-.3-.06-.47s-.02-.34-.06-.53l-.06-1.05-.11-.55c0-.22-.09-.92-.28-2.1,0-.3-.04-.59-.11-.89-.15-.41-.28-1.03-.39-1.88-.04-.18-.07-.39-.11-.61-.04-.22-.09-.44-.17-.67-.04-.18-.2-.74-.5-1.66l-.11-.17-.06.11c-.15.3-.27.79-.36,1.47-.09.68-.12,1.25-.08,1.69Z"/>
  <path class="cls-1" d="M88.48,88.17c-.37-.07-.65-.16-.83-.25-.19-.09-.44-.27-.78-.53-.37-.33-.7-.7-1-1.11-.48-.66-.76-1.13-.83-1.38,0-.11-.06-.28-.17-.5-.11-.18-.17-.33-.17-.44,0-.04-.06-.22-.17-.55l-.11-.66-.28-1.77-.06-.72c0-1.33.04-2.1.11-2.33l.06-.72.17-.89c0-.18.04-.35.11-.5,0-.15.04-.33.11-.55l.11-.39c0-.11.09-.29.28-.55l.28-.72c.04-.18.13-.39.28-.61.15-.15.29-.35.44-.61.41-.63.87-1.09,1.38-1.38l.22-.17s.17-.09.39-.17c.18,0,.35-.04.5-.11.15-.04.41-.06.78-.06h.5l.44.22.61.33.28.28s.08.09.14.17c.06.07.12.15.19.22l.39.66c.11.19.23.41.36.66.13.26.19.44.19.55s.13.37.39.78c.07.15.11.3.11.44l.06.39c.15.41.22.91.22,1.5,0,.55-.07,1.02-.22,1.38l-.11.22.17-.11.22-.22.17-.06c.11,0,.18.06.22.17.15.37.22.57.22.61.04.15.06.59.06,1.33-.04.07-.06.16-.06.25s-.02.18-.06.25c0,.22-.04.41-.11.55-.04.07-.06.2-.06.39l-.06.33c-.19.55-.28.9-.28,1.05l-.39,1.33c-.15.26-.24.52-.28.78-.22.44-.37.72-.44.83-.33.7-.68,1.2-1.05,1.5-.04.07-.08.13-.14.17-.06.04-.1.09-.14.17-.48.41-1.09.61-1.83.61l-.55-.06ZM85.32,80.47s.07.22.11.67l.06.83c.07.15.11.28.11.39l.17.39c.11.3.22.7.33,1.22,0,.15.04.26.11.33,0,.04.02.07.06.11.04.04.06.09.06.17l.22.28c.15.11.22.2.22.28,0,.19.16.46.47.83.31.37.64.63.97.78.18.07.35.11.5.11h.22c.07.04.17.05.3.03.13-.02.25-.05.36-.08.22-.11.41-.24.55-.39l.55-.5c.15-.07.26-.29.33-.66.15-.37.22-.61.22-.72l.06-.39c.07-.07.11-.13.11-.17,0-.07.02-.15.06-.22.04-.07.07-.15.11-.22.11-.29.17-.46.17-.5v-.06c-.11-.11-.09-.3.06-.55.11-.11.17-.22.17-.33l.11-.55s.09-.09.17-.28c.15-.44.22-.9.22-1.38v-1.11c-.15.11-.35.17-.61.17-.11,0-.24-.04-.39-.11-.15-.07-.26-.18-.33-.33l-.22-.44c-.07-.15-.09-.22-.06-.22.07,0,.11-.04.11-.11,0-.11.02-.17.06-.17l.06-.06c.07-.07.13-.07.17,0l.17.06-.06-.83c0-.52-.02-.79-.06-.83-.07-.15-.11-.24-.11-.28.04-.15,0-.39-.11-.72l-.28-.66-.11-.28-.22-.28c-.04-.11-.09-.17-.17-.17s-.11-.07-.11-.22c.04-.11,0-.22-.11-.33-.04-.04-.07-.08-.11-.14-.04-.06-.06-.1-.06-.14,0-.07-.03-.14-.08-.19-.06-.06-.12-.08-.19-.08s-.19-.04-.33-.11c-.26-.15-.44-.17-.55-.06,0,.04-.06.06-.17.06-.07,0-.19.04-.33.11l-.22.17-.33.17c-.33.26-.52.48-.55.66,0,.11-.04.17-.11.17l-.28.44-.33.5c-.07.15-.11.28-.11.39,0,.19-.06.33-.17.44-.07.22-.11.41-.11.55l-.17.5c-.07.19-.09.3-.06.33l-.11.33c-.07.07-.12.17-.14.28-.02.11-.03.26-.03.44,0,.33-.02.54-.06.61l-.11.78-.06.83c-.04.26-.04.42,0,.5Z"/>
  <path class="cls-1" d="M94.85,109.99c-.19-.11-.3-.24-.33-.39-.04-.04-.06-.26-.06-.66,0-.85.06-1.53.17-2.05l.11-.89c0-.26.02-.41.06-.44.22-1,.33-1.94.33-2.82,0-.19.04-.46.11-.83.07-.26.13-.94.17-2.05l.06-2.1c.04-.37.04-.98,0-1.83-.04-1.51-.06-3.14-.06-4.87v-3.05c0-1.77-.02-2.79-.06-3.05-.07-.37-.11-.9-.11-1.61,0-1-.02-1.62-.06-1.88v-1.55l-.06-1.77c-.07-1.07-.06-1.85.06-2.33l.11-.55c0-.33.04-.65.11-.94,0-.04,0-.06.03-.06s.05.02.08.06c0,.11.06.09.17-.06.04-.11.06-.18.08-.22.02-.04.03-.02.03.06l.11.11c.07.07.11.15.11.22,0,.15.02.26.06.33.04.07.09.13.17.17.11.07.19.18.25.3.06.13.1.32.14.58.11.52.2,1.35.28,2.49l.06,1.88.06,1.44c.04.11.06.27.06.47s-.02.4-.06.58v1.11c.04.33.06.69.06,1.08s.02.77.06,1.14l.06,1.61c.04.22.07.28.11.17l.06-.28c.15-.22.22-.52.22-.89l.17-.83c.04-.07.09-.42.17-1.05,0-.22.04-.48.11-.78.07-.15.24-.68.5-1.61.15-.52.26-.87.33-1.05l.17-.66c0-.18.03-.36.08-.53.06-.17.1-.3.14-.42l.33-1c.11-.41.18-.65.22-.72.22-.74.33-1.16.33-1.27,0-.07.11-.39.33-.94.11-.15.2-.35.28-.61.07-.26.29-.71.64-1.36.35-.65.69-1.23,1.02-1.74.37-.55.7-.94,1-1.16.29-.29.7-.57,1.22-.83.3-.11.55-.17.78-.17h.17c.44.11.76.41.94.89.07.22.15.52.22.89.07.37.11.67.11.89l.06.44c.04.19.04.41,0,.66l-.06.66c0,.22-.06.66-.17,1.33-.11.37-.17.83-.17,1.38l.06.55-.22.55c-.19.37-.28.65-.28.83l-.17.66-.17.55-.06.28c-.07.07-.15.24-.22.5-.41,1.11-.7,1.81-.89,2.1l-.22.55c-.11.37-.19.57-.22.61l-.17.44c-.07.19-.17.4-.28.64-.11.24-.22.43-.33.58-.04.07-.06.15-.08.22-.02.07-.05.13-.08.17-.04.11-.24.46-.61,1.05-.37.59-.55.81-.55.67l-.06-.11-.28.06c-.04.07-.17.17-.39.28-.15.07-.28.09-.39.06-.04,0-.06-.03-.08-.08-.02-.06,0-.08.03-.08l.11-.22c0-.11.04-.24.11-.39.07-.07.15-.26.22-.55l.55-1.22c.37-.7.55-1.09.55-1.16l.28-.61c.33-.66.55-1.16.66-1.5l.33-.78c.11-.18.2-.46.28-.83l.22-.61.22-.66c.15-.52.22-.79.22-.83l.22-1.11c.07-.52.13-.79.17-.83.22-.92.35-1.85.39-2.77.04-.41.05-.86.03-1.36-.02-.5-.05-.9-.08-1.19-.04-.18-.06-.28-.08-.28-.02,0-.1.04-.25.11-.15.04-.32.15-.53.33-.2.19-.36.37-.47.55-.04.07-.15.2-.33.39l-.39.55c-.04.11-.08.2-.14.28-.06.07-.08.15-.08.22-.48.63-.81,1.24-1,1.83-.04.04-.15.3-.33.78-.07.15-.19.42-.33.83-.22.78-.39,1.31-.5,1.61l-.33,1c-.19.55-.37,1.24-.55,2.05-.19.81-.33,1.44-.44,1.88,0-.04-.06.17-.17.61l-.11.55c0,.19-.13.79-.39,1.83l-.28,1.33-.11.72c-.11.22-.24.87-.39,1.94,0,.22-.06.5-.17.83,0,.07-.02.18-.06.33-.04.15-.06.31-.06.5l-.11.55-.33,2.55c-.07.33-.15,1.05-.22,2.16l-.06.83c-.04.11-.06.37-.06.78l-.06,1c-.22,1.59-.3,2.69-.22,3.32,0,.26-.02.44-.06.55l-.06.55c-.11,1.11-.19,1.74-.22,1.88l-.22,1.61-.11.78c-.19.55-.33.89-.44,1-.11.18-.3.28-.55.28-.04,0-.13-.04-.28-.11Z"/>
  <path class="cls-1" d="M117.33,87.62c-.26-.15-.46-.42-.61-.83l-.11-.5-.06-.44c-.07-.22-.11-.66-.11-1.33v-3.99c0-3.58-.06-5.7-.17-6.37-.04-.07-.06-.16-.06-.25s-.02-.17-.06-.25l-.06-.5-.06-.22-.17.33-.17.33-.22.5c-.19.26-.28.44-.28.55-.15.41-.35.85-.61,1.33-.11.37-.19.61-.22.72-.07.33-.17.55-.28.66-.22.48-.41.98-.55,1.5l-.39,1-.28.72c0,.07-.06.22-.17.44-.11.22-.17.37-.17.44-.04.15-.11.28-.22.39l-.28.66c-.37.92-.77,1.74-1.22,2.44-.11.19-.26.37-.44.55s-.35.3-.5.33c-.22.11-.42.17-.61.17-.48,0-.83-.2-1.05-.61-.19-.26-.31-.76-.39-1.5l-.11-.61v-1.33l-.06-.28c0-.18-.02-.31-.06-.39-.04-.11-.06-.44-.06-1l-.06-2.44c-.04-1.44-.02-2.33.06-2.66.15-.44.22-.76.22-.94,0-.04.02-.06.06-.08.04-.02.06,0,.06.03.07.07.15.04.22-.11.04-.07.06-.11.08-.11s.03.02.03.06l.11.11s.06.04.06.11c.07.19.15.3.22.33.11.04.19.1.25.19.06.09.1.21.14.36.11.33.17.66.17,1,.07,1.03.11,1.81.11,2.33l.06.78c.04.15.04.28,0,.39-.04.19-.06.41-.06.66s.02.5.06.72c.04.11.06.37.06.78,0,.3.06.78.17,1.44.04.15.07.2.11.17l.78-1.38c.07-.07.15-.24.22-.5.07-.26.15-.41.22-.44l.39-.78s.06-.17.17-.39c.18-.29.37-.66.55-1.11.18-.44.31-.81.39-1.11l.06-.22s.17-.31.39-.83l.39-.89.28-.78.33-.83.39-.89c.07-.22.24-.5.5-.83l.39-.61c.22-.3.55-.44,1-.44.15,0,.26.02.33.06l.33.22c.29.41.48.78.55,1.11,0,.19.06.33.17.44.04.07.06.31.06.72,0,.48.02.78.06.89.04.3.06.65.06,1.05s-.02.78-.06,1.11c0,.3.02.48.06.55.04.07.04.52,0,1.33v1.5c.04.19.06,1.37.06,3.54,0,.74.04,1.22.11,1.44l.06.11.22-.39c.04-.26.11-.48.22-.66,0-.22.06-.41.17-.55l.17-.72c0-.26.06-.46.17-.61l.17-.5c0-.11.04-.2.11-.28l.66-1.77c.15-.48.29-.83.44-1.05.26-.41.44-.81.55-1.22.15-.44.33-.91.55-1.41.22-.5.39-.77.5-.8.15-.15.37-.22.66-.22.15,0,.24.02.28.06.26.07.44.23.55.47.11.24.2.62.28,1.14,0,.19.02.33.06.44.04.11.09.22.17.33.04.15.04.41,0,.78-.04.11-.06.28-.06.5.07.37.07.89,0,1.55-.04.44-.06.9-.06,1.36s.02.8.06,1.02l.06.78c-.04.22-.04.44,0,.66l-.06.66v.55l-.17-.06c-.11,0-.2.07-.28.22-.15.15-.22.26-.22.33-.04.07-.11.11-.22.11-.07,0-.12,0-.14-.03-.02-.02-.03-.06-.03-.14l-.06-.28s-.06-.07-.06-.22c-.07-.07-.11-.22-.11-.44-.11-.33-.17-1.88-.17-4.65,0-1.18-.02-1.88-.06-2.1-.04-.15-.06-.33-.06-.55v-.17l-.11.28c-.04.07-.11.26-.22.55l-.28.55-.33.72-.22.67-.11.33-.28.66-.33.94-.28.72-.22.66c0,.07-.06.33-.17.78l-.28.66c-.26.85-.48,1.44-.66,1.77-.19.33-.39.55-.61.66-.22.07-.39.11-.5.11s-.2-.02-.28-.06Z"/>
  <path class="cls-1" d="M128.63,87.62h-.28c-.19,0-.48-.09-.89-.28-.55-.26-.87-.48-.94-.66l-.33-.44c-.26-.26-.44-.57-.55-.94-.04-.11-.07-.19-.11-.25-.04-.06-.09-.08-.17-.08-.19-.04-.35-.13-.5-.28-.04-.11-.15-.2-.33-.28-.07-.11-.09-.18-.06-.22.04-.04.04-.11,0-.22-.04-.07-.04-.13,0-.17.04-.04.13-.06.28-.06.11,0,.18-.06.22-.17l.17-.17c.11,0,.17-.04.17-.11v-.83c0-.48.04-.83.11-1.05l.11-.55.06-.39c.11-.33.18-.59.22-.78l.17-.44s.06-.22.17-.55c.04-.15.08-.29.14-.42.06-.13.1-.23.14-.3l.28-.83.33-.72c.07-.11.16-.25.25-.42.09-.17.21-.34.36-.53.22-.41.53-.88.91-1.41.39-.54.69-.88.91-1.02l.5-.39c.22-.18.52-.33.89-.44.29-.11.59-.17.89-.17s.48.04.55.11c.22.11.43.31.64.61.2.3.3.61.3.94l-.11.55c-.11.22-.17.41-.17.55-.26.85-.46,1.44-.61,1.77l-.17.22c0,.07-.04.19-.11.33l-.39.72-.61,1.38-.17.28-.39.61-.33.55s-.24.31-.61.83c-.11.11-.21.24-.3.39-.09.15-.14.26-.14.33,0,.11-.15.31-.44.61l-.28.39c-.15.19-.32.38-.53.58s-.38.36-.53.47l-.39.28-.22.17.06.17.17.28.22.28.28.28.17.17s.11.06.22.17.39.2.83.28c.33,0,.59.02.78.06.29,0,.5-.04.61-.11.07,0,.22-.06.44-.17.37-.15.65-.31.83-.5.04-.04.09-.06.17-.06l.22-.11.39-.17c.41-.11.61-.24.61-.39.07-.15.2-.24.39-.28.15,0,.26-.04.33-.11.07-.07.35-.22.83-.44.26-.18.46-.29.61-.33l.33-.22.39-.39c.26-.26.42-.41.5-.44.04,0,.07-.02.11-.06.04-.04.06-.07.06-.11.07-.07.18-.17.33-.28.15-.11.28-.18.39-.22l.06.06c0,.11.13.17.39.17.18,0,.31.04.39.11.04.04.06.11.06.22l-.11.22s-.07.08-.11.14c-.04.06-.07.12-.11.19-.19.33-.59.74-1.22,1.22-.04.04-.1.08-.19.14-.09.06-.16.12-.19.19l-.39.22-.33.22s-.08.07-.14.11c-.06.04-.1.06-.14.06l-.22.11-.28.22c-.22.11-.37.2-.44.28-.19.11-.42.24-.72.39-.3.15-.52.26-.66.33l-.5.28c-.44.19-.7.28-.78.28l-.5.17c-.33.15-.61.24-.83.28-.22.04-.59.06-1.11.06l-.28-.06ZM126.64,82.25c.04.19.07.26.11.22.04,0,.09-.07.17-.22.07-.15.15-.24.22-.28.07-.07.17-.17.28-.3.11-.13.18-.23.22-.3l.06-.11c.22-.22.44-.55.66-1,.04-.07.07-.15.11-.22.04-.07.06-.15.06-.22s.06-.17.17-.28l.33-.33c.07-.18.18-.31.33-.39.18-.18.28-.39.28-.61,0-.07.13-.31.39-.72.26-.48.41-.76.44-.83,0-.11.06-.22.17-.33.15-.15.22-.28.22-.39l.17-.28c.07-.11.17-.27.28-.47.11-.2.18-.38.22-.53l.11-.39v-.17c.07,0,.11-.15.11-.44v-.11c-.04-.07-.13-.09-.28-.06-.15.04-.3.11-.44.22l-.44.22c-.15.07-.22.13-.22.17l-.33.28c-.33.19-.54.43-.61.72-.07.15-.15.26-.22.33-.15.07-.26.19-.33.33-.44.74-.7,1.15-.78,1.22-.11.15-.17.28-.17.39,0,.04-.04.17-.11.39-.33.63-.55,1.26-.66,1.88,0,.15-.04.33-.11.55-.07.22-.11.41-.11.55l-.11.33c-.07.07-.11.22-.11.44l-.06.44v.28Z"/>
  <path class="cls-1" d="M148.24,90.33l-.22-.17s-.02-.08-.06-.14c-.04-.06-.07-.1-.11-.14l-.28-.39c-.11-.22-.2-.5-.28-.83-.07-.33-.13-.65-.17-.94,0-2.22.04-3.66.11-4.32l.17-1.94.06-.89.06-.83c.11-.33.17-.79.17-1.38.04-.11.06-.23.06-.36s.02-.25.06-.36l.11-.67v-.39c.07-.37.11-1.29.11-2.77,0-.48-.02-.89-.06-1.25-.04-.35-.09-.51-.17-.47l-.11.28s-.03.1-.08.19c-.06.09-.1.16-.14.19l-.17.39-.11.33-.17.44-.17.44c-.07.07-.11.17-.11.28-.26.78-.5,1.38-.72,1.83-.11.22-.17.35-.17.39l-.17.39-.17.5-.22.55-.5,1.16c-.11.3-.19.48-.22.55l-.22.55-.28.55-.17.33-.5.94c-.19.26-.3.46-.33.61l-.22.5-.44.55-.44.61c-.37.44-.68.7-.94.78-.19.07-.41.11-.66.11-.3,0-.53-.06-.69-.17-.17-.11-.34-.35-.53-.72l-.22-.33c0-.18-.02-.35-.06-.5-.15-.52-.26-1.05-.33-1.61-.07-.55-.11-1.05-.11-1.5l.06-1.05c.04-.22.06-.44.06-.66s.02-.39.06-.5c.04-.11.06-.41.06-.89v-.33c-.04-.22-.04-.44,0-.66.04-.18.06-.87.06-2.05,0-1.03.02-1.68.06-1.94.04-.33.07-.48.11-.44.04.04.07.04.11,0s.07-.09.11-.17c.04-.04.07-.04.11,0h.11l.11.17c.07.11.17.17.28.17s.26.11.44.33c.11.22.18.46.22.72.07.52.11,1.03.11,1.55v.78c.04.26.04.46,0,.61-.07.22-.11.92-.11,2.1,0,.59.02.91.06.94.04.04.05.09.03.17-.02.07-.05.15-.08.22l-.11.55c0,.3-.02.46-.06.5-.04.11-.05.25-.03.42.02.17.05.27.08.3.04.04.06.31.06.83,0,.33.02.58.06.75.04.17.09.29.17.36,0,.04,0,.07.03.11.02.04,0,.06-.03.06l.06.22v.11l.22-.22.28-.39.17-.28s.13-.11.28-.33l.44-.66c.18-.26.28-.42.28-.5.04-.15.15-.41.33-.78l.28-.55.22-.55c.07-.07.17-.22.28-.44,0-.11.04-.2.11-.28.15-.18.28-.4.39-.64.11-.24.17-.42.17-.53,0-.15.07-.31.22-.5l.33-.66c.18-.52.39-.98.61-1.38.15-.26.2-.41.17-.44,0-.07.06-.22.17-.44.37-.81.57-1.33.61-1.55,0-.11.02-.19.06-.25.04-.06.06-.12.06-.19l.17-.39c.07-.33.29-.76.66-1.27.07-.07.2-.18.39-.33l.44-.11c.52,0,.85.28,1,.83l.28.5.11.22v4.26c.04.19.04.31,0,.39l-.06.39-.06.61s-.06.39-.17,1.05c0,.52-.04.81-.11.89-.11.33-.17.76-.17,1.27l.06,1.05c.04.26.04.44,0,.55l-.17,1.22c0,.19.02.3.06.33.15.15.17.33.06.55-.07.22-.11.44-.11.66l-.06.83c-.07.78-.07,1.35,0,1.72l.17.89.06.17c.07.15.11.28.11.39,0,.18.04.31.11.39.04.07.05.12.03.14-.02.02-.06.03-.14.03-.11.04-.19.13-.22.28l-.06.39-.11.06-.11.06-.17-.11Z"/>
  <path class="cls-1" d="M151.45,100.02l-.11-.22c0-.07-.06-.2-.17-.39-.11-.33-.17-.52-.17-.55-.07-.15-.11-.37-.11-.66-.11-.37-.17-1.03-.17-1.99,0-.22-.02-.41-.06-.55-.11-1.48-.17-3.38-.17-5.7,0-1.37.04-2.34.11-2.94l.06-.66c0-.3.02-.5.06-.61,0-.22-.02-.42-.06-.61v-.72c.04-.33.09-1.46.17-3.38,0-.33.04-.65.11-.94l.06-.72c0-.3.02-.46.06-.5l.06-.66.06-.66c.04-.3.08-.7.14-1.22.06-.52.08-1,.08-1.44l.06-.89.17-1.05c0-.22.02-.39.06-.5l.06-.72c.07-.37.11-.63.11-.78l.06-.78.06-.61.06-.44v-.28h-.17c-.15,0-.26.02-.33.06-.22.11-.35.17-.39.17-.15,0-.26.06-.33.17-.04.04-.17.09-.39.17-.15,0-.3.04-.44.11-.07.07-.35.2-.83.39-.11,0-.17.04-.17.11h-.17l-.44.22-.44.22-.33.17c-.22.11-.35.17-.39.17-.22.11-.35.19-.39.22-.22.11-.35.17-.39.17-.15.04-.29.17-.44.39,0,.07-.07.15-.22.22l-.17.11c-.04.07-.14.16-.3.25-.17.09-.32.18-.47.25-.15.07-.31.11-.5.11-.37,0-.63-.11-.78-.33-.18-.18-.28-.44-.28-.78,0-.15.04-.33.11-.55.15-.33.26-.5.33-.5s.11-.02.11-.06c.04,0,.09-.04.17-.11.07-.04.13-.04.17,0l.22.06c.15,0,.22.06.22.17.04.04.22-.07.55-.33.04-.07.09-.13.17-.17.07-.04.18-.11.3-.22.13-.11.21-.2.25-.28,0-.11.07-.17.22-.17.04.04.07.05.11.03.04-.02.07-.03.11-.03l.33-.11c.22,0,.37-.06.44-.17,0-.07.09-.13.28-.17l.44-.11.28-.17.22-.06c.11,0,.19-.02.22-.06l.44-.06c.33-.07.55-.15.66-.22.07-.07.13-.09.17-.06l.22-.06c.15-.07.28-.11.39-.11l.33-.17.28-.17c.15,0,.26-.04.33-.11l.33-.11c.11,0,.18-.02.22-.06,0-.04.04-.06.11-.06.11,0,.22-.15.33-.44.04-.18.06-.44.06-.78,0-.18.04-.42.11-.72.07-.22.11-.5.11-.83.07-.3.11-.63.11-1l.17-1.05c.04-.11.06-.22.06-.33s.02-.2.06-.28l.17-1c.11-1.18.2-1.85.28-1.99,0-.04,0-.09.03-.17.02-.07,0-.11-.03-.11l.06-.17c.11-.26.24-.68.39-1.27.18-.59.29-.9.33-.94.22-.55.33-.98.33-1.27,0-.22.02-.39.06-.5.11-.18.17-.35.17-.5l.11-.44c.07-.26.24-.96.5-2.1.04-.29.15-.63.33-1,.15-.22.22-.39.22-.5,0-.04.04-.04.11,0,.07.04.15.02.22-.06l.11-.11.11.11s.06.09.06.17c0,.11.06.2.17.28.18.04.29.17.33.39.04.22.04.5,0,.83-.07,1-.19,1.63-.33,1.88-.04.07-.06.16-.06.25s-.02.18-.06.25c0,.22-.04.37-.11.44-.04.07-.13.41-.28,1l-.17.55c-.19.66-.28,1.16-.28,1.5v.11c0,.15-.06.28-.17.39l-.17.44c-.04.15-.11.33-.22.55-.11.15-.17.37-.17.66v.17s-.02.33-.17.89l-.17,1.11c-.04.07-.06.16-.06.25s-.02.18-.06.25c-.07.07-.11.22-.11.44l-.11.44c-.22.81-.33,1.38-.33,1.72l-.06.44c-.07.07-.11.28-.11.61l-.11.72-.06.17.28-.06c.18,0,.28-.04.28-.11.04-.04.09-.06.17-.06.11-.04.26-.08.44-.14.18-.06.33-.12.44-.19,0-.04.04-.06.11-.06l.17-.11c.37-.18.65-.28.83-.28h.06l.22-.06c.07-.07.13-.11.17-.11l.22-.11c.04-.07.11-.11.22-.11.15,0,.28-.02.39-.06l.28-.11c.11,0,.18-.02.22-.06l.22-.11c.11,0,.18-.02.22-.06l.28-.11.22-.11c.07-.07.13-.11.17-.11.11,0,.18-.02.22-.06.04-.04.09-.06.17-.06s.13-.02.17-.06l.44-.11c.3-.07.48-.11.55-.11.18,0,.31-.04.39-.11l.33-.17s.08-.06.14-.08c.06-.02.1-.06.14-.14l.22-.11c.07,0,.11-.02.11-.06l.22-.06c.15,0,.26-.02.33-.06.07-.04.11-.09.11-.17.04-.07.11-.11.22-.11.15,0,.24-.02.28-.06.07-.04.42-.11,1.05-.22l.22-.06c0-.07.04-.11.11-.11l.11-.06c0-.07.07-.11.22-.11l.22-.11c0-.07.07-.11.22-.11s.24.04.28.11c0,.04.02.08.06.14.04.06.09.1.17.14.3.19.33.41.11.66-.07.07-.11.13-.11.17-.04.07-.25.2-.64.39-.39.19-.66.28-.8.28l-.11.06s-.09.06-.17.06l-.17.06-.22.11c-.15,0-.22.04-.22.11-.11,0-.26.06-.44.17-.19.04-.44.11-.78.22-.15.07-.26.11-.33.11-.04.04-.08.06-.14.06s-.1.02-.14.06c-.22.11-.39.17-.5.17l-.28.06s-.11.06-.22.06c-.04,0-.09.04-.17.11l-.17.06c-.19,0-.31.02-.39.06l-.39.11c-.07,0-.15.04-.22.11-.11.11-.24.17-.39.17l-.39.11-.55.22-.44.17c-.3.15-.52.22-.66.22-.11,0-.2.04-.28.11l-.17.06-.28.11-.44.11c-.15.04-.33.1-.55.19-.22.09-.41.18-.55.25l-.5.17c-.48.19-.74.31-.78.39-.04.07-.06.22-.06.44,0,.15-.04.37-.11.66l-.06.5c0,.26-.06.5-.17.72-.07.11-.11.44-.11,1,.04.07.02.22-.06.44-.07.3-.11.59-.11.89-.04.44-.13.96-.28,1.55-.04.22-.04.37,0,.44.04.07.04.24,0,.5-.15,1.11-.22,1.99-.22,2.66,0,.81-.04,1.33-.11,1.55-.07.22-.11.61-.11,1.16l.06.39v.33c-.07.07-.14.51-.19,1.3-.06.79-.06,1.76-.03,2.91,0,.44-.02.85-.06,1.22-.04.22-.06.63-.06,1.22,0,.37-.04.66-.11.89l-.06.55c0,.26.02.55.06.89.04.33.09.61.17.83.04.3.04.81,0,1.55,0,.3.04.52.11.66.07.18.09.41.06.67-.04.11-.06.26-.06.44l.06,1.33c0,1.07.04,1.68.11,1.83.04.04.06.18.06.44l.06.44c.04.07.06.26.06.55s-.02.44-.06.44c-.07-.04-.19.04-.33.22l-.11.22s-.02.07-.06.11c-.04.04-.09.06-.17.06s-.15-.06-.22-.17Z"/>
</svg>