<?xml version="1.0" encoding="UTF-8"?>
<svg id="Lager_1" xmlns="http://www.w3.org/2000/svg" viewBox="0 0 220.31 173.7">
  <defs>
    <style>
      .cls-1 {
        fill: #fff;
      }
    </style>
  </defs>
  <path class="cls-1" d="M25.56,97.44c-.07-.12-.12-.3-.14-.54l-.23-.54c-.15-.3-.36-1.05-.65-2.26-.08-.18-.16-.85-.26-2.02l-.16-1.93-.04-.55-.26-3.22-.12-1.47c.02-.5-.02-1.39-.12-2.68-.15-2.64-.21-4.06-.16-4.25l-.03-1.57c-.05-.67-.05-1.32.03-1.95,0-2.22,0-3.46-.02-3.7-.08-1.04-.11-1.78-.09-2.22-.06-.74-.1-1.63-.12-2.68-.02-1.05-.03-1.88-.02-2.5-.04-.49-.04-.86,0-1.11l.07-1.49-.11-1.38.14-2.79-.03-1.57c.03-.37,0-1.05-.07-2.03l-.09-1.1h-.18c-.07-.04-.22,0-.45.14l-.44.31-.45.13-.54.23-.53.32c-.17.2-.32.3-.44.31-.18.01-.39.09-.63.24-.11.13-.21.22-.3.26-.09.04-.16.09-.22.16-.12,0-.21.05-.27.11-.06.07-.15.1-.27.11l-.35.21-.18.11c0,.06-.05.1-.18.11-.18.01-.51.2-.98.54l-.35.31-.53.32-.71.43c-.25.02-.36.09-.35.21-.12.07-.28.16-.49.27-.21.11-.37.17-.49.18-.35.21-.52.38-.51.5,0,.06-.05.14-.17.24-.12.1-.2.16-.27.16l-.52.41c-.34.4-.87.75-1.58,1.05l-.74.06c-.31-.04-.56-.09-.75-.17s-.36-.23-.5-.47l-.41-.43.08-.19.07-.28c-.07-.12-.07-.24.02-.37.08-.13.15-.2.21-.2.12,0,.21-.11.25-.3.1-.32.36-.49.79-.53.31-.02.57-.23.78-.62.11-.13.2-.2.26-.21.36-.15.59-.29.71-.43,0-.06.11-.16.35-.31.58-.42.93-.75,1.03-1.01,0-.06.08-.1.27-.11s.3-.05.36-.12l.45-.13c.13.05.25.04.37-.03.12-.07.17-.14.17-.2,0-.12.25-.3.79-.53l.71-.34.35-.21c.24-.02.4-.06.45-.13l.54-.14c.54-.17.87-.35.97-.54l.27-.11c0,.06.15.02.45-.13.23-.14.45-.22.63-.24l.44-.31c.11-.13.26-.21.45-.22l.53-.32c.11-.13.26-.21.45-.22s.3-.05.36-.12c0-.06.11-.1.36-.12.43-.03.69-.18.8-.43.16-.32.21-.88.14-1.68-.04-.49-.04-.83.01-1.02l-.16-4.25c-.05-.67-.06-1.08,0-1.2l.04-.65c-.04-.55-.05-1.01-.02-1.39.04-.31.02-.96-.06-1.94l-.03-1.48c.05-.19.06-.45.03-.79s-.02-.66.01-.97c-.1-1.97-.11-3.6-.03-4.91.05-.19.04-.71-.03-1.57v-2.22s-.02-1.48-.02-1.48v-1.2s0-2.13,0-2.13l-.02-.28-.36.12c-.47.35-.97.6-1.51.77-.06.07-.15.12-.26.16-.12.04-.24.13-.35.26-.46.41-.72.61-.78.62-.18.01-.44.11-.76.29-.33.18-.63.38-.93.58l-1.59.96-1.06.64c0,.12-.11.19-.35.21l-1.06.64-1.14.83c-.06.07-.16.15-.3.26-.15.1-.31.2-.49.27-.64.48-1.17.84-1.58,1.05l-.7.52-.61.42-.52.41-.53.32c-.41.22-.76.49-1.04.83-.34.4-.63.67-.86.81l-.61.51c-.86.87-1.34,1.34-1.46,1.41l-.85.9c-.69.67-1.15,1.02-1.4,1.04l-.27.11-.9.35-.1-.08c0-.12-.08-.18-.2-.17-.19-.11-.29-.19-.3-.25-.01-.18,0-.28.07-.28.05-.13.04-.31-.04-.55-.08-.18-.07-.43.03-.74.1-.25.28-.55.53-.88.25-.33.49-.63.72-.89l.6-.6.78-.71.42-.5c.06-.07.14-.17.25-.3s.2-.2.26-.21c.12-.07.31-.19.57-.37.26-.17.48-.36.65-.56.12-.07.26-.19.43-.36.17-.17.4-.36.69-.57l.69-.61.51-.5c.06,0,.11-.02.13-.06.03-.03.04-.08.04-.14s.05-.13.17-.2c.12-.07.24-.11.36-.12l.71-.34c.35-.27.61-.42.8-.44.48-.16.8-.37.97-.63.04-.25.65-.67,1.84-1.26.42-.16.68-.33.79-.53.11-.13.23-.2.35-.21s.21-.05.27-.11c.31-.02.58-.14.81-.34l1.25-.56c.83-.38,1.39-.73,1.67-1.06l.36-.12c.12,0,.24-.05.36-.12.12-.07.27-.14.45-.22l1.06-.64c.48-.22.77-.4.88-.53l.88-.53c.36-.15.7-.33,1.02-.55.32-.21.54-.41.65-.61l-.04-.46.12-.75c.05-.19.05-.5.02-.93l.05-.47.03-.74c-.02-.31,0-.71.09-1.21l.1-1.03c.05-1.67.39-2.84,1.01-3.51.39-.46.81-.71,1.24-.75.18-.01.34,0,.47.05.57.2.92.7,1.05,1.49.01.18,0,.31-.02.37-.03.06-.07.07-.14.01,0-.06-.02-.07-.05-.04s-.04.08-.04.14l-.07.28c0,.06,0,.11-.03.14s-.08.02-.14-.04l-.19-.08c-.06.07-.11.91-.17,2.51l-.08,1.3c-.05.19-.05.56,0,1.11.02.31-.01.59-.12.84-.05.13-.04.22.02.28.43-.03.85-.16,1.27-.38,1.43-.67,2.26-1.05,2.5-1.13.3-.09.51-.19.62-.33.17-.2.28-.3.35-.31.3-.09.72-.24,1.26-.47s.95-.45,1.24-.66l.62-.33.53-.32c.23-.2,1-.57,2.32-1.11.31-.02.49-.07.54-.14l.62-.33c.06,0,.15-.04.27-.11.12-.07.26-.17.44-.31.29-.21.5-.32.62-.33.37-.03.73-.15,1.08-.37.54-.17.84-.28.9-.35.24-.02.4-.06.45-.13l.8-.43c.31-.02.52-.1.63-.24l.62-.33.71-.34c.35-.21.56-.32.62-.33.12,0,.3-.09.54-.23l.64-.14,1.98-.72c.3-.15.78-.31,1.44-.49.37-.03.73-.12,1.09-.27l.97-.54c.42-.16.63-.27.62-.33l.18-.11.26-.21c.23-.14.41-.22.54-.23.24-.02.55-.09.91-.21.36-.12.66-.22.9-.3.3-.15.5-.29.61-.42l.26-.21.46-.04c.37-.03.64-.08.82-.16l1.54-.4c.86-.07,1.56-.22,2.09-.45.06-.07.18-.11.36-.12l.26-.21,1.17-.37c.07.06.11.07.14.04s.07-.05.13-.06c.18-.08.43-.16.77-.25.33-.09.59-.14.77-.16.07.06.1.15.11.27s.06.23.16.31.28.21.54.37c.13.05.23.12.29.21.07.09.07.16.02.23l-.52.41-.53.32c-.29.27-.61.45-.98.54l-.81.25c-.54.23-1.32.45-2.36.65-.12.07-.24.11-.36.12s-.21.05-.27.11l-.54.14c-.73.18-1.39.39-1.99.62-.24.14-.45.22-.63.24l-.9.35-1.17.37c-.18.01-.34.06-.45.13-.12.07-.24.11-.36.12l-.81.34c-.18.01-.34.06-.45.13-.12.07-.24.11-.36.12-.48.22-1.05.42-1.71.6l-.81.34-.54.23c-.25.02-.4.06-.45.13l-.81.25-1.08.37-.81.34c-.12,0-.26.05-.41.13-.15.07-.31.15-.49.22-.35.28-.65.42-.89.44l-1.52.68-1.52.68-.63.24c0,.06-.05.1-.18.11l-.45.22c-.41.28-.98.51-1.7.69-.36.15-.57.26-.62.33l-.62.33-1.26.47-.53.32c-.18.01-.45.13-.81.34l-1.07.46-1.69.88c-.41.28-1.09.61-2.05,1l-.54.23-.53.32-.71.43c-.06.07-.16.12-.31.16-.15.04-.31.13-.49.27-.72.31-1.06.58-1.04.83-.04.25-.04.62,0,1.11s.11,1.01.22,1.56c.02.25,0,.37-.06.38-.06.07-.13.35-.21.85.02.31,0,.65-.1,1.03-.09.38-.11.97-.04,1.76.08.18.07.92,0,2.22l-.06,1.58-.03.74c-.1.26-.14.54-.12.84.03.43.03.74-.02.93-.17.94-.22,1.84-.15,2.7.05.61.05.95-.01,1.02v1.02c-.05.25-.06.48-.05.7s0,.42-.04.61l.02,1.39c.15,1.84.19,3.07.11,3.7-.05.19-.06.44-.03.74l.04.46c-.2.63-.26,1.32-.2,2.05.02.31.07.49.14.54.09.3.08.58-.03.84l-.11.94c0,.12.05.18.11.18.07.06.1.05.09,0l.17-.2,1.35-.48c.88-.63,1.53-.96,1.96-.99.07.06.15.02.27-.11l.27-.11.35-.21c.05-.13.17-.2.35-.21.24-.02.43-.06.54-.14l.45-.13c.18-.01.3-.05.36-.12l.45-.22c.12,0,.21-.05.27-.11l.36-.12.35-.31c.06-.07.18-.11.36-.12l.27-.11.45-.13.81-.25c.17-.14.48-.22.9-.26l.46-.04.44-.31c.3-.15.47-.32.51-.5.11-.13.5-.29,1.17-.47.24-.02.39-.12.44-.31.05-.13.17-.2.35-.21.32.1.47.09.46-.04l.45-.13c.73-.18,1.21-.34,1.44-.49l.26-.21c.06-.07.13-.12.22-.16.09-.04.19-.06.32-.07l.26-.21.36-.12c.18-.01.31.04.38.15,0,.06.04.14.11.22.07.09.17.16.3.21.26.23.41.43.42.61v.18c-.14.32-.37.65-.65.98-.12,0-.21.05-.27.11s-.12.1-.18.11c-.17.14-.38.26-.62.37-.24.11-.45.17-.63.19l-.36.12-.27.11-.54.23-1.25.56-1.08.37c-.11.13-.26.21-.45.22-.24.14-.45.22-.63.24l-.54.23c-.25.02-.4.06-.45.13l-1.08.37c-.73.18-1.26.41-1.61.69l-.45.13-1.79.79-.18.11c-.12,0-.18.05-.18.11l-.63.24c-.37.03-.61.11-.72.24l-.18.11c-.18.01-.42.1-.72.24l-.35.21c-.18.01-.44.1-.77.25-.33.15-.67.33-1.02.55l-.81.34-.45.22-.12.75-.02.93c.07.12.12.3.14.54-.02,2.1,0,3.55.07,4.35.05,2.22.06,3.48.03,3.79-.1.26-.12.47-.04.65.03.43.03.71-.03.84.03.37.09.67.17.91.09.36.11.64.07.83-.16.32-.23,1.38-.21,3.17.07.86.09,1.54.07,2.03l.15,1.84c.08.24.1.52.07.83v1.02s-.03.93-.03.93l.06,1.85c-.04.31-.04.61-.02.88s0,.51-.04.7l-.16,1.49c.07.12.12.3.14.54s.07.49.15.73l.21,1.46c.18.66.24,1.43.19,2.3,0,.86.08,1.44.23,1.74.2.23.23.54.07.92-.05.19-.04.65.02,1.39l.04,1.66c-.04.31-.02.84.03,1.57.08,1.04.2,1.68.34,1.92,0,.06.03.24.09.55.05.3.12.95.2,1.93.05.61.04.92-.02.93h-.18c-.18.03-.27.1-.26.22l-.25.39c-.11.13-.17.23-.16.29,0,.12-.14.2-.45.22l-.3-.25Z"/>
  <path class="cls-1" d="M43.4,75.25c-.32-.1-.61-.27-.88-.53-.27-.26-.45-.53-.53-.84l-.34-.71c-.26-.91-.39-1.42-.4-1.54l-.24-.63c-.16-.48-.26-.87-.28-1.18-.04-.49-.14-.91-.29-1.27l-.15-.73c-.03-.37-.08-.61-.15-.73l-.09-1.1c-.03-.43-.14-1.01-.33-1.73-.3-1.4-.52-2.95-.66-4.67-.05-.67-.11-1.16-.17-1.47-.06-.3-.12-.51-.19-.63-.14-.23-.22-.48-.24-.72l-.05-.64c-.23-.54-.36-.96-.38-1.27s-.08-.56-.16-.77c-.08-.21-.16-.4-.23-.58-.16-.42-.18-1.04-.06-1.85l.32-.67h.09s.18-.11.18-.11c.11-.13.2-.17.27-.11h.18c.07.04.1.1.11.16.13.11.23.17.29.16.12,0,.22.01.28.07h.18c.12-.02.27.1.45.37.17.26.31.58.4.94.45.95.69,1.64.72,2.07.02.31.07.49.14.54.15.3.19.48.14.54-.05.19-.03.43.06.74l.17,1c.28,1.21.5,1.94.64,2.17.07.06.1.15.11.27s-.01.22-.07.28c-.06,0-.08.16-.05.47.03.43.03.71-.03.84-.09.44-.03.74.17.91.07.12.15.76.25,1.92l.05.64c.07.12.12.3.14.54-.06.07-.07.28-.04.65.04.55.05.95,0,1.2.04.55.1.92.18,1.1l.17.91c.03.43.08.64.14.64l.14.64c.04.49.09.8.17.91.06,0,.17.23.34.71.09.3.15.39.21.26l-.03-.37c-.01-.18.06-.41.22-.67.17-.2.25-.36.24-.48.24-.88.49-1.55.76-2.01.16-.32.2-.54.13-.66-.01-.18.03-.34.15-.47.31-.7.51-1.37.58-1.99.22-1.13.37-1.85.47-2.17l.3-.86c.06,0,.13-.07.22-.2.08-.13.12-.26.11-.38-.01-.18,0-.34.06-.47.11-.19.15-.41.13-.66-.01-.18.03-.34.15-.47.06-.07.12-.18.2-.34.08-.16.14-.34.19-.52l.31-.77c.12,0,.17-.17.15-.47l.31-.77.15-.47.15-.47c.16-.32.23-.54.22-.67-.02-.24,0-.4.05-.47l.32-.58c.75-1.36,1.24-2.17,1.47-2.43.11-.19.27-.33.48-.41.21-.08.34-.15.4-.22.54-.23,1-.23,1.39-.02.19.11.38.26.55.46.17.2.36.48.58.83l.53.88c.06,0,.1.08.11.27l.07.92.16.82c.01.18.06.31.12.36.13.11.22.23.26.35.04.12.04.27,0,.46-.1.32-.11.5-.05.56l.05.64v2.22s.13.54.13.54c.03.37.08.64.16.82l.06.74c.13.11.15.33.05.64l.04.55h-.18c-.18.03-.33.1-.45.24-.24.14-.35.28-.34.4-.11.13-.25.19-.4.17-.16-.02-.27-.09-.34-.2-.35-.47-.59-1-.73-1.61-.14-.6-.27-1.61-.38-3.02l-.19-2.3-.31-1.55-.2-1.28-.12-.36-.34.4-.4.77c-.15.38-.29.64-.4.77l-.23.57-.14.57c-.26.58-.52,1.25-.76,2.01l-.3.86c-.06.07-.08.19-.06.38l-.07.28-.15.38c.02.25-.16.72-.53,1.43l-.14.57c.02.31-.02.47-.15.48l-.29,1.04-.23.57-.24.48c.01.18,0,.31-.06.38l-.22.76-.15.47c-.06.07-.13.32-.22.76,0,.12-.11.6-.35,1.42-.27.52-.39.9-.37,1.14-.34,1.14-.74,2.31-1.2,3.52-.27.45-.68.74-1.23.84-.37.03-.68,0-.93-.11Z"/>
  <path class="cls-1" d="M65.47,74.48c-.62-.07-1.1-.17-1.41-.3-.32-.13-.77-.38-1.36-.77-.66-.5-1.26-1.07-1.81-1.71-.89-1.04-1.41-1.77-1.57-2.19-.01-.18-.13-.45-.34-.81-.21-.29-.32-.53-.34-.71,0-.06-.12-.36-.35-.9l-.27-1.09-.7-2.91-.19-1.19c-.18-2.21-.22-3.5-.13-3.88v-1.2s.15-1.49.15-1.49c-.02-.31.01-.59.12-.84-.02-.24.02-.56.11-.93l.13-.66c-.01-.18.11-.5.39-.96l.36-1.23c.04-.31.16-.66.38-1.05.22-.26.44-.62.65-1.07.59-1.1,1.29-1.93,2.11-2.49l.35-.31c.06-.07.26-.17.62-.33.31-.02.58-.11.81-.25.24-.08.67-.15,1.28-.2l.83-.07.77.31,1.06.47.5.42c.07.06.15.14.25.26.1.12.22.23.35.34l.73,1.05c.21.29.44.65.69,1.06.25.41.38.71.4.89s.26.6.75,1.24c.14.24.22.48.24.72l.14.64c.3.66.49,1.47.57,2.45.07.92.01,1.7-.18,2.33l-.15.38.26-.21.34-.4.27-.11c.18-.01.31.07.39.25.29.59.44.92.45.98.08.24.17.97.27,2.2-.05.13-.07.27-.06.42s0,.29-.06.42c.03.37,0,.68-.11.94-.05.13-.06.35-.04.65l-.05.56c-.23.95-.34,1.54-.32,1.79l-.47,2.26c-.21.45-.33.89-.36,1.33-.31.77-.52,1.25-.62,1.44-.46,1.21-.97,2.09-1.55,2.63-.05.13-.12.23-.21.29-.09.07-.16.17-.21.29-.74.74-1.73,1.16-2.95,1.26l-.93-.02ZM59.19,62.12c.06,0,.15.36.27,1.09l.2,1.37c.14.24.22.45.24.63l.33.62c.22.48.46,1.14.72,1.98.02.25.1.42.23.54,0,.06.04.12.11.18.07.06.1.15.11.27l.41.43c.26.16.4.31.41.43.02.31.32.75.89,1.32.57.57,1.14.96,1.71,1.16.32.1.6.14.84.12l.37-.03c.13.05.3.05.51,0,.21-.05.41-.11.59-.19.35-.21.64-.45.87-.72l.85-.9c.23-.14.39-.53.46-1.15.19-.63.29-1.04.27-1.23l.04-.65c.11-.13.17-.23.16-.29,0-.12.01-.25.06-.38.05-.13.1-.25.15-.38.14-.51.21-.79.21-.85v-.09c-.21-.17-.2-.48.01-.93.17-.2.25-.39.23-.57l.11-.93c.06,0,.14-.16.24-.48.18-.76.25-1.53.18-2.33l-.11-1.38-.04-.46c-.23.2-.56.32-.99.36-.18.01-.4-.03-.66-.13-.26-.1-.45-.27-.6-.51l-.43-.71c-.14-.23-.18-.36-.12-.36.12,0,.18-.08.17-.2-.01-.18,0-.28.07-.28l.08-.1c.11-.13.2-.14.28-.02l.28.07-.2-1.37c-.07-.86-.14-1.32-.2-1.37-.14-.23-.22-.38-.22-.45.04-.25-.05-.64-.28-1.18l-.55-1.07-.22-.45-.41-.43c-.08-.18-.18-.26-.3-.25s-.19-.11-.21-.35c.05-.19-.03-.37-.23-.54-.07-.06-.13-.13-.2-.22-.07-.09-.11-.16-.11-.22,0-.12-.06-.23-.16-.31s-.21-.12-.33-.11-.31-.04-.57-.14c-.45-.21-.76-.22-.93-.02,0,.06-.08.1-.27.11-.12,0-.3.09-.54.23l-.35.31-.53.32c-.52.47-.79.87-.83,1.18.01.18-.04.28-.16.29l-.4.77-.48.87c-.1.26-.15.47-.13.66.02.31-.05.56-.22.76-.09.38-.13.69-.11.93l-.21.85c-.1.32-.11.5-.05.56l-.14.57c-.11.13-.18.29-.19.48-.02.19-.01.43.01.74.04.55.04.89-.01,1.02l-.08,1.3.02,1.39c-.03.43,0,.71.07.83Z"/>
  <path class="cls-1" d="M91.98,75.95l-.39-.25c0-.06-.04-.14-.11-.22-.07-.09-.14-.16-.2-.21l-.51-.61c-.21-.35-.41-.8-.57-1.34-.17-.54-.3-1.06-.4-1.54-.3-3.68-.43-6.08-.4-7.19l.02-3.24-.03-1.48-.02-1.39c.14-.57.17-1.34.09-2.32.05-.19.06-.39.04-.61s0-.42.04-.61l.09-1.12-.05-.64c.07-.62.01-2.16-.19-4.62-.06-.8-.15-1.48-.26-2.06-.11-.58-.22-.83-.34-.76l-.15.47c0,.06-.03.17-.11.33-.08.16-.15.28-.2.34l-.22.67-.14.57-.22.76-.22.76c-.11.13-.16.29-.15.47-.33,1.32-.64,2.37-.95,3.13-.15.38-.23.61-.22.67l-.22.67-.21.85-.29.95-.67,2c-.14.51-.24.82-.29.95l-.29.95-.39.96-.23.57-.7,1.63c-.27.45-.43.81-.47,1.06l-.3.86-.66.98-.65,1.07c-.55.79-1.04,1.26-1.46,1.41-.3.15-.66.24-1.09.27-.49.04-.88-.02-1.17-.18-.29-.16-.62-.54-.97-1.13l-.41-.52c-.02-.31-.08-.58-.16-.82-.32-.84-.57-1.71-.77-2.62-.2-.91-.33-1.73-.38-2.47l-.05-1.76c.03-.37.03-.74,0-1.11s-.02-.65.02-.84c.05-.19.04-.68-.03-1.48l-.04-.55c-.09-.36-.12-.73-.09-1.1.04-.31-.02-1.45-.18-3.41-.14-1.72-.2-2.79-.17-3.23.02-.56.06-.81.12-.75.07.06.13.05.18-.01.06-.07.11-.16.16-.29.06-.07.12-.07.18-.01h.18s.21.25.21.25c.14.17.3.25.48.24s.44.15.78.49c.21.35.37.74.47,1.17.19.85.32,1.7.39,2.56l.05.64.05.64c.1.42.12.76.08,1.01-.09.38-.06,1.55.1,3.51.08.98.15,1.5.22,1.56.07.06.09.15.07.27-.02.13-.06.25-.11.38l-.11.94c.04.49.03.77-.03.84-.05.19-.04.42.01.69.05.27.11.44.18.49.07.06.13.51.2,1.37.04.55.11.96.19,1.23.08.27.19.46.32.58,0,.06.02.12.06.18.04.06.02.09-.04.1l.12.36v.18s.35-.4.35-.4l.41-.68.24-.48c.06,0,.2-.2.42-.59l.65-1.16c.27-.45.4-.74.39-.87.04-.25.19-.69.45-1.33l.39-.96.29-.95c.11-.13.25-.39.4-.77-.01-.18.03-.34.15-.47.22-.33.41-.7.56-1.11.15-.41.22-.71.21-.9-.02-.24.08-.53.3-.86l.46-1.15c.24-.88.51-1.68.83-2.38.21-.45.28-.7.22-.76,0-.12.06-.38.22-.76.5-1.4.77-2.28.8-2.66-.01-.18,0-.32.06-.42.05-.1.08-.21.07-.33l.22-.67c.08-.56.39-1.3.93-2.21.11-.13.31-.33.6-.6l.72-.24c.86-.07,1.45.35,1.77,1.25l.53.79.21.35.16,1.93.16,2.02.11,1.38.14,1.75c.09.3.1.52.05.64l-.04.65v1.02c0,.06-.05.65-.14,1.77.07.86.05,1.36-.06,1.49-.14.57-.17,1.28-.1,2.14l.23,1.74c.1.42.12.73.07.92l-.11,2.05c.02.31.07.49.14.54.26.23.32.53.17.91-.09.38-.12.75-.1,1.12l.02,1.39c-.02,1.3.06,2.25.23,2.85l.4,1.45.11.27c.14.23.22.45.24.63.02.31.1.52.24.63.07.12.09.19.06.23-.03.03-.1.05-.23.06-.18.08-.29.24-.33.49l-.04.65-.18.11-.18.11-.29-.16Z"/>
  <path class="cls-1" d="M98.62,91.62l-.21-.35c0-.12-.12-.33-.33-.62-.23-.54-.35-.84-.35-.9-.14-.24-.23-.6-.27-1.09-.23-.6-.41-1.7-.54-3.29-.03-.37-.09-.67-.17-.91-.38-2.44-.73-5.59-1.04-9.45-.18-2.27-.25-3.9-.21-4.89v-1.11c-.04-.49-.03-.83.01-1.02-.03-.37-.09-.7-.17-1l-.1-1.2c.02-.56-.04-2.43-.18-5.63-.04-.55-.03-1.08.06-1.58v-1.2c-.04-.49-.04-.77.02-.84v-1.11s0-1.11,0-1.11c.02-.5.04-1.18.07-2.04.02-.87,0-1.67-.06-2.4l-.03-1.48.13-1.77c-.03-.37-.02-.65.02-.84v-1.2c.07-.62.1-1.06.08-1.3v-1.3s0-1.02,0-1.02l.03-.74-.04-.46-.28.02c-.25.02-.43.07-.54.14-.35.21-.56.32-.62.33-.25.02-.42.13-.53.32-.06.07-.26.18-.62.33-.25.02-.49.1-.72.24-.11.13-.55.38-1.33.76-.18.01-.27.08-.26.21l-.28.02-.71.43-.71.43-.53.32c-.35.21-.56.32-.62.33-.35.21-.56.35-.61.42-.35.21-.56.32-.62.33-.24.08-.47.32-.68.7,0,.12-.1.26-.34.4l-.26.21c-.05.13-.21.28-.47.46-.26.18-.51.33-.75.48-.23.14-.51.23-.81.25-.61.05-1.06-.1-1.33-.45-.33-.28-.52-.7-.56-1.25-.02-.24.02-.56.11-.93.2-.57.36-.86.48-.87s.18-.05.18-.11c.06,0,.15-.07.26-.21.12-.07.21-.08.28-.02l.38.06c.25-.02.38.06.39.25.07.06.36-.15.88-.63.05-.13.14-.23.25-.3.12-.07.28-.21.48-.41.2-.2.33-.36.38-.49-.01-.18.1-.29.35-.31.07.06.13.07.19.03.06-.04.12-.06.18-.06l.54-.23c.37-.03.61-.14.71-.34,0-.12.14-.23.44-.31l.72-.24.44-.31.36-.12c.18-.01.31-.06.36-.12l.73-.15c.54-.17.9-.32,1.07-.46.11-.13.2-.17.27-.11l.36-.12c.23-.14.45-.22.63-.24l.53-.32.44-.31c.24-.02.42-.09.54-.23l.54-.23c.18-.01.3-.05.36-.12,0-.06.05-.1.18-.11.18-.01.35-.27.49-.78.04-.31.03-.74-.01-1.3-.02-.31,0-.71.09-1.21.09-.38.12-.84.07-1.39.08-.5.1-1.06.05-1.67l.13-1.77c.05-.19.06-.38.05-.56s0-.34.05-.47l.14-1.68c.03-1.98.09-3.09.19-3.35,0-.06,0-.15.02-.28.02-.12,0-.19-.06-.18l.07-.28c.15-.44.31-1.17.47-2.17.23-1.01.37-1.54.43-1.61.29-.95.42-1.67.38-2.16-.03-.37-.02-.65.02-.84.16-.32.23-.6.21-.85l.12-.75c.09-.44.27-1.63.55-3.56.02-.5.16-1.06.42-1.7.21-.39.32-.67.3-.86,0-.06.06-.07.18-.01.13.05.25.01.36-.12l.17-.2.2.17c.07.06.1.15.11.27.01.18.12.33.31.44.31.04.51.24.6.6.09.36.13.82.11,1.38.01,1.67-.09,2.72-.3,3.17-.05.13-.07.27-.06.42s0,.29-.06.42c.03.37-.01.62-.12.75-.05.13-.16.69-.33,1.69l-.2.94c-.22,1.13-.3,1.97-.26,2.52v.18c.03.25-.04.47-.21.67l-.22.76c-.04.25-.14.57-.29.95-.16.26-.23.64-.19,1.13l.02.28c.07.06.01.55-.16,1.49l-.13,1.86c-.05.13-.07.27-.06.42s0,.29-.06.42c-.11.13-.15.38-.12.75l-.12.75c-.26,1.38-.37,2.35-.32,2.9l-.03.74c-.11.13-.15.47-.1,1.03l-.09,1.21-.07.28.45-.13c.31-.02.46-.1.45-.22.06-.07.14-.1.27-.11.18-.08.42-.17.72-.29.3-.12.54-.24.71-.38,0-.06.05-.1.18-.11l.26-.21c.59-.36,1.03-.55,1.34-.57h.09s.36-.13.36-.13c.11-.13.2-.2.26-.21l.35-.21c.05-.13.17-.2.35-.21.24-.02.46-.07.64-.14l.45-.22c.18-.01.3-.05.36-.12l.35-.21c.18-.01.3-.05.36-.12l.45-.22.35-.21c.11-.13.2-.2.26-.21.18-.01.3-.05.36-.12s.14-.1.27-.11.21-.05.27-.11l.72-.24c.48-.16.78-.25.9-.26.31-.02.52-.1.63-.24l.53-.32c.06-.07.13-.12.22-.16.09-.04.16-.12.21-.25l.35-.21c.12,0,.18-.05.18-.11l.36-.12c.24-.02.43-.06.54-.14.12-.07.17-.17.16-.29.05-.13.17-.2.35-.21.24-.02.4-.06.45-.13.12-.07.69-.24,1.72-.51l.36-.12c0-.12.05-.19.17-.2l.18-.11c0-.12.11-.19.35-.21l.35-.21c0-.12.11-.19.35-.21s.4.03.47.15c0,.06.04.14.11.22.07.09.17.16.29.21.52.27.61.63.27,1.09-.11.13-.17.23-.16.29-.05.13-.39.37-1.01.73-.62.36-1.05.55-1.3.57l-.18.11c-.06.07-.15.1-.27.11l-.27.11-.35.21c-.25.02-.36.09-.35.21-.18.01-.42.13-.71.34-.3.09-.72.24-1.26.47-.24.14-.41.22-.54.23-.06.07-.13.1-.22.11s-.17.05-.22.11c-.35.21-.62.33-.81.34l-.45.13c-.06.07-.18.11-.36.12-.06,0-.15.07-.26.21l-.27.11c-.31.02-.52.07-.64.14l-.63.24c-.12,0-.24.08-.35.21-.17.2-.38.31-.62.33l-.63.24-.89.44-.71.34c-.47.29-.83.44-1.07.46-.18.01-.33.09-.45.22l-.27.11-.45.22-.72.24c-.24.08-.54.21-.89.4-.36.18-.65.35-.89.49l-.81.34c-.77.37-1.19.62-1.24.75-.05.13-.06.38-.03.74.02.25-.01.62-.09,1.12l-.03.84c.03.43-.02.84-.18,1.22-.11.19-.12.75-.05,1.67.07.12.06.37-.03.74-.08.5-.11,1-.07,1.49,0,.74-.09,1.61-.25,2.61-.03.37-.01.62.06.74.07.12.09.39.07.83-.1,1.86-.1,3.34-.01,4.45.11,1.35.12,2.21.02,2.59-.09.38-.1,1.03-.03,1.95l.14.64.04.55c-.11.13-.16.86-.15,2.19.01,1.33.13,2.94.34,4.83.06.74.08,1.41.07,2.03-.03.37,0,1.05.07,2.03.05.61.03,1.11-.06,1.49l-.02.93c.03.43.1.92.21,1.46.11.55.23,1,.39,1.36.1.49.17,1.34.21,2.58.04.49.13.85.27,1.09.15.3.21.66.18,1.1-.05.19-.06.44-.03.74l.27,2.2c.14,1.78.29,2.79.43,3.02.07.06.12.3.15.73l.15.73c.07.12.13.42.17.91s.03.74-.03.74c-.13-.05-.3.09-.52.41l-.15.38c0,.06-.02.12-.08.19-.06.07-.15.1-.27.11s-.25-.07-.39-.25Z"/>
  <path class="cls-1" d="M110.11,69.95l-.46.04c-.31.02-.81-.09-1.51-.34-.96-.35-1.51-.68-1.65-.98l-.61-.69c-.46-.39-.81-.89-1.05-1.49-.08-.18-.15-.31-.22-.4-.07-.09-.16-.13-.29-.12-.31-.04-.6-.17-.87-.39-.08-.18-.27-.32-.59-.42-.14-.17-.18-.29-.12-.36s.05-.19-.03-.37c-.07-.12-.08-.21-.02-.28s.21-.11.45-.13c.18-.01.3-.12.35-.31l.25-.3c.18-.01.27-.08.26-.21l-.11-1.38c-.06-.8-.05-1.39.04-1.76l.11-.94.04-.65c.14-.57.23-1.01.26-1.32l.22-.76c0-.06.06-.38.2-.94.04-.25.1-.49.17-.71.07-.22.14-.4.19-.52l.35-1.42.46-1.24c.11-.19.23-.44.36-.72.13-.29.31-.6.53-.92.31-.7.76-1.53,1.33-2.47.57-.94,1.03-1.55,1.38-1.82l.78-.71c.34-.34.81-.62,1.41-.85.48-.22.96-.36,1.45-.4s.8,0,.94.11c.38.15.76.46,1.14.93.38.46.59.97.63,1.52l-.11.94c-.15.38-.22.7-.2.94-.32,1.45-.57,2.45-.77,3.03l-.25.39c0,.12-.04.31-.14.57l-.55,1.25-.83,2.38-.24.48-.56,1.06-.48.96c-.06.07-.36.55-.9,1.46-.17.2-.32.43-.45.68-.13.26-.2.45-.19.57.01.18-.2.54-.65,1.07l-.41.68c-.22.33-.49.67-.8,1.04-.31.37-.58.65-.81.85l-.61.51-.35.31.11.27.31.44.41.43.5.42.3.25c.06,0,.19.08.39.25s.67.29,1.42.35c.55-.04.98-.05,1.3-.01.49-.04.82-.13,1-.27.12,0,.36-.12.71-.34.59-.29,1.03-.61,1.31-.94.06-.07.14-.1.27-.11l.35-.21.62-.33c.66-.24.98-.48.96-.73.1-.25.3-.43.61-.51.24-.02.42-.09.54-.23.11-.13.55-.42,1.32-.85.4-.34.73-.55.97-.63l.52-.41.59-.7c.39-.46.65-.73.77-.8.06,0,.12-.04.18-.11s.08-.13.08-.19c.11-.13.28-.3.51-.51.23-.2.44-.34.61-.42l.1.08c.01.18.24.26.67.22.31-.02.53.02.66.13.07.06.11.18.12.36l-.15.38c-.06.07-.11.15-.17.25-.05.1-.11.21-.16.34-.26.58-.88,1.31-1.86,2.19-.06.07-.16.15-.3.26-.15.1-.25.22-.3.35l-.61.42-.52.41c-.06.07-.13.13-.22.2-.09.07-.16.11-.22.11l-.35.21-.43.41c-.35.21-.59.39-.7.52-.29.21-.67.46-1.14.74l-1.06.64-.79.53c-.71.37-1.13.55-1.25.56l-.81.34c-.53.29-.98.48-1.34.57-.36.09-.97.17-1.83.24l-.47-.05ZM106.08,61.29c.09.3.16.42.21.35.06,0,.14-.13.25-.39.1-.25.21-.42.33-.49.11-.13.25-.31.42-.54.17-.23.28-.41.33-.54l.08-.19c.34-.4.66-.98.97-1.75.05-.13.1-.25.15-.38.05-.13.07-.25.06-.38s.07-.28.24-.48l.51-.6c.1-.32.26-.55.5-.69.28-.33.41-.68.38-1.05,0-.12.17-.54.55-1.25.36-.83.57-1.31.62-1.44-.01-.18.06-.38.23-.57.22-.26.33-.49.32-.67l.24-.48c.11-.19.24-.47.4-.82.16-.35.26-.65.3-.9l.13-.66-.02-.28c.12,0,.16-.26.12-.75v-.18c-.09-.12-.24-.13-.48-.05-.24.08-.48.22-.71.43l-.71.43c-.24.14-.35.25-.35.31l-.51.5c-.53.35-.83.78-.92,1.28-.1.26-.21.45-.32.58-.24.14-.4.34-.51.6-.64,1.29-1.01,2-1.12,2.13-.16.26-.24.48-.22.67,0,.06-.04.28-.13.66-.47,1.09-.75,2.16-.85,3.22.02.25-.02.56-.11.94-.09.38-.13.69-.11.93l-.14.57c-.11.13-.15.38-.12.75l-.03.74.04.46Z"/>
  <path class="cls-1" d="M143.04,71.82l-.39-.25c0-.06-.04-.14-.11-.22-.07-.09-.14-.16-.2-.21l-.51-.61c-.21-.35-.41-.8-.57-1.34-.17-.54-.3-1.06-.4-1.54-.3-3.68-.43-6.08-.4-7.19l.02-3.24-.03-1.48-.02-1.39c.14-.57.17-1.34.09-2.32.05-.19.06-.39.04-.61s0-.42.04-.61l.09-1.12-.05-.64c.07-.62.01-2.16-.19-4.62-.06-.8-.15-1.48-.26-2.06-.11-.58-.22-.83-.34-.76l-.15.47c0,.06-.03.17-.11.33-.08.16-.15.28-.2.34l-.22.67-.14.57-.22.76-.22.76c-.11.13-.16.29-.15.47-.33,1.32-.64,2.37-.95,3.13-.15.38-.23.61-.22.67l-.22.67-.21.85-.29.95-.67,2c-.14.51-.24.82-.29.95l-.29.95-.39.96-.23.57-.7,1.63c-.27.45-.43.81-.47,1.06l-.3.86-.66.98-.65,1.07c-.55.79-1.04,1.26-1.46,1.41-.3.15-.66.24-1.09.27-.49.04-.88-.02-1.17-.18-.29-.16-.62-.54-.97-1.13l-.41-.52c-.02-.31-.08-.58-.16-.82-.32-.84-.57-1.71-.77-2.62-.2-.91-.33-1.73-.38-2.47l-.05-1.76c.03-.37.03-.74,0-1.11s-.02-.65.02-.84c.05-.19.04-.68-.03-1.48l-.04-.55c-.09-.36-.12-.73-.09-1.1.04-.31-.02-1.45-.18-3.41-.14-1.72-.2-2.79-.17-3.23.02-.56.06-.81.12-.75.07.06.13.05.18-.01.06-.07.11-.16.16-.29.06-.07.12-.07.18-.01h.18s.21.25.21.25c.14.17.3.25.48.24s.44.15.78.49c.21.35.37.74.47,1.17.19.85.32,1.7.39,2.56l.05.64.05.64c.1.42.12.76.08,1.01-.09.38-.06,1.55.1,3.51.08.98.15,1.5.22,1.56.07.06.09.15.07.27-.02.13-.06.25-.11.38l-.11.94c.04.49.03.77-.03.84-.05.19-.04.42.01.69.05.27.11.44.18.49.07.06.13.51.2,1.37.04.55.11.96.19,1.23.08.27.19.46.32.58,0,.06.02.12.06.18.04.06.02.09-.04.1l.12.36v.18s.35-.4.35-.4l.41-.68.24-.48c.06,0,.2-.2.42-.59l.65-1.16c.27-.45.4-.74.39-.87.04-.25.19-.69.45-1.33l.39-.96.29-.95c.11-.13.25-.39.4-.77-.01-.18.03-.34.15-.47.22-.33.41-.7.56-1.11.15-.41.22-.71.21-.9-.02-.24.08-.53.3-.86l.46-1.15c.24-.88.51-1.68.83-2.38.21-.45.28-.7.22-.76,0-.12.06-.38.22-.76.5-1.4.77-2.28.8-2.66-.01-.18,0-.32.06-.42.05-.1.08-.21.07-.33l.22-.67c.08-.56.39-1.3.93-2.21.11-.13.31-.33.6-.6l.72-.24c.86-.07,1.45.35,1.77,1.25l.53.79.21.35.16,1.93.16,2.02.11,1.38.14,1.75c.09.3.1.52.05.64l-.04.65v1.02c0,.06-.05.65-.14,1.77.07.86.05,1.36-.06,1.49-.14.57-.17,1.28-.1,2.14l.23,1.74c.1.42.12.73.07.92l-.11,2.05c.02.31.07.49.14.54.26.23.32.53.17.91-.09.38-.12.75-.1,1.12l.02,1.39c-.02,1.3.06,2.25.23,2.85l.4,1.45.11.27c.14.23.22.45.24.63.02.31.1.52.24.63.07.12.09.19.06.23-.03.03-.1.05-.23.06-.18.08-.29.24-.33.49l-.04.65-.18.11-.18.11-.29-.16Z"/>
  <path class="cls-1" d="M167.13,83.39c-.45-1.75-.68-3.43-.69-5.04v-2.41s0-4.35,0-4.35l.05-1.67c-.02-.25,0-.49.03-.74.04-.25.08-.5.12-.75-.02-.25-.01-.55.02-.93.03-.37.03-.71.01-1.02l.06-1.58.11-.94c-.03-.37-.03-.71.01-1.02l.17-3.63.04-1.86.24-2.71.04-1.76c.06-.07.11-.94.16-2.61.05-.13.07-.31.05-.56s0-.46.04-.65c-.03-.37.03-1.17.17-2.42.03-.37.06-.79.08-1.26.02-.47.02-.88,0-1.25l.02-.93-.33-.62c-.76-1.05-1.17-1.54-1.23-1.47l-.87,3.03c-.29,1.01-.56,1.81-.83,2.38l-.59,1.9c-.4,1.21-.75,2.13-1.07,2.77l-.95,2.02c-.61,1.59-1.28,2.91-2,3.96-.16.32-.31.58-.45.78-.14.2-.23.36-.28.49-.43.84-.82,1.52-1.18,2.04-.36.52-.83,1.06-1.4,1.6-.74.74-1.43,1.35-2.07,1.83-1.1.89-2.36,1.39-3.77,1.51-2.21.18-3.84-.58-4.91-2.29-.28-.41-.6-1.25-.94-2.52-.11-.61-.17-1.68-.17-3.23.09-1.12.22-2.21.38-3.27.2-1.31.5-2.6.89-3.87.16-.32.26-.61.3-.86.04-.25.09-.41.15-.47.14-.5.32-.98.53-1.43l.54-1.34c.06-.07.09-.16.12-.29.02-.13.09-.25.2-.39.17-.2.36-.55.56-1.06,1.29-2.39,2.5-4.24,3.62-5.57.51-.6,1.2-1.19,2.08-1.79.88-.59,1.67-1.05,2.39-1.35,1.25-.53,2.25-.83,2.98-.89.99-.02,2.05.14,3.19.48.88.24,1.62.52,2.2.84l.48.24c0-.12.07-.45.24-.99.17-.54.37-1.34.59-2.41.41-1.76.82-3.25,1.21-4.45.39-1.27.57-2.08.54-2.45-.02-.31.06-.81.25-1.5l.33-1.6.2-.94c.48-2.45.74-3.86.77-4.23l.3-1.97c.09-.38.26-1.72.51-4.02.18-1.56.3-2.8.35-3.73.3-2.37.53-3.72.69-4.04.16-.32.48-.5.97-.54.8-.06,1.23.3,1.29,1.1.02.25-.08.93-.3,2.06.02.25,0,.49-.03.74-.04.25-.08.5-.12.75l-.23,1.78c-.31,1.51-.54,2.85-.69,4.04l-.1,1.03-.16,1.4c.05.61,0,1.42-.17,2.42-.03.37-.06.75-.09,1.12-.03.37-.03.71-.01,1.02l-.16,1.4c-.11.93-.13,1.86-.05,2.78.03.43-.01,1.02-.13,1.77l-.16,1.4-.06,1.49c-.29,2.49-.45,4.33-.48,5.5-.12,1.62-.26,2.89-.43,3.83-.02.56-.1,1.09-.24,1.59l-.05.47.32.53c.37.71.73,1.58,1.09,2.6.36,1.02.57,1.9.63,2.63.08.98-.2,2.12-.84,3.4l-.22.67-.28.02-.46.04c-.17.2-.27.08-.31-.35v-.09s-.12.93-.12.93c.03.43-.04,1.36-.24,2.8v2.32s.05.55.05.55c.09.36.06,1.14-.09,2.32-.19.7-.26,1.35-.21,1.96v1.11c-.11.26-.14.57-.11.93.02.31,0,.77-.07,1.4l-.35,3.73-.12,1.95c.02.31.03.72,0,1.25-.02.53,0,1.07.04,1.62.04.49.05,1.01.03,1.57-.02.56-.04,1.02-.07,1.4-.05.19-.05.53-.01,1.02.09.3.1.89.05,1.76l-.04,1.76-.04.65-.19-.08c-.07-.06-.13-.05-.18.01l-.15.38c-.15.38-.26.61-.32.67l-.23.57c0,.12-.08.19-.26.21-.12,0-.19-.05-.2-.17ZM147.82,61.06c.37.77.69,1.3.96,1.59.46.4,1.16.55,2.08.48.31-.02.64-.11,1-.27.72-.24,1.31-.6,1.77-1.07.17-.2.43-.41.78-.62.23-.2.56-.55.98-1.05.42-.5.77-.97,1.04-1.43l.75-.99c.62-.73,1.16-1.73,1.61-3l.87-1.83c.42-.9.81-1.82,1.16-2.78l1.31-3.25.37-1.14c.06-.07.13-.26.23-.57.1-.32.27-.79.53-1.43.5-1.4.83-2.38.97-2.95.19-.69.28-1.1.27-1.23-.01-.18-.18-.32-.5-.42l-1.16-.56c-.39-.21-.74-.37-1.06-.47-.32-.1-.72-.16-1.22-.18-.31-.04-.68-.04-1.11,0-.24.08-.58.14-1,.17-.97.26-1.68.57-2.15.91-.47.35-1.01.89-1.63,1.61-.62.73-1.01,1.29-1.16,1.67-.26.64-.53,1.03-.83,1.18-.4.47-.81,1.08-1.24,1.86-.15.38-.48.96-.97,1.75-.28.39-.53.88-.76,1.45-.23.57-.39,1.08-.48,1.52.02.31-.07.72-.27,1.23-.59,1.9-.99,3.45-1.2,4.63-.15.45-.22,1.16-.2,2.15.08,1.72.16,2.73.25,3.04ZM167.24,37.82l.5.52c.34.34.5.45.49.33.06,0,.08-.15.06-.42s-.01-.51.04-.7l.15-1.59c.09-.38.11-.87.06-1.49l.21-1.96.1-1.03-.29,1.04-.96,4.15-.37,1.14Z"/>
  <path class="cls-1" d="M48.74,156.6c-.35-1.78-.48-3.47-.39-5.07l.13-2.4.28-4.35.15-1.67c0-.25.02-.49.08-.74.06-.25.11-.5.17-.74,0-.25.02-.55.07-.92.05-.37.08-.71.07-1.02l.15-1.57.16-.93c0-.37.02-.71.07-1.02l.38-3.61.14-1.85.4-2.69.15-1.76c.06-.06.17-.93.31-2.59.06-.12.09-.31.08-.56s.02-.46.08-.65c0-.37.1-1.17.32-2.41.05-.37.11-.79.16-1.25.05-.46.07-.88.07-1.25l.07-.92-.29-.64c-.7-1.09-1.08-1.61-1.14-1.55l-1.04,2.98c-.35.99-.67,1.77-.97,2.33l-.7,1.86c-.47,1.18-.88,2.08-1.23,2.7l-1.07,1.96c-.71,1.55-1.45,2.83-2.23,3.83-.18.31-.34.56-.49.75-.15.19-.26.34-.31.47-.48.81-.91,1.47-1.3,1.97-.39.5-.89,1-1.49,1.51-.79.69-1.51,1.26-2.18,1.71-1.15.83-2.44,1.25-3.85,1.28-2.21.05-3.8-.81-4.76-2.57-.26-.42-.52-1.28-.79-2.57-.08-.61-.07-1.69.02-3.23.16-1.11.35-2.19.58-3.24.28-1.3.65-2.57,1.12-3.81.18-.31.29-.59.35-.84.06-.25.11-.4.17-.47.17-.5.38-.96.62-1.4l.62-1.31c.06-.06.1-.16.13-.28.03-.12.1-.25.22-.37.18-.19.39-.53.62-1.03,1.43-2.31,2.74-4.09,3.95-5.35.54-.57,1.27-1.12,2.18-1.66.91-.54,1.73-.94,2.47-1.21,1.28-.46,2.29-.7,3.03-.71.99.04,2.04.27,3.15.67.87.29,1.58.61,2.14.97l.47.27c0-.12.1-.45.3-.98.2-.53.45-1.32.73-2.37.52-1.73,1.01-3.19,1.48-4.37.47-1.24.69-2.05.69-2.42,0-.31.11-.8.34-1.48l.43-1.58.26-.93c.62-2.41.96-3.81,1.02-4.18l.42-1.95c.11-.37.36-1.7.75-3.99.27-1.54.46-2.78.57-3.7.44-2.35.75-3.68.93-3.99.18-.31.51-.47,1-.48.8-.02,1.21.38,1.23,1.17,0,.25-.13.93-.42,2.04,0,.25-.02.49-.08.74-.06.25-.11.5-.17.74l-.33,1.76c-.4,1.49-.71,2.82-.93,3.99l-.16,1.02-.25,1.39c.01.62-.09,1.42-.32,2.41-.05.37-.11.74-.16,1.11-.05.37-.08.71-.07,1.02l-.25,1.39c-.16.93-.24,1.85-.22,2.77,0,.43-.07,1.02-.24,1.76l-.25,1.39-.15,1.48c-.44,2.47-.71,4.29-.81,5.46-.21,1.61-.43,2.87-.66,3.8-.05.55-.16,1.08-.34,1.58l-.08.46.29.55c.32.73.64,1.62.93,2.66.3,1.04.46,1.93.47,2.67.02.99-.32,2.1-1.04,3.35l-.26.65h-.28s-.46.02-.46.02c-.18.19-.28.07-.28-.36v-.09s-.17.93-.17.93c0,.43-.13,1.36-.4,2.78l-.14,2.31v.55c.08.37,0,1.14-.22,2.31-.23.68-.34,1.33-.33,1.95l-.07,1.11c-.12.25-.17.56-.16.93,0,.31-.05.77-.15,1.39l-.57,3.71-.24,1.94c0,.31-.02.72-.07,1.25-.05.52-.07,1.06-.06,1.62.01.49,0,1.02-.06,1.57-.05.55-.1,1.02-.15,1.39-.06.19-.08.52-.07,1.02.07.31.05.89-.05,1.76l-.15,1.76-.08.65-.19-.09c-.06-.06-.13-.06-.18,0l-.18.37c-.18.37-.3.59-.36.65l-.27.56c0,.12-.09.19-.27.19-.12,0-.19-.06-.19-.18ZM30.78,133.17c.32.79.61,1.34.87,1.64.44.42,1.12.62,2.04.6.31,0,.64-.07,1.01-.21.73-.2,1.34-.52,1.83-.96.18-.19.45-.38.82-.57.24-.19.59-.52,1.04-.99.45-.47.83-.93,1.12-1.36l.81-.94c.66-.69,1.26-1.66,1.78-2.9l.98-1.78c.47-.87.92-1.77,1.33-2.71l1.5-3.17.44-1.12c.06-.06.15-.25.27-.56.12-.31.32-.78.62-1.4.58-1.37.97-2.33,1.14-2.89.23-.68.35-1.08.34-1.21,0-.18-.16-.33-.47-.45l-1.12-.62c-.37-.24-.72-.41-1.03-.53-.31-.12-.71-.2-1.21-.25-.31-.05-.68-.08-1.11-.07-.25.07-.58.1-1.01.11-.98.21-1.71.47-2.2.79-.49.32-1.06.82-1.72,1.51-.66.69-1.08,1.22-1.26,1.6-.3.62-.59,1-.9,1.13-.42.44-.87,1.03-1.35,1.78-.18.37-.53.94-1.07,1.69-.3.38-.58.84-.85,1.4-.26.56-.45,1.06-.57,1.49,0,.31-.11.71-.34,1.21-.7,1.86-1.19,3.38-1.47,4.56-.18.44-.28,1.15-.32,2.13-.02,1.72,0,2.74.07,3.05ZM51.55,111.12l.47.54c.32.36.47.48.47.36.06,0,.09-.14.08-.42s.02-.51.08-.69l.24-1.57c.11-.37.17-.86.15-1.48l.33-1.95.16-1.02-.35,1.02-1.2,4.09-.44,1.12Z"/>
  <path class="cls-1" d="M64.59,138.26h-.46c-.31.02-.8-.13-1.49-.42-.93-.41-1.46-.77-1.59-1.07l-.57-.73c-.44-.42-.76-.94-.96-1.55-.07-.18-.13-.32-.19-.41-.06-.09-.16-.13-.28-.13-.31-.05-.59-.2-.84-.44-.07-.18-.25-.33-.56-.45-.13-.18-.16-.3-.1-.37s.06-.19,0-.37c-.06-.12-.07-.21,0-.28s.21-.1.46-.1c.18,0,.31-.1.36-.28l.27-.28c.18,0,.28-.07.27-.19l-.03-1.38c-.02-.8.03-1.39.15-1.76l.16-.93.08-.65c.17-.56.29-.99.34-1.3l.26-.74c0-.06.08-.37.26-.93.06-.25.13-.48.22-.7.09-.22.16-.39.22-.51l.43-1.39.53-1.21c.12-.19.25-.42.4-.7.15-.28.34-.58.58-.89.35-.68.85-1.48,1.47-2.39.63-.9,1.12-1.49,1.49-1.74l.82-.66c.36-.32.85-.57,1.46-.77.49-.2.98-.3,1.47-.31s.8.04.93.16c.37.18.73.51,1.08.99.35.49.53,1,.54,1.56l-.16.93c-.18.37-.26.68-.26.93-.4,1.43-.72,2.42-.95,2.98l-.27.38c0,.12-.06.31-.17.56l-.62,1.21-.97,2.33-.27.47-.62,1.03-.53.93c-.06.06-.39.53-.99,1.41-.18.19-.35.41-.49.66-.15.25-.22.44-.22.56,0,.19-.24.53-.72,1.03l-.45.66c-.24.31-.53.64-.86.99-.33.35-.62.61-.86.8l-.64.48-.36.29.1.27.29.46.38.45.47.45.28.27c.06,0,.19.09.38.27s.65.32,1.39.43c.55-.01.98.01,1.29.06.49-.01.83-.08,1.01-.21.12,0,.37-.1.73-.29.61-.26,1.06-.55,1.37-.86.06-.06.15-.1.27-.1l.37-.19.64-.29c.67-.2,1.01-.42,1-.67.12-.25.33-.41.64-.48.25,0,.43-.07.55-.2.12-.13.58-.38,1.37-.77.42-.32.76-.51,1-.58l.55-.38.63-.66c.42-.44.69-.69.81-.76.06,0,.12-.03.18-.1s.09-.12.09-.19c.12-.13.3-.28.54-.47.24-.19.45-.32.64-.38l.09.09c0,.18.22.27.65.26.31,0,.52.05.65.17.06.06.1.18.1.37l-.18.37c-.06.06-.12.14-.18.23-.06.09-.12.2-.18.33-.3.56-.96,1.25-1.99,2.07-.06.06-.17.14-.32.24-.15.1-.26.21-.32.33l-.64.38-.55.38c-.06.06-.14.13-.23.19-.09.06-.17.1-.23.1l-.37.19-.45.38c-.37.19-.61.35-.73.48-.3.19-.7.42-1.19.67l-1.1.58-.82.48c-.73.32-1.16.49-1.28.49l-.82.29c-.55.26-1.01.42-1.37.49-.37.07-.98.11-1.84.13l-.46-.08ZM61.08,129.38c.07.31.13.43.19.37.06,0,.15-.13.27-.38.12-.25.24-.4.36-.47.12-.13.27-.3.45-.52.18-.22.3-.39.36-.52l.09-.19c.36-.38.72-.94,1.07-1.69.06-.12.12-.25.18-.37.06-.12.09-.25.08-.37s.09-.28.27-.47l.54-.57c.12-.31.3-.53.54-.66.3-.31.45-.66.44-1.03,0-.12.2-.53.62-1.21.41-.81.65-1.28.71-1.4,0-.18.08-.37.26-.56.24-.25.36-.47.36-.65l.27-.47c.12-.19.27-.45.44-.79.18-.34.29-.64.35-.88l.17-.65v-.28c.12,0,.17-.25.16-.74v-.18c-.07-.12-.22-.15-.47-.08-.25.07-.49.2-.73.38l-.73.39c-.24.13-.36.22-.36.28l-.54.47c-.55.32-.88.73-.99,1.22-.12.25-.24.44-.36.56-.24.13-.42.32-.54.57-.71,1.25-1.13,1.93-1.25,2.06-.18.25-.27.47-.26.65,0,.06-.06.28-.17.65-.53,1.06-.88,2.11-1.04,3.16,0,.25-.05.56-.16.93-.12.37-.17.68-.16.93l-.17.56c-.12.13-.18.37-.17.74l-.08.74v.46Z"/>
  <path class="cls-1" d="M85.17,137.81c-.12,0-.5-.11-1.12-.35-.87-.41-1.53-1.11-1.98-2.08-.58-1.1-.87-1.74-.87-1.92,0-.25-.04-.46-.11-.64-.14-.55-.25-1.33-.33-2.35-.08-1.01-.11-2.08-.07-3.18.08-2.09.15-3.2.21-3.33.06-.12.09-.29.08-.51s.02-.45.08-.69c-.03-1.35.04-2.43.21-3.24.11-.37.17-.77.16-1.2.05-.31.2-.8.43-1.49.12-.25.17-.53.17-.83s.05-.65.16-1.02l.26-.65c.11-.43.17-.77.16-1.02l-.1-.18c-.19-.24-.19-.46-.01-.65.12,0,.18-.16.17-.47,0-.25.08-.46.26-.65s.39-.32.64-.38c.61-.14,1.11-.05,1.48.25.38.3.57.79.59,1.46.01.62-.07,1.11-.25,1.48l-.08.65c0,.25-.02.4-.08.46-.12.13-.22.31-.31.56-.09.25-.13.43-.13.56l-.25,1.02c-.06.19-.08.56-.07,1.11v.28c.19.06.19.18.01.37-.06.06-.15.28-.26.65,0,.31-.05.52-.17.65s-.18.31-.17.56.04.37.1.37c.13.12.07.55-.16,1.3l-.16,1.11c.06.12.08.23.05.32-.03.09-.04.17-.04.23-.12.13-.18.31-.17.56l-.25,1.11c-.11.62-.16,1.05-.16,1.3.01.68,0,1.2-.06,1.57l.03,1.29c.06.12.1.37.11.74l.11.83c.06.18.1.4.11.64s.04.43.1.55c.06.06.1.24.1.55.01.55.17.92.49,1.1.13.12.19.21.19.27,0,.37.41.7,1.22.99.43.05.65.02.64-.11s.09-.22.27-.28c.61-.2,1.12-.67,1.54-1.42l1.43-2.06.36-.38.18-.47.26-.56c0-.25.08-.4.27-.47l.45-.66c.12-.31.23-.53.36-.65l.27-.47.27-.56.27-.47c0-.06.05-.28.17-.65.12-.13.18-.31.17-.56s.08-.4.27-.47l.18-.37c0-.18.08-.4.26-.65l.62-1.21c.18-.43.38-.78.62-1.03l.36-.65c0-.12.02-.26.08-.42.06-.15.12-.33.17-.51.06-.19.08-.43.08-.74,0-.43.05-.71.17-.83l.18-.28.26-.65c.18-.31.23-.65.16-1.02,0-.18.09-.34.27-.47l.26-.56c0-.18.11-.46.35-.84l.7-1.58c.12-.13.18-.4.17-.83,0-.31.05-.59.17-.83.18-.19.21-.31.08-.37,0-.18.05-.37.17-.56l.17-.47h.18c.19.05.4.02.64-.11.24-.13.44-.19.6-.2s.26.09.33.27l.1.37v.46c.08.37.03.94-.14,1.71-.17.77-.37,1.38-.61,1.81l-.17.56c0,.18-.05.34-.17.47l-.08.37-.17.47-.17.56-.26.84-.26.56c0,.12-.08.34-.26.65l-.35.84-.26.84-.26.56c0,.12-.03.22-.09.28l-.08.37-.26.56c-.06.06-.18.28-.36.65,0,.12-.09.28-.27.47l-.08.37-.27.56c-.3.5-.48.81-.53.93l-.35.75-.17.47c0,.12-.06.29-.17.51-.12.22-.27.51-.44.89l-.62,1.12c-.47,1-.74,1.53-.8,1.59s-.09.16-.09.28c0,.18-.26.56-.81,1.13l-.36.65c0,.06-.06.16-.18.28l-.45.66c-.36.56-.93,1.21-1.71,1.93-.78.73-1.42,1.22-1.91,1.47-.37.13-.7.2-1.01.21s-.52-.02-.65-.08Z"/>
  <path class="cls-1" d="M108.52,137.31h-.46c-.31.02-.8-.13-1.49-.42-.93-.41-1.46-.77-1.59-1.07l-.57-.73c-.44-.42-.76-.94-.96-1.55-.07-.18-.13-.32-.19-.41-.06-.09-.16-.13-.28-.13-.31-.05-.59-.2-.84-.44-.07-.18-.25-.33-.56-.45-.13-.18-.16-.3-.1-.37s.06-.19,0-.37c-.06-.12-.07-.21,0-.28s.21-.1.46-.1c.18,0,.31-.1.36-.28l.27-.28c.18,0,.28-.07.27-.19l-.03-1.38c-.02-.8.03-1.39.15-1.76l.16-.93.08-.65c.17-.56.29-.99.34-1.3l.26-.74c0-.06.08-.37.26-.93.06-.25.13-.48.22-.7.09-.22.16-.39.22-.51l.43-1.39.53-1.21c.12-.19.25-.42.4-.7.15-.28.34-.58.58-.89.35-.68.85-1.48,1.47-2.39.63-.9,1.12-1.49,1.49-1.74l.82-.66c.36-.32.85-.57,1.46-.77.49-.2.98-.3,1.47-.31s.8.04.93.16c.37.18.73.51,1.08.99.35.49.53,1,.54,1.56l-.16.93c-.18.37-.26.68-.26.93-.4,1.43-.72,2.42-.95,2.98l-.27.38c0,.12-.06.31-.17.56l-.62,1.21-.97,2.33-.27.47-.62,1.03-.53.93c-.06.06-.39.53-.99,1.41-.18.19-.35.41-.49.66-.15.25-.22.44-.22.56,0,.19-.24.53-.72,1.03l-.45.66c-.24.31-.53.64-.86.99-.33.35-.62.61-.86.8l-.64.48-.36.29.1.27.29.46.38.45.47.45.28.27c.06,0,.19.09.38.27s.65.32,1.39.43c.55-.01.98.01,1.29.06.49-.01.83-.08,1.01-.21.12,0,.37-.1.73-.29.61-.26,1.06-.55,1.37-.86.06-.06.15-.1.27-.1l.37-.19.64-.29c.67-.2,1.01-.42,1-.67.12-.25.33-.41.64-.48.25,0,.43-.07.55-.2.12-.13.58-.38,1.37-.77.42-.32.76-.51,1-.58l.55-.38.63-.66c.42-.44.69-.69.81-.76.06,0,.12-.03.18-.1s.09-.12.09-.19c.12-.13.3-.28.54-.47.24-.19.45-.32.64-.38l.09.09c0,.18.22.27.65.26.31,0,.52.05.65.17.06.06.1.18.1.37l-.18.37c-.06.06-.12.14-.18.23-.06.09-.12.2-.18.33-.3.56-.96,1.25-1.99,2.07-.06.06-.17.14-.32.24-.15.1-.26.21-.32.33l-.64.38-.55.38c-.06.06-.14.13-.23.19-.09.06-.17.1-.23.1l-.37.19-.45.38c-.37.19-.61.35-.73.48-.3.19-.7.42-1.19.67l-1.1.58-.82.48c-.73.32-1.16.49-1.28.49l-.82.29c-.55.26-1.01.42-1.37.49-.37.07-.98.11-1.84.13l-.46-.08ZM105,128.43c.07.31.13.43.19.37.06,0,.15-.13.27-.38.12-.25.24-.4.36-.47.12-.13.27-.3.45-.52.18-.22.3-.39.36-.52l.09-.19c.36-.38.72-.94,1.07-1.69.06-.12.12-.25.18-.37.06-.12.09-.25.08-.37s.09-.28.27-.47l.54-.57c.12-.31.3-.53.54-.66.3-.31.45-.66.44-1.03,0-.12.2-.53.62-1.21.41-.81.65-1.28.71-1.4,0-.18.08-.37.26-.56.24-.25.36-.47.36-.65l.27-.47c.12-.19.27-.45.44-.79.18-.34.29-.64.35-.88l.17-.65v-.28c.12,0,.17-.25.16-.74v-.18c-.07-.12-.22-.15-.47-.08-.25.07-.49.2-.73.38l-.73.39c-.24.13-.36.22-.36.28l-.54.47c-.55.32-.88.73-.99,1.22-.12.25-.24.44-.36.56-.24.13-.42.32-.54.57-.71,1.25-1.13,1.93-1.25,2.06-.18.25-.27.47-.26.65,0,.06-.06.28-.17.65-.53,1.06-.88,2.11-1.04,3.16,0,.25-.05.56-.16.93-.12.37-.17.68-.16.93l-.17.56c-.12.13-.18.37-.17.74l-.08.74v.46Z"/>
  <path class="cls-1" d="M129.52,156.71c0-.18-.04-.31-.1-.37,0-.31-.04-.52-.11-.64l-.21-1.1c-.08-.74-.15-1.83-.21-3.27-.06-1.45-.08-2.91-.05-4.38.07-2.46-.04-10.28-.32-23.44-.17-4.98-.29-7.6-.35-7.84l-.38-.64c-.19-.3-.29-.7-.3-1.19l-.4-1.56c-.27-.86-.4-1.5-.41-1.93-.15-1.1-.38-1.81-.69-2.11-.25-.36-.66-1.86-1.21-4.5l-.5-1.93c-.13-.43-.27-.95-.4-1.56-.01-.68-.12-1.23-.31-1.66l-.31-1.75c-.29-2.27-.64-3.92-1.03-4.96l-.2-.73c-.01-.49-.05-.86-.12-1.11l-.52-2.94c-.21-1.23-.38-2.02-.51-2.39-.2-.92-.31-1.56-.32-1.93l-.32-2.02c-.13-.49-.25-1.41-.34-2.76-.03-1.23.02-2.06.13-2.5.45-1.86.95-3.28,1.48-4.28.36-.56.87-.85,1.55-.86l.46.08c.5.24.94.72,1.32,1.45.39.79.78,1.8,1.17,3.02.4,1.22.64,2.36.72,3.4.07.61.18,1.1.31,1.47.13.31.26.83.4,1.56.01.55.08,1.08.22,1.56l.32,1.93c.01.49.05.88.12,1.15.07.28.1.45.1.51.13.37.2.77.21,1.2l.21,1.2.55,3.96.04,1.66c.03,1.6.19,3.01.46,4.24l.2.73-.08.37c-.05.68-.04,1.68.02,3,.06,1.32.13,2.41.21,3.27l.12,1.47c-.05.74-.03,1.54.05,2.4.08.86.16,1.54.23,2.03l.11.92c.2.8.47,1.65.79,2.57l.3.92c.2.92.4,1.56.6,1.93.13.12.19.27.19.46l.39.82c.32.42.64,1.13.97,2.1l.58,1.37.77,1.46c.2.49.39.82.58,1l.29.64,1.15,2.01.57.73.95,1.36c.57.67.88,1.09.95,1.27.32.42.76.78,1.32,1.08.19.06.22.12.1.18-.25,0-.21.13.1.37.19.12.22.18.1.18l-.18.19c-.06.06-.25.07-.55.01-.62.01-.92.08-.92.2,0,.06-.09.09-.27.1s-.5-.11-.93-.35c-.5-.23-.94-.53-1.31-.89l-1.32-1.36c-.44-.54-.9-1.21-1.38-2-.48-.79-.88-1.46-1.2-2.01-.27-.86-.52-1.37-.77-1.55-.44-.54-.7-1.06-.77-1.55l-.39-1.1-.39-.91-.1-.28v.46s-.12,2.31-.12,2.31v.55s.15,2.12.15,2.12c.15,1.41.26,2.21.33,2.39.08.8.11,2.4.1,4.8.03,1.17.07,1.85.14,2.03.13.37.2.7.21,1.01s-.02.55-.08.74c-.05.62-.06,1.51-.03,2.68l-.06,1.39-.17,4.9.02,1.11.13,1.66.03,1.38c-.06.25-.08.59-.07,1.02.13.24.13.55.02.92.01.61,0,1.08-.06,1.39l.02.83h-.28c-.13-.05-.22-.05-.28.01-.06.06-.12.19-.18.37-.3.56-.53.9-.72,1.03-.12,0-.22-.09-.28-.27ZM122.3,78.29l.2.92.12,1.38.22,1.56c.27,1.16.45,2.3.53,3.4l.3,1.29.3,1.19c.13.24.2.64.21,1.2.28,1.47.55,2.67.82,3.58l.51,2.3.41,1.75.3,1.1c0,.06.1.46.3,1.19l.21,1.2c.07.25.23.87.5,1.88.27,1.01.43,1.51.49,1.51l-.12-1.29-.14-2.21-.37-4.24c-.02-.98-.07-1.6-.13-1.84l-.12-1.2-.24-2.58c-.07-.24-.1-.51-.11-.78s-.04-.57-.11-.87l-.13-1.75-.2-.92c0-.37-.19-1.53-.54-3.5-.01-.49-.08-.98-.22-1.47-.26-.67-.5-1.71-.71-3.12-.07-.31-.14-.64-.21-1.01-.07-.37-.17-.73-.3-1.1-.07-.31-.37-1.22-.89-2.75l-.19-.27-.09.19c-.23.5-.42,1.32-.55,2.46-.13,1.14-.15,2.08-.08,2.82Z"/>
  <path class="cls-1" d="M147.76,137.39c-.62-.11-1.08-.24-1.39-.39-.31-.15-.75-.43-1.31-.85-.63-.54-1.19-1.14-1.7-1.81-.82-1.09-1.3-1.85-1.43-2.28,0-.18-.1-.46-.29-.82-.19-.3-.29-.55-.29-.73,0-.06-.1-.37-.3-.92l-.21-1.1-.52-2.94-.12-1.2c-.05-2.21-.01-3.51.1-3.88l.07-1.2.25-1.48c0-.31.05-.59.17-.83,0-.25.05-.55.16-.93l.17-.65c0-.18.14-.49.44-.93l.44-1.21c.05-.31.2-.65.44-1.02.24-.25.48-.59.72-1.03.65-1.06,1.41-1.85,2.26-2.36l.36-.28c.06-.06.27-.16.64-.29.31,0,.58-.07.83-.2.24-.07.67-.11,1.29-.12l.83-.02.75.35,1.03.53.47.45c.06.06.14.15.24.27.1.12.2.24.33.36l.67,1.09c.19.3.4.67.62,1.09.22.43.34.73.34.92s.23.61.67,1.28c.13.24.2.49.2.73l.11.64c.26.67.4,1.5.42,2.48.02.92-.09,1.7-.32,2.32l-.18.37.27-.19.36-.38.27-.1c.18,0,.31.09.38.27.26.61.39.95.39,1.01.07.25.11.98.14,2.21-.06.13-.09.26-.08.42s-.03.29-.08.42c0,.37-.05.68-.16.93-.06.13-.08.34-.08.65l-.08.56c-.29.93-.43,1.52-.42,1.76l-.6,2.23c-.24.44-.38.87-.43,1.3-.35.75-.59,1.21-.71,1.4-.53,1.18-1.1,2.02-1.7,2.53-.06.13-.13.22-.22.28-.09.06-.17.16-.22.28-.79.69-1.79,1.05-3.02,1.08l-.92-.07ZM142.22,124.68c.06,0,.13.37.21,1.1l.12,1.38c.13.24.19.46.2.64l.29.64c.2.49.39,1.16.6,2.02,0,.25.07.43.2.55,0,.06.03.12.1.18.06.06.1.15.1.27l.38.45c.25.18.38.33.38.45,0,.31.28.76.81,1.37.54.6,1.08,1.02,1.64,1.26.31.12.59.17.83.17h.37c.12.05.29.06.51.03.21-.03.41-.09.6-.15.37-.19.67-.41.91-.67l.9-.85c.24-.13.42-.5.53-1.12.23-.62.35-1.02.34-1.21l.08-.65c.12-.13.18-.22.18-.28,0-.12.02-.25.08-.37.06-.12.12-.25.18-.37.17-.5.26-.77.26-.84v-.09c-.19-.18-.17-.49.07-.92.18-.19.27-.38.27-.56l.16-.93c.06,0,.15-.16.27-.47.23-.74.34-1.51.32-2.32l-.03-1.38v-.46c-.25.19-.59.29-1.02.3-.18,0-.4-.05-.65-.17-.25-.12-.44-.3-.57-.54l-.38-.73c-.13-.24-.16-.37-.1-.37.12,0,.18-.06.18-.19,0-.18.02-.28.09-.28l.09-.09c.12-.13.21-.13.28,0l.28.09-.12-1.38c-.02-.86-.06-1.32-.12-1.38-.13-.24-.19-.4-.19-.46.06-.25-.01-.65-.21-1.2l-.49-1.1-.19-.46-.38-.45c-.07-.18-.16-.27-.28-.27s-.19-.12-.19-.37c.06-.19,0-.37-.2-.55-.06-.06-.13-.14-.19-.23-.06-.09-.1-.17-.1-.23,0-.12-.05-.23-.15-.32s-.2-.13-.33-.13-.31-.05-.56-.17c-.44-.24-.74-.26-.92-.07,0,.06-.09.09-.27.1-.12,0-.31.07-.55.2l-.36.28-.55.29c-.54.44-.84.82-.9,1.13,0,.18-.06.28-.18.28l-.45.75-.54.84c-.12.25-.17.47-.17.65,0,.31-.08.56-.26.74-.12.37-.17.68-.16.93l-.26.84c-.12.31-.14.5-.08.56l-.17.56c-.12.13-.19.28-.22.47-.03.19-.04.43-.03.74.01.55-.01.89-.07,1.02l-.16,1.3-.06,1.39c-.05.43-.05.71.02.83Z"/>
  <path class="cls-1" d="M159.15,173.52c-.31-.18-.5-.39-.57-.63-.06-.06-.1-.43-.12-1.11-.03-1.42.04-2.56.2-3.42l.15-1.48c0-.43.02-.68.08-.74.33-1.67.48-3.24.45-4.72,0-.31.04-.77.15-1.39.11-.43.18-1.57.2-3.42l.02-3.51c.05-.62.03-1.63-.07-3.05-.12-2.52-.2-5.23-.27-8.12l-.04-1.94-.07-3.14c-.06-2.95-.13-4.64-.2-5.07-.14-.61-.22-1.5-.24-2.67-.04-1.66-.09-2.71-.16-3.14l-.06-2.58-.16-2.95c-.16-1.78-.16-3.07,0-3.88l.16-.93c-.01-.55.04-1.08.15-1.57,0-.06.01-.09.04-.09s.08.03.14.09c0,.18.1.15.27-.1.06-.19.1-.31.13-.37.03-.06.05-.03.05.09l.19.18c.13.12.19.24.19.37,0,.25.04.43.1.55.06.12.16.21.28.27.19.12.33.29.43.5.1.21.18.54.25.96.2.86.39,2.24.55,4.14l.16,3.14.14,2.4c.06.18.1.45.11.78s-.02.66-.07.97l.04,1.85c.07.55.12,1.15.13,1.8s.06,1.28.13,1.89l.15,2.67c.07.37.13.46.19.27l.08-.46c.24-.37.35-.87.34-1.48l.25-1.39c.06-.12.14-.71.24-1.76,0-.37.04-.8.16-1.3.12-.25.37-1.15.77-2.69.23-.87.4-1.45.52-1.77l.25-1.11c0-.31.03-.6.12-.88s.16-.51.22-.7l.52-1.67c.17-.68.28-1.08.34-1.21.34-1.24.51-1.95.51-2.13,0-.12.17-.65.52-1.58.18-.25.32-.59.44-1.02.11-.43.45-1.19,1.01-2.28.56-1.09,1.11-2.07,1.65-2.94.59-.94,1.13-1.59,1.62-1.97.48-.5,1.15-.98,2-1.43.49-.2.92-.3,1.29-.3h.28c.74.16,1.28.64,1.6,1.44.13.37.26.86.4,1.47.14.61.21,1.1.22,1.47l.11.74c.07.31.08.68.02,1.11l-.07,1.11c0,.37-.07,1.11-.23,2.22-.17.62-.25,1.39-.23,2.31l.11.92-.35.93c-.3.62-.44,1.09-.43,1.39l-.25,1.11-.26.93-.08.46c-.12.13-.24.41-.35.84-.64,1.86-1.1,3.04-1.4,3.54l-.35.93c-.17.62-.29.96-.35,1.02l-.26.74c-.12.31-.26.67-.44,1.07-.18.4-.35.73-.53.98-.06.13-.1.25-.13.37-.03.12-.07.22-.13.28-.06.19-.38.78-.98,1.78-.59,1-.89,1.37-.9,1.13l-.1-.18-.46.1c-.06.12-.27.28-.64.48-.24.13-.46.16-.64.11-.06,0-.11-.04-.14-.14-.03-.09-.02-.14.04-.14l.18-.37c0-.18.05-.4.17-.65.12-.13.24-.43.35-.93l.88-2.05c.59-1.18.88-1.83.88-1.96l.44-1.02c.53-1.12.88-1.96,1.05-2.52l.53-1.3c.18-.31.32-.78.43-1.39l.35-1.02.35-1.12c.23-.87.34-1.33.34-1.39l.33-1.85c.1-.86.19-1.33.25-1.39.34-1.55.52-3.09.55-4.63.05-.68.05-1.43,0-2.26-.05-.83-.11-1.49-.18-1.98-.07-.31-.12-.46-.15-.46s-.17.07-.41.19c-.25.07-.53.26-.86.57-.33.32-.59.63-.76.94-.06.13-.24.34-.54.66l-.63.94c-.06.19-.13.34-.22.47-.09.13-.13.25-.13.37-.78,1.06-1.31,2.09-1.6,3.08-.06.06-.24.5-.53,1.3-.12.25-.29.71-.52,1.4-.34,1.3-.6,2.2-.77,2.69l-.52,1.67c-.29.93-.57,2.08-.85,3.43-.28,1.36-.5,2.41-.67,3.15,0-.06-.09.28-.25,1.02l-.16.93c0,.31-.19,1.33-.58,3.06l-.41,2.22-.16,1.2c-.18.37-.37,1.45-.58,3.24,0,.37-.07.83-.25,1.39,0,.12-.03.31-.08.56-.06.25-.08.52-.07.83l-.16.93-.46,4.26c-.11.56-.21,1.76-.29,3.61l-.06,1.39c-.06.19-.08.62-.06,1.29l-.06,1.66c-.31,2.65-.4,4.5-.25,5.55,0,.43-.02.74-.07.93l-.07.92c-.14,1.85-.25,2.9-.3,3.15l-.31,2.68-.16,1.3c-.29.93-.52,1.49-.7,1.68-.18.31-.48.47-.91.48-.06,0-.22-.06-.47-.17Z"/>
  <path class="cls-1" d="M186.4,135.64h-.46c-.31.02-.8-.13-1.49-.42-.93-.41-1.46-.77-1.59-1.07l-.57-.73c-.44-.42-.76-.94-.96-1.55-.07-.18-.13-.32-.19-.41-.06-.09-.16-.13-.28-.13-.31-.05-.59-.2-.84-.44-.07-.18-.25-.33-.56-.45-.13-.18-.16-.3-.1-.37s.06-.19,0-.37c-.06-.12-.07-.21,0-.28s.21-.1.46-.1c.18,0,.31-.1.36-.28l.27-.28c.18,0,.28-.07.27-.19l-.03-1.38c-.02-.8.03-1.39.15-1.76l.16-.93.08-.65c.17-.56.29-.99.34-1.3l.26-.74c0-.06.08-.37.26-.93.06-.25.13-.48.22-.7.09-.22.16-.39.22-.51l.43-1.39.53-1.21c.12-.19.25-.42.4-.7.15-.28.34-.58.58-.89.35-.68.85-1.48,1.47-2.39.63-.9,1.12-1.49,1.49-1.74l.82-.66c.36-.32.85-.57,1.46-.77.49-.2.98-.3,1.47-.31s.8.04.93.16c.37.18.73.51,1.08.99.35.49.53,1,.54,1.56l-.16.93c-.18.37-.26.68-.26.93-.4,1.43-.72,2.42-.95,2.98l-.27.38c0,.12-.06.31-.17.56l-.62,1.21-.97,2.33-.27.47-.62,1.03-.53.93c-.06.06-.39.53-.99,1.41-.18.19-.35.41-.49.66-.15.25-.22.44-.22.56,0,.19-.24.53-.72,1.03l-.45.66c-.24.31-.53.64-.86.99-.33.35-.62.61-.86.8l-.64.48-.36.29.1.27.29.46.38.45.47.45.28.27c.06,0,.19.09.38.27s.65.32,1.39.43c.55-.01.98.01,1.29.06.49-.01.83-.08,1.01-.21.12,0,.37-.1.73-.29.61-.26,1.06-.55,1.37-.86.06-.06.15-.1.27-.1l.37-.19.64-.29c.67-.2,1.01-.42,1-.67.12-.25.33-.41.64-.48.25,0,.43-.07.55-.2.12-.13.58-.38,1.37-.77.42-.32.76-.51,1-.58l.55-.38.63-.66c.42-.44.69-.69.81-.76.06,0,.12-.03.18-.1s.09-.12.09-.19c.12-.13.3-.28.54-.47.24-.19.45-.32.64-.38l.09.09c0,.18.22.27.65.26.31,0,.52.05.65.17.06.06.1.18.1.37l-.18.37c-.06.06-.12.14-.18.23-.06.09-.12.2-.18.33-.3.56-.96,1.25-1.99,2.07-.06.06-.17.14-.32.24-.15.1-.26.21-.32.33l-.64.38-.55.38c-.06.06-.14.13-.23.19-.09.06-.17.1-.23.1l-.37.19-.45.38c-.37.19-.61.35-.73.48-.3.19-.7.42-1.19.67l-1.1.58-.82.48c-.73.32-1.16.49-1.28.49l-.82.29c-.55.26-1.01.42-1.37.49-.37.07-.98.11-1.84.13l-.46-.08ZM182.89,126.75c.07.31.13.43.19.37.06,0,.15-.13.27-.38.12-.25.24-.4.36-.47.12-.13.27-.3.45-.52.18-.22.3-.39.36-.52l.09-.19c.36-.38.72-.94,1.07-1.69.06-.12.12-.25.18-.37.06-.12.09-.25.08-.37s.09-.28.27-.47l.54-.57c.12-.31.3-.53.54-.66.3-.31.45-.66.44-1.03,0-.12.2-.53.62-1.21.41-.81.65-1.28.71-1.4,0-.18.08-.37.26-.56.24-.25.36-.47.36-.65l.27-.47c.12-.19.27-.45.44-.79.18-.34.29-.64.35-.88l.17-.65v-.28c.12,0,.17-.25.16-.74v-.18c-.07-.12-.22-.15-.47-.08-.25.07-.49.2-.73.38l-.73.39c-.24.13-.36.22-.36.28l-.54.47c-.55.32-.88.73-.99,1.22-.12.25-.24.44-.36.56-.24.13-.42.32-.54.57-.71,1.25-1.13,1.93-1.25,2.06-.18.25-.27.47-.26.65,0,.06-.06.28-.17.65-.53,1.06-.88,2.11-1.04,3.16,0,.25-.05.56-.16.93-.12.37-.17.68-.16.93l-.17.56c-.12.13-.18.37-.17.74l-.08.74v.46Z"/>
  <path class="cls-1" d="M206.8,135.1c-.31-.12-.59-.31-.84-.58-.25-.27-.41-.56-.48-.87l-.29-.73c-.2-.92-.31-1.44-.31-1.56l-.2-.64c-.13-.49-.2-.89-.21-1.2-.01-.49-.08-.92-.21-1.29l-.11-.74c0-.37-.04-.61-.11-.74l-.02-1.11c0-.43-.08-1.01-.22-1.75-.21-1.41-.34-2.98-.38-4.7-.01-.68-.04-1.17-.08-1.48-.04-.31-.09-.52-.15-.64-.13-.24-.2-.49-.2-.73v-.65c-.21-.55-.31-.98-.32-1.29s-.04-.57-.11-.78c-.07-.21-.13-.41-.2-.6-.13-.43-.11-1.04.05-1.85l.36-.65h.09s.18-.1.18-.1c.12-.13.21-.16.28-.1h.18c.06.06.09.12.1.18.13.12.22.18.28.18.12,0,.22.03.28.09h.18c.12,0,.26.13.42.4.16.27.27.59.34.96.39.98.59,1.68.6,2.11,0,.31.04.49.1.55.13.31.16.49.1.55-.06.19-.05.43.02.74l.11,1.01c.21,1.23.38,1.96.51,2.2.06.06.1.15.1.27s-.03.22-.09.28c-.06,0-.09.16-.08.46,0,.43-.02.71-.07.83-.11.43-.08.74.11.92.06.12.11.77.13,1.94v.65c.08.12.11.31.12.55-.06.06-.09.28-.08.65.01.55-.01.96-.07,1.2.01.55.05.92.12,1.11l.11.92c0,.43.04.65.11.64l.11.64c.01.49.05.8.11.92.06,0,.16.24.29.73.07.31.13.4.19.27v-.37c-.01-.18.08-.4.26-.65.18-.19.27-.34.27-.47.29-.87.58-1.52.88-1.96.18-.31.23-.53.17-.65,0-.18.05-.34.17-.47.35-.68.59-1.34.7-1.95.28-1.11.48-1.83.6-2.14l.35-.84c.06,0,.14-.06.23-.19.09-.12.13-.25.13-.37,0-.19.02-.34.08-.46.12-.19.18-.4.17-.65,0-.18.05-.34.17-.47.06-.06.13-.17.22-.33.09-.15.16-.33.22-.51l.35-.75c.12,0,.18-.16.17-.47l.35-.75.17-.47.18-.47c.18-.31.27-.53.26-.65,0-.25.02-.4.08-.46l.36-.56c.83-1.31,1.37-2.09,1.61-2.34.12-.19.28-.31.5-.38.21-.07.35-.13.41-.19.55-.2,1.01-.17,1.39.06.19.12.36.28.52.5.16.21.33.5.53.87l.48.91c.06,0,.09.09.1.27l.02.92.11.83c0,.18.04.31.1.37.13.12.2.24.24.36.03.12.02.28-.04.46-.12.31-.14.5-.08.56v.65s-.12,2.22-.12,2.22l.1.55c0,.37.04.65.11.83l.02.74c.13.12.13.34.01.65v.55s-.17,0-.17,0c-.18,0-.34.07-.46.19-.24.13-.36.25-.36.38-.12.13-.26.18-.41.15-.15-.03-.26-.1-.33-.22-.32-.48-.53-1.03-.64-1.65-.11-.61-.17-1.63-.2-3.04l-.05-2.31-.22-1.56-.12-1.29-.1-.37-.36.38-.45.75c-.18.37-.33.62-.45.75l-.26.56-.17.56c-.3.56-.59,1.21-.88,1.96l-.35.84c-.06.06-.09.19-.08.37l-.09.28-.18.37c0,.25-.2.71-.62,1.4l-.17.56c0,.31-.05.46-.17.47l-.35,1.02-.26.56-.27.47c0,.18-.03.31-.08.37l-.26.74-.18.47c-.06.06-.15.31-.26.74,0,.12-.14.59-.43,1.39-.3.5-.44.87-.44,1.12-.41,1.12-.87,2.27-1.4,3.45-.3.44-.72.69-1.28.77-.37,0-.68-.05-.93-.16Z"/>
</svg>