<?xml version="1.0" encoding="UTF-8"?>
<svg id="Lager_1" xmlns="http://www.w3.org/2000/svg" viewBox="0 0 164.84 63.82">
  <defs>
    <style>
      .cls-1 {
        fill: #1d1d1b;
      }
    </style>
  </defs>
  <path class="cls-1" d="M5.7,59.82c-.33-.07-.5-.17-.5-.28l-.06-.06c-.07,0-.2-.09-.39-.28h-.06c-.07,0-.11-.04-.11-.11-.07-.04-.09-.13-.06-.28l.17-.33.17-.22.17-.11.22-.11.22-.11c.11-.04.22-.04.33,0l.17.06s.04-.09.11-.17c.11-.11.17-.19.17-.22l.11-.11.11-.06s.02-.06.06-.06.09-.04.17-.11c.07-.07.13-.17.17-.28l.06-.06.11-.11.22-.17c.07,0,.11-.04.11-.11.04-.07.09-.15.17-.22.07-.07.15-.13.22-.17l.11-.06s.04-.06.11-.06c.15,0,.22-.07.22-.22.04-.04.07-.06.11-.06s.09-.04.17-.11l.22-.11c.15-.04.22-.07.22-.11,0-.07.04-.11.11-.11.04-.04.09-.08.17-.14.07-.06.13-.12.17-.19l.11-.11c.18-.15.29-.2.33-.17.04,0,.08-.04.14-.11.06-.07.08-.13.08-.17s.04-.06.11-.06c.15,0,.24-.06.28-.17.04-.04.04-.07,0-.11l-.11-.11-.17-.22-.22-.33c-.19-.26-.3-.46-.33-.61l-.22-.61c-.04-.07-.11-.26-.22-.55l-.28-1.27-.11-.39-.17-.5c0-.15-.02-.24-.06-.28l-.06-.44-.17-.61c-.07-.15-.11-.33-.11-.55l-.17-.66c0-.11-.02-.25-.06-.42-.04-.17-.06-.3-.06-.42l-.17-.66c-.07-.22-.11-.42-.11-.61l-.06-.55c-.04-.07-.06-.17-.06-.28l-.11-.33-.06-.61-.06-.66c-.04-.07-.06-.2-.06-.39s-.02-.31-.06-.39c-.04-.07-.06-.26-.06-.55l-.06-.72-.06-.78-.11-.72c-.07-.15-.11-.42-.11-.83l-.11-1.16c-.07-.37-.11-.7-.11-1,0-.33-.04-.61-.11-.83l-.06-1.11c0-.55-.02-.87-.06-.94v-1.05c-.04-.22-.06-.48-.06-.78s-.02-.59-.06-.89c0-.89-.02-1.38-.06-1.5l-.06-1.5-.06-2.44c-.04-.48-.06-1.09-.06-1.83,0-.63,0-1.11-.03-1.44-.02-.33-.03-.57-.03-.72,0-.22,0-.4.03-.53.02-.13.03-.23.03-.3,0-.29-.02-.53-.06-.72-.04-.29-.04-.53,0-.72v-1.77c0-3.21.04-5.26.11-6.15l.11-1.22c.04-.15.06-.3.06-.44s.02-.28.06-.39c.04-.26.02-.65-.06-1.16,0-.22.02-.42.06-.61l.06-.39v-.5l.17-1.77c0-.22.06-.61.17-1.16.07-.26.09-.39.06-.39-.04-.07-.09-.07-.17,0-.04,0-.06,0-.08.03-.02.02-.05,0-.08-.03h-.11l-.06.06c-.22.07-.35.13-.39.17l-.28.06c-.44.11-.72.22-.83.33l-.11.06h-.11s-.09.06-.17.06l-.11.06s-.11.06-.22.06-.17.04-.17.11c-.07.07-.15.09-.22.06-.07,0-.13.02-.17.06l-.22.11-.17.11-.17.06c-.07,0-.19.04-.33.11l-.17.11h-.06s-.04.07-.11.11c-.07.04-.15.06-.22.06-.11,0-.19.02-.22.06s-.13.06-.28.06c-.11,0-.22.07-.33.22-.07.07-.19.11-.33.11-.26,0-.46-.07-.61-.22-.15-.15-.24-.35-.28-.61,0-.41.06-.63.17-.66l.22-.28.17-.33c.04-.07.08-.12.14-.14.06-.02.14-.03.25-.03.04.04.08.06.14.06s.1.02.14.06c.04.04.11.04.22,0,.07,0,.11.02.11.06.04.04.07.05.11.03.04-.02.06-.05.06-.08.04-.07.13-.11.28-.11l.22-.06s.13-.06.39-.06c.22,0,.35-.02.39-.06.04-.04.15-.06.33-.06l.28-.11c.07-.07.13-.11.17-.11l.17-.06s.09-.06.17-.06h.11c0-.07.06-.07.17,0,.07.04.15.02.22-.06s.11-.09.11-.06c.11,0,.18-.02.22-.06l.33-.06h.17c0-.07.07-.11.22-.11l.44-.17c.11-.11.24-.17.39-.17h.22l.06-.06c.07,0,.11-.02.11-.06l.22-.06c.18,0,.29-.02.33-.06l.28-.06.22-.11s.04-.06.11-.06h.06l.61-.06h.17c.07.04.17,0,.28-.11l.22-.22v-.06h.28c.11,0,.17-.04.17-.11.04-.07.07-.09.11-.06.04.04.09.06.17.06.04-.04.15-.06.33-.06s.3-.04.33-.11c.04-.04.07-.06.11-.08.04-.02.06,0,.06.03.07,0,.11-.02.11-.06l.11-.06c.07,0,.13.04.17.11l.17.33c.11.15.17.3.17.44l-.06.22c-.04.11-.09.2-.17.28-.07.07-.13.11-.17.11l-.17.06-.22.06h-.11l-.06.06h-.11l-.11.06h-.11c0,.07-.17.11-.5.11l-.11.06s-.09.06-.17.06l-.17.06-.22.06h-.17s-.15.06-.33.06c-.22,0-.28.09-.17.28.11.19.15.41.11.66l-.17.61-.11-.06s-.06.17-.06.5l-.11,1-.06.94c0,.37-.02.57-.06.61-.07.15-.11.83-.11,2.05,0,.44,0,.75.03.91.02.17.03.27.03.3.04.04.06.09.06.17s-.02.15-.06.22c-.07.15-.11.31-.11.5-.04.11-.06.22-.06.33s-.02.2-.06.28c-.07.22-.11.41-.11.55l.06.33c.07.07.1.19.08.33-.02.15-.05.37-.08.66l-.11.89.06.39c0,.19-.02.3-.06.33l-.06.55c0,.33-.04.65-.11.94-.04.22-.06.59-.06,1.11,0,.74-.02,1.27-.06,1.61v1.16c.04.11.06.35.06.72v.78c.07.15.07.37,0,.66-.04.22-.04.39,0,.5v.28c-.07.37-.11.61-.11.72l.06.39v1.83c0,.78-.02,1.26-.06,1.44,0,.33.02.54.06.61.04.04.06.37.06,1,0,.7.02,1.15.06,1.33.04.11.06.21.06.3s.02.18.06.25c.04.26.06.79.06,1.61v.61l.06.61c.04.11.06.21.06.3s.02.18.06.25c.04.04.06.46.06,1.27v.67l.06.5c.07.22.11.41.11.55v.55c.04.07.06.17.06.28s.02.2.06.28c0,.22.04.37.11.44.04.07.06.22.06.44.07,1.15.15,1.85.22,2.1.04.3.06.68.06,1.16,0,.41.04.7.11.89l.17.66.11.44.17.33.06.22s.06.07.06.22l.06.39c.04.07.06.17.06.28s.02.2.06.28c0,.48.07.76.22.83.15.07.18.26.11.55,0,.22.02.39.06.5.04.11.11.46.22,1.05l.11.72.11.55.11.28.06.17.11.28c.15.37.22.61.22.72s.04.2.11.28.13.24.17.5l.11.5-.06.06h-.11c-.07.04-.13.1-.17.19-.04.09-.06.19-.06.3v.06s.02.05.06.03c.04-.02.07-.05.11-.08,0-.07.13-.15.39-.22l.22-.11s.11-.06.22-.06c.07.04.17,0,.28-.11l.11-.22c.04-.11.15-.19.33-.22.07,0,.11-.06.11-.17s.04-.13.11-.06c.07,0,.13-.02.17-.06.04-.04.09-.06.17-.06.11,0,.24-.04.39-.11,0-.07.02-.11.06-.11l.06-.06s0-.06.03-.08c.02-.02.03,0,.03.03.07,0,.11-.02.11-.06,0-.07.02-.11.06-.11h.11s.06-.02.06.06l.22.28c.11.11.19.21.25.3.06.09.08.19.08.3,0,.18-.06.33-.17.44l-.33.22-.11.06-.22.11-.17.11-.22.17-.28.11c0,.07-.06.11-.17.11l-.22.11-.33.17-.11.06-.06.06c-.11,0-.2.03-.28.08-.07.06-.13.1-.17.14l-.11.11c-.15,0-.35.13-.61.39-.11.11-.2.17-.28.17l-.11.06-.06.06s-.09.04-.17.11c-.04.04-.09.06-.17.06l-.06.06-.11.06s-.09.09-.17.17c-.07.07-.11.13-.11.17l-.17.11c-.07,0-.19.07-.33.22-.04.04-.07.07-.11.11-.04.04-.07.06-.11.06l-.11.11-.11.17c-.07,0-.11.04-.11.11l-.11.11s-.06.02-.06.06l-.17.11c-.07,0-.11.04-.11.11s-.02.13-.06.17c-.04,0-.09.04-.17.11,0,.07-.09.24-.28.5-.04,0-.06.02-.06.06s-.02.07-.06.11c0,.15-.04.22-.11.22v.11l-.06.11-.06.06c-.07.11-.19.22-.33.33-.15.15-.28.25-.39.3-.11.06-.28.08-.5.08h-.44Z"/>
  <path class="cls-1" d="M16.74,54.68c-.74-.19-1.16-.61-1.27-1.27,0-.22.02-.39.06-.5,0-.04.06-.22.17-.55.07-.41.19-.76.36-1.05.17-.29.45-.72.86-1.27.37-.59.66-1,.89-1.22.07-.11.15-.22.22-.33.07-.11.13-.2.17-.28.04-.07.24-.29.61-.66l.55-.66.28-.39.44-.44c.15-.22.33-.44.55-.67l1.05-1.22.22-.22c.11-.11.29-.37.55-.78.07-.15.28-.39.61-.72.48-.55.89-1.05,1.22-1.5l.44-.55.83-1.22c.04-.11.11-.22.22-.33s.22-.28.33-.5l.39-.61c.18-.18.3-.35.33-.5l.39-.67c.18-.26.31-.5.39-.72.11-.33.22-.57.33-.72.15-.26.25-.52.3-.78.06-.26.08-.59.08-1,0-.11-.04-.24-.11-.39-.04-.07-.11-.16-.22-.25-.11-.09-.2-.14-.28-.14l-.28-.06c-.55-.07-1.27.02-2.16.28l-.66.17c-.22.04-.55.15-1,.33-.37.15-.61.22-.72.22-.15.07-.28.11-.39.11-.37.19-.63.35-.78.5-.04.07-.2.19-.5.33-.74.33-1.51.91-2.33,1.72l-.55.55s-.08.03-.14.08c-.06.06-.1.12-.14.19l-.17.28-.11-.06s-.11-.02-.22.06c-.07.04-.11.04-.11,0l-.06-.06s-.06-.07-.06-.22c0-.11-.06-.22-.17-.33l-.17-.11v-.33c0-.15.04-.3.11-.44.11-.26.29-.53.55-.83.33-.41.76-.78,1.27-1.11l.5-.39c.15-.15.28-.24.39-.28.11-.04.41-.2.89-.5l.66-.33c1.03-.52,1.59-.81,1.66-.89.07-.07.2-.11.39-.11l.61-.11.67-.11c.37,0,.66-.07.89-.22.07-.04.39-.06.94-.06.59,0,1.2.06,1.83.17.18.04.35.13.5.28.33.3.57.59.72.89.11.19.18.42.22.72,0,.41-.07.92-.22,1.55l-.11.61c0,.11-.02.19-.06.22-.04,0-.13.2-.28.61-.11.26-.26.54-.44.83l-.28.5c-.15.33-.3.61-.44.83l-.39.66c-.22.33-.37.54-.44.61-.19.19-.28.31-.28.39,0,.04-.15.2-.44.5-.41.44-.63.76-.66.94-.11.19-.22.31-.33.39l-.44.5c-.48.63-.89,1.07-1.22,1.33-.26.26-.39.44-.39.55l-.28.33-1.16,1.38-.22.33-.28.39c-.04.07-.1.17-.19.28-.09.11-.19.24-.3.39l-.5.55c-.07.07-.13.11-.17.11-.07.04-.15.1-.22.19-.07.09-.13.18-.17.25l-.22.28c-.15.15-.26.31-.33.5-.04.11-.13.24-.28.39l-.78.89-.22.28c-.11.11-.19.22-.22.33-.11.22-.2.37-.28.44l-.44.72c-.15.33-.22.57-.22.72l-.06.33c-.07.18-.07.3,0,.33.04.04.19.06.44.06s.5-.04.72-.11l.5-.11c.33,0,.79-.15,1.38-.44.41-.15.67-.3.78-.44l.17-.11c.07,0,.13-.02.17-.06.07-.11.15-.17.22-.17l.33-.11.5-.22c.55-.18.83-.35.83-.5.04-.04.1-.08.19-.14.09-.06.21-.1.36-.14.15,0,.29-.04.44-.11.15-.15.48-.31,1-.5l1.55-.78.33-.28c.11-.07.22-.15.33-.22.11-.07.2-.11.28-.11.04,0,.07-.02.11-.06.04-.04.07-.07.11-.11.04-.07.17-.17.42-.3.24-.13.42-.21.53-.25l.06.11c.07.07.28.11.61.11.07,0,.15.04.22.11.04.07.02.19-.06.33l-.17.17-.28.28-.39.44c-.37.26-.79.54-1.27.83l-.61.39-.5.22-.39.22-.33.17-.28.11s-.15.13-.44.28c-.3.15-.48.26-.55.33l-.5.22c-.11.07-.23.14-.36.19-.13.06-.25.1-.36.14l-.44.22-.61.28c-.15.07-.3.15-.47.22-.17.07-.32.15-.47.22-.15.04-.33.11-.55.22-.96.37-1.74.59-2.33.66l-.44.06c-.19.07-.48.07-.89,0Z"/>
  <path class="cls-1" d="M31.92,51.8c-.63,0-1.2-.29-1.72-.89-.37-.44-.59-.94-.66-1.5-.18-1.11-.24-1.85-.17-2.22.07-.15.11-.37.11-.67.07-.7.17-1.2.28-1.5l.17-.72c.04-.44.17-.94.39-1.5l.33-.89c.18-.55.45-1.18.8-1.88.35-.7.65-1.2.91-1.5l.33-.5s.39-.48,1.05-1.33c.18-.18.31-.3.39-.33l.5-.39c.07-.07.22-.17.44-.28l.5-.22c.37-.18.85-.28,1.44-.28h.33c.29,0,.61.06.94.17.55.19,1,.48,1.33.89l.78,1.16.22.33c.07.11.15.25.22.42.07.17.13.32.17.47l.17.55.06.28.11-.28c.07-.07.13-.16.17-.25.04-.09.07-.17.11-.25l.22-.61c.15-.22.22-.44.22-.66.07-.29.17-.52.28-.66.11-.11.17-.22.17-.33l.72-1.44c.37-.78.65-1.27.83-1.5.18-.22.39-.33.61-.33.41,0,.61.24.61.72l-.06.33c-.04.22-.09,1.03-.17,2.44l-.06,1.11-.11.55-.11.61c-.04.11-.06.26-.06.44,0,.22.02.42.06.61,0,.19-.04.39-.11.61-.07.15-.11.35-.11.61l-.17,1.38c-.11.66-.17,1.24-.17,1.72,0,.3.04.63.11,1,.04.07.06.17.06.28s.02.22.06.33c0,.22.02.35.06.39l.17.33.17.28v.17c0,.11.07.19.22.22.04.04.08.06.14.06s.1.02.14.06c.04,0,.06-.02.06-.06s.05-.04.14,0c.09.04.14.09.14.17,0,.04-.06.09-.17.17-.22.19-.5.3-.83.33-.26,0-.52-.07-.78-.22-.37-.29-.65-.83-.83-1.61l-.17-.61v-1c0-1.33.04-2.14.11-2.44l.06-.39c0-.3.02-.52.06-.67l.06-.72c0-.26.02-.44.06-.55l.11-.89c.11-.78.17-1.18.17-1.22l.11-.5c-.07.07-.15.2-.22.39-.07.19-.13.35-.17.5l-.5,1.11-.72,1.61c-.04.11-.08.23-.14.36-.06.13-.1.25-.14.36-.11.22-.17.42-.17.61.04.26.05.57.03.94-.02.37-.05.65-.08.83,0,.11-.06.28-.17.5l-.22.44c-.11.52-.37.78-.78.78-.19,0-.35-.07-.5-.22-.07-.04-.13-.04-.17,0l-.11.22c-.11.07-.2.2-.28.39-.37.63-.67,1.05-.89,1.27l-.33.44c-.22.33-.66.83-1.3,1.5-.65.66-1.1,1.09-1.36,1.27l-1.05.61-.55.22c-.7.3-1.33.44-1.88.44ZM30.86,48.92l.06.44c0,.22.03.39.08.5.06.11.14.22.25.33.15.15.26.22.33.22l.28.06c.18.07.42.07.72,0,.29-.07.79-.28,1.5-.61.66-.29,1.02-.52,1.05-.66,0-.04.11-.17.33-.39.26-.22.54-.5.86-.83.31-.33.54-.61.69-.83.11-.11.19-.21.25-.3.06-.09.1-.16.14-.19l.22-.39.33-.61.5-.72c.07-.15.14-.26.19-.33.06-.07.08-.13.08-.17.07-.04.15-.12.22-.25.07-.13.13-.25.17-.36.11-.22.2-.37.28-.44l.22-.55c0-.07.02-.14.06-.19.04-.06.06-.14.06-.25.04-.07.06-.17.08-.3.02-.13,0-.3-.03-.53-.04-.59-.11-1-.22-1.22.04.04,0-.13-.11-.5,0-.55-.26-1.22-.78-1.99-.11-.26-.33-.46-.66-.61-.19-.07-.3-.09-.33-.06l-.22-.06c-.07-.07-.19-.11-.33-.11s-.35.02-.61.06c-.48.04-.79.17-.94.39l-.39.39c-.26.19-.52.42-.78.69-.26.28-.42.49-.5.64l-.39.55-.39.5c-.04.11-.08.21-.14.3-.06.09-.1.16-.14.19-.15.22-.3.48-.47.78-.17.3-.29.55-.36.78l-.17.61-.11.33c-.07.04-.19.31-.33.83l-.28,1c-.04.11-.07.24-.11.39-.04.15-.06.26-.06.33l-.06.83c-.07.44-.11.96-.11,1.55l.06.78Z"/>
  <path class="cls-1" d="M52.34,55.9c-.33-.19-.55-.5-.66-.94-.11-.55-.2-1.51-.28-2.88-.04-.3-.06-.63-.06-1s-.02-.72-.06-1.05c-.04-.7-.04-1.33,0-1.88.04-.15.06-.54.06-1.16l.06-1.27c.04-2.14.09-3.67.17-4.6l.06-2.05.06-1.61.06-1.61.11-1.77c.07-.37.11-.83.11-1.38.07-1.48.15-2.27.22-2.38l.06-1.38c0-.74.04-1.4.11-1.99l.17-1.55s-.09.13-.17.39l-.17.61c-.11.37-.37.97-.78,1.8-.41.83-.74,1.43-1,1.8l-.33.61c-.81,1.4-1.51,2.44-2.1,3.1-.33.33-.52.55-.55.66l-.33.39-.28.33c-.04.07-.07.11-.11.11s-.04-.02,0-.06c0-.04-.02-.06-.06-.08-.04-.02-.07,0-.11.03l-.22.17h-.06v-.17s-.05-.05-.03-.14c.02-.09.06-.21.14-.36l.17-.39-.11-.17-.06-.17.11-.28c.26-.74.48-1.2.66-1.38.11-.22.25-.47.42-.75s.34-.6.53-.97l.55-.89c.33-.55.65-1.1.94-1.63.29-.53.5-.95.61-1.25.07-.29.2-.68.39-1.16.33-.63.59-1.31.78-2.05.18-.7.44-1.51.78-2.44.04-.11.18-.61.44-1.5l.28-1,.06-.55c0-.15.04-.33.11-.55.11-.33.17-.53.17-.61.04-.29.07-.66.11-1.11.04-.44.06-.85.06-1.22l.22-1.72c.15-.7.48-1.05,1-1.05.37,0,.67.22.89.66.15.33.22.89.22,1.66v.83l-.17.66-.39,1.38-.22.83-.11.5c-.19.55-.28,1.11-.28,1.66l-.17,1.11c-.3,2.33-.42,3.88-.39,4.65l-.06.44s-.09.44-.17,1.22c-.07,1.29-.15,2.1-.22,2.44l-.06,1.38c0,.78-.04,1.38-.11,1.83l-.11,1.77-.06,1.38c-.04.11-.06.28-.06.5s-.02.42-.06.61l-.06,1.11c-.11.74-.17,1.64-.17,2.71-.07,1.22-.11,1.85-.11,1.88-.04.15-.06.61-.06,1.38l-.06,1.33c-.04.44-.06.93-.06,1.47s-.02.8-.06.8l-.06.78v.89c.04.19.06.43.06.75s.02.62.06.91c0,1.51.04,2.27.11,2.27l.11-.33.28-1.11.66-2.22s.06-.17.17-.39l.39-1.33.28-.83.44-1.38c.11-.52.22-.85.33-1,.07-.07.35-.74.83-1.99l.5-1.16.55-1.38.33-.83.61-1.27.33-.83c.37-.7.57-1.18.61-1.44.15-.41.35-.78.61-1.11l.39-.72c.15-.37.78-1.37,1.88-2.99.66-.85,1.22-1.44,1.66-1.77.44-.33.94-.5,1.5-.5s1.05.22,1.5.66c.26.3.46.64.61,1.02.15.39.26.95.33,1.69l.11.78.06.72c0,.37-.04.74-.11,1.11,0,.22-.04.48-.11.78-.04.44-.15,1-.33,1.66-.22.89-.33,1.48-.33,1.77,0,.26-.15.7-.44,1.33-.26.48-.41.87-.44,1.16-.19.59-.44,1.16-.78,1.72l-.28.55c-.92,1.59-1.48,2.47-1.66,2.66l-.33.5c-.15.3-.28.5-.39.61l-.44.61c-.19.26-.55.66-1.11,1.22-.11.07-.3.24-.55.5-.3.3-.83.66-1.61,1.11l-.61.28s-.06-.02-.06-.06v-.06c.07,0,.07-.04,0-.11h-.44c-.55,0-.83-.06-.83-.17l-.06-.06s-.05,0-.03-.03c.02-.02.06-.05.14-.08l.33-.22.39-.22c.22-.11.51-.31.86-.61.35-.3.71-.61,1.08-.94.33-.26.63-.55.89-.89.33-.41.54-.63.61-.66.55-.66.9-1.14,1.05-1.44.44-.66.76-1.15.94-1.47.18-.31.31-.58.39-.8l.28-.61s.18-.31.44-.83l.39-1c.07-.15.14-.3.19-.47.06-.17.1-.32.14-.47.04-.18.1-.39.19-.61.09-.22.16-.42.19-.61.15-.52.33-1.24.55-2.16l.17-.72.11-.5.06-.78c.07-.37.11-.94.11-1.72l-.06-1.05c-.04-.26-.09-.53-.17-.8-.07-.28-.15-.51-.22-.69-.04-.11-.12-.2-.25-.28-.13-.07-.25-.11-.36-.11s-.31.07-.61.22c-.19.11-.44.33-.78.66-.33.33-.55.59-.66.78l-.55.72c-.33.44-.81,1.2-1.44,2.27-.04.19-.15.41-.33.66-.26.41-.52.91-.78,1.5l-.78,1.77-.39.78-.33.83c-.04.11-.12.3-.25.55-.13.26-.27.59-.42,1l-.72,1.77-.33,1-.22.61c-.11.26-.2.54-.28.83-.07.15-.12.27-.14.36-.02.09-.05.18-.08.25l-.28.66c-.04.22-.15.55-.33,1-.26.63-.42,1.18-.5,1.66-.07.37-.17.66-.28.89l-.22.83c-.44,1.55-.72,2.42-.83,2.6l-.28.72-.22.5c-.11.22-.31.33-.61.33-.15,0-.24-.02-.28-.06Z"/>
  <path class="cls-1" d="M71.3,51.74h-.28c-.19,0-.48-.09-.89-.28-.55-.26-.87-.48-.94-.66l-.33-.44c-.26-.26-.44-.57-.55-.94-.04-.11-.07-.19-.11-.25-.04-.06-.09-.08-.17-.08-.19-.04-.35-.13-.5-.28-.04-.11-.15-.2-.33-.28-.07-.11-.09-.18-.06-.22.04-.04.04-.11,0-.22-.04-.07-.04-.13,0-.17.04-.04.13-.06.28-.06.11,0,.18-.06.22-.17l.17-.17c.11,0,.17-.04.17-.11v-.83c0-.48.04-.83.11-1.05l.11-.55.06-.39c.11-.33.18-.59.22-.78l.17-.44s.06-.22.17-.55c.04-.15.08-.29.14-.42.06-.13.1-.23.14-.3l.28-.83.33-.72c.07-.11.16-.25.25-.42.09-.17.21-.34.36-.53.22-.41.53-.88.91-1.41.39-.54.69-.88.91-1.02l.5-.39c.22-.18.52-.33.89-.44.29-.11.59-.17.89-.17s.48.04.55.11c.22.11.43.31.64.61.2.3.3.61.3.94l-.11.55c-.11.22-.17.41-.17.55-.26.85-.46,1.44-.61,1.77l-.17.22c0,.07-.04.19-.11.33l-.39.72-.61,1.38-.17.28-.39.61-.33.55s-.24.31-.61.83c-.11.11-.21.24-.3.39-.09.15-.14.26-.14.33,0,.11-.15.31-.44.61l-.28.39c-.15.19-.32.38-.53.58s-.38.36-.53.47l-.39.28-.22.17.06.17.17.28.22.28.28.28.17.17s.11.06.22.17.39.2.83.28c.33,0,.59.02.78.06.29,0,.5-.04.61-.11.07,0,.22-.06.44-.17.37-.15.65-.31.83-.5.04-.04.09-.06.17-.06l.22-.11.39-.17c.41-.11.61-.24.61-.39.07-.15.2-.24.39-.28.15,0,.26-.04.33-.11.07-.07.35-.22.83-.44.26-.18.46-.29.61-.33l.33-.22.39-.39c.26-.26.42-.41.5-.44.04,0,.07-.02.11-.06.04-.04.06-.07.06-.11.07-.07.18-.17.33-.28.15-.11.28-.18.39-.22l.06.06c0,.11.13.17.39.17.18,0,.31.04.39.11.04.04.06.11.06.22l-.11.22s-.07.08-.11.14c-.04.06-.07.12-.11.19-.19.33-.59.74-1.22,1.22-.04.04-.1.08-.19.14-.09.06-.16.12-.19.19l-.39.22-.33.22s-.08.07-.14.11c-.06.04-.1.06-.14.06l-.22.11-.28.22c-.22.11-.37.2-.44.28-.19.11-.42.24-.72.39-.3.15-.52.26-.66.33l-.5.28c-.44.19-.7.28-.78.28l-.5.17c-.33.15-.61.24-.83.28-.22.04-.59.06-1.11.06l-.28-.06ZM69.3,46.37c.04.19.07.26.11.22.04,0,.09-.07.17-.22.07-.15.15-.24.22-.28.07-.07.17-.17.28-.3.11-.13.18-.23.22-.3l.06-.11c.22-.22.44-.55.66-1,.04-.07.07-.15.11-.22.04-.07.06-.15.06-.22s.06-.17.17-.28l.33-.33c.07-.18.18-.31.33-.39.18-.18.28-.39.28-.61,0-.07.13-.31.39-.72.26-.48.41-.76.44-.83,0-.11.06-.22.17-.33.15-.15.22-.28.22-.39l.17-.28c.07-.11.17-.27.28-.47.11-.2.18-.38.22-.53l.11-.39v-.17c.07,0,.11-.15.11-.44v-.11c-.04-.07-.13-.09-.28-.06-.15.04-.3.11-.44.22l-.44.22c-.15.07-.22.13-.22.17l-.33.28c-.33.19-.54.43-.61.72-.07.15-.15.26-.22.33-.15.07-.26.19-.33.33-.44.74-.7,1.15-.78,1.22-.11.15-.17.28-.17.39,0,.04-.04.17-.11.39-.33.63-.55,1.26-.66,1.88,0,.15-.04.33-.11.55-.07.22-.11.41-.11.55l-.11.33c-.07.07-.11.22-.11.44l-.06.44v.28Z"/>
  <path class="cls-1" d="M83.65,63.65c0-.11-.02-.19-.06-.22,0-.19-.02-.31-.06-.39l-.11-.66c-.04-.44-.06-1.1-.08-1.97-.02-.87,0-1.74.03-2.63.07-1.48.11-6.17.11-14.07-.04-2.99-.07-4.56-.11-4.71l-.22-.39c-.11-.18-.17-.42-.17-.72l-.22-.94c-.15-.52-.22-.9-.22-1.16-.07-.66-.2-1.09-.39-1.27-.15-.22-.37-1.13-.66-2.71l-.28-1.16c-.07-.26-.15-.57-.22-.94,0-.41-.06-.74-.17-1l-.17-1.05c-.15-1.37-.33-2.36-.55-2.99l-.11-.44c0-.29-.02-.52-.06-.66l-.28-1.77c-.11-.74-.2-1.22-.28-1.44-.11-.55-.17-.94-.17-1.16l-.17-1.22c-.07-.3-.13-.85-.17-1.66,0-.74.04-1.24.11-1.5.3-1.11.61-1.96.94-2.55.22-.33.54-.5.94-.5l.28.06c.3.15.55.44.78.89.22.48.44,1.09.67,1.83.22.74.35,1.42.39,2.05.04.37.09.66.17.89.07.19.15.5.22.94,0,.33.04.65.11.94l.17,1.16c0,.3.02.53.06.69.04.17.06.27.06.3.07.22.11.46.11.72l.11.72.28,2.38v1c0,.96.07,1.81.22,2.55l.11.44-.06.22c-.04.41-.05,1.01-.03,1.8.02.79.05,1.45.08,1.97l.06.89c-.04.44-.04.92,0,1.44.04.52.07.92.11,1.22l.06.55c.11.48.26,1,.44,1.55l.17.55c.11.55.22.94.33,1.16.07.07.11.17.11.28l.22.5c.18.26.37.68.55,1.27l.33.83.44.89c.11.3.22.5.33.61l.17.39.66,1.22.33.44.55.83c.33.41.52.66.55.78.18.26.44.48.78.66.11.04.13.07.06.11-.15,0-.13.07.06.22.11.07.13.11.06.11l-.11.11s-.15.04-.33,0c-.37,0-.55.04-.55.11,0,.04-.06.06-.17.06s-.3-.07-.55-.22c-.3-.15-.55-.33-.78-.55l-.78-.83c-.26-.33-.53-.74-.8-1.22-.28-.48-.51-.89-.69-1.22-.15-.52-.3-.83-.44-.94-.26-.33-.41-.65-.44-.94l-.22-.66-.22-.55-.06-.17v.28l-.11,1.38v.33l.06,1.27c.07.85.13,1.33.17,1.44.04.48.04,1.44,0,2.88,0,.7.02,1.11.06,1.22.07.22.11.42.11.61s-.02.33-.06.44c-.04.37-.06.9-.06,1.61l-.06.83-.17,2.94v.66l.06,1v.83c-.04.15-.06.35-.06.61.07.15.07.33,0,.55,0,.37-.02.65-.06.83v.5h-.17c-.07-.04-.13-.04-.17,0-.04.04-.07.11-.11.22-.19.33-.33.53-.44.61-.07,0-.13-.06-.17-.17ZM80.32,16.52l.11.55.06.83.11.94c.15.7.24,1.38.28,2.05l.17.78.17.72c.07.15.11.39.11.72.15.89.29,1.61.44,2.16l.28,1.38.22,1.05.17.66s.06.28.17.72l.11.72c.04.15.13.53.28,1.14.15.61.24.91.28.91l-.06-.78-.06-1.33-.17-2.55c0-.59-.02-.96-.06-1.11l-.06-.72-.11-1.55c-.04-.15-.06-.3-.06-.47s-.02-.34-.06-.53l-.06-1.05-.11-.55c0-.22-.09-.92-.28-2.1,0-.3-.04-.59-.11-.89-.15-.41-.28-1.03-.39-1.88-.04-.18-.07-.39-.11-.61-.04-.22-.09-.44-.17-.67-.04-.18-.2-.74-.5-1.66l-.11-.17-.06.11c-.15.3-.27.79-.36,1.47-.09.68-.12,1.25-.08,1.69Z"/>
  <path class="cls-1" d="M109.07,61.71c-.41-.07-.76-.22-1.05-.44-.19-.07-.3-.17-.33-.28-.15-.15-.29-.3-.42-.47-.13-.17-.23-.32-.3-.47l-.28-.55c-.41-.85-.65-1.55-.72-2.1,0-.04-.06-.28-.17-.72-.11-.44-.17-.68-.17-.72l-.11-.66-.17-.78c-.07-.37-.11-.72-.11-1.05l-.06-.83c-.04-.15-.06-.31-.06-.5s-.02-.37-.06-.55c0-.26-.02-.54-.06-.86-.04-.31-.06-.62-.06-.91-.07-.96-.11-1.55-.11-1.77,0-.26,0-.63.03-1.11.02-.48.03-1.14.03-1.99v-1.94c.04-2.92.09-4.47.17-4.65l.06-.61c0-.66.06-1.29.17-1.88v-.89c0-.44.02-.78.06-1,.04-.22.09-.81.17-1.77l.06-1.16c.04-.26.06-.61.08-1.05.02-.44.06-.94.14-1.5l.06-.72c.07-.29.11-1.03.11-2.22l.06-1.55.06-1.22.06-.89c.07-.59.11-1.18.11-1.77,0-.63.04-1.05.11-1.27l.06-.61c.04-.07.02-.61-.06-1.61,0-.37.02-.66.06-.89,0-.11,0-.23.03-.36.02-.13,0-.19-.03-.19l.06-1.5.06-2.22c0-1,.06-1.68.17-2.05l.22-.61.11-.39s.11-.06.33-.06h.39l.06.17c.11.11.17.19.17.22.04.04.11.24.22.61.04.19.06.98.06,2.38,0,.96-.02,1.55-.06,1.77v.72c.04.33.04.63,0,.89l-.11,1.27v2.33c-.04.85-.04,1.37,0,1.55.07.19.07.42,0,.72-.07.07-.11.31-.11.72l-.11,1c-.11.33-.17.67-.17,1l.06.39c.07.11.1.25.08.42-.02.17-.05.42-.08.75l-.17,1.27-.06,1c0,.37-.02.63-.06.78l-.17.89c0,.37-.02.55-.06.55l-.17,1.05c-.07.44-.11.79-.11,1.05s-.02.48-.06.66c0,.52-.02.79-.06.83l-.11,1c0,.55-.04.91-.11,1.05l-.06,1.38-.06,1.22-.06.89-.06,1.05c-.04.11-.06.37-.06.78,0,.3-.04.63-.11,1-.04.19-.06.57-.06,1.16,0,.41.02.68.06.83,0,.22-.02.37-.06.44,0,.04,0,.19-.03.44-.02.26-.03.76-.03,1.5-.04.63-.06,1.38-.06,2.27-.04.33-.04.54,0,.61.07.15.11.5.11,1.05.04,1.4.15,2.58.33,3.54l.22,1.05.17,1.11c.07.44.13.68.17.72,0,.29.07.59.22.89,0,.04.06.22.17.55.07.22.18.46.33.72.15.22.22.41.22.55.11.48.42.87.94,1.16.18.11.39.17.61.17s.37-.02.44-.06l.55-.11c.37-.04.65-.13.83-.28.22-.11.35-.17.39-.17.37-.19.65-.37.83-.55.22-.22.44-.37.66-.44l.39-.28.61-.39c.63-.44,1.37-1.03,2.22-1.77l.61-.5c.55-.33.94-.65,1.16-.94l.61-.72c.37-.37.74-.81,1.11-1.33.04-.07.15-.2.33-.39.11-.04.17-.09.17-.17l.83-.83c.55-.55.83-.87.83-.94l.11-.22c.04-.15.24-.37.61-.66.26-.18.41-.31.44-.39.11-.15.52-.57,1.22-1.27l1.61-1.83.33-.44.22-.33c.07-.15.17-.3.3-.47.13-.17.25-.29.36-.36l.28-.33c.11-.18.29-.42.53-.69.24-.28.42-.47.53-.58l.06.11s.05.05.14.03c.09-.02.19-.06.3-.14.07-.04.17-.06.28-.06l.11-.06s.06-.05.08-.03c.02.02.05.03.08.03l.11.11-.11.17c-.26.78-.57,1.37-.94,1.77l-.55.83c-.07.11-.18.25-.3.42-.13.17-.29.34-.47.53l-.72.89c-.07.11-.24.3-.5.55-.22.22-.35.39-.39.5l-.5.55c-.81.85-1.27,1.37-1.38,1.55l-.72.83-1.22,1.27c-.59.59-.92.94-1,1.05-1.51,1.51-2.42,2.4-2.71,2.66l-.83.72-.39.33-.44.33c-.19.26-.42.46-.72.61-.44.33-.79.57-1.05.72l-.83.61-1,.66s-.1.08-.19.14c-.09.06-.19.1-.3.14-.26.15-.59.29-1,.44-.41.15-.72.24-.94.28-.52.07-.92.11-1.22.11h-.33Z"/>
  <path class="cls-1" d="M130.94,53.24c-.15-.15-.22-.24-.22-.28l-.06-.22c-.04-.15-.06-.33-.06-.55s.02-.39.06-.5v-1.05c.04-.26.06-.52.06-.78s.02-.48.06-.66v-.5c.07-.15.11-.39.11-.72v-.06s-.05-.36-.03-.97c.02-.61.03-.93.03-.97l.06-.17c-.07-.07-.07-.24,0-.5v-4.32c0-.07,0-.17-.03-.3-.02-.13,0-.23.03-.3l-.06-1.72s-.06-.26-.06-.78l-.06-.83s-.04-.09-.11-.17c-.07-.04-.11-.11-.11-.22l-.06-.22c-.07-.15-.11-.31-.11-.5,0-.15.02-.26.06-.33.04-.11.12-.23.25-.36s.25-.23.36-.3c.37-.11.74-.02,1.11.28.04.11.15.2.33.28.15.15.22.33.22.55,0,.19-.02.3-.06.33-.07.04-.13.09-.17.17-.04.07-.06.15-.06.22l.11.28s.06.09.06.17l.11.17s.04.09,0,.17l-.06.22-.11.22c-.04.11-.02.2.06.28.04.07.04.26,0,.55-.07.11-.07.2,0,.28,0,.07-.02.13-.06.17l-.06.22c0,.15-.02.26-.06.33-.07.33-.07.5,0,.5v.11c-.04.07-.06.19-.08.33-.02.15-.03.28-.03.39v.33c.07.44.06.74-.06.89-.07.19-.07.33,0,.44.04.04.04.09,0,.17l-.06.44-.06.44c-.04.11-.04.17,0,.17v.44l.06.89c.04.19.04.33,0,.44-.04.07-.05.18-.03.3.02.13.05.21.08.25.04.07.04.13,0,.17-.07.07-.11.19-.11.33-.04.22-.05.43-.03.64.02.2.05.36.08.47v.17c-.04.07-.06.3-.06.66l-.11.55s-.06.08-.08.14c-.02.06,0,.14.03.25l.11.39c.07.15.09.28.06.39l-.06.28c0,.07.02.13.06.17.15.07.17.17.06.28-.07.07-.09.15-.06.22,0,.15-.02.26-.06.33-.07.15-.11.31-.11.5l.06.22s.06.11.06.22.02.17.06.17v.22c-.04.11-.11.17-.22.17l-.33.11-.33.06c-.07,0-.19-.07-.33-.22ZM130.45,30.81s-.04.11,0,.22c.04.11.07.19.11.22,0,.15.09.26.28.33.07.07.19.16.36.25.17.09.3.19.42.3v.14c0,.06.03.07.08.06.06-.02.16-.06.3-.14.04-.04.17-.07.39-.11.22-.04.39-.11.5-.22l-.11-.06c.07-.04.11-.08.11-.14s-.04-.1-.11-.14c-.04,0-.06-.04-.06-.11v-.17c-.07,0-.09-.02-.06-.06.04-.04.06-.07.06-.11s.02-.06.06-.06l-.06-.17v-.06c.15,0,.17-.07.06-.22v-.11s-.06-.07-.06-.22c0-.11-.04-.24-.11-.39-.07-.15-.17-.24-.28-.28-.26-.11-.54-.11-.83,0-.07,0-.15.07-.22.22-.07.07-.16.13-.25.17-.09.04-.16.04-.19,0-.07,0-.07.04,0,.11-.04.04-.07.06-.11.06-.11.04-.13.07-.06.11.04.04,0,.06-.11.06-.07,0-.12,0-.14.03-.02.02,0,.06.03.14.07.04.11.1.11.19s-.04.14-.11.14Z"/>
  <path class="cls-1" d="M143.24,54.46l-.22-.17s-.02-.08-.06-.14c-.04-.06-.07-.1-.11-.14l-.28-.39c-.11-.22-.2-.5-.28-.83-.07-.33-.13-.65-.17-.94,0-2.22.04-3.66.11-4.32l.17-1.94.06-.89.06-.83c.11-.33.17-.79.17-1.38.04-.11.06-.23.06-.36s.02-.25.06-.36l.11-.67v-.39c.07-.37.11-1.29.11-2.77,0-.48-.02-.89-.06-1.25-.04-.35-.09-.51-.17-.47l-.11.28s-.03.1-.08.19c-.06.09-.1.16-.14.19l-.17.39-.11.33-.17.44-.17.44c-.07.07-.11.17-.11.28-.26.78-.5,1.38-.72,1.83-.11.22-.17.35-.17.39l-.17.39-.17.5-.22.55-.5,1.16c-.11.3-.19.48-.22.55l-.22.55-.28.55-.17.33-.5.94c-.19.26-.3.46-.33.61l-.22.5-.44.55-.44.61c-.37.44-.68.7-.94.78-.19.07-.41.11-.66.11-.3,0-.53-.06-.69-.17-.17-.11-.34-.35-.53-.72l-.22-.33c0-.18-.02-.35-.06-.5-.15-.52-.26-1.05-.33-1.61-.07-.55-.11-1.05-.11-1.5l.06-1.05c.04-.22.06-.44.06-.66s.02-.39.06-.5c.04-.11.06-.41.06-.89v-.33c-.04-.22-.04-.44,0-.66.04-.18.06-.87.06-2.05,0-1.03.02-1.68.06-1.94.04-.33.07-.48.11-.44.04.04.07.04.11,0s.07-.09.11-.17c.04-.04.07-.04.11,0h.11l.11.17c.07.11.17.17.28.17s.26.11.44.33c.11.22.18.46.22.72.07.52.11,1.03.11,1.55v.78c.04.26.04.46,0,.61-.07.22-.11.92-.11,2.1,0,.59.02.91.06.94.04.04.05.09.03.17-.02.07-.05.15-.08.22l-.11.55c0,.3-.02.46-.06.5-.04.11-.05.25-.03.42.02.17.05.27.08.3.04.04.06.31.06.83,0,.33.02.58.06.75.04.17.09.29.17.36,0,.04,0,.07.03.11.02.04,0,.06-.03.06l.06.22v.11l.22-.22.28-.39.17-.28s.13-.11.28-.33l.44-.66c.18-.26.28-.42.28-.5.04-.15.15-.41.33-.78l.28-.55.22-.55c.07-.07.17-.22.28-.44,0-.11.04-.2.11-.28.15-.18.28-.4.39-.64.11-.24.17-.42.17-.53,0-.15.07-.31.22-.5l.33-.66c.18-.52.39-.98.61-1.38.15-.26.2-.41.17-.44,0-.07.06-.22.17-.44.37-.81.57-1.33.61-1.55,0-.11.02-.19.06-.25.04-.06.06-.12.06-.19l.17-.39c.07-.33.29-.76.66-1.27.07-.07.2-.18.39-.33l.44-.11c.52,0,.85.28,1,.83l.28.5.11.22v4.26c.04.19.04.31,0,.39l-.06.39-.06.61s-.06.39-.17,1.05c0,.52-.04.81-.11.89-.11.33-.17.76-.17,1.27l.06,1.05c.04.26.04.44,0,.55l-.17,1.22c0,.19.02.3.06.33.15.15.17.33.06.55-.07.22-.11.44-.11.66l-.06.83c-.07.78-.07,1.35,0,1.72l.17.89.06.17c.07.15.11.28.11.39,0,.18.04.31.11.39.04.07.05.12.03.14-.02.02-.06.03-.14.03-.11.04-.19.13-.22.28l-.06.39-.11.06-.11.06-.17-.11Z"/>
  <path class="cls-1" d="M157.08,62.54c-.19-1.07-.24-2.09-.17-3.05l.11-1.44.22-2.6.11-1c0-.15.02-.3.06-.44.04-.15.07-.3.11-.44,0-.15.02-.33.06-.55.04-.22.06-.42.06-.61l.11-.94.11-.55c0-.22.02-.42.06-.61l.28-2.16.11-1.11.28-1.61.11-1.05s.11-.55.22-1.55c.04-.07.06-.18.06-.33s.02-.28.06-.39c0-.22.07-.7.22-1.44.04-.22.07-.47.11-.75.04-.28.06-.53.06-.75l.06-.55-.17-.39c-.41-.66-.63-.98-.66-.94l-.66,1.77c-.22.59-.42,1.05-.61,1.38l-.44,1.11c-.3.7-.55,1.24-.78,1.61l-.66,1.16c-.44.92-.91,1.68-1.38,2.27-.11.19-.21.33-.3.44-.09.11-.16.2-.19.28-.3.48-.56.87-.8,1.16-.24.3-.54.59-.91.89-.48.41-.92.74-1.33,1-.7.48-1.48.72-2.33.72-1.33,0-2.27-.53-2.82-1.61-.15-.26-.3-.78-.44-1.55-.04-.37-.02-1.02.06-1.94.11-.66.24-1.31.39-1.94.18-.78.42-1.53.72-2.27.11-.18.18-.35.22-.5.04-.15.07-.24.11-.28.11-.3.24-.57.39-.83l.39-.78s.06-.09.08-.17c.02-.07.06-.15.14-.22.11-.11.24-.31.39-.61.89-1.37,1.7-2.42,2.44-3.16.33-.33.78-.66,1.33-.97.55-.31,1.05-.54,1.5-.69.78-.26,1.38-.39,1.83-.39.59.04,1.22.19,1.88.44.52.19.94.39,1.27.61l.28.17c0-.07.06-.27.19-.58.13-.31.29-.78.47-1.41.33-1.03.65-1.9.94-2.6.3-.74.44-1.22.44-1.44,0-.18.07-.48.22-.89l.28-.94.17-.55c.41-1.44.63-2.27.66-2.49l.28-1.16c.07-.22.24-1.01.5-2.38.18-.92.31-1.66.39-2.22.29-1.4.5-2.2.61-2.38.11-.18.31-.28.61-.28.48,0,.72.24.72.72,0,.15-.09.55-.28,1.22,0,.15-.02.3-.06.44-.04.15-.07.3-.11.44l-.22,1.05c-.26.89-.46,1.68-.61,2.38l-.11.61-.17.83c0,.37-.07.85-.22,1.44-.04.22-.07.44-.11.66-.04.22-.06.42-.06.61l-.17.83c-.11.55-.17,1.11-.17,1.66,0,.26-.06.61-.17,1.05l-.17.83-.11.89c-.3,1.48-.48,2.57-.55,3.27-.15.96-.3,1.72-.44,2.27-.04.33-.11.65-.22.94l-.06.28.17.33c.18.44.36.98.53,1.61.17.63.25,1.16.25,1.61,0,.59-.22,1.26-.66,1.99l-.17.39h-.44c-.11.11-.17.04-.17-.22v-.06l-.11.55c0,.26-.09.81-.28,1.66l-.11,1.38v.33c.04.22-.02.68-.17,1.38-.15.41-.22.79-.22,1.16l-.06.66c-.07.15-.11.33-.11.55,0,.19-.04.46-.11.83l-.39,2.22-.17,1.16c0,.18-.02.43-.06.75-.04.31-.06.64-.06.97,0,.3-.02.61-.06.94-.04.33-.07.61-.11.83-.04.11-.06.31-.06.61.04.18.02.53-.06,1.05l-.11,1.05-.06.39-.11-.06s-.07-.04-.11,0l-.11.22c-.11.22-.19.35-.22.39l-.17.33c0,.07-.06.11-.17.11-.07,0-.11-.04-.11-.11ZM146.62,48.26c.18.48.35.81.5,1,.26.26.66.39,1.22.39.18,0,.39-.04.61-.11.44-.11.81-.29,1.11-.55.11-.11.28-.22.5-.33.15-.11.36-.3.64-.58.28-.28.51-.54.69-.8l.5-.55c.41-.41.78-.98,1.11-1.72l.61-1.05c.29-.52.57-1.05.83-1.61l.94-1.88.28-.66s.09-.15.17-.33c.07-.18.2-.46.39-.83.37-.81.61-1.38.72-1.72.15-.41.22-.65.22-.72,0-.11-.09-.2-.28-.28l-.66-.39c-.22-.15-.42-.26-.61-.33-.19-.07-.42-.13-.72-.17-.19-.04-.41-.06-.66-.06-.15.04-.35.06-.61.06-.59.11-1.03.26-1.33.44-.3.19-.65.48-1.05.89-.41.41-.67.72-.78.94-.19.37-.37.59-.55.66-.26.26-.54.61-.83,1.05-.11.22-.33.55-.66,1-.19.22-.36.5-.53.83-.17.33-.29.63-.36.89,0,.19-.07.42-.22.72-.44,1.11-.76,2.01-.94,2.71-.11.26-.19.68-.22,1.27-.04,1.03-.04,1.64,0,1.83ZM159.36,35.3l.28.33c.18.22.28.3.28.22.04,0,.06-.08.06-.25s.02-.3.06-.42l.17-.94c.07-.22.11-.52.11-.89l.22-1.16.11-.61-.22.61-.78,2.44-.28.67Z"/>
</svg>