<?xml version="1.0" encoding="UTF-8"?>
<svg id="Lager_1" xmlns="http://www.w3.org/2000/svg" viewBox="0 0 281.73 109.07">
  <defs>
    <style>
      .cls-1 {
        fill: #fff;
      }
    </style>
  </defs>
  <path class="cls-1" d="M9.75,102.23c-.57-.13-.85-.28-.85-.47l-.09-.09c-.13,0-.35-.16-.66-.47h-.1c-.13,0-.19-.06-.19-.19-.13-.06-.16-.22-.09-.47l.28-.57.28-.38.28-.19.38-.19.38-.19c.19-.06.38-.06.57,0l.28.09c0-.06.06-.16.19-.28.19-.19.28-.32.28-.38l.19-.19.19-.1c0-.06.03-.09.09-.09s.16-.06.28-.19c.13-.13.22-.28.28-.47l.09-.1.19-.19.38-.28c.13,0,.19-.06.19-.19.06-.13.16-.25.28-.38.13-.13.25-.22.38-.28l.19-.09c0-.06.06-.1.19-.1.25,0,.38-.13.38-.38.06-.06.13-.1.19-.1s.16-.06.28-.19l.38-.19c.25-.06.38-.13.38-.19,0-.13.06-.19.19-.19.06-.06.16-.14.28-.24.13-.09.22-.21.28-.33l.19-.19c.32-.25.5-.35.57-.28.06,0,.14-.06.24-.19.1-.13.14-.22.14-.28s.06-.09.19-.09c.25,0,.41-.1.47-.28.06-.06.06-.13,0-.19l-.19-.19-.28-.38-.38-.57c-.32-.44-.51-.79-.57-1.04l-.38-1.04c-.06-.13-.19-.44-.38-.95l-.47-2.18-.19-.66-.28-.85c0-.25-.03-.41-.09-.47l-.1-.76-.28-1.04c-.13-.25-.19-.57-.19-.95l-.28-1.14c0-.19-.03-.43-.09-.71-.06-.28-.1-.52-.1-.71l-.28-1.14c-.13-.38-.19-.73-.19-1.04l-.09-.95c-.06-.13-.1-.28-.1-.47l-.19-.57-.09-1.04-.1-1.14c-.06-.13-.09-.35-.09-.66s-.03-.53-.09-.66c-.06-.13-.1-.44-.1-.95l-.09-1.23-.1-1.33-.19-1.23c-.13-.25-.19-.73-.19-1.42l-.19-1.99c-.13-.63-.19-1.2-.19-1.7,0-.57-.06-1.04-.19-1.42l-.09-1.89c0-.95-.03-1.48-.1-1.61v-1.8c-.06-.38-.09-.82-.09-1.33s-.03-1.01-.1-1.51c0-1.51-.03-2.37-.09-2.56l-.1-2.56-.09-4.16c-.06-.82-.09-1.86-.09-3.12,0-1.07-.02-1.89-.05-2.46-.03-.57-.05-.98-.05-1.23,0-.38.02-.68.05-.9.03-.22.05-.39.05-.52,0-.5-.03-.91-.1-1.23-.06-.5-.06-.91,0-1.23v-3.03c0-5.49.06-8.99.19-10.51l.19-2.08c.06-.25.09-.5.09-.76s.03-.47.1-.66c.06-.44.03-1.1-.1-1.99,0-.38.03-.72.1-1.04l.09-.66v-.85l.28-3.03c0-.38.1-1.04.28-1.99.13-.44.16-.66.09-.66-.06-.13-.16-.13-.28,0-.06,0-.11.02-.14.05-.03.03-.08.02-.14-.05h-.19l-.1.1c-.38.13-.6.22-.66.28l-.47.09c-.76.19-1.23.38-1.42.57l-.19.09h-.19c-.06.06-.16.1-.28.1l-.19.09c-.06.06-.19.1-.38.1s-.28.06-.28.19c-.13.13-.25.16-.38.1-.13,0-.22.03-.28.09l-.38.19-.28.19-.28.09c-.13,0-.32.06-.57.19l-.28.19h-.1c0,.06-.06.13-.19.19-.13.06-.25.09-.38.09-.19,0-.32.03-.38.1s-.22.09-.47.09c-.19,0-.38.13-.57.38-.13.13-.32.19-.57.19-.44,0-.79-.13-1.04-.38-.25-.25-.41-.6-.47-1.04,0-.69.09-1.07.28-1.14l.38-.47.28-.57c.06-.13.14-.2.24-.24.09-.03.24-.05.43-.05.06.06.14.1.24.1s.17.03.24.09c.06.06.19.06.38,0,.13,0,.19.03.19.1.06.06.13.08.19.05.06-.03.09-.08.09-.14.06-.13.22-.19.47-.19l.38-.09c0-.06.22-.1.66-.1.38,0,.6-.03.66-.09.06-.06.25-.09.57-.09l.47-.19c.13-.13.22-.19.28-.19l.28-.1c.06-.06.16-.09.28-.09h.19c0-.13.09-.13.28,0,.13.06.25.03.38-.09s.19-.16.19-.1c.19,0,.32-.03.38-.09l.57-.1h.28c0-.13.13-.19.38-.19l.76-.28c.19-.19.41-.28.66-.28h.38l.09-.1c.13,0,.19-.03.19-.09l.38-.09c.31,0,.5-.03.57-.1l.47-.09.38-.19c0-.06.06-.1.19-.1h.09l1.04-.09h.28c.13.06.28,0,.47-.19l.38-.38v-.09h.47c.19,0,.28-.06.28-.19.06-.13.13-.16.19-.09.06.06.16.09.28.09.06-.06.25-.09.57-.09s.5-.06.57-.19c.06-.06.13-.11.19-.14.06-.03.09-.02.09.05.13,0,.19-.03.19-.09l.19-.09c.13,0,.22.06.28.19l.28.57c.19.25.28.51.28.76l-.1.38c-.06.19-.16.35-.28.47-.13.13-.22.19-.28.19l-.28.1-.38.09h-.19l-.09.09h-.19l-.19.1h-.19c0,.13-.28.19-.85.19l-.19.09c-.06.06-.16.1-.28.1l-.28.09-.38.09h-.28c-.06.06-.25.1-.57.1-.38,0-.47.16-.28.47.19.32.25.7.19,1.14l-.28,1.04-.19-.1c-.06,0-.1.28-.1.85l-.19,1.7-.09,1.61c0,.63-.03.98-.1,1.04-.13.25-.19,1.42-.19,3.5,0,.76.01,1.28.05,1.56.03.28.05.46.05.52.06.06.09.16.09.28s-.03.25-.09.38c-.13.25-.19.54-.19.85-.06.19-.09.38-.09.57s-.03.35-.1.47c-.13.38-.19.7-.19.95l.1.57c.13.13.17.32.14.57-.03.25-.08.63-.14,1.14l-.19,1.51.09.66c0,.32-.03.51-.09.57l-.09.95c0,.57-.06,1.1-.19,1.61-.06.38-.1,1.01-.1,1.89,0,1.26-.03,2.18-.09,2.74v1.99c.06.19.09.6.09,1.23v1.33c.13.25.13.63,0,1.14-.06.38-.06.66,0,.85v.47c-.13.63-.19,1.04-.19,1.23l.1.66v3.12c0,1.33-.03,2.15-.1,2.46,0,.57.03.92.1,1.04.06.06.09.63.09,1.7,0,1.2.03,1.96.1,2.27.06.19.09.36.09.52s.03.3.1.43c.06.44.09,1.36.09,2.74v1.04l.09,1.04c.06.19.1.36.1.52s.03.3.09.43c.06.06.1.79.1,2.18v1.14l.09.85c.13.38.19.7.19.95v.95c.06.13.09.28.09.47s.03.35.1.47c0,.38.06.63.19.76.06.13.09.38.09.76.13,1.96.25,3.16.38,3.6.06.51.09,1.17.09,1.99,0,.7.06,1.2.19,1.51l.28,1.14.19.76.28.57.09.38c.06,0,.09.13.09.38l.1.66c.06.13.09.28.09.47s.03.35.1.47c0,.82.13,1.29.38,1.42.25.13.32.44.19.95,0,.38.03.66.1.85.06.19.19.79.38,1.8l.19,1.23.19.95.19.47.09.28.19.47c.25.63.38,1.04.38,1.23s.06.35.19.47.22.41.28.85l.19.85-.09.1h-.19c-.13.06-.22.17-.28.33-.06.16-.09.33-.09.52v.09c0,.06.03.08.09.05.06-.03.13-.08.19-.14,0-.13.22-.25.66-.38l.38-.19c.06-.06.19-.09.38-.09.13.06.28,0,.47-.19l.19-.38c.06-.19.25-.32.57-.38.13,0,.19-.09.19-.28s.06-.22.19-.09c.13,0,.22-.03.28-.1.06-.06.16-.09.28-.09.19,0,.41-.06.66-.19,0-.13.03-.19.09-.19l.09-.09c0-.06.02-.11.05-.14.03-.03.05-.02.05.05.13,0,.19-.03.19-.09,0-.13.03-.19.09-.19h.19c.06-.06.09-.03.09.09l.38.47c.19.19.33.36.43.52.1.16.14.33.14.52,0,.32-.1.57-.28.76l-.57.38-.19.1-.38.19-.28.19-.38.28-.47.19c0,.13-.09.19-.28.19l-.38.19-.57.28-.19.09-.1.1c-.19,0-.35.05-.47.14-.13.09-.22.17-.28.24l-.19.19c-.25,0-.6.22-1.04.66-.19.19-.35.28-.47.28l-.19.1-.09.09c-.06,0-.16.06-.28.19-.06.06-.16.1-.28.1l-.09.09-.19.09c-.06.06-.16.16-.28.28-.13.13-.19.22-.19.28l-.28.19c-.13,0-.32.13-.57.38-.06.06-.13.13-.19.19-.06.06-.13.1-.19.1l-.19.19-.19.28c-.13,0-.19.06-.19.19l-.19.19c-.06,0-.1.03-.1.09l-.28.19c-.13,0-.19.06-.19.19s-.03.22-.09.28c-.06,0-.16.06-.28.19,0,.13-.16.41-.47.85-.06,0-.09.03-.09.09s-.03.13-.09.19c0,.25-.06.38-.19.38v.19l-.1.19-.09.09c-.13.19-.32.38-.57.57-.25.25-.47.43-.66.52-.19.1-.47.14-.85.14h-.76Z"/>
  <path class="cls-1" d="M28.62,93.46c-1.26-.32-1.99-1.04-2.18-2.18,0-.38.03-.66.1-.85,0-.06.09-.38.28-.95.13-.7.33-1.29.62-1.8.28-.5.77-1.23,1.47-2.18.63-1.01,1.14-1.7,1.51-2.08.13-.19.25-.38.38-.57.13-.19.22-.35.28-.47.06-.13.41-.5,1.04-1.14l.95-1.14.47-.66.76-.76c.25-.38.57-.76.95-1.14l1.8-2.08.38-.38c.19-.19.5-.63.95-1.33.13-.25.47-.66,1.04-1.23.82-.95,1.51-1.8,2.08-2.56l.76-.95,1.42-2.08c.06-.19.19-.38.38-.57s.38-.47.57-.85l.66-1.04c.32-.31.5-.6.57-.85l.66-1.14c.31-.44.53-.85.66-1.23.19-.57.38-.98.57-1.23.25-.44.43-.88.52-1.33.1-.44.14-1.01.14-1.7,0-.19-.06-.41-.19-.66-.06-.13-.19-.27-.38-.43-.19-.16-.35-.24-.47-.24l-.47-.1c-.95-.13-2.18.03-3.69.47l-1.14.28c-.38.06-.95.25-1.7.57-.63.25-1.04.38-1.23.38-.25.13-.47.19-.66.19-.63.32-1.07.6-1.33.85-.06.13-.35.32-.85.57-1.26.57-2.59,1.55-3.98,2.93l-.95.95c-.06,0-.14.05-.24.14-.1.09-.17.21-.24.33l-.28.47-.19-.09c-.06-.06-.19-.03-.38.09-.13.06-.19.06-.19,0l-.1-.09c-.06,0-.09-.13-.09-.38,0-.19-.1-.38-.28-.57l-.28-.19v-.57c0-.25.06-.5.19-.76.19-.44.5-.91.95-1.42.57-.69,1.29-1.33,2.18-1.89l.85-.66c.25-.25.47-.41.66-.47.19-.06.69-.35,1.51-.85l1.14-.57c1.77-.88,2.71-1.39,2.84-1.51.13-.13.35-.19.66-.19l1.04-.19,1.14-.19c.63,0,1.14-.13,1.51-.38.13-.06.66-.1,1.61-.1,1.01,0,2.05.1,3.12.28.31.06.6.22.85.47.57.51.98,1.01,1.23,1.51.19.32.32.73.38,1.23,0,.7-.13,1.58-.38,2.65l-.19,1.04c0,.19-.03.32-.09.38-.06,0-.22.35-.47,1.04-.19.44-.44.92-.76,1.42l-.47.85c-.25.57-.51,1.04-.76,1.42l-.66,1.14c-.38.57-.63.92-.76,1.04-.32.32-.47.54-.47.66,0,.06-.25.35-.76.85-.7.76-1.07,1.29-1.14,1.61-.19.32-.38.54-.57.66l-.76.85c-.82,1.07-1.51,1.83-2.08,2.27-.44.44-.66.76-.66.95l-.47.57-1.99,2.37-.38.57-.47.66c-.06.13-.17.28-.33.47-.16.19-.33.41-.52.66l-.85.95c-.13.13-.22.19-.28.19-.13.06-.25.17-.38.33-.13.16-.22.3-.28.43l-.38.47c-.25.25-.44.54-.57.85-.06.19-.22.41-.47.66l-1.33,1.51-.38.47c-.19.19-.32.38-.38.57-.19.38-.35.63-.47.76l-.76,1.23c-.25.57-.38.98-.38,1.23l-.09.57c-.13.32-.13.5,0,.57.06.06.32.09.76.09s.85-.06,1.23-.19l.85-.19c.57,0,1.36-.25,2.37-.76.69-.25,1.14-.51,1.33-.76l.28-.19c.13,0,.22-.03.28-.09.13-.19.25-.28.38-.28l.57-.19.85-.38c.95-.32,1.42-.6,1.42-.85.06-.06.17-.14.33-.24.16-.09.36-.17.62-.24.25,0,.5-.06.76-.19.25-.25.82-.54,1.7-.85l2.65-1.33.57-.47c.19-.13.38-.25.57-.38.19-.13.35-.19.47-.19.06,0,.13-.03.19-.09.06-.06.13-.13.19-.19.06-.13.3-.3.71-.52.41-.22.71-.36.9-.43l.1.19c.13.13.47.19,1.04.19.13,0,.25.06.38.19.06.13.03.32-.09.57l-.28.28-.47.47-.66.76c-.63.44-1.36.92-2.18,1.42l-1.04.66-.85.38-.66.38-.57.28-.47.19c0,.06-.25.22-.76.47-.51.25-.82.44-.95.57l-.85.38c-.19.13-.39.24-.62.33-.22.1-.43.17-.62.24l-.76.38-1.04.47c-.25.13-.52.25-.8.38-.28.13-.55.25-.8.38-.25.06-.57.19-.95.38-1.64.63-2.97,1.01-3.98,1.14l-.76.09c-.32.13-.82.13-1.51,0Z"/>
  <path class="cls-1" d="M56.55,88.53c-1.07,0-2.05-.5-2.94-1.51-.63-.76-1.01-1.61-1.14-2.56-.31-1.89-.41-3.16-.28-3.79.13-.25.19-.63.19-1.14.13-1.2.28-2.05.47-2.56l.28-1.23c.06-.76.28-1.61.66-2.56l.57-1.51c.31-.95.77-2.02,1.37-3.22.6-1.2,1.12-2.05,1.56-2.56l.57-.85c.06-.06.66-.82,1.8-2.27.31-.32.53-.5.66-.57l.85-.66c.13-.13.38-.28.76-.47l.85-.38c.63-.31,1.45-.47,2.46-.47h.57c.5,0,1.04.1,1.61.28.95.32,1.7.82,2.27,1.51l1.33,1.99.38.57c.13.19.25.43.38.71.13.28.22.55.28.8l.28.95.1.47.19-.47c.13-.13.22-.27.28-.43.06-.16.13-.3.19-.43l.38-1.04c.25-.38.38-.76.38-1.14.13-.5.28-.88.47-1.14.19-.19.28-.38.28-.57l1.23-2.46c.63-1.33,1.1-2.18,1.42-2.56.32-.38.66-.57,1.04-.57.69,0,1.04.41,1.04,1.23l-.1.57c-.06.38-.16,1.77-.28,4.17l-.09,1.89-.19.95-.19,1.04c-.06.19-.1.44-.1.76,0,.38.03.73.1,1.04,0,.32-.06.66-.19,1.04-.13.25-.19.6-.19,1.04l-.28,2.37c-.19,1.14-.28,2.11-.28,2.93,0,.51.06,1.07.19,1.7.06.13.1.28.1.47s.03.38.09.57c0,.38.03.6.1.66l.28.57.28.47v.28c0,.19.13.32.38.38.06.06.14.1.24.1s.17.03.24.09c.06,0,.1-.03.1-.09s.08-.06.24,0c.16.06.24.16.24.28,0,.06-.1.16-.28.28-.38.32-.85.51-1.42.57-.44,0-.88-.13-1.33-.38-.63-.5-1.1-1.42-1.42-2.74l-.28-1.04v-1.7c0-2.27.06-3.66.19-4.16l.1-.66c0-.5.03-.88.09-1.14l.09-1.23c0-.44.03-.76.1-.95l.19-1.51c.19-1.33.28-2.02.28-2.08l.19-.85c-.13.13-.25.35-.38.66-.13.32-.22.6-.28.85l-.85,1.89-1.23,2.74c-.06.19-.14.4-.24.62-.09.22-.17.43-.24.62-.19.38-.28.73-.28,1.04.06.44.08.98.05,1.61-.03.63-.08,1.1-.14,1.42,0,.19-.1.47-.28.85l-.38.76c-.19.88-.63,1.33-1.33,1.33-.32,0-.6-.13-.85-.38-.13-.06-.22-.06-.28,0l-.19.38c-.19.13-.35.35-.47.66-.63,1.07-1.14,1.8-1.51,2.18l-.57.76c-.38.57-1.12,1.42-2.22,2.56-1.1,1.14-1.88,1.86-2.32,2.18l-1.8,1.04-.95.38c-1.2.51-2.27.76-3.22.76ZM54.75,83.61l.09.76c0,.38.05.66.14.85.1.19.24.38.43.57.25.25.44.38.57.38l.47.1c.32.13.73.13,1.23,0,.5-.13,1.36-.47,2.56-1.04,1.14-.5,1.74-.88,1.8-1.14,0-.06.19-.28.57-.66.44-.38.93-.85,1.47-1.42.54-.57.93-1.04,1.18-1.42.19-.19.33-.36.43-.52.1-.16.17-.27.24-.33l.38-.66.57-1.04.85-1.23c.13-.25.24-.44.33-.57.1-.13.14-.22.14-.28.13-.06.25-.2.38-.43.13-.22.22-.43.28-.62.19-.38.35-.63.47-.76l.38-.95c0-.13.03-.24.1-.33.06-.1.09-.24.09-.43.06-.13.11-.3.14-.52.03-.22.02-.52-.05-.9-.06-1.01-.19-1.7-.38-2.08.06.06,0-.22-.19-.85,0-.95-.44-2.08-1.33-3.41-.19-.44-.57-.79-1.14-1.04-.32-.13-.51-.16-.57-.1l-.38-.09c-.13-.13-.32-.19-.57-.19s-.6.03-1.04.09c-.82.06-1.36.28-1.61.66l-.66.66c-.44.32-.88.71-1.33,1.18-.44.47-.73.84-.85,1.09l-.66.95-.66.85c-.06.19-.14.36-.24.52-.1.16-.18.27-.24.33-.25.38-.52.82-.8,1.33-.28.51-.49.95-.62,1.33l-.28,1.04-.19.57c-.13.06-.32.54-.57,1.42l-.47,1.7c-.06.19-.13.41-.19.66-.06.25-.1.44-.1.57l-.09,1.42c-.13.76-.19,1.64-.19,2.65l.1,1.33Z"/>
  <path class="cls-1" d="M115.68,56.63l-.19-1.33c-.13-1.26-.32-2.22-.57-2.89-.25-.66-.6-1.25-1.04-1.75-.76-.76-1.61-1.14-2.56-1.14s-1.8.28-2.56.85c-.76.57-1.7,1.58-2.84,3.03-1.89,2.78-2.97,4.48-3.22,5.11l-.66,1.23c-.44.57-.79,1.2-1.04,1.89-.06.44-.41,1.26-1.04,2.46l-.57,1.42-1.04,2.18-.57,1.42-.95,2.37-.85,1.99c-.82,2.15-1.29,3.28-1.42,3.41-.19.25-.38.82-.57,1.7l-.76,2.37-.47,1.42-.66,2.27c-.19.38-.28.6-.28.66l-1.14,3.79-.47,1.89-.19.57c-.13,0-.19-1.29-.19-3.88-.06-.51-.09-1.03-.09-1.56s-.03-.96-.1-1.28v-1.51l.1-1.33c.06,0,.09-.46.09-1.37s.03-1.75.1-2.51l.09-2.27c0-1.33.03-2.11.09-2.37,0-.06.06-1.14.19-3.22,0-1.83.1-3.37.28-4.64l.1-1.89c.06-.32.09-.66.09-1.04s.03-.66.1-.85l.09-2.37.19-3.03c.13-.76.19-1.8.19-3.12l.09-2.37c.13-.57.25-1.96.38-4.17.13-1.33.22-2.02.28-2.08l.1-.76c-.06-1.33.16-3.98.66-7.95l.28-1.89c0-.95.16-1.89.47-2.84l.19-.85.38-1.42.66-2.37.28-1.14v-1.42c0-1.33-.13-2.27-.38-2.84-.38-.76-.88-1.14-1.51-1.14-.88,0-1.45.6-1.7,1.8l-.38,2.93c0,.63-.03,1.33-.09,2.08-.06.76-.13,1.39-.19,1.89,0,.13-.1.47-.28,1.04-.13.38-.19.7-.19.95l-.1.95-.47,1.7c-.44,1.51-.7,2.37-.76,2.56-.57,1.58-1.01,2.97-1.33,4.16-.32,1.26-.76,2.43-1.33,3.5-.32.82-.54,1.48-.66,1.99-.19.51-.54,1.22-1.04,2.13-.11.21-.24.42-.36.63.11.79.06,1.61-.15,2.38.09.34.15.68.17,1.03.4.17.77.39,1.08.65.04-.06.07-.12.11-.18l.57-1.04c.44-.63,1.01-1.66,1.7-3.08.69-1.42,1.14-2.45,1.33-3.08l.28-1.04c.13-.44.22-.66.28-.66l-.28,2.65c-.13,1.01-.19,2.15-.19,3.41l-.1,2.37c-.13.19-.25,1.55-.38,4.07,0,.95-.06,1.74-.19,2.37l-.19,3.03-.1,2.74-.09,2.75-.1,3.5c-.13,1.58-.22,4.2-.28,7.86l-.09,2.18c0,1.07-.03,1.74-.1,1.99-.06.95-.06,2.02,0,3.22.06.57.1,1.17.1,1.8s.03,1.2.09,1.7c.13,2.33.28,3.98.47,4.92.19.76.57,1.29,1.14,1.61.06.06.22.09.47.09.5,0,.85-.19,1.04-.57l.38-.85.47-1.23c.19-.32.66-1.8,1.42-4.45l.38-1.42c.19-.38.35-.88.47-1.51.13-.82.41-1.77.85-2.84.32-.76.5-1.33.57-1.7l.47-1.14c.06-.13.11-.27.14-.43.03-.16.11-.36.24-.62.13-.5.28-.98.47-1.42l.38-1.04.57-1.7,1.23-3.03c.25-.69.49-1.26.71-1.7.22-.44.36-.76.43-.95l.57-1.42.66-1.33,1.33-3.03c.44-1.01.88-1.86,1.33-2.56.32-.44.5-.82.57-1.14,1.07-1.83,1.89-3.12,2.46-3.88l.95-1.23c.19-.32.57-.76,1.14-1.33.57-.57,1.01-.95,1.33-1.14.5-.25.85-.38,1.04-.38s.39.06.62.19c.22.13.36.28.43.47.13.32.25.71.38,1.18.13.47.22.93.28,1.37l.09,1.8c0,1.33-.06,2.3-.19,2.93l-.09,1.33-.19.85-.28,1.23c-.38,1.58-.7,2.81-.95,3.69-.06.32-.17.66-.33,1.04-.16.38-.27.73-.33,1.04-.06.25-.14.52-.24.8-.1.28-.21.55-.33.8l-.66,1.7c-.44.88-.7,1.36-.76,1.42l-.47,1.04c-.13.38-.35.84-.66,1.37-.32.54-.85,1.37-1.61,2.51-.25.51-.85,1.33-1.8,2.46-.13.06-.47.44-1.04,1.14-.44.57-.95,1.07-1.51,1.51-.63.57-1.25,1.1-1.85,1.61-.6.5-1.09.85-1.47,1.04l-.66.38-.57.38c-.13.06-.21.11-.24.14-.03.03-.02.05.05.05l.09.09c0,.19.47.28,1.42.28h.76c.13.13.13.19,0,.19v.1c0,.06.03.09.1.09l1.04-.47c1.33-.76,2.24-1.39,2.75-1.89.44-.44.76-.72.95-.85.95-.95,1.58-1.64,1.89-2.08l.76-1.04c.19-.19.41-.53.66-1.04l.57-.85c.31-.32,1.26-1.83,2.84-4.54l.47-.95c.57-.95,1.01-1.92,1.33-2.93.06-.5.31-1.17.76-1.99.5-1.07.76-1.83.76-2.27,0-.5.19-1.51.57-3.03.31-1.14.5-2.08.57-2.84.13-.5.19-.95.19-1.33.13-.63.19-1.26.19-1.89l-.09-1.23Z"/>
  <path class="cls-1" d="M121.86,88.44h-.47c-.32,0-.82-.16-1.51-.47-.95-.44-1.48-.82-1.61-1.14l-.57-.76c-.44-.44-.76-.98-.95-1.61-.06-.19-.13-.33-.19-.43-.06-.09-.16-.14-.28-.14-.32-.06-.6-.22-.85-.47-.06-.19-.25-.35-.57-.47-.13-.19-.16-.32-.1-.38.06-.06.06-.19,0-.38-.06-.13-.06-.22,0-.28.06-.06.22-.09.47-.09.19,0,.31-.1.38-.28l.28-.28c.19,0,.28-.06.28-.19v-1.42c0-.82.06-1.42.19-1.8l.19-.95.09-.66c.19-.57.31-1.01.38-1.33l.28-.76c0-.06.09-.38.28-.95.06-.25.14-.49.24-.71.09-.22.17-.39.24-.52l.47-1.42.57-1.23c.13-.19.27-.43.43-.71.16-.28.36-.58.62-.9.38-.69.9-1.5,1.56-2.41.66-.91,1.18-1.5,1.56-1.75l.85-.66c.38-.31.88-.57,1.51-.76.5-.19,1.01-.28,1.51-.28s.82.06.95.19c.38.19.74.54,1.09,1.04.35.51.52,1.04.52,1.61l-.19.95c-.19.38-.28.7-.28.95-.44,1.45-.79,2.46-1.04,3.03l-.28.38c0,.13-.06.32-.19.57l-.66,1.23-1.04,2.37-.28.47-.66,1.04-.57.95c-.06.06-.41.54-1.04,1.42-.19.19-.36.41-.52.66-.16.25-.24.44-.24.57,0,.19-.25.54-.76,1.04l-.47.66c-.25.32-.55.65-.9.99s-.65.62-.9.8l-.66.47-.38.28.09.28.28.47.38.47.47.47.28.28c.06,0,.19.1.38.28s.66.35,1.42.47c.57,0,1.01.03,1.33.09.5,0,.85-.06,1.04-.19.13,0,.38-.09.76-.28.63-.25,1.1-.54,1.42-.85.06-.06.16-.09.28-.09l.38-.19.66-.28c.69-.19,1.04-.41,1.04-.66.13-.25.35-.41.66-.47.25,0,.44-.06.57-.19.13-.13.6-.38,1.42-.76.44-.31.79-.5,1.04-.57l.57-.38.66-.66c.44-.44.73-.69.85-.76.06,0,.13-.03.19-.1.06-.06.1-.13.1-.19.13-.13.31-.28.57-.47.25-.19.47-.31.66-.38l.1.1c0,.19.22.28.66.28.31,0,.53.06.66.19.06.06.09.19.09.38l-.19.38c-.06.06-.13.14-.19.24-.06.09-.13.21-.19.33-.32.57-1.01,1.26-2.08,2.08-.06.06-.17.14-.33.24-.16.09-.27.21-.33.33l-.66.38-.57.38c-.06.06-.14.13-.24.19-.1.06-.17.1-.24.1l-.38.19-.47.38c-.38.19-.63.35-.76.47-.32.19-.73.41-1.23.66-.51.25-.88.44-1.14.57l-.85.47c-.76.32-1.2.47-1.33.47l-.85.28c-.57.25-1.04.41-1.42.47-.38.06-1.01.09-1.89.09l-.47-.09ZM118.45,79.26c.06.32.13.44.19.38.06,0,.16-.13.28-.38.13-.25.25-.41.38-.47.13-.13.28-.3.47-.52.19-.22.32-.39.38-.52l.09-.19c.38-.38.76-.95,1.14-1.7.06-.13.13-.25.19-.38.06-.13.1-.25.1-.38s.09-.28.28-.47l.57-.57c.13-.32.32-.54.57-.66.32-.32.47-.66.47-1.04,0-.13.22-.54.66-1.23.44-.82.69-1.29.76-1.42,0-.19.09-.38.28-.57.25-.25.38-.47.38-.66l.28-.47c.13-.19.28-.46.47-.8.19-.35.32-.65.38-.9l.19-.66v-.28c.13,0,.19-.25.19-.76v-.19c-.06-.13-.22-.16-.47-.09-.25.06-.51.19-.76.38l-.76.38c-.25.13-.38.22-.38.28l-.57.47c-.57.32-.92.73-1.04,1.23-.13.25-.25.44-.38.57-.25.13-.44.32-.57.57-.76,1.26-1.2,1.96-1.33,2.08-.19.25-.28.47-.28.66,0,.06-.06.28-.19.66-.57,1.07-.95,2.15-1.14,3.22,0,.25-.06.57-.19.95-.13.38-.19.7-.19.95l-.19.57c-.13.13-.19.38-.19.76l-.1.76v.47Z"/>
  <path class="cls-1" d="M142.96,108.79c0-.19-.03-.32-.1-.38,0-.32-.03-.54-.09-.66l-.19-1.14c-.06-.76-.11-1.88-.14-3.36-.03-1.48-.02-2.98.05-4.5.13-2.52.19-10.54.19-24.04-.06-5.11-.13-7.79-.19-8.05l-.38-.66c-.19-.31-.28-.72-.28-1.23l-.38-1.61c-.25-.88-.38-1.55-.38-1.99-.13-1.14-.35-1.86-.66-2.18-.25-.38-.63-1.92-1.14-4.64l-.47-1.99c-.13-.44-.25-.98-.38-1.61,0-.69-.09-1.26-.28-1.7l-.28-1.8c-.25-2.33-.57-4.04-.95-5.11l-.19-.76c0-.5-.03-.88-.09-1.14l-.47-3.03c-.19-1.26-.35-2.08-.47-2.46-.19-.95-.28-1.61-.28-1.99l-.28-2.08c-.13-.5-.22-1.45-.28-2.84,0-1.26.06-2.11.19-2.56.51-1.89,1.04-3.34,1.61-4.35.38-.57.92-.85,1.61-.85l.47.09c.5.25.95.76,1.33,1.51.38.82.76,1.86,1.14,3.12.38,1.26.6,2.43.66,3.5.06.63.16,1.14.28,1.51.13.32.25.85.38,1.61,0,.57.06,1.1.19,1.61l.28,1.99c0,.51.03.9.09,1.18.06.28.1.46.1.52.13.38.19.79.19,1.23l.19,1.23.47,4.07v1.7c0,1.64.13,3.09.38,4.35l.19.76-.09.38c-.06.7-.08,1.72-.05,3.08.03,1.36.08,2.48.14,3.36l.09,1.51c-.06.76-.06,1.58,0,2.46.06.88.13,1.58.19,2.08l.1.95c.19.82.44,1.7.76,2.65l.28.95c.19.95.38,1.61.57,1.99.13.13.19.28.19.47l.38.85c.32.44.63,1.17.95,2.18l.57,1.42.76,1.51c.19.51.38.85.57,1.04l.28.66,1.14,2.08.57.76.95,1.42c.57.7.88,1.14.95,1.33.31.44.76.82,1.33,1.14.19.06.22.13.09.19-.25,0-.22.13.1.38.19.13.22.19.09.19l-.19.19c-.06.06-.25.06-.57,0-.63,0-.95.06-.95.19,0,.06-.09.1-.28.1s-.51-.13-.95-.38c-.51-.25-.95-.57-1.33-.95l-1.33-1.42c-.44-.57-.9-1.26-1.37-2.08-.47-.82-.87-1.51-1.18-2.08-.25-.88-.51-1.42-.76-1.61-.44-.57-.7-1.1-.76-1.61l-.38-1.14-.38-.95-.09-.28v.47l-.19,2.37v.57l.09,2.18c.13,1.45.22,2.27.28,2.46.06.82.06,2.46,0,4.92,0,1.2.03,1.89.09,2.08.13.38.19.73.19,1.04s-.03.57-.1.76c-.06.63-.09,1.55-.09,2.75l-.09,1.42-.28,5.02v1.14l.1,1.7v1.42c-.06.25-.1.6-.1,1.04.13.25.13.57,0,.95,0,.63-.03,1.1-.09,1.42v.85h-.28c-.13-.06-.22-.06-.28,0-.06.06-.13.19-.19.38-.32.57-.57.91-.76,1.04-.13,0-.22-.1-.28-.28ZM137.28,28.24l.19.95.09,1.42.19,1.61c.25,1.2.41,2.37.47,3.5l.28,1.33.28,1.23c.13.25.19.66.19,1.23.25,1.51.5,2.75.76,3.69l.47,2.37.38,1.8.28,1.14c0,.06.1.47.28,1.23l.19,1.23c.06.25.22.9.47,1.94.25,1.04.41,1.56.47,1.56l-.1-1.33-.09-2.27-.28-4.35c0-1.01-.03-1.64-.1-1.89l-.09-1.23-.19-2.65c-.06-.25-.1-.52-.1-.8s-.03-.58-.09-.9l-.09-1.8-.19-.95c0-.38-.16-1.58-.47-3.6,0-.5-.06-1.01-.19-1.51-.25-.69-.47-1.77-.66-3.22-.06-.31-.13-.66-.19-1.04-.06-.38-.16-.76-.28-1.14-.06-.31-.35-1.26-.85-2.84l-.19-.28-.1.19c-.25.51-.46,1.34-.62,2.51-.16,1.17-.2,2.13-.14,2.89Z"/>
  <path class="cls-1" d="M186.41,105.48c-.7-.13-1.29-.38-1.8-.76-.32-.13-.51-.28-.57-.47-.25-.25-.49-.52-.71-.8-.22-.28-.39-.55-.52-.8l-.47-.95c-.7-1.45-1.1-2.65-1.23-3.6,0-.06-.1-.47-.28-1.23-.19-.76-.28-1.17-.28-1.23l-.19-1.14-.28-1.33c-.13-.63-.19-1.23-.19-1.8l-.09-1.42c-.06-.25-.1-.54-.1-.85s-.03-.63-.09-.95c0-.44-.03-.93-.1-1.47-.06-.53-.09-1.06-.09-1.56-.13-1.64-.19-2.65-.19-3.03,0-.44.02-1.07.05-1.89.03-.82.05-1.96.05-3.41v-3.31c.06-4.98.16-7.64.28-7.95l.09-1.04c0-1.14.1-2.21.28-3.22v-1.51c0-.76.03-1.33.1-1.7.06-.38.16-1.39.28-3.03l.1-1.99c.06-.44.11-1.04.14-1.8.03-.76.11-1.61.24-2.56l.1-1.23c.13-.5.19-1.77.19-3.79l.09-2.65.09-2.08.1-1.51c.13-1.01.19-2.02.19-3.03,0-1.07.06-1.8.19-2.18l.09-1.04c.06-.13.03-1.04-.09-2.75,0-.63.03-1.14.09-1.51,0-.19.02-.39.05-.62.03-.22.01-.33-.05-.33l.09-2.56.1-3.79c0-1.7.09-2.87.28-3.5l.38-1.04.19-.66c0-.06.19-.09.57-.09h.66l.1.28c.19.19.28.32.28.38.06.06.19.41.38,1.04.06.32.09,1.67.09,4.07,0,1.64-.03,2.65-.09,3.03v1.23c.06.57.06,1.07,0,1.51l-.19,2.18v3.98c-.06,1.45-.06,2.34,0,2.65.13.32.13.73,0,1.23-.13.13-.19.54-.19,1.23l-.19,1.7c-.19.57-.28,1.14-.28,1.7l.09.66c.13.19.17.43.14.71-.03.28-.08.71-.14,1.28l-.28,2.18-.09,1.7c0,.63-.03,1.07-.1,1.33l-.28,1.51c0,.63-.03.95-.1.95l-.28,1.8c-.13.76-.19,1.36-.19,1.8s-.03.82-.09,1.14c0,.88-.03,1.36-.1,1.42l-.19,1.7c0,.95-.06,1.55-.19,1.8l-.1,2.37-.09,2.08-.1,1.51-.09,1.8c-.06.19-.09.63-.09,1.33,0,.51-.06,1.07-.19,1.7-.06.32-.1.98-.1,1.99,0,.7.03,1.17.1,1.42,0,.38-.03.63-.1.76,0,.06-.02.32-.05.76-.03.44-.05,1.29-.05,2.56-.06,1.07-.1,2.37-.1,3.88-.06.57-.06.92,0,1.04.13.25.19.85.19,1.8.06,2.4.25,4.42.57,6.06l.38,1.8.28,1.89c.13.76.22,1.17.28,1.23,0,.5.13,1.01.38,1.51,0,.06.09.38.28.95.13.38.32.79.57,1.23.25.38.38.69.38.95.19.82.73,1.48,1.61,1.99.31.19.66.28,1.04.28s.63-.03.76-.09l.95-.19c.63-.06,1.1-.22,1.42-.47.38-.19.6-.28.66-.28.63-.32,1.1-.63,1.42-.95.38-.38.76-.63,1.14-.76l.66-.47,1.04-.66c1.07-.76,2.33-1.77,3.79-3.03l1.04-.85c.95-.57,1.61-1.1,1.99-1.61l1.04-1.23c.63-.63,1.26-1.39,1.89-2.27.06-.13.25-.35.57-.66.19-.06.28-.16.28-.28l1.42-1.42c.95-.95,1.42-1.48,1.42-1.61l.19-.38c.06-.25.41-.63,1.04-1.14.44-.31.69-.53.76-.66.19-.25.88-.98,2.08-2.18l2.74-3.12.57-.76.38-.57c.13-.25.3-.52.52-.8.22-.28.43-.49.62-.62l.47-.57c.19-.31.49-.71.9-1.18.41-.47.71-.8.9-.99l.09.19c0,.06.08.08.24.05.16-.03.33-.11.52-.24.13-.06.28-.09.47-.09l.19-.09c.06-.06.11-.08.14-.05.03.03.08.05.14.05l.19.19-.19.28c-.44,1.33-.98,2.34-1.61,3.03l-.95,1.42c-.13.19-.3.43-.52.71-.22.28-.49.58-.81.9l-1.23,1.51c-.13.19-.41.51-.85.95-.38.38-.6.66-.66.85l-.85.95c-1.39,1.45-2.18,2.34-2.37,2.65l-1.23,1.42-2.08,2.18c-1.01,1.01-1.58,1.61-1.7,1.8-2.59,2.59-4.13,4.1-4.64,4.54l-1.42,1.23-.66.57-.76.57c-.32.44-.73.79-1.23,1.04-.76.57-1.36.98-1.8,1.23l-1.42,1.04-1.7,1.14c-.06.06-.17.14-.33.24-.16.09-.33.17-.52.24-.44.25-1.01.5-1.7.76-.7.25-1.23.41-1.61.47-.88.13-1.58.19-2.08.19h-.57Z"/>
  <path class="cls-1" d="M223.8,90.99c-.25-.25-.38-.41-.38-.47l-.1-.38c-.06-.25-.09-.57-.09-.95s.03-.66.09-.85v-1.8c.06-.44.1-.88.1-1.33s.03-.82.09-1.14v-.85c.13-.25.19-.66.19-1.23v-.09c-.06-.06-.08-.62-.05-1.66.03-1.04.05-1.59.05-1.66l.09-.28c-.13-.13-.13-.41,0-.85v-7.38c0-.13-.02-.3-.05-.52-.03-.22-.02-.39.05-.52l-.09-2.93c-.06,0-.1-.44-.1-1.33l-.09-1.42c0-.06-.06-.16-.19-.28-.13-.06-.19-.19-.19-.38l-.09-.38c-.13-.25-.19-.54-.19-.85,0-.25.03-.44.09-.57.06-.19.2-.39.43-.62s.43-.39.62-.52c.63-.19,1.26-.03,1.89.47.06.19.25.35.57.47.25.25.38.57.38.95,0,.32-.03.51-.09.57-.13.06-.22.16-.28.28-.06.13-.09.25-.09.38l.19.47c.06.06.09.16.09.28l.19.28c.06.06.06.16,0,.28l-.09.38-.19.38c-.06.19-.03.35.09.47.06.13.06.44,0,.95-.13.19-.13.35,0,.47,0,.13-.03.22-.09.28l-.1.38c0,.25-.03.44-.09.57-.13.57-.13.85,0,.85v.19c-.06.13-.11.32-.14.57-.03.25-.05.47-.05.66v.57c.13.76.09,1.26-.09,1.51-.13.32-.13.57,0,.76.06.06.06.16,0,.28l-.1.76-.09.76c-.06.19-.06.28,0,.28v.76l.09,1.51c.06.32.06.57,0,.76-.06.13-.08.3-.05.52.03.22.08.36.14.43.06.13.06.22,0,.28-.13.13-.19.32-.19.57-.06.38-.08.74-.05,1.09.03.35.08.62.14.8v.28c-.06.13-.09.51-.09,1.14l-.19.95c-.06.06-.11.14-.14.24-.03.09-.02.24.05.43l.19.66c.13.25.16.47.1.66l-.1.47c0,.13.03.22.1.28.25.13.28.28.09.47-.13.13-.16.25-.09.38,0,.25-.03.44-.1.57-.13.25-.19.54-.19.85l.1.38c.06.06.09.19.09.38s.03.28.1.28v.38c-.06.19-.19.28-.38.28l-.57.19-.57.1c-.13,0-.32-.13-.57-.38ZM222.95,52.66c-.06.06-.06.19,0,.38.06.19.13.32.19.38,0,.25.16.44.47.57.13.13.33.27.62.43.28.16.52.33.71.52v.24c0,.09.05.13.14.09.09-.03.27-.11.52-.24.06-.06.28-.13.66-.19.38-.06.66-.19.85-.38l-.19-.09c.13-.06.19-.14.19-.24s-.06-.17-.19-.24c-.06,0-.09-.06-.09-.19v-.28c-.13,0-.16-.03-.09-.09.06-.06.09-.13.09-.19s.03-.09.09-.09l-.09-.28v-.09c.25,0,.28-.13.09-.38v-.19c-.06,0-.09-.13-.09-.38,0-.19-.06-.41-.19-.66-.13-.25-.28-.41-.47-.47-.44-.19-.92-.19-1.42,0-.13,0-.25.13-.38.38-.13.13-.27.22-.43.28-.16.06-.27.06-.33,0-.13,0-.13.06,0,.19-.06.06-.13.1-.19.1-.19.06-.22.13-.1.19.06.06,0,.09-.19.09-.13,0-.21.02-.24.05-.03.03-.02.11.05.24.13.06.19.17.19.33s-.06.24-.19.24Z"/>
  <path class="cls-1" d="M244.82,93.08l-.38-.28c0-.06-.03-.14-.09-.24-.06-.1-.13-.17-.19-.24l-.47-.66c-.19-.38-.35-.85-.47-1.42-.13-.57-.22-1.1-.28-1.61,0-3.79.06-6.25.19-7.38l.28-3.31.1-1.51.09-1.42c.19-.57.28-1.36.28-2.37.06-.19.1-.39.1-.62s.03-.43.09-.62l.19-1.14v-.66c.13-.63.19-2.21.19-4.73,0-.82-.03-1.53-.09-2.13-.06-.6-.16-.87-.28-.8l-.19.47c0,.06-.05.17-.14.33-.09.16-.17.27-.24.33l-.28.66-.19.57-.28.76-.28.76c-.13.13-.19.28-.19.47-.44,1.33-.85,2.37-1.23,3.12-.19.38-.28.6-.28.66l-.28.66-.28.85-.38.95-.85,1.99c-.19.51-.32.82-.38.95l-.38.95-.47.95-.28.57-.85,1.61c-.32.44-.51.79-.57,1.04l-.38.85-.76.95-.76,1.04c-.63.76-1.17,1.2-1.61,1.33-.32.13-.7.19-1.14.19-.51,0-.9-.1-1.18-.28-.28-.19-.58-.6-.9-1.23l-.38-.57c0-.31-.03-.6-.1-.85-.25-.88-.44-1.8-.57-2.74-.13-.95-.19-1.8-.19-2.56l.09-1.8c.06-.38.1-.76.1-1.14s.03-.66.09-.85c.06-.19.1-.69.1-1.51v-.57c-.06-.38-.06-.76,0-1.14.06-.32.09-1.48.09-3.5,0-1.77.03-2.87.1-3.31.06-.57.13-.82.19-.76.06.06.13.06.19,0s.13-.16.19-.28c.06-.06.13-.06.19,0h.19l.19.28c.13.19.28.28.47.28s.44.19.76.57c.19.38.32.79.38,1.23.13.88.19,1.77.19,2.65v1.33c.06.44.06.79,0,1.04-.13.38-.19,1.58-.19,3.6,0,1.01.03,1.55.09,1.61.06.06.08.16.05.28-.03.13-.08.25-.14.38l-.19.95c0,.51-.03.79-.09.85-.06.19-.08.43-.05.71.03.28.08.46.14.52.06.06.1.54.1,1.42,0,.57.03.99.09,1.28.06.28.16.49.28.62,0,.06.02.13.05.19.03.06.02.09-.05.09l.1.38v.19l.38-.38.47-.66.28-.47c.06,0,.22-.19.47-.57l.76-1.14c.32-.44.47-.72.47-.85.06-.25.25-.69.57-1.33l.47-.95.38-.95c.13-.13.28-.38.47-.76,0-.19.06-.35.19-.47.25-.31.47-.68.66-1.09.19-.41.28-.71.28-.9,0-.25.13-.53.38-.85l.57-1.14c.32-.88.66-1.67,1.04-2.37.25-.44.35-.69.28-.76,0-.13.1-.38.28-.76.63-1.39.98-2.27,1.04-2.65,0-.19.03-.33.1-.43.06-.09.09-.2.09-.33l.28-.66c.13-.57.5-1.29,1.14-2.18.13-.13.35-.32.66-.57l.76-.19c.88,0,1.45.47,1.7,1.42l.47.85.19.38v7.29c.06.32.06.54,0,.66l-.1.66-.09,1.04c0,.06-.09.66-.28,1.8,0,.88-.06,1.39-.19,1.51-.19.57-.28,1.29-.28,2.18l.09,1.8c.06.44.06.76,0,.95l-.28,2.08c0,.32.03.51.09.57.25.25.28.57.1.95-.13.38-.19.76-.19,1.14l-.1,1.42c-.13,1.33-.13,2.3,0,2.93l.28,1.51.09.28c.13.25.19.47.19.66,0,.32.06.54.19.66.06.13.08.2.05.24-.03.03-.11.05-.24.05-.19.06-.32.22-.38.47l-.09.66-.19.09-.19.09-.28-.19Z"/>
  <path class="cls-1" d="M268.48,106.9c-.32-1.83-.41-3.57-.28-5.21l.19-2.46.38-4.45.19-1.7c0-.25.03-.51.1-.76.06-.25.13-.51.19-.76,0-.25.03-.57.09-.95.06-.38.09-.73.09-1.04l.19-1.61.19-.95c0-.38.03-.72.1-1.04l.47-3.69.19-1.89.47-2.74.19-1.8c.06-.06.19-.95.38-2.65.06-.13.1-.32.1-.57s.03-.47.09-.66c0-.38.13-1.2.38-2.46.06-.38.13-.8.19-1.28.06-.47.09-.9.09-1.28l.09-.95-.28-.66c-.7-1.14-1.07-1.67-1.14-1.61l-1.14,3.03c-.38,1.01-.73,1.8-1.04,2.37l-.76,1.89c-.51,1.2-.95,2.11-1.33,2.74l-1.14,1.99c-.76,1.58-1.55,2.87-2.37,3.88-.19.32-.36.57-.52.76-.16.19-.27.35-.33.47-.51.82-.96,1.48-1.37,1.99-.41.51-.93,1.01-1.56,1.51-.82.7-1.58,1.26-2.27,1.7-1.2.82-2.53,1.23-3.98,1.23-2.27,0-3.88-.91-4.83-2.74-.25-.44-.51-1.33-.76-2.65-.06-.63-.03-1.74.1-3.31.19-1.14.41-2.24.66-3.31.31-1.33.72-2.62,1.23-3.88.19-.32.32-.6.38-.85.06-.25.13-.41.19-.47.19-.5.41-.98.66-1.42l.66-1.33c.06-.06.11-.16.14-.28.03-.13.11-.25.24-.38.19-.19.41-.53.66-1.04,1.51-2.33,2.9-4.13,4.16-5.4.57-.57,1.33-1.12,2.27-1.66.95-.53,1.8-.93,2.56-1.18,1.33-.44,2.37-.66,3.12-.66,1.01.06,2.08.32,3.22.76.88.32,1.61.66,2.18,1.04l.47.28c0-.13.11-.46.33-.99.22-.54.49-1.34.8-2.41.57-1.77,1.1-3.25,1.61-4.45.5-1.26.76-2.08.76-2.46,0-.31.13-.82.38-1.51l.47-1.61.28-.95c.69-2.46,1.07-3.88,1.14-4.26l.47-1.99c.13-.38.41-1.73.85-4.07.32-1.58.54-2.84.66-3.79.5-2.4.85-3.75,1.04-4.07.19-.32.53-.47,1.04-.47.82,0,1.23.41,1.23,1.23,0,.25-.16.95-.47,2.08,0,.25-.03.51-.1.76-.06.25-.13.51-.19.76l-.38,1.8c-.44,1.51-.79,2.87-1.04,4.07l-.19,1.04-.28,1.42c0,.63-.13,1.45-.38,2.46-.06.38-.13.76-.19,1.14-.06.38-.09.73-.09,1.04l-.28,1.42c-.19.95-.28,1.89-.28,2.84,0,.44-.09,1.04-.28,1.8l-.28,1.42-.19,1.51c-.51,2.53-.82,4.39-.95,5.59-.25,1.64-.51,2.93-.76,3.88-.06.57-.19,1.1-.38,1.61l-.1.47.28.57c.32.76.62,1.67.9,2.75.28,1.07.43,1.99.43,2.74,0,1.01-.38,2.15-1.14,3.41l-.28.66h-.76c-.19.19-.28.06-.28-.38v-.1l-.19.95c0,.44-.16,1.39-.47,2.84l-.19,2.37v.57c.06.38-.03,1.17-.28,2.37-.25.7-.38,1.36-.38,1.99l-.09,1.14c-.13.25-.19.57-.19.95,0,.32-.06.79-.19,1.42l-.66,3.79-.28,1.99c0,.32-.03.74-.09,1.28-.06.53-.1,1.09-.1,1.66,0,.5-.03,1.04-.09,1.61-.06.57-.13,1.04-.19,1.42-.06.19-.09.54-.09,1.04.06.31.03.91-.1,1.8l-.19,1.8-.09.66-.19-.09c-.06-.06-.13-.06-.19,0l-.19.38c-.19.38-.32.6-.38.66l-.28.57c0,.13-.09.19-.28.19-.13,0-.19-.06-.19-.19ZM250.59,82.48c.32.82.6,1.39.85,1.7.44.44,1.14.66,2.08.66.31,0,.66-.06,1.04-.19.76-.19,1.39-.5,1.89-.95.19-.19.47-.38.85-.57.25-.19.62-.52,1.09-.99.47-.47.87-.93,1.18-1.37l.85-.95c.69-.69,1.33-1.67,1.89-2.94l1.04-1.8c.5-.88.98-1.8,1.42-2.74l1.61-3.22.47-1.14c.06-.06.16-.25.28-.57.13-.32.35-.79.66-1.42.63-1.39,1.04-2.37,1.23-2.93.25-.69.38-1.1.38-1.23,0-.19-.16-.35-.47-.47l-1.14-.66c-.38-.25-.73-.44-1.04-.57-.32-.13-.73-.22-1.23-.28-.32-.06-.7-.09-1.14-.09-.25.06-.6.09-1.04.09-1.01.19-1.77.44-2.27.76-.51.32-1.1.82-1.8,1.51-.7.7-1.14,1.23-1.33,1.61-.32.63-.63,1.01-.95,1.14-.44.44-.92,1.04-1.42,1.8-.19.38-.57.95-1.14,1.7-.32.38-.62.85-.9,1.42-.28.57-.49,1.07-.62,1.51,0,.32-.13.73-.38,1.23-.76,1.89-1.29,3.44-1.61,4.64-.19.44-.32,1.17-.38,2.18-.06,1.77-.06,2.81,0,3.12ZM272.36,60.32l.47.57c.31.38.47.51.47.38.06,0,.09-.14.09-.43s.03-.52.1-.71l.28-1.61c.13-.38.19-.88.19-1.51l.38-1.99.19-1.04-.38,1.04-1.33,4.16-.47,1.14Z"/>
</svg>