<?xml version="1.0" encoding="UTF-8"?>
<svg id="Lager_1" xmlns="http://www.w3.org/2000/svg" viewBox="0 0 1364.69 764.87">
  <defs>
    <style>
      .cls-1 {
        fill: #1d1d1b;
      }
    </style>
  </defs>
  <path class="cls-1" d="M.25,45c66.8,24.76,109.64,81.89,139.26,144.24,6.6,13.9,13.5,28.12,18.32,42.75,4.14,12.57,6.03,25.77,6.89,38.94,1.69,25.91-.24,52.13,3.36,78.98,3.92,29.26,15.88,55.84,37.27,76.51,12.05,11.65,26.51,22.34,41.88,29.16,12.86,5.7,26.88,8.54,40.79,10.15,65.82,7.62,131.88-8.03,197.32-12.73,44.46-3.19,89.51-5.24,134.06-3.56,34.34,1.3,69.56,3.52,103.01,11.96,17.11,4.32,34.02,10.76,47.63,22.3,10.04,8.51,17.68,19.27,26.26,29.15,32.59,37.54,80.87,51.12,124.45,71.61,22.67,10.66,47.33,23.88,60.49,46.18,6.59,11.17,7.6,22.43,9.19,34.97,1.71,13.47,6.67,26.38,13.7,37.94,28.46,46.85,93.72,77.55,145.89,52.2,6.58-3.2,12.76-7.22,18.39-11.89s10.27-11.45,17.04-14.5c12.64-5.69,26.2,4,36.79,9.98,5.89,3.32,12,6.71,18.68,8.12,7.97,1.68,16.63-.42,24.33-2.51,17.3-4.69,33.05-13.48,48.83-21.73,15.99-8.35,32.29-16.05,50.18-19.24.83-.15.23-20.7.23-22.5,0-1.7-.68-22.42-.23-22.5-36.24,6.45-64.78,32.01-100.01,41.23-7.69,2.01-16.15,3.96-24.05,2.1-6.67-1.57-12.77-5.02-18.67-8.37-10.6-6.02-24.22-15.46-36.74-9.24-6.67,3.31-11.33,10.06-17.05,14.72-5.67,4.61-11.86,8.56-18.45,11.69-12.72,6.05-26.79,8.88-40.85,8.7-28.2-.36-55.71-12.22-77.2-30.12-21.01-17.49-37.69-42.2-40.89-69.82-1.45-12.52-2.78-23.74-9.45-34.79-6.37-10.55-15.58-19.07-25.56-26.16-44.24-31.41-101.97-39.33-143.39-75.27-21.56-18.71-34.7-44.6-61.28-57.39-22.3-10.73-47.75-14.62-72.09-17.45-43.61-5.07-87.54-5.58-131.37-3.87-36.29,1.42-72.31,3.59-108.37,7.85-34.49,4.07-69.04,8.51-103.79,9.53-29.29.86-61.28.29-88.46-12.01-28.85-13.05-55.07-37.61-68-66.67-22.61-50.81-3.53-105.46-20.96-157.32-4.93-14.67-11.84-28.95-18.49-42.91-7.28-15.25-15.23-30.2-24.2-44.54-17.92-28.63-40.15-54.87-67.89-74.41C32.55,14.26,16.82,6.14.25,0,1.13.33.02,20.56.02,22.5c0,5.3,0,10.61.07,15.91,0,.77-.29,6.43.16,6.59H.25Z"/>
</svg>