<?xml version="1.0" encoding="UTF-8"?>
<svg id="Lager_1" xmlns="http://www.w3.org/2000/svg" viewBox="0 0 477.11 454.7">
  <defs>
    <style>
      .cls-1 {
        fill: #cf9b01;
      }

      .cls-2 {
        fill: #3a3938;
      }
    </style>
  </defs>
  <path class="cls-2" d="M477.04,317.97c0,39.75-.07,79.5.07,119.25.02,7.08-2.23,12.39-8.77,15.59-2.57,1.25-5.24,1.56-8,1.4-8.91-.53-17.72-1.84-26.51-3.35-14.34-2.47-28.24-6.52-41.8-11.71-13.99-5.35-27.37-11.97-40.14-19.86-16.63-10.28-31.74-22.41-45.41-36.35-18.26-18.61-33.04-39.71-44.4-63.13-6.93-14.3-12.19-29.25-16.19-44.69-5.95-23.03-7.53-46.43-7.5-70.08.09-61.92.04-123.84,0-185.76,0-6.95.94-13.25,7.69-17.19,2-1.17,4.02-1.9,6.25-1.93,12.85-.17,25.75-.51,38.51,1.21,22.76,3.07,44.65,9.21,65.45,19.19,33.44,16.04,60.78,39.3,82.25,69.39,11.74,16.46,20.84,34.39,27.33,53.61,7.34,21.74,11.25,43.99,11.19,66.97-.1,35.81-.03,71.63-.02,107.44Z"/>
  <path class="cls-2" d="M166.91,454.6c-17.05,0-34.1.27-51.15-.06-28.33-.55-53.09-10.56-74.59-28.95-13.47-11.52-23.67-25.49-30.97-41.51-8.93-19.6-11.71-40.36-9.47-61.65,3.03-28.79,15.24-53.32,36.14-73.36,13.74-13.18,29.75-22.48,48.12-28,15.16-4.55,30.54-6.38,46.14-4.7,20.65,2.23,39.73,9.15,56.82,21.24,16.2,11.46,28.98,25.96,37.94,43.59,8.09,15.92,12.6,32.94,12.68,50.89.15,35.28.05,70.56.05,105.84,0,10.88-5.74,16.63-16.64,16.65-18.36.02-36.72,0-55.08,0h0Z"/>
  <path class="cls-1" d="M119.42,1.07c53.22.62,95.5,42.27,95.57,95.66.08,53.5-42.94,95.45-95.56,95.64-52.49.18-96.38-43.1-95.62-96.99C24.52,44.24,65.89,1.52,119.42,1.07Z"/>
</svg>