<?xml version="1.0" encoding="UTF-8"?>
<svg id="Lager_1" xmlns="http://www.w3.org/2000/svg" viewBox="0 0 220.75 33.66">
  <defs>
    <style>
      .cls-1 {
        fill: #1d1d1b;
      }
    </style>
  </defs>
  <path class="cls-1" d="M12.24,33.17v.38H0v-.38c1.92,0,3.7-1.39,3.89-7.68V8.02C3.7,1.73,1.92.38,0,.38v-.38h12.24v.38c-1.87,0-3.65,1.34-3.89,7.54v17.67c.24,6.19,2.02,7.58,3.89,7.58Z"/>
  <path class="cls-1" d="M24.24,26.16c-2.3,5.57-1.25,6.67.48,6.72,1.39,0,3.17-.05,5.09-1.49,1.78-1.25,3.89-4.08,3.89-4.08h.24l-2.4,6.24H12.91l.19-.38c2.02,0,3.55-1.58,7.01-9.02l.05.05,2.59-5.62c2.4-5.76,1.3-6.82-.53-6.82h-1.1c-1.06,0-2.11-.24-4.08,1.2-1.78,1.25-2.69,3.41-2.69,3.41h-.24l.86-5.28h20.21l-.19.38c-1.97,0-4.61,1.54-8.06,8.98l-2.69,5.71Z"/>
  <path class="cls-1" d="M55.68,32.64c-2.02,1.44-6.24,1.34-6.53-1.06-.1-1.06-.14-2.16-.14-3.26-.82,2.4-2.54,4.46-5.47,5.09-4.51.96-8.59-3.7-6.43-8.69.86-1.97,3.26-3.79,7.82-5.86,2.26-1.01,3.31-2.59,3.79-3.98-.05-.14-.05-.34-.1-.53-.58-2.54-4.27-4.18-6.14-.86-.67,1.2-1.1,2.88.72,5.09-1.15.62-2.3,1.3-3.46,1.92-3.6-3.17-.53-9.55,5.42-9.55s8.21,3.36,8.4,8.21c.14,3.65-.14,2.78-.05,8.88.05,2.11,1.01,4.22,2.16,4.61ZM49.01,27.27c.05-3.84.38-7.87-.1-11.38-1.06,3.36-5.62,3.55-7.49,9.6-1.1,3.5,4.51,9.55,7.58,1.78Z"/>
  <path class="cls-1" d="M79.2,26.45c-1.01,3.02-3.02,5.81-7.34,6.96-3.55.91-5.33-3.07-9.55-2.11-.38.1-.91.29-1.63.62-.53.24-1.54,1.25-1.97,1.63h-.29V7.97c-.19-6.29-2.02-7.58-3.89-7.58v-.38h6.62c1.73,0,1.73,2.54,1.73,3.84v12.91c1.68-4.13,5.38-6.43,8.54-6.14,7.73.72,9.98,9.31,7.78,15.84ZM75.12,21.12c-.14-4.8-2.5-8.98-6.72-8.69-2.16.14-4.61,2.98-5.52,6.14v11.91c3.17-.29,3.55,1.25,6.82.67,3.98-.62,5.57-6.19,5.42-10.03Z"/>
  <path class="cls-1" d="M90.58,23.47c-1.92-.24-3.07-.77-3.74-1.39.05,1.01.19,1.92.43,2.78,1.15,4.56,7.54,10.18,13.97,4.85l.1.34c-1.2,1.44-3.31,2.98-5.81,3.41-7.15,1.3-14.02-3.94-13.1-12,.62-5.81,4.03-8.54,7.34-9.65.38-.14,1.01-.34,1.82-.48h.14c.19-.05.43-.05.62-.1,1.44-.14,2.69,0,3.5.24.05,0,.1.05.14.05,4.66,1.3,6,7.97,5.38,9.07-1.3,2.35-9.02,3.07-10.8,2.88ZM91.82,22.75c2.54.05,6.34-2.02,4.85-8.69-.38-1.78-1.63-2.26-2.93-2.21-.24.05-.48.05-.72.1-.1.05-.19.05-.29.05-.24.05-.43.14-.67.19-.24.1-.43.14-.62.24-3.5,1.39-4.7,5.14-4.66,8.74.72.82,2.11,1.54,5.04,1.58Z"/>
  <path class="cls-1" d="M102.1,33.55v-.38c1.87,0,3.7-1.39,3.89-7.68V8.02c-.19-6.29-2.02-7.63-3.89-7.63v-.38h5.76c1.44,0,2.59,1.15,2.59,2.59v22.99c.24,6.19,2.02,7.58,3.89,7.58v.38h-12.24Z"/>
  <path class="cls-1" d="M154.66,33.55h-22.99v-.38c1.87,0,3.7-1.39,3.89-7.68V8.02c-.19-6.34-2.02-7.63-3.89-7.63v-.38h12.24v.38c-1.87,0-3.65,1.3-3.89,7.49v17.71c.24,5.81,1.78,7.1,3.55,7.25,2.16.05,5.52-.1,7.92-1.15,2.45-1.06,5.47-4.42,5.47-4.42l-2.3,6.29Z"/>
  <path class="cls-1" d="M157.2,33.55v-.38c1.87,0,3.7-1.39,3.89-7.68v-6.34c-.19-6.34-2.02-7.68-3.89-7.68v-.38h5.76c1.44,0,2.59,1.15,2.59,2.59v11.9c.24,6.19,2.02,7.58,3.89,7.58v.38h-12.24ZM159.89,4.03c0-1.49,1.2-2.69,2.69-2.69s2.69,1.2,2.69,2.69-1.2,2.69-2.69,2.69-2.69-1.2-2.69-2.69Z"/>
  <path class="cls-1" d="M183.7,33.55v-.38c1.87,0,3.65-1.39,3.89-7.68v-6c0-8.93-8.06-8.06-9.36,2.3v3.79c.24,6.19,2.02,7.58,3.89,7.58v.38h-12.24v-.38c1.92,0,3.7-1.39,3.89-7.68v-6.34c-.19-6.34-1.97-7.68-3.89-7.68v-.38h5.76c1.44,0,2.59,1.15,2.59,2.59v4.85c2.88-8.3,7.73-8.16,10.51-7.34,3.07.91,3.31,4.37,3.31,7.49v6.91c.19,6.19,1.97,7.58,3.84,7.58l.05.38h-12.24Z"/>
  <path class="cls-1" d="M220.75,33.51h-3.7s-2.5.19-3.46-.43c-1.06-.62-1.01-3.55-1.01-3.55v-1.73c-2.02,3.84-4.94,6.05-8.5,5.66-3.65-.43-6.58-3.79-7.58-6.82-2.21-6.53,1.25-13.54,7.25-15.89,2.54-1.01,6.77-.91,8.83,2.21v-5.04c-.24-6.29-2.02-7.54-3.89-7.54v-.38h6.62c1.73,0,1.73,2.54,1.73,3.84v23.91c.53,4.32,2.06,5.38,3.7,5.38v.38ZM212.59,26.5v-12.43c-.77-1.68-2.06-2.26-4.08-2.4-4.13-.24-8.06,4.61-8.16,9.89-.05,4.22.58,8.69,4.94,9.65,2.88.67,6.05-2.3,7.3-4.7Z"/>
</svg>