<?xml version="1.0" encoding="UTF-8"?>
<svg id="Lager_1" xmlns="http://www.w3.org/2000/svg" viewBox="0 0 116.21 104.12">
  <defs>
    <style>
      .cls-1 {
        fill: #fff;
      }

      .cls-2 {
        fill: none;
      }
    </style>
  </defs>
  <rect class="cls-2" x="0" y="23.1" width="116.21" height="54.28"/>
  <path class="cls-1" d="M13.18,75.21l-.06-.22-.17-.78c-.07-.37-.11-.81-.11-1.33l.06-1.61.17-2.27v-1c.04-.22.06-.45.06-.69s.02-.49.06-.75l.06-1.38.11-3.77c.04-.26.06-.59.06-1,0-.3.02-.5.06-.61.07-.29.11-.96.11-1.99,0-.59-.04-.92-.11-1-.15-.07-.92.13-2.33.61-.7.22-1.26.35-1.66.39-.07.04-.17.07-.28.08-.11.02-.2.05-.28.08l-.78.17c-.37,0-.63.04-.78.11h-.44c-.11,0-.16,0-.14-.03.02-.02.03-.05.03-.08,0-.07-.09-.13-.28-.17-.48-.07-.76-.18-.83-.33-.04-.04-.04-.07,0-.11.04-.04.11-.07.22-.11.33-.11.52-.17.55-.17l.83-.28c.41-.18.78-.29,1.11-.33.48-.07.85-.17,1.11-.28.48-.11.81-.2,1-.28l1.83-.44.78-.22c.11,0,.24-.04.39-.11.04-.04.06-.54.06-1.5,0-.52,0-.9-.03-1.16-.02-.26-.03-.46-.03-.61l.06-.78c.04-.29.04-.54,0-.72v-.5c.04-.07.06-.7.06-1.88,0-1.74-.02-3.12-.06-4.15l-.17-5.04-.06-2.38c0-.67,0-1.14-.03-1.41-.02-.28-.03-.45-.03-.53-.04-.18-.06-.5-.06-.94v-1.11c-.07-.37-.11-.72-.11-1.05,0-.55-.02-.98-.06-1.27v-.83l-.11-1.55c-.04-.11-.06-.23-.06-.36s-.02-.27-.06-.42l-.06-1-.11-1.33-.06-1.05c-.04-.07-.06-.39-.06-.94,0-.52-.07-1.02-.22-1.5-.07-.22-.11-.44-.11-.67-.04-.11-.06-.22-.06-.33s-.02-.2-.06-.28l-.06-.33c-.19-1.11-.31-1.77-.39-1.99,0-.22-.04-.44-.11-.66l-.06-.44c-.04-.15-.08-.23-.14-.25-.06-.02-.14,0-.25.03-1.03.33-1.9.72-2.6,1.16l-1.05.61c-.26.11-.48.22-.66.33-.19.11-.31.19-.39.22-.11.11-.33.28-.67.5-.37.22-.76.5-1.16.83s-.76.63-1.05.89c-1.03,1.14-1.64,1.86-1.83,2.16-.04.08-.15.2-.33.39-.15.15-.26.31-.33.5l-.33.55c-.11.15-.19.22-.22.22s-.15-.04-.33-.11l-.17-.11.11-.33c.11-.29.11-.48,0-.55s-.07-.39.11-.94c.07-.22.15-.42.22-.58.07-.17.18-.36.33-.58.55-.74,1.14-1.42,1.77-2.05.41-.37.92-.78,1.55-1.22l.55-.5c.44-.29.78-.5,1-.61.15-.04.35-.15.61-.33l.66-.33.55-.33c.29-.18.92-.48,1.88-.89.11-.04.26-.09.44-.17.18-.07.37-.17.55-.28l1-.39c.37-.18.57-.29.61-.33.3-.15.59-.22.89-.22l.89-.22,1.22-.28c1-.18,1.62-.35,1.88-.5l.44-.17c1.4-.22,2.27-.35,2.6-.39l1.27-.22c.37-.07.85-.11,1.44-.11.26-.04.63-.06,1.11-.06.15-.04.72-.06,1.72-.06l1.27.06c.59,0,1,.02,1.22.06.78,0,1.16.02,1.16.05l.72.11c1.14.18,1.98.35,2.49.5l1.22.33c.44.07,1.31.41,2.6,1,.63.26,1.18.61,1.66,1.05l.66.44c.37.26.78.66,1.22,1.22l.5.55.5.61.5.55c.18.15.29.31.33.5.48,1,.83,1.75,1.05,2.27.22.52.39,1.02.5,1.5.15.52.24,1.13.28,1.83.07.59.11.87.11.83.07.18.11.54.11,1.05-.07,1-.19,1.98-.33,2.94-.22,1.26-.46,2.29-.72,3.1-.15.48-.36,1.04-.64,1.69-.28.65-.45,1.01-.53,1.08-.22.22-.41.55-.55,1-.04.11-.09.23-.17.36-.07.13-.13.25-.17.36l-.61,1c-.15.37-.3.63-.44.78l-.94,1.22c-.63.81-.96,1.24-1,1.27l-.61.72c-.11.22-.37.54-.78.94l-.83.89c-.15.22-.3.37-.44.44-.11.11-.27.28-.47.5-.2.22-.42.48-.64.78-.26.26-.44.42-.55.5l-.61.5-.83.72-2.22,1.66c-.63.48-1.11.81-1.44,1-.22.07-.81.42-1.77,1.05l-1.22.83c-.59.37-.91.59-.94.66l-.39.22-.39.28c-.33.22-.55.33-.66.33l-.39.17c-.22.15-.72.39-1.5.72-.78.33-1.22.55-1.33.67-.15.15-.55.33-1.22.55-.37.07-.65.15-.83.22-.7.3-1.37.52-1.99.66-.3.08-.47.15-.53.22-.06.07-.08.28-.08.61.04,1.18.04,1.98,0,2.38-.04.18-.06.63-.06,1.33l-.11,1.11c-.07.29-.11.55-.11.78v.22l.06.89c.04.18.06.36.06.53s.02.32.06.47c0,.92-.04,1.53-.11,1.83-.04.29-.02.57.06.83.11.11.11.33,0,.66-.07.22-.11.5-.11.83l-.06.78c-.15.74-.22,1.37-.22,1.88l.06.5c0,.7-.02,1.09-.06,1.16v.28c.04.11.04.33,0,.67-.04.37-.07.55-.11.55h-.06c-.07-.07-.17-.02-.28.17-.15.15-.22.24-.22.28s-.03.07-.08.11c-.06.04-.12.06-.19.06s-.11-.04-.11-.11ZM13.18,15.78s-.05.11-.03.22c.02.11.06.33.14.67l.39,2.16c0,.15.04.3.11.44.07.15.11.33.11.55,0,.67.04,1.03.11,1.11.04.04.09.46.17,1.27.04.11.06.22.06.33s.02.2.06.28l.06.44.17.44c.04.08.06.17.06.28l-.11,1.99c0,.26.04.42.11.5.04.07.06.5.06,1.27.04.41.06.85.06,1.33.04.18.04.37,0,.55v.61c0,.44-.02.81-.06,1.11v1.16l.06,1.77v1.55c.04.15.07.67.11,1.58.04.91.04,1.6,0,2.08-.07.66-.07,1.18,0,1.55.04.07.06.2.06.39-.04.07-.06.57-.06,1.5l-.06,1.66c-.04.26-.04.41,0,.44.04.04.06.59.06,1.66l.06,1.88c.04.11.06.5.06,1.16l-.06,1.66c0,.52.02.83.06.94.04.3.04.5,0,.61-.04.22-.06.54-.08.94-.02.41-.03.72-.03.94.04.04.17.04.39,0,.07,0,.22-.06.44-.17l.61-.22c.66-.22,1.14-.41,1.44-.55l.83-.33,1.66-.72.66-.33c.44-.15,1.03-.44,1.77-.89l1.05-.61,1.11-.61.55-.33.44-.28.89-.61c.63-.33,1.11-.65,1.44-.94l.5-.33.55-.44c.07-.04.17-.1.28-.19.11-.09.26-.19.44-.3l1.66-1.33.72-.61.72-.72c.15-.18.32-.38.53-.58.2-.2.42-.42.64-.64.92-.92,1.62-1.7,2.1-2.33.78-1,1.25-1.66,1.44-1.99l.44-.55.39-.66.39-.67c.15-.22.54-.85,1.16-1.88l.22-.61.33-.66c.26-.52.55-1.35.89-2.49l.39-1.22c0-.22.04-.41.11-.55.07-.33.15-.77.22-1.3.07-.54.11-.99.11-1.36,0-.63-.07-1.4-.22-2.33-.07-.81-.22-1.53-.44-2.16l-.72-1.66c-.15-.29-.34-.64-.58-1.02-.24-.39-.47-.71-.69-.97-.3-.44-.78-.94-1.44-1.5l-.55-.5c-.48-.41-.94-.72-1.38-.94-.04,0-.28-.13-.72-.39-.55-.3-1.42-.65-2.6-1.05-.37-.15-.7-.26-1-.33-.3-.07-.65-.13-1.05-.17l-.94-.11c-.15-.07-.37-.11-.66-.11-.3-.07-1.22-.11-2.77-.11s-2.7.04-3.21.11l-1.05.11c-.81.07-1.81.22-2.99.44-.26.11-.63.2-1.11.28l-.94.22-.72.17-.61.17c-.19.07-.42.15-.72.22-.33.08-.66.15-1,.22-.33.07-.57.15-.72.22,0,.04-.04.06-.11.06l-.17.11Z"/>
  <path class="cls-1" d="M40.43,59.7c-.19-.07-.35-.19-.5-.36-.15-.17-.24-.34-.28-.53l-.17-.44c-.11-.55-.17-.87-.17-.94l-.11-.39c-.07-.29-.11-.54-.11-.72,0-.29-.04-.55-.11-.78l-.06-.44c0-.22-.02-.37-.06-.44v-.66c0-.26-.04-.61-.11-1.05-.11-.85-.17-1.79-.17-2.82,0-.41,0-.7-.03-.89-.02-.18-.05-.31-.08-.39-.07-.15-.11-.29-.11-.44v-.39c-.11-.33-.17-.59-.17-.78s-.02-.34-.06-.47c-.04-.13-.07-.25-.11-.36-.07-.26-.06-.63.06-1.11l.22-.39h.06l.11-.06c.07-.07.13-.09.17-.06h.11s.06.08.06.11c.07.07.13.11.17.11.07,0,.13.02.17.06h.11c.07,0,.16.08.25.25.09.17.16.36.19.58.22.59.33,1.02.33,1.27,0,.19.02.3.06.33.07.19.09.3.06.33-.04.11-.04.26,0,.44l.06.61c.11.74.2,1.18.28,1.33.04.04.06.09.06.17s-.02.13-.06.17c-.04,0-.06.09-.06.28,0,.26-.02.42-.06.5-.07.26-.06.44.06.55.04.07.06.46.06,1.16v.39c.04.07.06.18.06.33-.04.04-.06.17-.06.39,0,.33-.02.57-.06.72,0,.33.02.55.06.67l.06.55c0,.26.02.39.06.39l.06.39c0,.3.02.48.06.55.04,0,.09.15.17.44.04.18.07.24.11.17v-.22c0-.11.06-.24.17-.39.11-.11.17-.2.17-.28.18-.52.37-.9.55-1.16.11-.18.15-.31.11-.39,0-.11.04-.2.11-.28.22-.41.37-.79.44-1.16.18-.67.31-1.09.39-1.27l.22-.5s.08-.04.14-.11c.06-.07.08-.15.08-.22,0-.11.02-.2.06-.28.07-.11.11-.24.11-.39,0-.11.04-.2.11-.28.04-.04.08-.1.14-.19.06-.09.1-.19.14-.3l.22-.44c.07,0,.11-.09.11-.28l.22-.44.11-.28.11-.28c.11-.18.17-.31.17-.39,0-.15.02-.24.06-.28l.22-.33c.52-.78.85-1.24,1-1.38.07-.11.17-.18.3-.22.13-.04.21-.07.25-.11.33-.11.61-.09.83.06.11.07.21.18.3.3.09.13.19.3.3.53l.28.55s.06.05.06.17v.55l.06.5c0,.11.02.19.06.22.07.07.12.15.14.22.02.07,0,.17-.03.28-.07.18-.09.3-.06.33v.39l-.11,1.33.06.33c0,.22.02.39.06.5v.44c.07.07.07.2,0,.39v.33h-.11c-.11,0-.2.04-.28.11-.15.07-.22.15-.22.22-.07.07-.16.1-.25.08-.09-.02-.16-.06-.19-.14-.19-.29-.3-.63-.36-1-.06-.37-.08-.98-.08-1.83v-1.38l-.11-.94-.06-.78-.06-.22-.22.22-.28.44c-.11.22-.2.37-.28.44l-.17.33-.11.33c-.19.33-.37.72-.55,1.16l-.22.5s-.06.11-.06.22l-.06.17-.11.22c0,.15-.13.42-.39.83l-.11.33c0,.19-.04.28-.11.28l-.22.61-.17.33-.17.28c0,.11-.02.18-.06.22l-.17.44-.11.28s-.09.18-.17.44c0,.08-.09.35-.28.83-.19.3-.28.52-.28.67-.26.66-.55,1.35-.89,2.05-.19.26-.44.41-.78.44-.22,0-.41-.04-.55-.11Z"/>
  <path class="cls-1" d="M53.67,60.31c-.37-.07-.65-.16-.83-.25-.19-.09-.44-.27-.78-.53-.37-.33-.7-.7-1-1.11-.48-.67-.76-1.13-.83-1.38,0-.11-.06-.28-.17-.5-.11-.18-.17-.33-.17-.44,0-.04-.06-.22-.17-.55l-.11-.67-.28-1.77-.06-.72c0-1.33.04-2.1.11-2.33l.06-.72.17-.89c0-.18.04-.35.11-.5,0-.15.04-.33.11-.55l.11-.39c0-.11.09-.29.28-.55l.28-.72c.04-.18.13-.39.28-.61.15-.15.29-.35.44-.61.41-.63.87-1.09,1.38-1.38l.22-.17s.17-.09.39-.17c.18,0,.35-.04.5-.11.15-.04.41-.06.78-.06h.5l.44.22.61.33.28.28s.08.09.14.17c.06.08.12.15.19.22l.39.67c.11.18.23.41.36.66.13.26.19.44.19.55s.13.37.39.78c.07.15.11.3.11.44l.06.39c.15.41.22.91.22,1.5,0,.55-.07,1.02-.22,1.38l-.11.22.17-.11.22-.22.17-.06c.11,0,.18.06.22.17.15.37.22.57.22.61.04.15.06.59.06,1.33-.04.07-.06.16-.06.25s-.02.18-.06.25c0,.22-.04.41-.11.55-.04.07-.06.2-.06.39l-.06.33c-.19.55-.28.91-.28,1.05l-.39,1.33c-.15.26-.24.52-.28.78-.22.44-.37.72-.44.83-.33.7-.68,1.2-1.05,1.5-.04.07-.08.13-.14.17-.06.04-.1.09-.14.17-.48.41-1.09.61-1.83.61l-.55-.06ZM50.51,52.62s.07.22.11.67l.06.83c.07.15.11.28.11.39l.17.39c.11.3.22.7.33,1.22,0,.15.04.26.11.33,0,.04.02.07.06.11.04.04.06.09.06.17l.22.28c.15.11.22.2.22.28,0,.19.16.46.47.83.31.37.64.63.97.78.18.07.35.11.5.11h.22c.07.04.17.05.3.03.13-.02.25-.05.36-.08.22-.11.41-.24.55-.39l.55-.5c.15-.07.26-.29.33-.67.15-.37.22-.61.22-.72l.06-.39c.07-.07.11-.13.11-.17,0-.07.02-.15.06-.22.04-.07.07-.15.11-.22.11-.29.17-.46.17-.5v-.06c-.11-.11-.09-.29.06-.55.11-.11.17-.22.17-.33l.11-.55s.09-.09.17-.28c.15-.44.22-.9.22-1.38v-1.11c-.15.11-.35.17-.61.17-.11,0-.24-.04-.39-.11-.15-.07-.26-.18-.33-.33l-.22-.44c-.07-.15-.09-.22-.06-.22.07,0,.11-.04.11-.11,0-.11.02-.17.06-.17l.06-.06c.07-.07.13-.07.17,0l.17.06-.06-.83c0-.52-.02-.79-.06-.83-.07-.15-.11-.24-.11-.28.04-.15,0-.39-.11-.72l-.28-.67-.11-.28-.22-.28c-.04-.11-.09-.17-.17-.17s-.11-.07-.11-.22c.04-.11,0-.22-.11-.33-.04-.04-.07-.08-.11-.14-.04-.06-.06-.1-.06-.14,0-.07-.03-.14-.08-.19-.06-.06-.12-.08-.19-.08s-.19-.04-.33-.11c-.26-.15-.44-.17-.55-.05,0,.04-.06.05-.17.05-.07,0-.19.04-.33.11l-.22.17-.33.17c-.33.26-.52.48-.55.67,0,.11-.04.17-.11.17l-.28.44-.33.5c-.07.15-.11.28-.11.39,0,.18-.06.33-.17.44-.07.22-.11.41-.11.55l-.17.5c-.07.19-.09.3-.06.33l-.11.33c-.07.07-.12.17-.14.28-.02.11-.03.26-.03.44,0,.33-.02.54-.06.61l-.11.78-.06.83c-.04.26-.04.42,0,.5Z"/>
  <path class="cls-1" d="M57.32,81.58c-.37-.07-.68-.23-.94-.47-.26-.24-.42-.54-.5-.91-.07-.37-.11-.7-.11-1,0-.41.04-.76.11-1.05.07-.15.11-.35.11-.61l.17-.72c0-.07.02-.19.06-.33.04-.15.06-.3.06-.44l.17-.67.39-1.05.39-1.05.22-.55c.07-.37.17-.65.28-.83l.28-.72c.07-.26.13-.41.17-.44.07-.15.14-.32.19-.53.06-.2.1-.36.14-.47,0-.19.09-.41.28-.67l.22-.44c0-.11.17-.46.5-1.05l.61-1.38c.26-.55.52-1,.78-1.33.15-.19.35-.54.61-1.05l.28-.55c.18-.33.36-.67.53-1.02.17-.35.27-.6.3-.75l.11-.22c.04-.07.06-.15.08-.22.02-.07,0-.18-.03-.33v-.66c.04-.26.02-1.16-.06-2.71l-.06-1.27c-.07-.37-.11-.81-.11-1.33-.04-.66-.11-1.31-.22-1.94-.07-.37-.11-.7-.11-1l-.06-.66c-.19-.63-.3-.94-.33-.94-.11-.22-.2-.57-.28-1.05l-.17-.67-.39-1.16c-.07-.33-.19-.72-.33-1.16l-.17-.5c-.19-.37-.33-1.01-.44-1.94v-.5l.11-.06c.07-.04.17-.15.28-.33.15-.3.28-.44.39-.44.22.07.39.26.5.55l.22.28.39,1.27.33,1,.39,1.16.22.61c.15.37.22.61.22.72,0,.19.04.43.11.75.07.31.15.56.22.75.04.07.17.63.39,1.66.07.44.13.68.17.72l.11.5c.07.3.13.46.17.5.04.07.06.66.06,1.77s.02,1.75.06,1.83c.07.07.11.19.11.33v.72l-.06.89.28-.28c.15-.07.29-.24.44-.5.04-.11.33-.52.89-1.22.07-.07.28-.33.61-.78.15-.15.26-.28.33-.39.07-.11.15-.2.22-.28l.33-.44c.48-.85.81-1.33,1-1.44.04,0,.13-.11.28-.33.04-.07.22-.31.55-.72.29-.33.44-.46.44-.39.04.11.24.09.61-.06l.39-.05.11.11c0,.07-.11.32-.33.75-.22.42-.42.78-.61,1.08l-.55.78c-.11.22-.24.41-.39.55l-.22.28-1.05,1.38-.39.5c-.11.22-.2.35-.28.39-.07.15-.2.31-.39.5l-.39.61c-.15.15-.26.33-.33.55-.22.33-.37.54-.44.61l-.61.89c-.3.44-.44.68-.44.72-.07.07-.15.44-.22,1.11-.07.66-.11,1.31-.11,1.94l-.06,1.11c-.04.11-.06.25-.06.42s-.02.32-.06.47c0,.37-.04.7-.11,1l-.06.89c0,.52-.02.89-.06,1.11-.07.37-.11.72-.11,1.05l-.17,1c-.07.22-.11.42-.11.61,0,.15-.07.44-.22.89-.15.44-.28,1.03-.39,1.77,0,.22-.04.42-.11.61-.07.11-.17.33-.28.67-.3.92-.5,1.51-.61,1.77-.19.44-.33.72-.44.83-.33.52-.5.81-.5.89,0,.15-.19.42-.55.83-.63.7-1.31,1.14-2.05,1.33l-.66.11h-.22ZM57.05,79.2c0,.07.02.22.06.44.04.22.07.35.11.39.11.22.22.33.33.33.15,0,.26-.02.33-.06.19,0,.35-.04.5-.11.3-.15.57-.35.83-.61.26-.3.58-.81.97-1.55.39-.74.62-1.27.69-1.61l.22-.55.17-.72c.04-.15.07-.3.11-.44.04-.15.09-.3.17-.44.07-.37.18-.98.33-1.83,0-.26.04-.5.11-.72l.11-.78c0-.3.04-.59.11-.89.07-.41.13-.94.17-1.61l.11-.83c.04-.07.06-.42.06-1.05.04-.33.06-.7.06-1.11l.11-1.33-.22.33c-.04.22-.17.46-.39.72l-.39.83-.28.5-.28.55-.22.55c-.3.37-.52.81-.66,1.33l-.33.72c-.11.18-.22.44-.33.78-.07.37-.2.74-.39,1.11-.18.33-.48,1.12-.89,2.35-.41,1.24-.63,1.98-.66,2.24l-.11.44c-.26.92-.41,1.57-.44,1.94,0,.44-.02.67-.06.67ZM59.7,38.82s-.04.11,0,.22c.04.11.07.19.11.22,0,.15.09.26.28.33.07.07.19.16.36.25.17.09.3.19.42.3v.14c0,.06.03.07.08.06.06-.02.16-.06.3-.14.04-.04.17-.07.39-.11.22-.04.39-.11.5-.22l-.11-.06c.07-.04.11-.08.11-.14s-.04-.1-.11-.14c-.04,0-.06-.04-.06-.11v-.17c-.07,0-.09-.02-.06-.06.04-.04.06-.07.06-.11s.02-.06.06-.06l-.06-.17v-.06c.15,0,.17-.07.06-.22v-.11s-.06-.07-.06-.22c0-.11-.04-.24-.11-.39-.07-.15-.17-.24-.28-.28-.26-.11-.54-.11-.83,0-.07,0-.15.08-.22.22-.07.08-.16.13-.25.17-.09.04-.16.04-.19,0-.07,0-.07.04,0,.11-.04.04-.07.06-.11.06-.11.04-.13.07-.06.11.04.04,0,.06-.11.06-.07,0-.12,0-.14.03-.02.02,0,.07.03.14.07.04.11.1.11.19s-.04.14-.11.14Z"/>
  <path class="cls-1" d="M73.44,59.76h-.28c-.19,0-.48-.09-.89-.28-.55-.26-.87-.48-.94-.66l-.33-.44c-.26-.26-.44-.57-.55-.94-.04-.11-.07-.19-.11-.25-.04-.06-.09-.08-.17-.08-.19-.04-.35-.13-.5-.28-.04-.11-.15-.2-.33-.28-.07-.11-.09-.18-.06-.22.04-.04.04-.11,0-.22-.04-.07-.04-.13,0-.17.04-.04.13-.06.28-.06.11,0,.18-.06.22-.17l.17-.17c.11,0,.17-.04.17-.11v-.83c0-.48.04-.83.11-1.05l.11-.55.06-.39c.11-.33.18-.59.22-.78l.17-.44s.06-.22.17-.55c.04-.15.08-.29.14-.42.06-.13.1-.23.14-.3l.28-.83.33-.72c.07-.11.16-.25.25-.42.09-.17.21-.34.36-.53.22-.41.53-.88.91-1.41s.69-.88.91-1.03l.5-.39c.22-.18.52-.33.89-.44.29-.11.59-.17.89-.17s.48.04.55.11c.22.11.43.31.64.61.2.3.3.61.3.94l-.11.55c-.11.22-.17.41-.17.55-.26.85-.46,1.44-.61,1.77l-.17.22c0,.07-.04.18-.11.33l-.39.72-.61,1.38-.17.28-.39.61-.33.55s-.24.31-.61.83c-.11.11-.21.24-.3.39-.09.15-.14.26-.14.33,0,.11-.15.31-.44.61l-.28.39c-.15.18-.32.38-.53.58-.2.2-.38.36-.53.47l-.39.28-.22.17.06.17.17.28.22.28.28.28.17.17s.11.06.22.17c.11.11.39.2.83.28.33,0,.59.02.78.05.29,0,.5-.04.61-.11.07,0,.22-.06.44-.17.37-.15.65-.31.83-.5.04-.04.09-.05.17-.05l.22-.11.39-.17c.41-.11.61-.24.61-.39.07-.15.2-.24.39-.28.15,0,.26-.04.33-.11.07-.07.35-.22.83-.44.26-.18.46-.29.61-.33l.33-.22.39-.39c.26-.26.42-.41.5-.44.04,0,.07-.02.11-.06.04-.04.06-.07.06-.11.07-.07.18-.17.33-.28.15-.11.28-.18.39-.22l.06.06c0,.11.13.17.39.17.18,0,.31.04.39.11.04.04.06.11.06.22l-.11.22s-.07.08-.11.14c-.04.05-.07.12-.11.19-.19.33-.59.74-1.22,1.22-.04.04-.1.08-.19.14-.09.05-.16.12-.19.19l-.39.22-.33.22s-.08.07-.14.11c-.06.04-.1.06-.14.06l-.22.11-.28.22c-.22.11-.37.2-.44.28-.19.11-.42.24-.72.39-.3.15-.52.26-.66.33l-.5.28c-.44.18-.7.28-.78.28l-.5.17c-.33.15-.61.24-.83.28-.22.04-.59.06-1.11.06l-.28-.06ZM71.44,54.39c.04.18.07.26.11.22.04,0,.09-.07.17-.22.07-.15.15-.24.22-.28.07-.07.17-.17.28-.3.11-.13.18-.23.22-.3l.06-.11c.22-.22.44-.55.66-1l.11-.22c.04-.07.06-.15.06-.22s.06-.17.17-.28l.33-.33c.07-.18.18-.31.33-.39.18-.18.28-.39.28-.61,0-.07.13-.31.39-.72.26-.48.41-.76.44-.83,0-.11.06-.22.17-.33.15-.15.22-.28.22-.39l.17-.28c.07-.11.17-.27.28-.47s.18-.38.22-.53l.11-.39v-.17c.07,0,.11-.15.11-.44v-.11c-.04-.07-.13-.09-.28-.06-.15.04-.3.11-.44.22l-.44.22c-.15.07-.22.13-.22.17l-.33.28c-.33.19-.54.43-.61.72-.07.15-.15.26-.22.33-.15.07-.26.19-.33.33-.44.74-.7,1.15-.78,1.22-.11.15-.17.28-.17.39,0,.04-.04.17-.11.39-.33.63-.55,1.26-.66,1.88,0,.15-.04.33-.11.55-.07.22-.11.41-.11.55l-.11.33c-.07.07-.11.22-.11.44l-.06.44v.28Z"/>
  <path class="cls-1" d="M88.45,59.76l-.44-.06c-.33,0-.59-.07-.78-.22l-.44-.17c-.11,0-.2-.04-.28-.11-.15-.04-.35-.15-.61-.33-.19-.07-.5-.33-.94-.78-.52-.52-.85-.89-1-1.11-.19-.41-.35-.9-.5-1.5-.07-.22-.14-.55-.19-1-.06-.44-.06-.78-.03-1,.04-.07.06-.22.06-.44-.04-.15-.02-.3.06-.44.04-.07.06-.18.06-.33l.17-.5.22-.66c0-.11.06-.28.17-.5l.33-.72.28-.55.17-.39.17-.17.11-.22.17-.17.5-.78c.07-.22.24-.46.5-.72l.17-.22c.04-.11.25-.35.64-.72.39-.37.66-.59.8-.66l.5-.39c.26-.26.48-.41.66-.44.15,0,.26-.04.33-.11.15-.07.33-.11.55-.11l.44.06c.22.04.46.19.72.44l.22.17.06.11c.07.07.13.11.17.11.07,0,.11.02.11.05l.06.11c.07,0,.07.04,0,.11-.04.11-.02.2.06.28.07.11.07.26,0,.44-.04.19-.13.34-.28.47-.15.13-.31.19-.5.19s-.46-.15-.83-.44c-.19-.18-.31-.28-.39-.28-.04,0-.2.09-.5.28-.37.3-.59.55-.66.78,0,.04-.06.09-.17.17-.04,0-.08.02-.14.06-.06.04-.1.09-.14.17-.04.04-.08.07-.14.11-.06.04-.12.05-.19.05-.19.19-.28.33-.28.44l-.33.44-.44.55-.17.28s-.13.07-.28.22l-.33.44c-.26.33-.39.59-.39.78l-.06.11s-.07.08-.11.14c-.04.06-.07.12-.11.19l-.22.5c-.07.15-.11.28-.11.39,0,.15-.02.26-.06.33l-.06.5-.06.33s-.06.11-.06.22l-.06.39c-.11.26-.11.48,0,.67.07.15.09.26.06.33s0,.3.11.66c.04.15.07.28.11.39.04.11.07.2.11.28,0,.07.04.15.11.22l.17.17c.11.15.23.3.36.44.13.15.27.26.42.33.04.11.26.24.66.39l.61.33c0,.08.06.11.17.11s.2.02.28.05c.15.04.26.04.33,0,.11-.04.2-.02.28.06.11.11.44.17,1,.17h.28c.26,0,.48-.02.66-.05.18-.04.31-.07.39-.11l.33-.11c.33-.04.66-.09,1-.17.15-.07.28-.11.39-.11.07-.07.22-.11.44-.11.3-.07.48-.13.55-.17l.33-.22.39-.33c.07-.11.26-.24.55-.39.22-.07.37-.15.44-.22.07-.07.13-.17.17-.28.04-.07.13-.13.28-.17l.28-.17.5-.33.66-.44c.11-.04.24-.18.39-.44.04-.07.08-.15.14-.22.06-.07.1-.11.14-.11.07,0,.11-.06.11-.17l.11-.11.17-.17c.07-.04.13-.09.17-.17.04,0,.09.04.17.11.07.15.24.19.5.11.07,0,.14.03.19.08s.08.12.08.19c-.07.44-.19.74-.33.89l-.28.39c-.07.11-.19.25-.36.42s-.32.29-.47.36c-.07.04-.13.08-.17.14-.04.05-.09.1-.17.14-.04.08-.1.14-.19.19-.09.06-.16.1-.19.14l-.5.39-.44.33-1.05.61-1.5.78c-.11,0-.24.04-.39.11l-.28.11c-.11,0-.19.02-.22.05l-.28.11c-.19,0-.33.02-.44.05-.19,0-.39.04-.61.11-.22,0-.37.04-.44.11-.15.08-.61.11-1.38.11-.52,0-.87-.02-1.05-.06Z"/>
  <path class="cls-1" d="M101.3,72.17l-.11-.22c0-.07-.06-.2-.17-.39-.11-.33-.17-.52-.17-.55-.07-.15-.11-.37-.11-.67-.11-.37-.17-1.03-.17-1.99,0-.22-.02-.41-.06-.55-.11-1.48-.17-3.38-.17-5.71,0-1.37.04-2.34.11-2.94l.06-.66c0-.3.02-.5.06-.61,0-.22-.02-.42-.06-.61v-.72c.04-.33.09-1.46.17-3.38,0-.33.04-.65.11-.94l.06-.72c0-.3.02-.46.06-.5l.06-.66.06-.67c.04-.29.08-.7.14-1.22.06-.52.08-1,.08-1.44l.06-.89.17-1.05c0-.22.02-.39.06-.5l.06-.72c.07-.37.11-.63.11-.78l.06-.78.06-.61.06-.44v-.28h-.17c-.15,0-.26.02-.33.06-.22.11-.35.17-.39.17-.15,0-.26.06-.33.17-.04.04-.17.09-.39.17-.15,0-.3.04-.44.11-.07.07-.35.2-.83.39-.11,0-.17.04-.17.11h-.17l-.44.22-.44.22-.33.17c-.22.11-.35.17-.39.17-.22.11-.35.19-.39.22-.22.11-.35.17-.39.17-.15.04-.29.17-.44.39,0,.07-.07.15-.22.22l-.17.11c-.04.08-.14.16-.3.25s-.32.17-.47.25c-.15.07-.31.11-.5.11-.37,0-.63-.11-.78-.33-.18-.18-.28-.44-.28-.78,0-.15.04-.33.11-.55.15-.33.26-.5.33-.5s.11-.02.11-.05c.04,0,.09-.04.17-.11.07-.04.13-.04.17,0l.22.06c.15,0,.22.06.22.17.04.04.22-.07.55-.33.04-.07.09-.13.17-.17.07-.04.18-.11.3-.22.13-.11.21-.2.25-.28,0-.11.07-.17.22-.17.04.04.07.05.11.03.04-.02.07-.03.11-.03l.33-.11c.22,0,.37-.06.44-.17,0-.07.09-.13.28-.17l.44-.11.28-.17.22-.06c.11,0,.19-.02.22-.06l.44-.05c.33-.07.55-.15.66-.22.07-.07.13-.09.17-.06l.22-.06c.15-.07.28-.11.39-.11l.33-.17.28-.17c.15,0,.26-.04.33-.11l.33-.11c.11,0,.18-.02.22-.06,0-.04.04-.06.11-.06.11,0,.22-.15.33-.44.04-.18.06-.44.06-.78,0-.18.04-.42.11-.72.07-.22.11-.5.11-.83.07-.3.11-.63.11-1l.17-1.05c.04-.11.06-.22.06-.33s.02-.2.06-.28l.17-1c.11-1.18.2-1.85.28-1.99,0-.04,0-.09.03-.17.02-.07,0-.11-.03-.11l.06-.17c.11-.26.24-.68.39-1.27.18-.59.29-.9.33-.94.22-.55.33-.98.33-1.27,0-.22.02-.39.06-.5.11-.18.17-.35.17-.5l.11-.44c.07-.26.24-.96.5-2.11.04-.29.15-.63.33-1,.15-.22.22-.39.22-.5,0-.04.04-.04.11,0,.07.04.15.02.22-.06l.11-.11.11.11s.06.09.06.17c0,.11.06.2.17.28.18.04.29.17.33.39.04.22.04.5,0,.83-.07,1-.19,1.62-.33,1.88-.04.07-.06.16-.06.25s-.02.18-.06.25c0,.22-.04.37-.11.44-.04.08-.13.41-.28,1l-.17.55c-.19.67-.28,1.16-.28,1.5v.11c0,.15-.06.28-.17.39l-.17.44c-.04.15-.11.33-.22.55-.11.15-.17.37-.17.66v.17s-.02.33-.17.89l-.17,1.11c-.04.07-.06.16-.06.25s-.02.18-.06.25c-.07.07-.11.22-.11.44l-.11.44c-.22.81-.33,1.38-.33,1.72l-.06.44c-.07.07-.11.28-.11.61l-.11.72-.06.17.28-.06c.18,0,.28-.04.28-.11.04-.04.09-.06.17-.06.11-.04.26-.08.44-.14.18-.06.33-.12.44-.19,0-.04.04-.06.11-.06l.17-.11c.37-.18.65-.28.83-.28h.06l.22-.05c.07-.07.13-.11.17-.11l.22-.11c.04-.07.11-.11.22-.11.15,0,.28-.02.39-.05l.28-.11c.11,0,.18-.02.22-.05l.22-.11c.11,0,.18-.02.22-.06l.28-.11.22-.11c.07-.07.13-.11.17-.11.11,0,.18-.02.22-.06.04-.04.09-.05.17-.05s.13-.02.17-.06l.44-.11c.3-.07.48-.11.55-.11.18,0,.31-.04.39-.11l.33-.17s.08-.06.14-.08c.06-.02.1-.06.14-.14l.22-.11c.07,0,.11-.02.11-.05l.22-.06c.15,0,.26-.02.33-.06.07-.04.11-.09.11-.17.04-.07.11-.11.22-.11.15,0,.24-.02.28-.06.07-.04.42-.11,1.05-.22l.22-.06c0-.07.04-.11.11-.11l.11-.06c0-.07.07-.11.22-.11l.22-.11c0-.07.07-.11.22-.11s.24.04.28.11c0,.04.02.08.06.14.04.06.09.1.17.14.3.18.33.41.11.66-.07.08-.11.13-.11.17-.04.07-.25.2-.64.39s-.66.28-.8.28l-.11.06s-.09.06-.17.06l-.17.05-.22.11c-.15,0-.22.04-.22.11-.11,0-.26.06-.44.17-.19.04-.44.11-.78.22-.15.07-.26.11-.33.11-.04.04-.08.05-.14.05s-.1.02-.14.06c-.22.11-.39.17-.5.17l-.28.06s-.11.05-.22.05c-.04,0-.09.04-.17.11l-.17.06c-.19,0-.31.02-.39.05l-.39.11c-.07,0-.15.04-.22.11-.11.11-.24.17-.39.17l-.39.11-.55.22-.44.17c-.3.15-.52.22-.66.22-.11,0-.2.04-.28.11l-.17.06-.28.11-.44.11c-.15.04-.33.1-.55.19-.22.09-.41.18-.55.25l-.5.17c-.48.19-.74.31-.78.39-.04.08-.06.22-.06.44,0,.15-.04.37-.11.67l-.06.5c0,.26-.06.5-.17.72-.07.11-.11.44-.11,1,.04.08.02.22-.06.44-.07.3-.11.59-.11.89-.04.44-.13.96-.28,1.55-.04.22-.04.37,0,.44.04.07.04.24,0,.5-.15,1.11-.22,1.99-.22,2.66,0,.81-.04,1.33-.11,1.55-.07.22-.11.61-.11,1.16l.06.39v.33c-.07.07-.14.51-.19,1.3s-.06,1.76-.03,2.91c0,.44-.02.85-.06,1.22-.04.22-.06.63-.06,1.22,0,.37-.04.66-.11.89l-.06.55c0,.26.02.55.06.89.04.33.09.61.17.83.04.3.04.81,0,1.55,0,.3.04.52.11.67.07.18.09.41.06.67-.04.11-.06.26-.06.44l.06,1.33c0,1.07.04,1.68.11,1.83.04.04.06.18.06.44l.06.44c.04.07.06.26.06.55s-.02.44-.06.44c-.07-.04-.19.04-.33.22l-.11.22s-.02.07-.06.11c-.04.04-.09.06-.17.06s-.15-.06-.22-.17Z"/>
</svg>